<?xml version="1.0" encoding="UTF-8" standalone="no"?>
<svg
   width="6979"
   height="2515"
   xml:space="preserve"
   overflow="hidden"
   version="1.1"
   id="svg14"
   sodipodi:docname="uvm_factory_02.svg"
   inkscape:version="1.3 (0e150ed6c4, 2023-07-21)"
   xmlns:inkscape="http://www.inkscape.org/namespaces/inkscape"
   xmlns:sodipodi="http://sodipodi.sourceforge.net/DTD/sodipodi-0.dtd"
   xmlns="http://www.w3.org/2000/svg"
   xmlns:svg="http://www.w3.org/2000/svg"><defs
     id="defs14" /><sodipodi:namedview
     id="namedview14"
     pagecolor="#ffffff"
     bordercolor="#000000"
     borderopacity="0.25"
     inkscape:showpageshadow="2"
     inkscape:pageopacity="0.0"
     inkscape:pagecheckerboard="0"
     inkscape:deskcolor="#d1d1d1"
     inkscape:zoom="0.2162152"
     inkscape:cx="3424.8286"
     inkscape:cy="996.69219"
     inkscape:window-width="1920"
     inkscape:window-height="1001"
     inkscape:window-x="-9"
     inkscape:window-y="-9"
     inkscape:window-maximized="1"
     inkscape:current-layer="svg14" /><g
     transform="translate(-284 -497)"
     id="g14"><path
       id="rect1"
       style="fill:#ffffff;stroke:#ffffff;stroke-width:4.58333;stroke-miterlimit:8"
       d="m 286.5,499.5 h 6974 v 2510 h -6974 z" /><path
       d="M1590 879.248C1590 753.19 1692.19 651 1818.25 651L5761.75 651C5887.81 651 5990 753.19 5990 879.248L5990 2632.75C5990 2758.81 5887.81 2861 5761.75 2861L1818.25 2861C1692.19 2861 1590 2758.81 1590 2632.75Z"
       stroke="#000000"
       stroke-width="10.3125"
       stroke-miterlimit="8"
       fill="#FFFFFF"
       fill-rule="evenodd"
       id="path1" /><path
       d="m 50.3125,0 -0.25,-8.4375 q -5.125,5.0625 -10.4375,7.3125 -5.25,2.25 -11.0625,2.25 -5.375,0 -9.1875,-1.375 -3.8125,-1.375 -6.3125,-3.75 -2.4375,-2.4375 -3.625,-5.6875 -1.125,-3.25 -1.125,-7.0625 0,-9.4375 7,-14.75 7.0625,-5.375 20.8125,-5.375 h 13 v -5.5 q 0,-5.5625 -3.5625,-8.875 -3.5625,-3.375 -10.875,-3.375 -5.3125,0 -10.5,1.1875 -5.125,1.1875 -10.625,3.375 v -9.8125 q 2.0625,-0.75 4.5625,-1.4375 2.5625,-0.75 5.375,-1.3125 2.8125,-0.5625 5.875,-0.875 3.0625,-0.375 6.1875,-0.375 5.6875,0 10.25,1.25 4.5625,1.25 7.6875,3.8125 3.1875,2.5625 4.875,6.4375 1.6875,3.875 1.6875,9.125 V 0 Z M 49.125,-28.5625 H 35.3125 q -4.0625,0 -7,0.8125 -2.9375,0.8125 -4.8125,2.3125 -1.875,1.5 -2.8125,3.625 -0.875,2.0625 -0.875,4.6875 0,1.8125 0.5625,3.5 0.5625,1.625 1.8125,2.9375 1.25,1.25 3.25,2 2,0.75 4.875,0.75 3.75,0 8.5625,-2.25 4.875,-2.3125 10.25,-7.25 z M 134,-32.5 q 0,8.375 -2.375,14.625 -2.3125,6.25 -6.4375,10.375 -4.125,4.125 -9.75,6.1875 -5.625,2.0625 -12.1875,2.0625 -3,0 -6,-0.3125 -2.9375,-0.3125 -6,-1.0625 v 26.25 H 80.375 V -62.75 h 9.6875 l 0.6875,10.5 q 4.6875,-6.4375 10,-9 5.3125,-2.625 11.5,-2.625 5.375,0 9.4375,2.25 4.0625,2.25 6.8125,6.375 2.75,4.0625 4.125,9.875 1.375,5.75 1.375,12.875 z m -11.125,0.5 q 0,-4.9375 -0.75,-9.0625 -0.6875,-4.125 -2.25,-7.0625 -1.5625,-2.9375 -4,-4.5625 -2.4375,-1.6875 -5.8125,-1.6875 -2.0625,0 -4.1875,0.6875 -2.125,0.625 -4.4375,2.1875 -2.25,1.5 -4.8125,4.0625 -2.5,2.5 -5.375,6.25 V -10.75 q 3,1.25 6.3125,2 3.3125,0.6875 6.5,0.6875 8.8125,0 13.8125,-5.9375 5,-6 5,-18 z m 81.5,-0.5 q 0,7.8125 -2.1875,14 -2.125,6.125 -6.125,10.4375 -3.9375,4.25 -9.625,6.5625 -5.6875,2.25 -12.8125,2.25 -5.5625,0 -11.375,-1.0625 -5.8125,-1.0625 -11.5,-3.375 v -84.625 h 10.875 V -64 l -0.5,11.625 q 4.6875,-6.3125 10,-8.875 5.375,-2.625 11.5,-2.625 5.375,0 9.4375,2.25 4.0625,2.25 6.8125,6.375 2.75,4.0625 4.125,9.875 1.375,5.75 1.375,12.875 z M 193.25,-32 q 0,-4.9375 -0.75,-9.0625 -0.6875,-4.125 -2.25,-7.0625 -1.5625,-2.9375 -4,-4.5625 -2.4375,-1.6875 -5.8125,-1.6875 -2.0625,0 -4.1875,0.6875 -2.125,0.625 -4.4375,2.1875 -2.25,1.5 -4.8125,4.0625 -2.5,2.5 -5.375,6.25 V -10.75 q 3.1875,1.25 6.5,2 3.3125,0.6875 6.3125,0.6875 3.75,0 7.125,-1.1875 3.4375,-1.1875 6,-3.9375 2.625,-2.8125 4.125,-7.375 Q 193.25,-25.1875 193.25,-32 Z m 88.25,57.625 h -70.375 v -9 H 281.5 Z m 60.5625,-26.5 q -3.6875,0.9375 -7.625,1.3125 -3.9375,0.4375 -8,0.4375 -11.8125,0 -17.625,-5.3125 Q 303,-9.8125 303,-20.875 v -32.75 H 285.4375 V -62.75 H 303 V -80 l 10.875,-2.8125 V -62.75 h 28.1875 v 9.125 H 313.875 v 31.875 q 0,6.75 3.5625,10.125 3.625,3.3125 10.625,3.3125 3,0 6.5625,-0.4375 3.5625,-0.5 7.4375,-1.5 z m 72.8125,-33.8125 q 0,2.3125 -0.0625,3.875 -0.0625,1.5625 -0.1875,2.9375 h -44.0625 q 0,9.625 5.375,14.8125 5.375,5.125 15.5,5.125 2.75,0 5.5,-0.1875 2.75,-0.25 5.3125,-0.625 2.5625,-0.375 4.875,-0.8125 2.375,-0.5 4.375,-1.0625 v 8.9375 q -4.4375,1.25 -10.0625,2 -5.5625,0.8125 -11.5625,0.8125 -8.0625,0 -13.875,-2.1875 -5.8125,-2.1875 -9.5625,-6.3125 -3.6875,-4.1875 -5.5,-10.1875 -1.75,-6.0625 -1.75,-13.6875 0,-6.625 1.875,-12.5 1.9375,-5.9375 5.5625,-10.375 3.6875,-4.5 9,-7.125 5.3125,-2.625 12.0625,-2.625 6.5625,0 11.625,2.0625 5.0625,2.0625 8.5,5.875 3.5,3.75 5.25,9.1875 1.8125,5.375 1.8125,12.0625 z M 403.5625,-36.25 q 0.1875,-4.1875 -0.8125,-7.625 -1,-3.5 -3.125,-6 -2.0625,-2.5 -5.1875,-3.875 -3.125,-1.4375 -7.25,-1.4375 -3.5625,0 -6.5,1.375 -2.9375,1.375 -5.0625,3.875 -2.125,2.5 -3.4375,6 -1.3125,3.5 -1.625,7.6875 z m 78.375,19.125 q 0,3.3125 -1.125,5.9375 -1.125,2.625 -3.0625,4.6875 -1.9375,2 -4.5,3.4375 -2.5625,1.4375 -5.5,2.375 -2.875,0.9375 -5.9375,1.375 -3.0625,0.4375 -6,0.4375 -6.375,0 -11.75,-0.5625 Q 438.75,0 433.625,-1.25 v -10 q 5.5,1.5625 10.9375,2.375 5.4375,0.8125 10.8125,0.8125 7.8125,0 11.5625,-2.125 3.75,-2.125 3.75,-6.0625 0,-1.6875 -0.625,-3 -0.5625,-1.375 -2.125,-2.5625 -1.5625,-1.25 -4.875,-2.5625 -3.25,-1.3125 -8.9375,-3 -4.25,-1.25 -7.875,-2.8125 -3.5625,-1.625 -6.1875,-3.8125 -2.625,-2.1875 -4.125,-5.125 -1.5,-2.9375 -1.5,-6.9375 0,-2.625 1.1875,-5.75 1.25,-3.125 4.1875,-5.8125 2.9375,-2.6875 7.9375,-4.4375 5,-1.8125 12.5,-1.8125 3.6875,0 8.1875,0.4375 4.5,0.375 9.375,1.375 v 9.6875 q -5.125,-1.25 -9.75,-1.8125 -4.5625,-0.625 -7.9375,-0.625 -4.0625,0 -6.875,0.625 -2.75,0.625 -4.5,1.75 -1.6875,1.0625 -2.4375,2.5625 -0.75,1.4375 -0.75,3.125 0,1.6875 0.625,3.0625 0.6875,1.375 2.4375,2.6875 1.8125,1.25 5,2.5625 3.1875,1.25 8.3125,2.75 5.5625,1.625 9.375,3.4375 3.8125,1.75 6.1875,3.9375 2.375,2.1875 3.375,4.9375 1.0625,2.75 1.0625,6.25 z m 71.25,16.25 q -3.6875,0.9375 -7.625,1.3125 -3.9375,0.4375 -8,0.4375 -11.8125,0 -17.625,-5.3125 -5.8125,-5.375 -5.8125,-16.4375 v -32.75 H 496.5625 V -62.75 H 514.125 V -80 L 525,-82.8125 V -62.75 h 28.1875 v 9.125 H 525 v 31.875 q 0,6.75 3.5625,10.125 3.625,3.3125 10.625,3.3125 3,0 6.5625,-0.4375 3.5625,-0.5 7.4375,-1.5 z"
       id="text1"
       style="font-size:128px;font-family:Consolas, Consolas_MSFontService, sans-serif;fill:#0000ff"
       transform="matrix(1 0 0 1 3359.15 841)"
       aria-label="apb_test" /><path
       d="M 60.5625,-0.875 Q 56.875,0.0625 52.9375,0.4375 49,0.875 44.9375,0.875 33.125,0.875 27.3125,-4.4375 21.5,-9.8125 21.5,-20.875 v -32.75 H 3.9375 V -62.75 H 21.5 V -80 l 10.875,-2.8125 V -62.75 h 28.1875 v 9.125 H 32.375 v 31.875 q 0,6.75 3.5625,10.125 3.625,3.3125 10.625,3.3125 3,0 6.5625,-0.4375 3.5625,-0.5 7.4375,-1.5 z m 72.8125,-33.8125 q 0,2.3125 -0.0625,3.875 -0.0625,1.5625 -0.1875,2.9375 H 89.0625 q 0,9.625 5.375,14.8125 5.375,5.125 15.5,5.125 2.75,0 5.5,-0.1875 2.75,-0.25 5.3125,-0.625 2.5625,-0.375 4.875,-0.8125 2.375,-0.5 4.375,-1.0625 v 8.9375 q -4.4375,1.25 -10.0625,2 -5.5625,0.8125 -11.5625,0.8125 -8.0625,0 -13.875,-2.1875 -5.8125,-2.1875 -9.5625,-6.3125 -3.6875,-4.1875 -5.5,-10.1875 -1.75,-6.0625 -1.75,-13.6875 0,-6.625 1.875,-12.5 1.9375,-5.9375 5.5625,-10.375 3.6875,-4.5 9,-7.125 5.3125,-2.625 12.0625,-2.625 6.5625,0 11.625,2.0625 5.0625,2.0625 8.5,5.875 3.5,3.75 5.25,9.1875 1.8125,5.375 1.8125,12.0625 z M 122.0625,-36.25 q 0.1875,-4.1875 -0.8125,-7.625 -1,-3.5 -3.125,-6 -2.0625,-2.5 -5.1875,-3.875 -3.125,-1.4375 -7.25,-1.4375 -3.5625,0 -6.5,1.375 -2.9375,1.375 -5.0625,3.875 -2.125,2.5 -3.4375,6 -1.3125,3.5 -1.625,7.6875 z m 78.375,19.125 q 0,3.3125 -1.125,5.9375 -1.125,2.625 -3.0625,4.6875 -1.9375,2 -4.5,3.4375 -2.5625,1.4375 -5.5,2.375 -2.875,0.9375 -5.9375,1.375 -3.0625,0.4375 -6,0.4375 -6.375,0 -11.75,-0.5625 Q 157.25,0 152.125,-1.25 v -10 q 5.5,1.5625 10.9375,2.375 5.4375,0.8125 10.8125,0.8125 7.8125,0 11.5625,-2.125 3.75,-2.125 3.75,-6.0625 0,-1.6875 -0.625,-3 -0.5625,-1.375 -2.125,-2.5625 -1.5625,-1.25 -4.875,-2.5625 -3.25,-1.3125 -8.9375,-3 -4.25,-1.25 -7.875,-2.8125 -3.5625,-1.625 -6.1875,-3.8125 -2.625,-2.1875 -4.125,-5.125 -1.5,-2.9375 -1.5,-6.9375 0,-2.625 1.1875,-5.75 1.25,-3.125 4.1875,-5.8125 2.9375,-2.6875 7.9375,-4.4375 5,-1.8125 12.5,-1.8125 3.6875,0 8.1875,0.4375 4.5,0.375 9.375,1.375 v 9.6875 q -5.125,-1.25 -9.75,-1.8125 -4.5625,-0.625 -7.9375,-0.625 -4.0625,0 -6.875,0.625 -2.75,0.625 -4.5,1.75 -1.6875,1.0625 -2.4375,2.5625 -0.75,1.4375 -0.75,3.125 0,1.6875 0.625,3.0625 0.6875,1.375 2.4375,2.6875 1.8125,1.25 5,2.5625 3.1875,1.25 8.3125,2.75 5.5625,1.625 9.375,3.4375 3.8125,1.75 6.1875,3.9375 2.375,2.1875 3.375,4.9375 1.0625,2.75 1.0625,6.25 z m 71.25,16.25 q -3.6875,0.9375 -7.625,1.3125 -3.9375,0.4375 -8,0.4375 -11.8125,0 -17.625,-5.3125 -5.8125,-5.375 -5.8125,-16.4375 v -32.75 H 215.0625 V -62.75 H 232.625 V -80 L 243.5,-82.8125 V -62.75 h 28.1875 v 9.125 H 243.5 v 31.875 q 0,6.75 3.5625,10.125 3.625,3.3125 10.625,3.3125 3,0 6.5625,-0.4375 3.5625,-0.5 7.4375,-1.5 z"
       id="text2"
       style="font-size:128px;font-family:Consolas, Consolas_MSFontService, sans-serif;fill:#001080"
       transform="matrix(1 0 0 1 3993.37 841)"
       aria-label="test" /><path
       d="M2724.5 1096.47C2724.5 1029.11 2779.11 974.5 2846.47 974.5L4759.53 974.5C4826.89 974.5 4881.5 1029.11 4881.5 1096.47L4881.5 1639.53C4881.5 1706.89 4826.89 1761.5 4759.53 1761.5L2846.47 1761.5C2779.11 1761.5 2724.5 1706.89 2724.5 1639.53Z"
       stroke="#000000"
       stroke-width="6.875"
       stroke-miterlimit="8"
       fill="#FFFFFF"
       fill-rule="evenodd"
       id="path2" /><path
       d="m 43.237305,0 -0.214844,-7.2509766 q -4.404297,4.350586 -8.969727,6.28417972 -4.511718,1.93359376 -9.506836,1.93359376 -4.61914,0 -7.895507,-1.18164063 Q 13.374023,-1.3964844 11.225586,-3.4375 9.1308594,-5.5322266 8.1103516,-8.3251953 7.1435547,-11.118164 7.1435547,-14.394531 q 0,-8.110352 6.0156253,-12.675781 6.069336,-4.619141 17.885742,-4.619141 h 11.171875 v -4.726563 q 0,-4.780273 -3.061524,-7.626953 -3.061523,-2.90039 -9.345703,-2.90039 -4.565429,0 -9.023437,1.020507 -4.404297,1.020508 -9.13086,2.900391 v -8.432617 q 1.772461,-0.644531 3.920899,-1.235352 2.202148,-0.644531 4.61914,-1.127929 2.416993,-0.483399 5.048829,-0.751953 2.631836,-0.322266 5.317382,-0.322266 4.887696,0 8.808594,1.074219 3.920899,1.074218 6.606445,3.276367 2.739258,2.202148 4.189454,5.532226 1.450195,3.330079 1.450195,7.841797 V 0 Z M 42.216797,-24.545898 H 30.34668 q -3.491211,0 -6.015625,0.698242 -2.524414,0.698242 -4.135743,1.987304 -1.611328,1.289063 -2.416992,3.115235 -0.751953,1.772461 -0.751953,4.02832 0,1.557617 0.483399,3.007813 0.483398,1.396484 1.557617,2.5244137 1.074219,1.0742187 2.792969,1.71875 1.71875,0.6445312 4.189453,0.6445312 3.222656,0 7.358398,-1.9335937 4.189453,-1.9873052 8.808594,-6.2304692 z m 72.939453,-3.383789 q 0,7.197265 -2.04102,12.568359 -1.9873,5.3710936 -5.53222,8.9160155 -3.54492,3.5449219 -8.378908,5.3173828 -4.833985,1.77246095 -10.473633,1.77246095 -2.578125,0 -5.15625,-0.26855469 -2.524414,-0.26855469 -5.15625,-0.91308593 V 22.021484 h -9.345703 v -75.947265 h 8.325195 l 0.59082,9.023437 q 4.028321,-5.532226 8.59375,-7.734375 4.56543,-2.255859 9.882813,-2.255859 4.619136,0 8.110356,1.933594 3.49121,1.933593 5.85449,5.478515 2.36328,3.491211 3.54492,8.486328 1.18164,4.941407 1.18164,11.064454 z M 105.5957,-27.5 q 0,-4.243164 -0.64453,-7.788086 -0.59082,-3.544922 -1.93359,-6.069336 -1.34278,-2.524414 -3.437502,-3.920898 -2.094726,-1.450196 -4.995117,-1.450196 -1.772461,0 -3.598633,0.590821 -1.826172,0.537109 -3.813476,1.879883 -1.933594,1.289062 -4.135743,3.49121 -2.148437,2.148438 -4.61914,5.371094 v 26.1572267 q 2.578125,1.0742188 5.424804,1.7187501 2.84668,0.5908203 5.585938,0.5908203 7.573242,0 11.870119,-5.1025391 4.29687,-5.15625 4.29687,-15.46875 z m 70.03907,-0.429687 q 0,6.713867 -1.87989,12.031249 -1.82617,5.263672 -5.26367,8.9697271 -3.38379,3.6523437 -8.27148,5.6396484 -4.8877,1.93359375 -11.01075,1.93359375 -4.78027,0 -9.77539,-0.91308594 -4.99511,-0.91308591 -9.88281,-2.90039061 V -75.893555 h 9.3457 V -55 l -0.42968,9.990234 q 4.02832,-5.424804 8.59375,-7.626953 4.61914,-2.255859 9.88281,-2.255859 4.61914,0 8.11035,1.933594 3.49121,1.933593 5.85449,5.478515 2.36328,3.491211 3.54492,8.486328 1.18165,4.941407 1.18165,11.064454 z M 166.07422,-27.5 q 0,-4.243164 -0.64453,-7.788086 -0.59082,-3.544922 -1.9336,-6.069336 -1.34277,-2.524414 -3.4375,-3.920898 -2.09472,-1.450196 -4.99511,-1.450196 -1.77246,0 -3.59864,0.590821 -1.82617,0.537109 -3.81347,1.879883 -1.9336,1.289062 -4.13575,3.49121 -2.14843,2.148438 -4.61914,5.371094 v 26.1572267 q 2.73926,1.0742188 5.58594,1.7187501 2.84668,0.5908203 5.42481,0.5908203 3.22265,0 6.12304,-1.0205078 2.9541,-1.0205079 5.15625,-3.3837893 2.25586,-2.416992 3.54493,-6.33789 1.34277,-3.97461 1.34277,-9.829102 z m 75.83984,49.521484 h -60.47851 v -7.734375 h 60.47851 z M 285.15137,0 284.93652,-7.2509766 q -4.40429,4.350586 -8.96972,6.28417972 -4.51172,1.93359376 -9.50684,1.93359376 -4.61914,0 -7.89551,-1.18164063 -3.27636,-1.18164065 -5.4248,-3.22265625 -2.09473,-2.0947266 -3.11524,-4.8876953 -0.96679,-2.7929687 -0.96679,-6.0693357 0,-8.110352 6.01562,-12.675781 6.06934,-4.619141 17.88574,-4.619141 h 11.17188 v -4.726563 q 0,-4.780273 -3.06152,-7.626953 -3.06153,-2.90039 -9.34571,-2.90039 -4.56543,0 -9.02343,1.020507 -4.4043,1.020508 -9.13086,2.900391 v -8.432617 q 1.77246,-0.644531 3.92089,-1.235352 2.20215,-0.644531 4.61914,-1.127929 2.417,-0.483399 5.04883,-0.751953 2.63184,-0.322266 5.31739,-0.322266 4.88769,0 8.80859,1.074219 3.9209,1.074218 6.60644,3.276367 2.73926,2.202148 4.18946,5.532226 1.45019,3.330079 1.45019,7.841797 V 0 Z m -1.02051,-24.545898 h -11.87012 q -3.49121,0 -6.01562,0.698242 -2.52442,0.698242 -4.13575,1.987304 -1.61132,1.289063 -2.41699,3.115235 -0.75195,1.772461 -0.75195,4.02832 0,1.557617 0.4834,3.007813 0.4834,1.396484 1.55762,2.5244137 1.07421,1.0742187 2.79296,1.71875 1.71875,0.6445312 4.18946,0.6445312 3.22265,0 7.3584,-1.9335937 4.18945,-1.9873052 8.80859,-6.2304692 z m 65.68848,-21.75293 q 1.5039,1.879883 2.30957,4.404297 0.85937,2.470703 0.85937,5.371094 0,4.189453 -1.55762,7.680664 -1.5039,3.4375 -4.29687,5.908203 -2.79297,2.470703 -6.71387,3.867187 -3.86719,1.342774 -8.54004,1.342774 -3.38379,0 -6.33789,-0.698243 -2.9541,-0.751953 -4.67285,-1.826171 -1.02051,1.503906 -1.71875,2.846679 -0.69824,1.342774 -0.69824,3.007813 0,2.041015 1.93359,3.383789 1.98731,1.3427732 5.20996,1.4501951 l 14.17969,0.5371094 q 4.02832,0.1074219 7.41211,1.0205078 3.4375,0.913086 5.85449,2.631836 2.47071,1.7187499 3.81348,4.243164 1.39648,2.5244141 1.39648,5.8544922 0,3.5986328 -1.55761,6.8212895 -1.55762,3.222656 -4.83399,5.639648 -3.22265,2.470703 -8.21777,3.920898 -4.99512,1.450196 -11.87012,1.450196 -6.55273,0 -11.17187,-1.074219 -4.56543,-1.020508 -7.51954,-2.900391 -2.9541,-1.826172 -4.29687,-4.404296 -1.34277,-2.524415 -1.34277,-5.585938 0,-3.9208984 1.82617,-6.875 1.82617,-2.9541016 5.63965,-5.6933594 -1.39649,-0.6445312 -2.417,-1.6113281 -1.0205,-0.9667969 -1.66503,-2.0947266 -0.64454,-1.1816406 -0.9668,-2.4707029 -0.32227,-1.289063 -0.32227,-2.524414 0,-3.491211 1.61133,-6.391602 1.66504,-2.90039 3.9209,-5.478515 -1.02051,-1.235352 -1.82617,-2.416993 -0.75196,-1.18164 -1.34278,-2.524414 -0.53711,-1.396484 -0.85937,-2.954101 -0.26856,-1.611328 -0.26856,-3.652344 0,-4.189453 1.50391,-7.626953 1.55762,-3.491211 4.29688,-5.961914 2.79296,-2.470703 6.66015,-3.813477 3.9209,-1.396484 8.64746,-1.396484 1.98731,0 3.81348,0.268555 1.82617,0.268554 3.22266,0.698242 h 19.55078 v 7.626953 z M 317.37793,7.7880859 q 0,3.8134771 3.97461,5.5322271 3.97461,1.77246 11.06445,1.77246 4.45801,0 7.46582,-0.805664 3.06153,-0.805664 4.8877,-2.148437 1.87988,-1.289063 2.68554,-3.0078126 0.80567,-1.6650391 0.80567,-3.4375 0,-3.2763672 -2.68555,-4.8339844 -2.68555,-1.55761719 -8.21777,-1.82617188 L 323.28613,-1.4501953 q -1.77246,1.18164061 -2.9541,2.3095703 -1.12793,1.1279297 -1.77246,2.2558594 -0.64453,1.1816406 -0.91309,2.3095703 -0.26855,1.1816406 -0.26855,2.3632812 z m 2.84668,-44.0966799 q 0,2.578125 0.85937,4.726563 0.85938,2.148437 2.417,3.652344 1.55761,1.503906 3.65234,2.363281 2.14844,0.805664 4.72656,0.805664 2.79297,0 4.94141,-0.913086 2.20215,-0.966797 3.65234,-2.578125 1.50391,-1.611328 2.25586,-3.706055 0.80567,-2.094726 0.80567,-4.350586 0,-2.578125 -0.85938,-4.726562 -0.85937,-2.148438 -2.41699,-3.652344 -1.55762,-1.503906 -3.70606,-2.30957 -2.09472,-0.859375 -4.67285,-0.859375 -2.79297,0 -4.99511,0.966797 -2.14844,0.966796 -3.65235,2.578125 -1.45019,1.557617 -2.25586,3.652343 -0.75195,2.094727 -0.75195,4.350586 z m 96.78711,6.499024 q 0,1.987304 -0.0537,3.330078 -0.0537,1.342773 -0.16114,2.524414 h -37.86621 q 0,8.271484 4.61914,12.729492 4.61915,4.4042969 13.32032,4.4042969 2.36328,0 4.72656,-0.1611328 2.36328,-0.2148437 4.56543,-0.5371093 2.20215,-0.3222657 4.18945,-0.6982422 2.04102,-0.4296875 3.75977,-0.913086 v 7.6806641 q -3.81348,1.07421874 -8.64746,1.71874999 -4.78028,0.69824219 -9.93653,0.69824219 -6.92871,0 -11.92382,-1.87988282 -4.99512,-1.87988286 -8.21778,-5.42480466 -3.16894,-3.5986328 -4.72656,-8.7548824 -1.50391,-5.209961 -1.50391,-11.762696 0,-5.693359 1.61133,-10.742187 1.66504,-5.102539 4.78027,-8.916016 3.16895,-3.867187 7.73438,-6.123047 4.56543,-2.255859 10.36621,-2.255859 5.63965,0 9.99024,1.772461 4.35058,1.772461 7.30468,5.048828 3.00782,3.222656 4.51172,7.895508 1.55762,4.61914 1.55762,10.366211 z m -9.72168,-1.342774 q 0.16113,-3.598633 -0.69824,-6.552734 -0.85938,-3.007813 -2.68555,-5.15625 -1.77246,-2.148438 -4.45801,-3.330078 -2.68554,-1.235352 -6.23047,-1.235352 -3.06152,0 -5.58593,1.181641 -2.52442,1.18164 -4.35059,3.330078 -1.82617,2.148437 -2.9541,5.15625 -1.12793,3.007812 -1.39649,6.606445 z m 24.65332,-22.773437 h 8.32519 l 0.37598,8.701172 q 2.36328,-2.792969 4.56543,-4.619141 2.20215,-1.879883 4.29688,-3.007812 2.14843,-1.12793 4.35058,-1.557618 2.20215,-0.483398 4.56543,-0.483398 8.3252,0 12.56836,4.941406 4.29688,4.887695 4.29688,14.770508 V 0 h -9.34571 v -34.428711 q 0,-6.337891 -2.36328,-9.345703 -2.36328,-3.061523 -7.03613,-3.061523 -1.71875,0 -3.38379,0.537109 -1.61133,0.483398 -3.38379,1.772461 -1.77246,1.235351 -3.86719,3.383789 -2.04101,2.148437 -4.61914,5.371094 V 0 h -9.3457 z m 103.93066,53.17382788 q -3.16894,0.80566406 -6.55273,1.12792968 -3.38379,0.37597656 -6.875,0.37597656 -10.15137,0 -15.14649,-4.56542972 -4.99511,-4.6191406 -4.99511,-14.1259764 v -28.144531 h -15.09278 v -7.841797 h 15.09278 V -68.75 l 9.3457,-2.416992 v 17.241211 h 24.22363 v 7.841797 h -24.22363 v 27.392578 q 0,5.800781 3.06152,8.7011716 3.11524,2.8466797 9.13086,2.8466797 2.57813,0 5.63965,-0.3759765 3.06153,-0.4296875 6.3916,-1.2890626 z"
       id="text3"
       style="font-size:110px;font-family:Consolas, Consolas_MSFontService, sans-serif;fill:#0000ff"
       transform="matrix(1 0 0 1 3240.27 1152)"
       aria-label="apb_agent" /><path
       d="m 43.237305,0 -0.214844,-7.2509766 q -4.404297,4.350586 -8.969727,6.28417972 -4.511718,1.93359376 -9.506836,1.93359376 -4.61914,0 -7.895507,-1.18164063 Q 13.374023,-1.3964844 11.225586,-3.4375 9.1308594,-5.5322266 8.1103516,-8.3251953 7.1435547,-11.118164 7.1435547,-14.394531 q 0,-8.110352 6.0156253,-12.675781 6.069336,-4.619141 17.885742,-4.619141 h 11.171875 v -4.726563 q 0,-4.780273 -3.061524,-7.626953 -3.061523,-2.90039 -9.345703,-2.90039 -4.565429,0 -9.023437,1.020507 -4.404297,1.020508 -9.13086,2.900391 v -8.432617 q 1.772461,-0.644531 3.920899,-1.235352 2.202148,-0.644531 4.61914,-1.127929 2.416993,-0.483399 5.048829,-0.751953 2.631836,-0.322266 5.317382,-0.322266 4.887696,0 8.808594,1.074219 3.920899,1.074218 6.606445,3.276367 2.739258,2.202148 4.189454,5.532226 1.450195,3.330079 1.450195,7.841797 V 0 Z M 42.216797,-24.545898 H 30.34668 q -3.491211,0 -6.015625,0.698242 -2.524414,0.698242 -4.135743,1.987304 -1.611328,1.289063 -2.416992,3.115235 -0.751953,1.772461 -0.751953,4.02832 0,1.557617 0.483399,3.007813 0.483398,1.396484 1.557617,2.5244137 1.074219,1.0742187 2.792969,1.71875 1.71875,0.6445312 4.189453,0.6445312 3.222656,0 7.358398,-1.9335937 4.189453,-1.9873052 8.808594,-6.2304692 z m 65.688473,-21.75293 q 1.50391,1.879883 2.30957,4.404297 0.85938,2.470703 0.85938,5.371094 0,4.189453 -1.55762,7.680664 -1.5039,3.4375 -4.29687,5.908203 -2.79297,2.470703 -6.713871,3.867187 -3.867187,1.342774 -8.540039,1.342774 -3.383789,0 -6.33789,-0.698243 -2.954102,-0.751953 -4.672852,-1.826171 -1.020508,1.503906 -1.71875,2.846679 -0.698242,1.342774 -0.698242,3.007813 0,2.041015 1.933594,3.383789 1.987304,1.3427732 5.209961,1.4501951 l 14.179687,0.5371094 q 4.028322,0.1074219 7.412112,1.0205078 3.4375,0.913086 5.85449,2.631836 2.4707,1.7187499 3.81348,4.243164 1.39648,2.5244141 1.39648,5.8544922 0,3.5986328 -1.55762,6.8212895 -1.55761,3.222656 -4.83398,5.639648 -3.22266,2.470703 -8.21777,3.920898 -4.995122,1.450196 -11.870122,1.450196 -6.552734,0 -11.171875,-1.074219 -4.565429,-1.020508 -7.519531,-2.900391 -2.954101,-1.826172 -4.296875,-4.404296 -1.342773,-2.524415 -1.342773,-5.585938 0,-3.9208984 1.826172,-6.875 1.826171,-2.9541016 5.639648,-5.6933594 -1.396484,-0.6445312 -2.416992,-1.6113281 -1.020508,-0.9667969 -1.665039,-2.0947266 -0.644531,-1.1816406 -0.966797,-2.4707029 -0.322266,-1.289063 -0.322266,-2.524414 0,-3.491211 1.611328,-6.391602 1.665039,-2.90039 3.920899,-5.478515 -1.020508,-1.235352 -1.826172,-2.416993 -0.751953,-1.18164 -1.342773,-2.524414 -0.53711,-1.396484 -0.859375,-2.954101 -0.268555,-1.611328 -0.268555,-3.652344 0,-4.189453 1.503906,-7.626953 1.557617,-3.491211 4.296875,-5.961914 2.792969,-2.470703 6.660156,-3.813477 3.920899,-1.396484 8.647461,-1.396484 1.987305,0 3.813477,0.268555 1.826172,0.268554 3.222656,0.698242 h 19.550777 v 7.626953 z M 75.463867,7.7880859 q 0,3.8134771 3.97461,5.5322271 3.974609,1.77246 11.064453,1.77246 4.458007,0 7.46582,-0.805664 3.06152,-0.805664 4.8877,-2.148437 1.87988,-1.289063 2.68554,-3.0078126 0.80567,-1.6650391 0.80567,-3.4375 0,-3.2763672 -2.68555,-4.8339844 -2.68555,-1.55761719 -8.217774,-1.82617188 L 81.37207,-1.4501953 q -1.772461,1.18164061 -2.954101,2.3095703 -1.12793,1.1279297 -1.772461,2.2558594 -0.644531,1.1816406 -0.913086,2.3095703 -0.268555,1.1816406 -0.268555,2.3632812 z m 2.84668,-44.0966799 q 0,2.578125 0.859375,4.726563 0.859375,2.148437 2.416992,3.652344 1.557617,1.503906 3.652344,2.363281 2.148437,0.805664 4.726562,0.805664 2.792969,0 4.941407,-0.913086 2.202148,-0.966797 3.652343,-2.578125 1.50391,-1.611328 2.25586,-3.706055 0.80566,-2.094726 0.80566,-4.350586 0,-2.578125 -0.85937,-4.726562 -0.859376,-2.148438 -2.416993,-3.652344 -1.557618,-1.503906 -3.706055,-2.30957 -2.094727,-0.859375 -4.672852,-0.859375 -2.792968,0 -4.995117,0.966797 -2.148437,0.966796 -3.652344,2.578125 -1.450195,1.557617 -2.255859,3.652343 -0.751953,2.094727 -0.751953,4.350586 z M 181.43555,22.021484 h -60.47852 v -7.734375 h 60.47852 z M 228.48633,0 v -38.725586 q 0,-2.524414 -0.21485,-4.135742 -0.16113,-1.611328 -0.59082,-2.524414 -0.37597,-0.966797 -1.0205,-1.342774 -0.59082,-0.375976 -1.50391,-0.375976 -1.07422,0 -1.9873,0.644531 -0.91309,0.644531 -1.98731,2.094727 -1.02051,1.450195 -2.30957,3.867187 -1.23535,2.363281 -2.9541,5.854492 V 0 h -8.54004 v -37.705078 q 0,-2.954102 -0.21484,-4.780274 -0.16114,-1.826171 -0.59082,-2.846679 -0.37598,-1.020508 -1.02051,-1.396485 -0.64453,-0.375976 -1.55762,-0.375976 -0.9668,0 -1.82617,0.537109 -0.85938,0.53711 -1.9336,1.933594 -1.0205,1.396484 -2.30957,3.813477 -1.28906,2.416992 -3.06152,6.176757 V 0 h -8.59375 v -53.925781 h 7.14356 l 0.42968,10.258789 q 1.39649,-3.061524 2.68555,-5.209961 1.34277,-2.148438 2.73926,-3.4375 1.39648,-1.342774 2.9541,-1.933594 1.61133,-0.644531 3.54492,-0.644531 4.35059,0 6.60645,2.84668 2.25586,2.846679 2.25586,8.808593 1.28906,-2.792968 2.52441,-4.941406 1.23535,-2.202148 2.63184,-3.652344 1.45019,-1.503906 3.16894,-2.255859 1.71875,-0.805664 3.97461,-0.805664 10.15137,0 10.15137,15.629883 V 0 Z m 56.66504,0 -0.21485,-7.2509766 q -4.40429,4.350586 -8.96972,6.28417972 -4.51172,1.93359376 -9.50684,1.93359376 -4.61914,0 -7.89551,-1.18164063 -3.27636,-1.18164065 -5.4248,-3.22265625 -2.09473,-2.0947266 -3.11524,-4.8876953 -0.96679,-2.7929687 -0.96679,-6.0693357 0,-8.110352 6.01562,-12.675781 6.06934,-4.619141 17.88574,-4.619141 h 11.17188 v -4.726563 q 0,-4.780273 -3.06152,-7.626953 -3.06153,-2.90039 -9.34571,-2.90039 -4.56543,0 -9.02343,1.020507 -4.4043,1.020508 -9.13086,2.900391 v -8.432617 q 1.77246,-0.644531 3.92089,-1.235352 2.20215,-0.644531 4.61914,-1.127929 2.417,-0.483399 5.04883,-0.751953 2.63184,-0.322266 5.31739,-0.322266 4.88769,0 8.80859,1.074219 3.9209,1.074218 6.60644,3.276367 2.73926,2.202148 4.18946,5.532226 1.45019,3.330079 1.45019,7.841797 V 0 Z m -1.02051,-24.545898 h -11.87012 q -3.49121,0 -6.01562,0.698242 -2.52442,0.698242 -4.13575,1.987304 -1.61132,1.289063 -2.41699,3.115235 -0.75195,1.772461 -0.75195,4.02832 0,1.557617 0.4834,3.007813 0.4834,1.396484 1.55762,2.5244137 1.07421,1.0742187 2.79296,1.71875 1.71875,0.6445312 4.18946,0.6445312 3.22265,0 7.3584,-1.9335937 4.18945,-1.9873052 8.80859,-6.2304692 z m 69.55566,9.829101 q 0,2.84668 -0.96679,5.1025392 -0.9668,2.2558594 -2.63184,4.0283203 -1.66504,1.71875 -3.86719,2.9541016 -2.20215,1.2353515 -4.72656,2.04101559 -2.4707,0.80566406 -5.10254,1.18164062 -2.63183,0.37597657 -5.15625,0.37597657 -5.47851,0 -10.09765,-0.48339844 Q 316.57227,0 312.16797,-1.0742187 v -8.5937501 q 4.72656,1.3427735 9.39941,2.0410157 4.67285,0.6982422 9.29199,0.6982422 6.71387,0 9.93653,-1.8261719 3.22265,-1.8261722 3.22265,-5.2099612 0,-1.450195 -0.5371,-2.578125 -0.4834,-1.18164 -1.82618,-2.202148 -1.34277,-1.074219 -4.18945,-2.202149 -2.79297,-1.127929 -7.68066,-2.578125 -3.65235,-1.074218 -6.76758,-2.416992 -3.06153,-1.396484 -5.31738,-3.276367 -2.25586,-1.879883 -3.54493,-4.404297 -1.28906,-2.524414 -1.28906,-5.961914 0,-2.255859 1.02051,-4.941406 1.07422,-2.685547 3.59863,-4.995117 2.52442,-2.309571 6.82129,-3.813477 4.29688,-1.557617 10.74219,-1.557617 3.16894,0 7.03613,0.375976 3.86719,0.322266 8.05664,1.181641 v 8.325195 q -4.4043,-1.074218 -8.3789,-1.557617 -3.9209,-0.537109 -6.82129,-0.537109 -3.49121,0 -5.90821,0.537109 -2.36328,0.53711 -3.86718,1.503906 -1.4502,0.913086 -2.09473,2.202149 -0.64453,1.235351 -0.64453,2.685547 0,1.450195 0.53711,2.631836 0.59082,1.18164 2.09472,2.30957 1.55762,1.074219 4.29688,2.202148 2.73926,1.074219 7.14355,2.363282 4.78028,1.396484 8.05664,2.954101 3.27637,1.503907 5.31739,3.383789 2.04101,1.879883 2.90039,4.243164 0.91308,2.363282 0.91308,5.371094 z m 61.23047,13.96484388 q -3.16894,0.80566406 -6.55273,1.12792968 -3.38379,0.37597656 -6.875,0.37597656 -10.15137,0 -15.14649,-4.56542972 -4.99511,-4.6191406 -4.99511,-14.1259764 v -28.144531 h -15.09278 v -7.841797 h 15.09278 V -68.75 l 9.3457,-2.416992 v 17.241211 h 24.22363 v 7.841797 h -24.22363 v 27.392578 q 0,5.800781 3.06152,8.7011716 3.11524,2.8466797 9.13086,2.8466797 2.57813,0 5.63965,-0.3759765 3.06152,-0.4296875 6.3916,-1.2890626 z M 477.49023,-29.80957 q 0,1.987304 -0.0537,3.330078 -0.0537,1.342773 -0.16113,2.524414 h -37.86621 q 0,8.271484 4.61914,12.729492 4.61914,4.4042969 13.32031,4.4042969 2.36328,0 4.72657,-0.1611328 2.36328,-0.2148437 4.56542,-0.5371093 2.20215,-0.3222657 4.18946,-0.6982422 2.04101,-0.4296875 3.75976,-0.913086 v 7.6806641 q -3.81347,1.07421874 -8.64746,1.71874999 -4.78027,0.69824219 -9.93652,0.69824219 -6.92871,0 -11.92383,-1.87988282 -4.99512,-1.87988286 -8.21777,-5.42480466 -3.16895,-3.5986328 -4.72656,-8.7548824 -1.50391,-5.209961 -1.50391,-11.762696 0,-5.693359 1.61133,-10.742187 1.66504,-5.102539 4.78027,-8.916016 3.16895,-3.867187 7.73438,-6.123047 4.56543,-2.255859 10.36621,-2.255859 5.63964,0 9.99023,1.772461 4.35059,1.772461 7.30469,5.048828 3.00781,3.222656 4.51172,7.895508 1.55761,4.61914 1.55761,10.366211 z m -9.72168,-1.342774 q 0.16114,-3.598633 -0.69824,-6.552734 -0.85937,-3.007813 -2.68554,-5.15625 -1.77247,-2.148438 -4.45801,-3.330078 -2.68555,-1.235352 -6.23047,-1.235352 -3.06152,0 -5.58594,1.181641 -2.52441,1.18164 -4.35058,3.330078 -1.82618,2.148437 -2.95411,5.15625 -1.12793,3.007812 -1.39648,6.606445 z m 26.85547,-22.773437 h 8.54004 l 0.26856,9.936523 q 4.78027,-5.74707 9.39941,-8.325195 4.67285,-2.578125 9.39942,-2.578125 8.3789,0 12.67578,5.424805 4.35058,5.424804 4.02832,16.113281 h -9.45313 q 0.16113,-7.089844 -2.09472,-10.258789 -2.20215,-3.222656 -6.49903,-3.222656 -1.87988,0 -3.81347,0.698242 -1.87989,0.644531 -3.9209,2.148437 -1.98731,1.450196 -4.24317,3.759766 -2.25586,2.30957 -4.83398,5.585937 V 0 h -9.45313 z"
       id="text4"
       style="font-size:110px;font-family:Consolas, Consolas_MSFontService, sans-serif;fill:#001080"
       transform="matrix(1 0 0 1 3847.56 1152)"
       aria-label="ag_master" /><path
       d="M2882.5 1294.06C2882.5 1281.05 2893.05 1270.5 2906.06 1270.5L4709.94 1270.5C4722.95 1270.5 4733.5 1281.05 4733.5 1294.06L4733.5 1398.94C4733.5 1411.95 4722.95 1422.5 4709.94 1422.5L2906.06 1422.5C2893.05 1422.5 2882.5 1411.95 2882.5 1398.94Z"
       stroke="#000000"
       stroke-width="6.875"
       stroke-miterlimit="8"
       fill="#E2F0D9"
       fill-rule="evenodd"
       id="path4" /><path
       d="m 36.162109,0 -0.179687,-6.0644531 q -3.683594,3.6386718 -7.501953,5.25585935 -3.773438,1.6171875 -7.951172,1.6171875 -3.863281,0 -6.603516,-0.98828125 Q 11.185547,-1.1679687 9.3886719,-2.875 7.6367187,-4.6269531 6.7832031,-6.9628906 5.9746094,-9.2988281 5.9746094,-12.039063 q 0,-6.783203 5.0312496,-10.601562 5.076172,-3.863281 14.958985,-3.863281 h 9.34375 v -3.953125 q 0,-3.998047 -2.560547,-6.378906 -2.560547,-2.425782 -7.816406,-2.425782 -3.81836,0 -7.546875,0.853516 -3.683594,0.853516 -7.6367191,2.425781 v -7.052734 q 1.4824221,-0.539063 3.2792971,-1.033203 1.841797,-0.539063 3.863281,-0.94336 2.021484,-0.404297 4.222656,-0.628906 2.201172,-0.269531 4.447266,-0.269531 4.08789,0 7.367187,0.898437 3.279297,0.898438 5.525391,2.740235 2.291016,1.841797 3.503906,4.626953 1.212891,2.785156 1.212891,6.558594 V 0 Z m -0.853515,-20.529297 h -9.927735 q -2.919922,0 -5.03125,0.583985 -2.111328,0.583984 -3.458984,1.662109 -1.347656,1.078125 -2.021484,2.605469 -0.628907,1.482421 -0.628907,3.36914 0,1.302735 0.404297,2.5156252 0.404297,1.1679688 1.302735,2.1113282 0.898437,0.8984375 2.335937,1.4375 1.4375,0.5390625 3.503906,0.5390625 2.695313,0 6.154297,-1.6171875 3.503906,-1.6621094 7.367188,-5.2109374 z M 96.3125,-23.359375 q 0,6.019531 -1.707031,10.511719 -1.66211,4.4921872 -4.626953,7.457031 -2.964844,2.9648437 -7.007813,4.44726562 -4.042969,1.48242188 -8.759766,1.48242188 -2.15625,0 -4.3125,-0.22460937 -2.111328,-0.22460938 -4.3125,-0.76367188 V 18.417969 h -7.816406 v -63.519531 h 6.962891 l 0.49414,7.546875 q 3.369141,-4.626954 7.1875,-6.46875 3.81836,-1.886719 8.265625,-1.886719 3.863282,0 6.783204,1.617187 2.919921,1.617188 4.896484,4.582032 1.976562,2.919921 2.964844,7.097656 0.988281,4.132812 0.988281,9.253906 z M 88.316406,-23 q 0,-3.548828 -0.539062,-6.513672 -0.494141,-2.964844 -1.617188,-5.076172 -1.123047,-2.111328 -2.875,-3.279297 -1.751953,-1.21289 -4.177734,-1.21289 -1.482422,0 -3.009766,0.49414 -1.527344,0.449219 -3.189453,1.572266 -1.617187,1.078125 -3.458984,2.919922 -1.796875,1.796875 -3.863282,4.492187 v 21.8769535 q 2.15625,0.8984375 4.53711,1.4375 2.380859,0.4941406 4.671875,0.4941406 6.333984,0 9.927734,-4.2675781 3.59375,-4.3125 3.59375,-12.9375 z m 58.578124,-0.359375 q 0,5.615234 -1.57226,10.0625 -1.52735,4.4023437 -4.40235,7.5019531 -2.83008,3.0546875 -6.91797,4.7167969 -4.08789,1.6171875 -9.20898,1.6171875 -3.99805,0 -8.17578,-0.76367188 -4.17774,-0.76367187 -8.26563,-2.42578122 V -63.474609 h 7.81641 V -46 l -0.35938,8.355469 q 3.36914,-4.53711 7.1875,-6.378906 3.86329,-1.886719 8.26563,-1.886719 3.86328,0 6.7832,1.617187 2.91992,1.617188 4.89649,4.582032 1.97656,2.919921 2.96484,7.097656 0.98828,4.132812 0.98828,9.253906 z M 138.89844,-23 q 0,-3.548828 -0.53907,-6.513672 -0.49414,-2.964844 -1.61718,-5.076172 -1.12305,-2.111328 -2.875,-3.279297 -1.75196,-1.21289 -4.17774,-1.21289 -1.48242,0 -3.00976,0.49414 -1.52735,0.449219 -3.18946,1.572266 -1.61718,1.078125 -3.45898,2.919922 -1.79687,1.796875 -3.86328,4.492187 v 21.8769535 q 2.29101,0.8984375 4.67187,1.4375 2.38086,0.4941406 4.53711,0.4941406 2.69532,0 5.1211,-0.8535156 2.4707,-0.8535156 4.3125,-2.8300781 1.88672,-2.0214844 2.96484,-5.3007814 1.12305,-3.324219 1.12305,-8.220703 z m 63.42968,41.417969 h -50.58203 v -6.46875 h 50.58203 z m 4.89649,-40.025391 q 0,-5.75 1.57226,-10.197265 1.57227,-4.492188 4.44727,-7.546875 2.91992,-3.09961 6.96289,-4.671875 4.08789,-1.617188 9.07422,-1.617188 2.15625,0 4.22266,0.269531 2.11132,0.269532 4.13281,0.853516 v -18.957031 h 7.86133 V 0 h -7.00782 l -0.26953,-8.5351563 q -3.27929,4.7617188 -7.09765,7.0527344 -3.81836,2.29101565 -8.26563,2.29101565 -3.86328,0 -6.82812,-1.6171875 -2.91993,-1.61718755 -4.89649,-4.53710935 -1.93164,-2.9648438 -2.91992,-7.0976559 -0.98828,-4.132813 -0.98828,-9.164063 z m 7.99609,-0.49414 q 0,8.175781 2.38086,12.2187495 2.42578,3.9980469 6.82813,3.9980469 2.96484,0 6.24414,-2.6503907 3.32422,-2.6503907 6.96289,-7.8613277 v -20.933594 q -1.93164,-0.898438 -4.26758,-1.347656 -2.33594,-0.494141 -4.62695,-0.494141 -6.37891,0 -9.97266,4.132813 -3.54883,4.132812 -3.54883,12.9375 z m 46.71875,-23 h 7.14258 l 0.22461,8.310546 q 3.99805,-4.80664 7.86133,-6.96289 3.9082,-2.15625 7.86133,-2.15625 7.00781,0 10.60156,4.537109 3.63867,4.53711 3.36914,13.476563 h -7.90625 q 0.13477,-5.929688 -1.75195,-8.580078 -1.8418,-2.695313 -5.43555,-2.695313 -1.57227,0 -3.18945,0.583984 -1.57227,0.539063 -3.2793,1.796875 -1.66211,1.212891 -3.54883,3.144532 -1.88672,1.93164 -4.04297,4.671875 V 0 h -7.90625 z m 64.10352,6.46875 h -13.3418 v -6.46875 h 21.24805 v 38.5878901 h 13.43164 V 0 h -36.16211 v -6.5136719 h 14.82422 z m 2.74023,-25.38086 q 1.30274,0 2.42578,0.494141 1.12305,0.449219 1.93164,1.302734 0.85352,0.853516 1.30274,1.976563 0.49414,1.078125 0.49414,2.380859 0,1.257813 -0.49414,2.380859 -0.44922,1.123047 -1.30274,1.976563 -0.80859,0.853516 -1.93164,1.347656 -1.12304,0.449219 -2.42578,0.449219 -1.30273,0 -2.42578,-0.449219 -1.12305,-0.49414 -1.97656,-1.347656 -0.80859,-0.853516 -1.30274,-1.976563 -0.44921,-1.123046 -0.44921,-2.380859 0,-1.302734 0.44921,-2.380859 0.49415,-1.123047 1.30274,-1.976563 0.85351,-0.853515 1.97656,-1.302734 1.12305,-0.494141 2.42578,-0.494141 z m 28.25586,18.91211 h 8.89453 l 11.05078,29.828124 2.38086,7.2773443 2.47071,-7.4570313 10.96093,-29.648437 h 8.58008 L 383.67773,0 h -8.98437 z m 92.89844,20.169921 q 0,1.66211 -0.0449,2.785157 -0.0449,1.123047 -0.13477,2.111328 h -31.66992 q 0,6.917968 3.86328,10.6464841 3.86328,3.6835938 11.14063,3.6835938 1.97656,0 3.95312,-0.1347656 1.97656,-0.1796875 3.81836,-0.4492188 1.8418,-0.2695312 3.50391,-0.5839844 1.70703,-0.359375 3.14453,-0.7636718 v 6.4238281 q -3.18945,0.89843747 -7.23242,1.43749998 -3.99805,0.58398437 -8.31055,0.58398437 -5.79492,0 -9.97266,-1.57226562 -4.17773,-1.57226563 -6.87304,-4.53710933 -2.65039,-3.0097657 -3.95313,-7.3222658 -1.25781,-4.357422 -1.25781,-9.83789 0,-4.761719 1.34766,-8.984375 1.39257,-4.267579 3.99804,-7.457032 2.65039,-3.234375 6.46875,-5.121093 3.81836,-1.886719 8.66992,-1.886719 4.7168,0 8.35547,1.482422 3.63867,1.482422 6.10938,4.222656 2.51562,2.695312 3.77344,6.603516 1.30273,3.863281 1.30273,8.669921 z m -8.13086,-1.123046 q 0.13477,-3.009766 -0.58398,-5.480469 -0.71875,-2.515625 -2.2461,-4.3125 -1.48242,-1.796875 -3.72851,-2.785156 -2.2461,-1.033204 -5.21094,-1.033204 -2.56055,0 -4.67188,0.988282 -2.11132,0.988281 -3.63867,2.785156 -1.52734,1.796875 -2.4707,4.3125 -0.94336,2.515625 -1.16797,5.525391 z m 22.46094,-19.046875 h 7.14258 l 0.22461,8.310546 q 3.99804,-4.80664 7.86132,-6.96289 3.90821,-2.15625 7.86133,-2.15625 7.00781,0 10.60156,4.537109 3.63868,4.53711 3.36914,13.476563 h -7.90625 q 0.13477,-5.929688 -1.75195,-8.580078 -1.8418,-2.695313 -5.43555,-2.695313 -1.57226,0 -3.18945,0.583984 -1.57226,0.539063 -3.2793,1.796875 -1.6621,1.212891 -3.54882,3.144532 -1.88672,1.93164 -4.04297,4.671875 V 0 h -7.90625 z"
       id="text5"
       style="font-size:92px;font-family:Consolas, Consolas_MSFontService, sans-serif;fill:#0000ff"
       transform="matrix(1 0 0 1 3454.68 1377)"
       aria-label="apb_driver" /><path
       d="m 4.8964844,-21.607422 q 0,-5.75 1.5722656,-10.197265 1.5722656,-4.492188 4.447266,-7.546875 2.919922,-3.09961 6.96289,-4.671875 4.087891,-1.617188 9.074219,-1.617188 2.15625,0 4.222656,0.269531 2.111328,0.269532 4.132813,0.853516 v -18.957031 h 7.861328 V 0 h -7.007813 l -0.269531,-8.5351563 q -3.279297,4.7617188 -7.097656,7.0527344 -3.81836,2.29101565 -8.265625,2.29101565 -3.863281,0 -6.828125,-1.6171875 Q 10.78125,-2.4257813 8.8046875,-5.3457031 6.8730469,-8.3105469 5.8847656,-12.443359 4.8964844,-16.576172 4.8964844,-21.607422 Z m 7.9960936,-0.49414 q 0,8.175781 2.38086,12.2187495 2.425781,3.9980469 6.828124,3.9980469 2.964844,0 6.244141,-2.6503907 3.324219,-2.6503907 6.962891,-7.8613277 v -20.933594 q -1.931641,-0.898438 -4.267578,-1.347656 -2.335938,-0.494141 -4.626954,-0.494141 -6.378906,0 -9.972656,4.132813 -3.548828,4.132812 -3.548828,12.9375 z m 46.71875,-23 h 7.142578 l 0.22461,8.310546 q 3.998046,-4.80664 7.861328,-6.96289 3.908203,-2.15625 7.861328,-2.15625 7.007812,0 10.601562,4.537109 3.638672,4.53711 3.369141,13.476563 h -7.90625 q 0.134766,-5.929688 -1.751953,-8.580078 -1.841797,-2.695313 -5.435547,-2.695313 -1.572266,0 -3.189453,0.583984 -1.572266,0.539063 -3.279297,1.796875 -1.662109,1.212891 -3.548828,3.144532 -1.886719,1.93164 -4.042969,4.671875 V 0 h -7.90625 z m 44.517582,0 h 8.89453 l 11.05078,29.828124 2.38086,7.2773443 2.4707,-7.4570313 10.96094,-29.648437 h 8.58008 L 130.76758,0 h -8.98438 z"
       id="text6"
       style="font-size:92px;font-family:Consolas, Consolas_MSFontService, sans-serif;fill:#001080"
       transform="matrix(1 0 0 1 4009.26 1377)"
       aria-label="drv" /><path
       d="M2882.5 1530.21C2882.5 1517.12 2893.12 1506.5 2906.21 1506.5L4709.79 1506.5C4722.88 1506.5 4733.5 1517.12 4733.5 1530.21L4733.5 1635.79C4733.5 1648.88 4722.88 1659.5 4709.79 1659.5L2906.21 1659.5C2893.12 1659.5 2882.5 1648.88 2882.5 1635.79Z"
       stroke="#000000"
       stroke-width="6.875"
       stroke-miterlimit="8"
       fill="#FFFFFF"
       fill-rule="evenodd"
       id="path6" /><path
       d="m 36.162109,0 -0.179687,-6.0644531 q -3.683594,3.6386718 -7.501953,5.25585935 -3.773438,1.6171875 -7.951172,1.6171875 -3.863281,0 -6.603516,-0.98828125 Q 11.185547,-1.1679687 9.3886719,-2.875 7.6367187,-4.6269531 6.7832031,-6.9628906 5.9746094,-9.2988281 5.9746094,-12.039063 q 0,-6.783203 5.0312496,-10.601562 5.076172,-3.863281 14.958985,-3.863281 h 9.34375 v -3.953125 q 0,-3.998047 -2.560547,-6.378906 -2.560547,-2.425782 -7.816406,-2.425782 -3.81836,0 -7.546875,0.853516 -3.683594,0.853516 -7.6367191,2.425781 v -7.052734 q 1.4824221,-0.539063 3.2792971,-1.033203 1.841797,-0.539063 3.863281,-0.94336 2.021484,-0.404297 4.222656,-0.628906 2.201172,-0.269531 4.447266,-0.269531 4.08789,0 7.367187,0.898437 3.279297,0.898438 5.525391,2.740235 2.291016,1.841797 3.503906,4.626953 1.212891,2.785156 1.212891,6.558594 V 0 Z m -0.853515,-20.529297 h -9.927735 q -2.919922,0 -5.03125,0.583985 -2.111328,0.583984 -3.458984,1.662109 -1.347656,1.078125 -2.021484,2.605469 -0.628907,1.482421 -0.628907,3.36914 0,1.302735 0.404297,2.5156252 0.404297,1.1679688 1.302735,2.1113282 0.898437,0.8984375 2.335937,1.4375 1.4375,0.5390625 3.503906,0.5390625 2.695313,0 6.154297,-1.6171875 3.503906,-1.6621094 7.367188,-5.2109374 z M 96.3125,-23.359375 q 0,6.019531 -1.707031,10.511719 -1.66211,4.4921872 -4.626953,7.457031 -2.964844,2.9648437 -7.007813,4.44726562 -4.042969,1.48242188 -8.759766,1.48242188 -2.15625,0 -4.3125,-0.22460937 -2.111328,-0.22460938 -4.3125,-0.76367188 V 18.417969 h -7.816406 v -63.519531 h 6.962891 l 0.49414,7.546875 q 3.369141,-4.626954 7.1875,-6.46875 3.81836,-1.886719 8.265625,-1.886719 3.863282,0 6.783204,1.617187 2.919921,1.617188 4.896484,4.582032 1.976562,2.919921 2.964844,7.097656 0.988281,4.132812 0.988281,9.253906 z M 88.316406,-23 q 0,-3.548828 -0.539062,-6.513672 -0.494141,-2.964844 -1.617188,-5.076172 -1.123047,-2.111328 -2.875,-3.279297 -1.751953,-1.21289 -4.177734,-1.21289 -1.482422,0 -3.009766,0.49414 -1.527344,0.449219 -3.189453,1.572266 -1.617187,1.078125 -3.458984,2.919922 -1.796875,1.796875 -3.863282,4.492187 v 21.8769535 q 2.15625,0.8984375 4.53711,1.4375 2.380859,0.4941406 4.671875,0.4941406 6.333984,0 9.927734,-4.2675781 3.59375,-4.3125 3.59375,-12.9375 z m 58.578124,-0.359375 q 0,5.615234 -1.57226,10.0625 -1.52735,4.4023437 -4.40235,7.5019531 -2.83008,3.0546875 -6.91797,4.7167969 -4.08789,1.6171875 -9.20898,1.6171875 -3.99805,0 -8.17578,-0.76367188 -4.17774,-0.76367187 -8.26563,-2.42578122 V -63.474609 h 7.81641 V -46 l -0.35938,8.355469 q 3.36914,-4.53711 7.1875,-6.378906 3.86329,-1.886719 8.26563,-1.886719 3.86328,0 6.7832,1.617187 2.91992,1.617188 4.89649,4.582032 1.97656,2.919921 2.96484,7.097656 0.98828,4.132812 0.98828,9.253906 z M 138.89844,-23 q 0,-3.548828 -0.53907,-6.513672 -0.49414,-2.964844 -1.61718,-5.076172 -1.12305,-2.111328 -2.875,-3.279297 -1.75196,-1.21289 -4.17774,-1.21289 -1.48242,0 -3.00976,0.49414 -1.52735,0.449219 -3.18946,1.572266 -1.61718,1.078125 -3.45898,2.919922 -1.79687,1.796875 -3.86328,4.492187 v 21.8769535 q 2.29101,0.8984375 4.67187,1.4375 2.38086,0.4941406 4.53711,0.4941406 2.69532,0 5.1211,-0.8535156 2.4707,-0.8535156 4.3125,-2.8300781 1.88672,-2.0214844 2.96484,-5.3007814 1.12305,-3.324219 1.12305,-8.220703 z m 63.42968,41.417969 h -50.58203 v -6.46875 h 50.58203 z M 241.67969,0 v -32.388672 q 0,-2.111328 -0.17969,-3.458984 -0.13477,-1.347656 -0.49414,-2.111328 -0.31445,-0.808594 -0.85352,-1.123047 -0.49414,-0.314453 -1.25781,-0.314453 -0.89844,0 -1.66211,0.539062 -0.76367,0.539063 -1.66211,1.751953 -0.85351,1.212891 -1.93164,3.234375 -1.0332,1.976563 -2.4707,4.896485 V 0 h -7.14258 v -31.535156 q 0,-2.470703 -0.17969,-3.998047 -0.13476,-1.527344 -0.49414,-2.380859 -0.31445,-0.853516 -0.85351,-1.167969 -0.53907,-0.314453 -1.30274,-0.314453 -0.80859,0 -1.52734,0.449218 -0.71875,0.449219 -1.61719,1.617188 -0.85351,1.167969 -1.93164,3.189453 -1.07812,2.021484 -2.56055,5.166016 V 0 h -7.1875 v -45.101562 h 5.97461 l 0.35938,8.580078 q 1.16797,-2.560547 2.24609,-4.357422 1.12305,-1.796875 2.29102,-2.875 1.16797,-1.123047 2.4707,-1.617188 1.34766,-0.539062 2.96484,-0.539062 3.63868,0 5.52539,2.380859 1.88672,2.38086 1.88672,7.367188 1.07813,-2.335938 2.11133,-4.132813 1.0332,-1.841797 2.20117,-3.054687 1.21289,-1.257813 2.65039,-1.886719 1.4375,-0.673828 3.32422,-0.673828 8.49024,0 8.49024,13.072265 V 0 Z m 57.67968,-22.910156 q 0,5.255859 -1.48242,9.658203 -1.48242,4.3574217 -4.26758,7.501953 -2.78515,3.0996094 -6.7832,4.8515625 -3.99805,1.70703125 -9.07422,1.70703125 -4.85156,0 -8.71484,-1.48242187 -3.81836,-1.52734378 -6.51367,-4.44726558 -2.65039,-2.9199219 -4.08789,-7.2324223 -1.39258,-4.3125 -1.39258,-9.927734 0,-5.255859 1.48242,-9.568359 1.48242,-4.357422 4.26758,-7.457032 2.78515,-3.144531 6.7832,-4.851562 3.99805,-1.751953 9.07422,-1.751953 4.85156,0 8.66992,1.527344 3.86328,1.482421 6.51367,4.402343 2.69532,2.875 4.08789,7.1875 1.4375,4.3125 1.4375,9.882813 z m -7.99609,0.359375 q 0,-4.177735 -0.94336,-7.277344 -0.89844,-3.144531 -2.60547,-5.210937 -1.70703,-2.111329 -4.17773,-3.144532 -2.42578,-1.078125 -5.43555,-1.078125 -3.5039,0 -6.01953,1.392578 -2.4707,1.347657 -4.08789,3.638672 -1.57227,2.291016 -2.33594,5.345703 -0.71875,3.009766 -0.71875,6.333985 0,4.177734 0.89844,7.322265 0.94336,3.144532 2.65039,5.2558597 1.70703,2.0664063 4.13281,3.1445313 2.42578,1.0332031 5.48047,1.0332031 3.50391,0 5.97461,-1.3476562 2.51563,-1.3925782 4.08789,-3.6835939 1.61719,-2.291016 2.33594,-5.300781 0.76367,-3.054688 0.76367,-6.423828 z m 19.31641,-22.550781 h 6.96289 l 0.31445,7.277343 q 1.97656,-2.335937 3.81836,-3.863281 1.8418,-1.572266 3.59375,-2.515625 1.79688,-0.943359 3.63867,-1.302734 1.8418,-0.404297 3.81836,-0.404297 6.96289,0 10.51172,4.132812 3.59375,4.087891 3.59375,12.353516 V 0 h -7.81641 v -28.794922 q 0,-5.300781 -1.97656,-7.816406 -1.97656,-2.560547 -5.88476,-2.560547 -1.4375,0 -2.83008,0.449219 -1.34766,0.404297 -2.83008,1.482422 -1.48242,1.033203 -3.23438,2.830078 -1.70703,1.796875 -3.86328,4.492187 V 0 h -7.8164 z m 65.94531,6.46875 h -13.3418 v -6.46875 h 21.24805 v 38.5878901 h 13.43164 V 0 H 361.80078 V -6.5136719 H 376.625 Z m 2.74023,-25.38086 q 1.30274,0 2.42579,0.494141 1.12304,0.449219 1.93164,1.302734 0.85351,0.853516 1.30273,1.976563 0.49414,1.078125 0.49414,2.380859 0,1.257813 -0.49414,2.380859 -0.44922,1.123047 -1.30273,1.976563 -0.8086,0.853516 -1.93164,1.347656 -1.12305,0.449219 -2.42579,0.449219 -1.30273,0 -2.42578,-0.449219 -1.12304,-0.49414 -1.97656,-1.347656 -0.80859,-0.853516 -1.30273,-1.976563 -0.44922,-1.123046 -0.44922,-2.380859 0,-1.302734 0.44922,-2.380859 0.49414,-1.123047 1.30273,-1.976563 0.85352,-0.853515 1.97656,-1.302734 1.12305,-0.494141 2.42578,-0.494141 z m 68.82032,63.38476575 q -2.65039,0.67382812 -5.48047,0.94335938 -2.83008,0.31445312 -5.75,0.31445312 -8.49024,0 -12.66797,-3.81835935 -4.17774,-3.8632813 -4.17774,-11.8144529 v -23.539063 h -12.62304 v -6.558593 h 12.62304 V -57.5 l 7.81641,-2.021484 v 14.419922 h 20.25977 v 6.558593 h -20.25977 v 22.910156 q 0,4.851563 2.56055,7.2773442 2.60547,2.3808594 7.63672,2.3808594 2.15625,0 4.71679,-0.3144531 2.56055,-0.359375 5.34571,-1.078125 z M 501.6875,-22.910156 q 0,5.255859 -1.48242,9.658203 -1.48242,4.3574217 -4.26758,7.501953 -2.78516,3.0996094 -6.7832,4.8515625 -3.99805,1.70703125 -9.07422,1.70703125 -4.85156,0 -8.71485,-1.48242187 -3.81836,-1.52734378 -6.51367,-4.44726558 -2.65039,-2.9199219 -4.08789,-7.2324223 -1.39258,-4.3125 -1.39258,-9.927734 0,-5.255859 1.48243,-9.568359 1.48242,-4.357422 4.26757,-7.457032 2.78516,-3.144531 6.78321,-4.851562 3.99804,-1.751953 9.07422,-1.751953 4.85156,0 8.66992,1.527344 3.86328,1.482421 6.51367,4.402343 2.69531,2.875 4.08789,7.1875 1.4375,4.3125 1.4375,9.882813 z m -7.99609,0.359375 q 0,-4.177735 -0.94336,-7.277344 -0.89844,-3.144531 -2.60547,-5.210937 -1.70703,-2.111329 -4.17774,-3.144532 -2.42578,-1.078125 -5.43554,-1.078125 -3.50391,0 -6.01953,1.392578 -2.47071,1.347657 -4.0879,3.638672 -1.57226,2.291016 -2.33593,5.345703 -0.71875,3.009766 -0.71875,6.333985 0,4.177734 0.89843,7.322265 0.94336,3.144532 2.6504,5.2558597 1.70703,2.0664063 4.13281,3.1445313 2.42578,1.0332031 5.48047,1.0332031 3.5039,0 5.97461,-1.3476562 2.51562,-1.3925782 4.08789,-3.6835939 1.61718,-2.291016 2.33593,-5.300781 0.76368,-3.054688 0.76368,-6.423828 z m 21.1582,-22.550781 h 7.14258 l 0.22461,8.310546 q 3.99804,-4.80664 7.86132,-6.96289 3.90821,-2.15625 7.86133,-2.15625 7.00782,0 10.60157,4.537109 3.63867,4.53711 3.36914,13.476563 h -7.90625 q 0.13476,-5.929688 -1.75196,-8.580078 -1.84179,-2.695313 -5.43554,-2.695313 -1.57227,0 -3.18946,0.583984 -1.57226,0.539063 -3.27929,1.796875 -1.66211,1.212891 -3.54883,3.144532 -1.88672,1.93164 -4.04297,4.671875 V 0 h -7.90625 z"
       id="text7"
       style="font-size:92px;font-family:Consolas, Consolas_MSFontService, sans-serif;fill:#0000ff"
       transform="matrix(1 0 0 1 3429.47 1613)"
       aria-label="apb_monitor" /><path
       d="m 39.351562,0 v -32.388672 q 0,-2.111328 -0.179687,-3.458984 -0.134766,-1.347656 -0.494141,-2.111328 -0.314453,-0.808594 -0.853515,-1.123047 -0.494141,-0.314453 -1.257813,-0.314453 -0.898437,0 -1.662109,0.539062 -0.763672,0.539063 -1.66211,1.751953 -0.853515,1.212891 -1.93164,3.234375 -1.033203,1.976563 -2.470703,4.896485 V 0 h -7.142578 v -31.535156 q 0,-2.470703 -0.179688,-3.998047 -0.134766,-1.527344 -0.494141,-2.380859 -0.314453,-0.853516 -0.853515,-1.167969 -0.539063,-0.314453 -1.302735,-0.314453 -0.808593,0 -1.527343,0.449218 -0.71875,0.449219 -1.617188,1.617188 -0.853515,1.167969 -1.93164,3.189453 -1.078125,2.021484 -2.560547,5.166016 V 0 H 4.0429687 v -45.101562 h 5.9746093 l 0.359375,8.580078 q 1.167969,-2.560547 2.246094,-4.357422 1.123047,-1.796875 2.291016,-2.875 1.167968,-1.123047 2.470703,-1.617188 1.347656,-0.539062 2.964843,-0.539062 3.638672,0 5.525391,2.380859 1.886719,2.38086 1.886719,7.367188 1.078125,-2.335938 2.111328,-4.132813 1.033203,-1.841797 2.201172,-3.054687 1.21289,-1.257813 2.65039,-1.886719 1.4375,-0.673828 3.324219,-0.673828 8.490234,0 8.490234,13.072265 V 0 Z M 97.03125,-22.910156 q 0,5.255859 -1.482422,9.658203 Q 94.066406,-8.8945313 91.28125,-5.75 88.496094,-2.6503906 84.498047,-0.8984375 80.5,0.80859375 75.423828,0.80859375 q -4.851562,0 -8.714844,-1.48242187 -3.818359,-1.52734378 -6.513672,-4.44726558 -2.65039,-2.9199219 -4.08789,-7.2324223 -1.392578,-4.3125 -1.392578,-9.927734 0,-5.255859 1.482422,-9.568359 1.482421,-4.357422 4.267578,-7.457032 2.785156,-3.144531 6.783203,-4.851562 3.998047,-1.751953 9.074219,-1.751953 4.851562,0 8.669921,1.527344 3.863282,1.482421 6.513672,4.402343 2.695313,2.875 4.087891,7.1875 1.4375,4.3125 1.4375,9.882813 z m -7.996094,0.359375 q 0,-4.177735 -0.943359,-7.277344 -0.898438,-3.144531 -2.605469,-5.210937 -1.707031,-2.111329 -4.177734,-3.144532 -2.425782,-1.078125 -5.435547,-1.078125 -3.503906,0 -6.019531,1.392578 -2.470704,1.347657 -4.087891,3.638672 -1.572266,2.291016 -2.335938,5.345703 -0.71875,3.009766 -0.71875,6.333985 0,4.177734 0.898438,7.322265 0.943359,3.144532 2.650391,5.2558597 1.707031,2.0664063 4.132812,3.1445313 2.425781,1.0332031 5.480469,1.0332031 3.503906,0 5.974609,-1.3476562 2.515625,-1.3925782 4.087891,-3.6835939 1.617187,-2.291016 2.335937,-5.300781 0.763672,-3.054688 0.763672,-6.423828 z m 19.316404,-22.550781 h 6.96289 l 0.31446,7.277343 q 1.97656,-2.335937 3.81836,-3.863281 1.84179,-1.572266 3.59375,-2.515625 1.79687,-0.943359 3.63867,-1.302734 1.84179,-0.404297 3.81836,-0.404297 6.96289,0 10.51172,4.132812 3.59375,4.087891 3.59375,12.353516 V 0 h -7.81641 v -28.794922 q 0,-5.300781 -1.97656,-7.816406 -1.97657,-2.560547 -5.88477,-2.560547 -1.4375,0 -2.83008,0.449219 -1.34765,0.404297 -2.83007,1.482422 -1.48243,1.033203 -3.23438,2.830078 -1.70703,1.796875 -3.86328,4.492187 V 0 h -7.81641 z"
       id="text8"
       style="font-size:92px;font-family:Consolas, Consolas_MSFontService, sans-serif;fill:#001080"
       transform="matrix(1 0 0 1 4034.47 1613)"
       aria-label="mon" /><path
       d="M2727.5 2008.47C2727.5 1941.11 2782.11 1886.5 2849.47 1886.5L4762.53 1886.5C4829.89 1886.5 4884.5 1941.11 4884.5 2008.47L4884.5 2551.53C4884.5 2618.89 4829.89 2673.5 4762.53 2673.5L2849.47 2673.5C2782.11 2673.5 2727.5 2618.89 2727.5 2551.53Z"
       stroke="#000000"
       stroke-width="6.875"
       stroke-miterlimit="8"
       fill="#FFFFFF"
       fill-rule="evenodd"
       id="path8" /><path
       d="M2885.5 2206.06C2885.5 2193.05 2896.05 2182.5 2909.06 2182.5L4712.94 2182.5C4725.95 2182.5 4736.5 2193.05 4736.5 2206.06L4736.5 2310.94C4736.5 2323.95 4725.95 2334.5 4712.94 2334.5L2909.06 2334.5C2896.05 2334.5 2885.5 2323.95 2885.5 2310.94Z"
       stroke="#000000"
       stroke-width="6.875"
       stroke-miterlimit="8"
       fill="#E2F0D9"
       fill-rule="evenodd"
       id="path9" /><path
       d="m 36.162109,0 -0.179687,-6.0644531 q -3.683594,3.6386718 -7.501953,5.25585935 -3.773438,1.6171875 -7.951172,1.6171875 -3.863281,0 -6.603516,-0.98828125 Q 11.185547,-1.1679687 9.3886719,-2.875 7.6367187,-4.6269531 6.7832031,-6.9628906 5.9746094,-9.2988281 5.9746094,-12.039063 q 0,-6.783203 5.0312496,-10.601562 5.076172,-3.863281 14.958985,-3.863281 h 9.34375 v -3.953125 q 0,-3.998047 -2.560547,-6.378906 -2.560547,-2.425782 -7.816406,-2.425782 -3.81836,0 -7.546875,0.853516 -3.683594,0.853516 -7.6367191,2.425781 v -7.052734 q 1.4824221,-0.539063 3.2792971,-1.033203 1.841797,-0.539063 3.863281,-0.94336 2.021484,-0.404297 4.222656,-0.628906 2.201172,-0.269531 4.447266,-0.269531 4.08789,0 7.367187,0.898437 3.279297,0.898438 5.525391,2.740235 2.291016,1.841797 3.503906,4.626953 1.212891,2.785156 1.212891,6.558594 V 0 Z m -0.853515,-20.529297 h -9.927735 q -2.919922,0 -5.03125,0.583985 -2.111328,0.583984 -3.458984,1.662109 -1.347656,1.078125 -2.021484,2.605469 -0.628907,1.482421 -0.628907,3.36914 0,1.302735 0.404297,2.5156252 0.404297,1.1679688 1.302735,2.1113282 0.898437,0.8984375 2.335937,1.4375 1.4375,0.5390625 3.503906,0.5390625 2.695313,0 6.154297,-1.6171875 3.503906,-1.6621094 7.367188,-5.2109374 z M 96.3125,-23.359375 q 0,6.019531 -1.707031,10.511719 -1.66211,4.4921872 -4.626953,7.457031 -2.964844,2.9648437 -7.007813,4.44726562 -4.042969,1.48242188 -8.759766,1.48242188 -2.15625,0 -4.3125,-0.22460937 -2.111328,-0.22460938 -4.3125,-0.76367188 V 18.417969 h -7.816406 v -63.519531 h 6.962891 l 0.49414,7.546875 q 3.369141,-4.626954 7.1875,-6.46875 3.81836,-1.886719 8.265625,-1.886719 3.863282,0 6.783204,1.617187 2.919921,1.617188 4.896484,4.582032 1.976562,2.919921 2.964844,7.097656 0.988281,4.132812 0.988281,9.253906 z M 88.316406,-23 q 0,-3.548828 -0.539062,-6.513672 -0.494141,-2.964844 -1.617188,-5.076172 -1.123047,-2.111328 -2.875,-3.279297 -1.751953,-1.21289 -4.177734,-1.21289 -1.482422,0 -3.009766,0.49414 -1.527344,0.449219 -3.189453,1.572266 -1.617187,1.078125 -3.458984,2.919922 -1.796875,1.796875 -3.863282,4.492187 v 21.8769535 q 2.15625,0.8984375 4.53711,1.4375 2.380859,0.4941406 4.671875,0.4941406 6.333984,0 9.927734,-4.2675781 3.59375,-4.3125 3.59375,-12.9375 z m 58.578124,-0.359375 q 0,5.615234 -1.57226,10.0625 -1.52735,4.4023437 -4.40235,7.5019531 -2.83008,3.0546875 -6.91797,4.7167969 -4.08789,1.6171875 -9.20898,1.6171875 -3.99805,0 -8.17578,-0.76367188 -4.17774,-0.76367187 -8.26563,-2.42578122 V -63.474609 h 7.81641 V -46 l -0.35938,8.355469 q 3.36914,-4.53711 7.1875,-6.378906 3.86329,-1.886719 8.26563,-1.886719 3.86328,0 6.7832,1.617187 2.91992,1.617188 4.89649,4.582032 1.97656,2.919921 2.96484,7.097656 0.98828,4.132812 0.98828,9.253906 z M 138.89844,-23 q 0,-3.548828 -0.53907,-6.513672 -0.49414,-2.964844 -1.61718,-5.076172 -1.12305,-2.111328 -2.875,-3.279297 -1.75196,-1.21289 -4.17774,-1.21289 -1.48242,0 -3.00976,0.49414 -1.52735,0.449219 -3.18946,1.572266 -1.61718,1.078125 -3.45898,2.919922 -1.79687,1.796875 -3.86328,4.492187 v 21.8769535 q 2.29101,0.8984375 4.67187,1.4375 2.38086,0.4941406 4.53711,0.4941406 2.69532,0 5.1211,-0.8535156 2.4707,-0.8535156 4.3125,-2.8300781 1.88672,-2.0214844 2.96484,-5.3007814 1.12305,-3.324219 1.12305,-8.220703 z m 63.42968,41.417969 h -50.58203 v -6.46875 h 50.58203 z m 4.89649,-40.025391 q 0,-5.75 1.57226,-10.197265 1.57227,-4.492188 4.44727,-7.546875 2.91992,-3.09961 6.96289,-4.671875 4.08789,-1.617188 9.07422,-1.617188 2.15625,0 4.22266,0.269531 2.11132,0.269532 4.13281,0.853516 v -18.957031 h 7.86133 V 0 h -7.00782 l -0.26953,-8.5351563 q -3.27929,4.7617188 -7.09765,7.0527344 -3.81836,2.29101565 -8.26563,2.29101565 -3.86328,0 -6.82812,-1.6171875 -2.91993,-1.61718755 -4.89649,-4.53710935 -1.93164,-2.9648438 -2.91992,-7.0976559 -0.98828,-4.132813 -0.98828,-9.164063 z m 7.99609,-0.49414 q 0,8.175781 2.38086,12.2187495 2.42578,3.9980469 6.82813,3.9980469 2.96484,0 6.24414,-2.6503907 3.32422,-2.6503907 6.96289,-7.8613277 v -20.933594 q -1.93164,-0.898438 -4.26758,-1.347656 -2.33594,-0.494141 -4.62695,-0.494141 -6.37891,0 -9.97266,4.132813 -3.54883,4.132812 -3.54883,12.9375 z m 46.71875,-23 h 7.14258 l 0.22461,8.310546 q 3.99805,-4.80664 7.86133,-6.96289 3.9082,-2.15625 7.86133,-2.15625 7.00781,0 10.60156,4.537109 3.63867,4.53711 3.36914,13.476563 h -7.90625 q 0.13477,-5.929688 -1.75195,-8.580078 -1.8418,-2.695313 -5.43555,-2.695313 -1.57227,0 -3.18945,0.583984 -1.57227,0.539063 -3.2793,1.796875 -1.66211,1.212891 -3.54883,3.144532 -1.88672,1.93164 -4.04297,4.671875 V 0 h -7.90625 z m 64.10352,6.46875 h -13.3418 v -6.46875 h 21.24805 v 38.5878901 h 13.43164 V 0 h -36.16211 v -6.5136719 h 14.82422 z m 2.74023,-25.38086 q 1.30274,0 2.42578,0.494141 1.12305,0.449219 1.93164,1.302734 0.85352,0.853516 1.30274,1.976563 0.49414,1.078125 0.49414,2.380859 0,1.257813 -0.49414,2.380859 -0.44922,1.123047 -1.30274,1.976563 -0.80859,0.853516 -1.93164,1.347656 -1.12304,0.449219 -2.42578,0.449219 -1.30273,0 -2.42578,-0.449219 -1.12305,-0.49414 -1.97656,-1.347656 -0.80859,-0.853516 -1.30274,-1.976563 -0.44921,-1.123046 -0.44921,-2.380859 0,-1.302734 0.44921,-2.380859 0.49415,-1.123047 1.30274,-1.976563 0.85351,-0.853515 1.97656,-1.302734 1.12305,-0.494141 2.42578,-0.494141 z m 28.25586,18.91211 h 8.89453 l 11.05078,29.828124 2.38086,7.2773443 2.47071,-7.4570313 10.96093,-29.648437 h 8.58008 L 383.67773,0 h -8.98437 z m 92.89844,20.169921 q 0,1.66211 -0.0449,2.785157 -0.0449,1.123047 -0.13477,2.111328 h -31.66992 q 0,6.917968 3.86328,10.6464841 3.86328,3.6835938 11.14063,3.6835938 1.97656,0 3.95312,-0.1347656 1.97656,-0.1796875 3.81836,-0.4492188 1.8418,-0.2695312 3.50391,-0.5839844 1.70703,-0.359375 3.14453,-0.7636718 v 6.4238281 q -3.18945,0.89843747 -7.23242,1.43749998 -3.99805,0.58398437 -8.31055,0.58398437 -5.79492,0 -9.97266,-1.57226562 -4.17773,-1.57226563 -6.87304,-4.53710933 -2.65039,-3.0097657 -3.95313,-7.3222658 -1.25781,-4.357422 -1.25781,-9.83789 0,-4.761719 1.34766,-8.984375 1.39257,-4.267579 3.99804,-7.457032 2.65039,-3.234375 6.46875,-5.121093 3.81836,-1.886719 8.66992,-1.886719 4.7168,0 8.35547,1.482422 3.63867,1.482422 6.10938,4.222656 2.51562,2.695312 3.77344,6.603516 1.30273,3.863281 1.30273,8.669921 z m -8.13086,-1.123046 q 0.13477,-3.009766 -0.58398,-5.480469 -0.71875,-2.515625 -2.2461,-4.3125 -1.48242,-1.796875 -3.72851,-2.785156 -2.2461,-1.033204 -5.21094,-1.033204 -2.56055,0 -4.67188,0.988282 -2.11132,0.988281 -3.63867,2.785156 -1.52734,1.796875 -2.4707,4.3125 -0.94336,2.515625 -1.16797,5.525391 z m 22.46094,-19.046875 h 7.14258 l 0.22461,8.310546 q 3.99804,-4.80664 7.86132,-6.96289 3.90821,-2.15625 7.86133,-2.15625 7.00781,0 10.60156,4.537109 3.63868,4.53711 3.36914,13.476563 h -7.90625 q 0.13477,-5.929688 -1.75195,-8.580078 -1.8418,-2.695313 -5.43555,-2.695313 -1.57226,0 -3.18945,0.583984 -1.57226,0.539063 -3.2793,1.796875 -1.6621,1.212891 -3.54882,3.144532 -1.88672,1.93164 -4.04297,4.671875 V 0 h -7.90625 z"
       id="text9"
       style="font-size:92px;font-family:Consolas, Consolas_MSFontService, sans-serif;fill:#0000ff"
       transform="matrix(1 0 0 1 3457.76 2289)"
       aria-label="apb_driver" /><path
       d="m 4.8964844,-21.607422 q 0,-5.75 1.5722656,-10.197265 1.5722656,-4.492188 4.447266,-7.546875 2.919922,-3.09961 6.96289,-4.671875 4.087891,-1.617188 9.074219,-1.617188 2.15625,0 4.222656,0.269531 2.111328,0.269532 4.132813,0.853516 v -18.957031 h 7.861328 V 0 h -7.007813 l -0.269531,-8.5351563 q -3.279297,4.7617188 -7.097656,7.0527344 -3.81836,2.29101565 -8.265625,2.29101565 -3.863281,0 -6.828125,-1.6171875 Q 10.78125,-2.4257813 8.8046875,-5.3457031 6.8730469,-8.3105469 5.8847656,-12.443359 4.8964844,-16.576172 4.8964844,-21.607422 Z m 7.9960936,-0.49414 q 0,8.175781 2.38086,12.2187495 2.425781,3.9980469 6.828124,3.9980469 2.964844,0 6.244141,-2.6503907 3.324219,-2.6503907 6.962891,-7.8613277 v -20.933594 q -1.931641,-0.898438 -4.267578,-1.347656 -2.335938,-0.494141 -4.626954,-0.494141 -6.378906,0 -9.972656,4.132813 -3.548828,4.132812 -3.548828,12.9375 z m 46.71875,-23 h 7.142578 l 0.22461,8.310546 q 3.998046,-4.80664 7.861328,-6.96289 3.908203,-2.15625 7.861328,-2.15625 7.007812,0 10.601562,4.537109 3.638672,4.53711 3.369141,13.476563 h -7.90625 q 0.134766,-5.929688 -1.751953,-8.580078 -1.841797,-2.695313 -5.435547,-2.695313 -1.572266,0 -3.189453,0.583984 -1.572266,0.539063 -3.279297,1.796875 -1.662109,1.212891 -3.548828,3.144532 -1.886719,1.93164 -4.042969,4.671875 V 0 h -7.90625 z m 44.517582,0 h 8.89453 l 11.05078,29.828124 2.38086,7.2773443 2.4707,-7.4570313 10.96094,-29.648437 h 8.58008 L 130.76758,0 h -8.98438 z"
       id="text10"
       style="font-size:92px;font-family:Consolas, Consolas_MSFontService, sans-serif;fill:#001080"
       transform="matrix(1 0 0 1 4012.34 2289)"
       aria-label="drv" /><path
       d="M2885.5 2442.21C2885.5 2429.12 2896.12 2418.5 2909.21 2418.5L4712.79 2418.5C4725.88 2418.5 4736.5 2429.12 4736.5 2442.21L4736.5 2547.79C4736.5 2560.88 4725.88 2571.5 4712.79 2571.5L2909.21 2571.5C2896.12 2571.5 2885.5 2560.88 2885.5 2547.79Z"
       stroke="#000000"
       stroke-width="6.875"
       stroke-miterlimit="8"
       fill="#FFFFFF"
       fill-rule="evenodd"
       id="path10" /><path
       d="m 36.162109,0 -0.179687,-6.0644531 q -3.683594,3.6386718 -7.501953,5.25585935 -3.773438,1.6171875 -7.951172,1.6171875 -3.863281,0 -6.603516,-0.98828125 Q 11.185547,-1.1679687 9.3886719,-2.875 7.6367187,-4.6269531 6.7832031,-6.9628906 5.9746094,-9.2988281 5.9746094,-12.039063 q 0,-6.783203 5.0312496,-10.601562 5.076172,-3.863281 14.958985,-3.863281 h 9.34375 v -3.953125 q 0,-3.998047 -2.560547,-6.378906 -2.560547,-2.425782 -7.816406,-2.425782 -3.81836,0 -7.546875,0.853516 -3.683594,0.853516 -7.6367191,2.425781 v -7.052734 q 1.4824221,-0.539063 3.2792971,-1.033203 1.841797,-0.539063 3.863281,-0.94336 2.021484,-0.404297 4.222656,-0.628906 2.201172,-0.269531 4.447266,-0.269531 4.08789,0 7.367187,0.898437 3.279297,0.898438 5.525391,2.740235 2.291016,1.841797 3.503906,4.626953 1.212891,2.785156 1.212891,6.558594 V 0 Z m -0.853515,-20.529297 h -9.927735 q -2.919922,0 -5.03125,0.583985 -2.111328,0.583984 -3.458984,1.662109 -1.347656,1.078125 -2.021484,2.605469 -0.628907,1.482421 -0.628907,3.36914 0,1.302735 0.404297,2.5156252 0.404297,1.1679688 1.302735,2.1113282 0.898437,0.8984375 2.335937,1.4375 1.4375,0.5390625 3.503906,0.5390625 2.695313,0 6.154297,-1.6171875 3.503906,-1.6621094 7.367188,-5.2109374 z M 96.3125,-23.359375 q 0,6.019531 -1.707031,10.511719 -1.66211,4.4921872 -4.626953,7.457031 -2.964844,2.9648437 -7.007813,4.44726562 -4.042969,1.48242188 -8.759766,1.48242188 -2.15625,0 -4.3125,-0.22460937 -2.111328,-0.22460938 -4.3125,-0.76367188 V 18.417969 h -7.816406 v -63.519531 h 6.962891 l 0.49414,7.546875 q 3.369141,-4.626954 7.1875,-6.46875 3.81836,-1.886719 8.265625,-1.886719 3.863282,0 6.783204,1.617187 2.919921,1.617188 4.896484,4.582032 1.976562,2.919921 2.964844,7.097656 0.988281,4.132812 0.988281,9.253906 z M 88.316406,-23 q 0,-3.548828 -0.539062,-6.513672 -0.494141,-2.964844 -1.617188,-5.076172 -1.123047,-2.111328 -2.875,-3.279297 -1.751953,-1.21289 -4.177734,-1.21289 -1.482422,0 -3.009766,0.49414 -1.527344,0.449219 -3.189453,1.572266 -1.617187,1.078125 -3.458984,2.919922 -1.796875,1.796875 -3.863282,4.492187 v 21.8769535 q 2.15625,0.8984375 4.53711,1.4375 2.380859,0.4941406 4.671875,0.4941406 6.333984,0 9.927734,-4.2675781 3.59375,-4.3125 3.59375,-12.9375 z m 58.578124,-0.359375 q 0,5.615234 -1.57226,10.0625 -1.52735,4.4023437 -4.40235,7.5019531 -2.83008,3.0546875 -6.91797,4.7167969 -4.08789,1.6171875 -9.20898,1.6171875 -3.99805,0 -8.17578,-0.76367188 -4.17774,-0.76367187 -8.26563,-2.42578122 V -63.474609 h 7.81641 V -46 l -0.35938,8.355469 q 3.36914,-4.53711 7.1875,-6.378906 3.86329,-1.886719 8.26563,-1.886719 3.86328,0 6.7832,1.617187 2.91992,1.617188 4.89649,4.582032 1.97656,2.919921 2.96484,7.097656 0.98828,4.132812 0.98828,9.253906 z M 138.89844,-23 q 0,-3.548828 -0.53907,-6.513672 -0.49414,-2.964844 -1.61718,-5.076172 -1.12305,-2.111328 -2.875,-3.279297 -1.75196,-1.21289 -4.17774,-1.21289 -1.48242,0 -3.00976,0.49414 -1.52735,0.449219 -3.18946,1.572266 -1.61718,1.078125 -3.45898,2.919922 -1.79687,1.796875 -3.86328,4.492187 v 21.8769535 q 2.29101,0.8984375 4.67187,1.4375 2.38086,0.4941406 4.53711,0.4941406 2.69532,0 5.1211,-0.8535156 2.4707,-0.8535156 4.3125,-2.8300781 1.88672,-2.0214844 2.96484,-5.3007814 1.12305,-3.324219 1.12305,-8.220703 z m 63.42968,41.417969 h -50.58203 v -6.46875 h 50.58203 z M 241.67969,0 v -32.388672 q 0,-2.111328 -0.17969,-3.458984 -0.13477,-1.347656 -0.49414,-2.111328 -0.31445,-0.808594 -0.85352,-1.123047 -0.49414,-0.314453 -1.25781,-0.314453 -0.89844,0 -1.66211,0.539062 -0.76367,0.539063 -1.66211,1.751953 -0.85351,1.212891 -1.93164,3.234375 -1.0332,1.976563 -2.4707,4.896485 V 0 h -7.14258 v -31.535156 q 0,-2.470703 -0.17969,-3.998047 -0.13476,-1.527344 -0.49414,-2.380859 -0.31445,-0.853516 -0.85351,-1.167969 -0.53907,-0.314453 -1.30274,-0.314453 -0.80859,0 -1.52734,0.449218 -0.71875,0.449219 -1.61719,1.617188 -0.85351,1.167969 -1.93164,3.189453 -1.07812,2.021484 -2.56055,5.166016 V 0 h -7.1875 v -45.101562 h 5.97461 l 0.35938,8.580078 q 1.16797,-2.560547 2.24609,-4.357422 1.12305,-1.796875 2.29102,-2.875 1.16797,-1.123047 2.4707,-1.617188 1.34766,-0.539062 2.96484,-0.539062 3.63868,0 5.52539,2.380859 1.88672,2.38086 1.88672,7.367188 1.07813,-2.335938 2.11133,-4.132813 1.0332,-1.841797 2.20117,-3.054687 1.21289,-1.257813 2.65039,-1.886719 1.4375,-0.673828 3.32422,-0.673828 8.49024,0 8.49024,13.072265 V 0 Z m 57.67968,-22.910156 q 0,5.255859 -1.48242,9.658203 -1.48242,4.3574217 -4.26758,7.501953 -2.78515,3.0996094 -6.7832,4.8515625 -3.99805,1.70703125 -9.07422,1.70703125 -4.85156,0 -8.71484,-1.48242187 -3.81836,-1.52734378 -6.51367,-4.44726558 -2.65039,-2.9199219 -4.08789,-7.2324223 -1.39258,-4.3125 -1.39258,-9.927734 0,-5.255859 1.48242,-9.568359 1.48242,-4.357422 4.26758,-7.457032 2.78515,-3.144531 6.7832,-4.851562 3.99805,-1.751953 9.07422,-1.751953 4.85156,0 8.66992,1.527344 3.86328,1.482421 6.51367,4.402343 2.69532,2.875 4.08789,7.1875 1.4375,4.3125 1.4375,9.882813 z m -7.99609,0.359375 q 0,-4.177735 -0.94336,-7.277344 -0.89844,-3.144531 -2.60547,-5.210937 -1.70703,-2.111329 -4.17773,-3.144532 -2.42578,-1.078125 -5.43555,-1.078125 -3.5039,0 -6.01953,1.392578 -2.4707,1.347657 -4.08789,3.638672 -1.57227,2.291016 -2.33594,5.345703 -0.71875,3.009766 -0.71875,6.333985 0,4.177734 0.89844,7.322265 0.94336,3.144532 2.65039,5.2558597 1.70703,2.0664063 4.13281,3.1445313 2.42578,1.0332031 5.48047,1.0332031 3.50391,0 5.97461,-1.3476562 2.51563,-1.3925782 4.08789,-3.6835939 1.61719,-2.291016 2.33594,-5.300781 0.76367,-3.054688 0.76367,-6.423828 z m 19.31641,-22.550781 h 6.96289 l 0.31445,7.277343 q 1.97656,-2.335937 3.81836,-3.863281 1.8418,-1.572266 3.59375,-2.515625 1.79688,-0.943359 3.63867,-1.302734 1.8418,-0.404297 3.81836,-0.404297 6.96289,0 10.51172,4.132812 3.59375,4.087891 3.59375,12.353516 V 0 h -7.81641 v -28.794922 q 0,-5.300781 -1.97656,-7.816406 -1.97656,-2.560547 -5.88476,-2.560547 -1.4375,0 -2.83008,0.449219 -1.34766,0.404297 -2.83008,1.482422 -1.48242,1.033203 -3.23438,2.830078 -1.70703,1.796875 -3.86328,4.492187 V 0 h -7.8164 z m 65.94531,6.46875 h -13.3418 v -6.46875 h 21.24805 v 38.5878901 h 13.43164 V 0 H 361.80078 V -6.5136719 H 376.625 Z m 2.74023,-25.38086 q 1.30274,0 2.42579,0.494141 1.12304,0.449219 1.93164,1.302734 0.85351,0.853516 1.30273,1.976563 0.49414,1.078125 0.49414,2.380859 0,1.257813 -0.49414,2.380859 -0.44922,1.123047 -1.30273,1.976563 -0.8086,0.853516 -1.93164,1.347656 -1.12305,0.449219 -2.42579,0.449219 -1.30273,0 -2.42578,-0.449219 -1.12304,-0.49414 -1.97656,-1.347656 -0.80859,-0.853516 -1.30273,-1.976563 -0.44922,-1.123046 -0.44922,-2.380859 0,-1.302734 0.44922,-2.380859 0.49414,-1.123047 1.30273,-1.976563 0.85352,-0.853515 1.97656,-1.302734 1.12305,-0.494141 2.42578,-0.494141 z m 68.82032,63.38476575 q -2.65039,0.67382812 -5.48047,0.94335938 -2.83008,0.31445312 -5.75,0.31445312 -8.49024,0 -12.66797,-3.81835935 -4.17774,-3.8632813 -4.17774,-11.8144529 v -23.539063 h -12.62304 v -6.558593 h 12.62304 V -57.5 l 7.81641,-2.021484 v 14.419922 h 20.25977 v 6.558593 h -20.25977 v 22.910156 q 0,4.851563 2.56055,7.2773442 2.60547,2.3808594 7.63672,2.3808594 2.15625,0 4.71679,-0.3144531 2.56055,-0.359375 5.34571,-1.078125 z M 501.6875,-22.910156 q 0,5.255859 -1.48242,9.658203 -1.48242,4.3574217 -4.26758,7.501953 -2.78516,3.0996094 -6.7832,4.8515625 -3.99805,1.70703125 -9.07422,1.70703125 -4.85156,0 -8.71485,-1.48242187 -3.81836,-1.52734378 -6.51367,-4.44726558 -2.65039,-2.9199219 -4.08789,-7.2324223 -1.39258,-4.3125 -1.39258,-9.927734 0,-5.255859 1.48243,-9.568359 1.48242,-4.357422 4.26757,-7.457032 2.78516,-3.144531 6.78321,-4.851562 3.99804,-1.751953 9.07422,-1.751953 4.85156,0 8.66992,1.527344 3.86328,1.482421 6.51367,4.402343 2.69531,2.875 4.08789,7.1875 1.4375,4.3125 1.4375,9.882813 z m -7.99609,0.359375 q 0,-4.177735 -0.94336,-7.277344 -0.89844,-3.144531 -2.60547,-5.210937 -1.70703,-2.111329 -4.17774,-3.144532 -2.42578,-1.078125 -5.43554,-1.078125 -3.50391,0 -6.01953,1.392578 -2.47071,1.347657 -4.0879,3.638672 -1.57226,2.291016 -2.33593,5.345703 -0.71875,3.009766 -0.71875,6.333985 0,4.177734 0.89843,7.322265 0.94336,3.144532 2.6504,5.2558597 1.70703,2.0664063 4.13281,3.1445313 2.42578,1.0332031 5.48047,1.0332031 3.5039,0 5.97461,-1.3476562 2.51562,-1.3925782 4.08789,-3.6835939 1.61718,-2.291016 2.33593,-5.300781 0.76368,-3.054688 0.76368,-6.423828 z m 21.1582,-22.550781 h 7.14258 l 0.22461,8.310546 q 3.99804,-4.80664 7.86132,-6.96289 3.90821,-2.15625 7.86133,-2.15625 7.00782,0 10.60157,4.537109 3.63867,4.53711 3.36914,13.476563 h -7.90625 q 0.13476,-5.929688 -1.75196,-8.580078 -1.84179,-2.695313 -5.43554,-2.695313 -1.57227,0 -3.18946,0.583984 -1.57226,0.539063 -3.27929,1.796875 -1.66211,1.212891 -3.54883,3.144532 -1.88672,1.93164 -4.04297,4.671875 V 0 h -7.90625 z"
       id="text11"
       style="font-size:92px;font-family:Consolas, Consolas_MSFontService, sans-serif;fill:#0000ff"
       transform="matrix(1 0 0 1 3432.55 2525)"
       aria-label="apb_monitor" /><path
       d="m 39.351562,0 v -32.388672 q 0,-2.111328 -0.179687,-3.458984 -0.134766,-1.347656 -0.494141,-2.111328 -0.314453,-0.808594 -0.853515,-1.123047 -0.494141,-0.314453 -1.257813,-0.314453 -0.898437,0 -1.662109,0.539062 -0.763672,0.539063 -1.66211,1.751953 -0.853515,1.212891 -1.93164,3.234375 -1.033203,1.976563 -2.470703,4.896485 V 0 h -7.142578 v -31.535156 q 0,-2.470703 -0.179688,-3.998047 -0.134766,-1.527344 -0.494141,-2.380859 -0.314453,-0.853516 -0.853515,-1.167969 -0.539063,-0.314453 -1.302735,-0.314453 -0.808593,0 -1.527343,0.449218 -0.71875,0.449219 -1.617188,1.617188 -0.853515,1.167969 -1.93164,3.189453 -1.078125,2.021484 -2.560547,5.166016 V 0 H 4.0429687 v -45.101562 h 5.9746093 l 0.359375,8.580078 q 1.167969,-2.560547 2.246094,-4.357422 1.123047,-1.796875 2.291016,-2.875 1.167968,-1.123047 2.470703,-1.617188 1.347656,-0.539062 2.964843,-0.539062 3.638672,0 5.525391,2.380859 1.886719,2.38086 1.886719,7.367188 1.078125,-2.335938 2.111328,-4.132813 1.033203,-1.841797 2.201172,-3.054687 1.21289,-1.257813 2.65039,-1.886719 1.4375,-0.673828 3.324219,-0.673828 8.490234,0 8.490234,13.072265 V 0 Z M 97.03125,-22.910156 q 0,5.255859 -1.482422,9.658203 Q 94.066406,-8.8945313 91.28125,-5.75 88.496094,-2.6503906 84.498047,-0.8984375 80.5,0.80859375 75.423828,0.80859375 q -4.851562,0 -8.714844,-1.48242187 -3.818359,-1.52734378 -6.513672,-4.44726558 -2.65039,-2.9199219 -4.08789,-7.2324223 -1.392578,-4.3125 -1.392578,-9.927734 0,-5.255859 1.482422,-9.568359 1.482421,-4.357422 4.267578,-7.457032 2.785156,-3.144531 6.783203,-4.851562 3.998047,-1.751953 9.074219,-1.751953 4.851562,0 8.669921,1.527344 3.863282,1.482421 6.513672,4.402343 2.695313,2.875 4.087891,7.1875 1.4375,4.3125 1.4375,9.882813 z m -7.996094,0.359375 q 0,-4.177735 -0.943359,-7.277344 -0.898438,-3.144531 -2.605469,-5.210937 -1.707031,-2.111329 -4.177734,-3.144532 -2.425782,-1.078125 -5.435547,-1.078125 -3.503906,0 -6.019531,1.392578 -2.470704,1.347657 -4.087891,3.638672 -1.572266,2.291016 -2.335938,5.345703 -0.71875,3.009766 -0.71875,6.333985 0,4.177734 0.898438,7.322265 0.943359,3.144532 2.650391,5.2558597 1.707031,2.0664063 4.132812,3.1445313 2.425781,1.0332031 5.480469,1.0332031 3.503906,0 5.974609,-1.3476562 2.515625,-1.3925782 4.087891,-3.6835939 1.617187,-2.291016 2.335937,-5.300781 0.763672,-3.054688 0.763672,-6.423828 z m 19.316404,-22.550781 h 6.96289 l 0.31446,7.277343 q 1.97656,-2.335937 3.81836,-3.863281 1.84179,-1.572266 3.59375,-2.515625 1.79687,-0.943359 3.63867,-1.302734 1.84179,-0.404297 3.81836,-0.404297 6.96289,0 10.51172,4.132812 3.59375,4.087891 3.59375,12.353516 V 0 h -7.81641 v -28.794922 q 0,-5.300781 -1.97656,-7.816406 -1.97657,-2.560547 -5.88477,-2.560547 -1.4375,0 -2.83008,0.449219 -1.34765,0.404297 -2.83007,1.482422 -1.48243,1.033203 -3.23438,2.830078 -1.70703,1.796875 -3.86328,4.492187 V 0 h -7.81641 z"
       id="text12"
       style="font-size:92px;font-family:Consolas, Consolas_MSFontService, sans-serif;fill:#001080"
       transform="matrix(1 0 0 1 4037.55 2525)"
       aria-label="mon" /><path
       d="m 43.237305,0 -0.214844,-7.2509766 q -4.404297,4.350586 -8.969727,6.28417972 -4.511718,1.93359376 -9.506836,1.93359376 -4.61914,0 -7.895507,-1.18164063 Q 13.374023,-1.3964844 11.225586,-3.4375 9.1308594,-5.5322266 8.1103516,-8.3251953 7.1435547,-11.118164 7.1435547,-14.394531 q 0,-8.110352 6.0156253,-12.675781 6.069336,-4.619141 17.885742,-4.619141 h 11.171875 v -4.726563 q 0,-4.780273 -3.061524,-7.626953 -3.061523,-2.90039 -9.345703,-2.90039 -4.565429,0 -9.023437,1.020507 -4.404297,1.020508 -9.13086,2.900391 v -8.432617 q 1.772461,-0.644531 3.920899,-1.235352 2.202148,-0.644531 4.61914,-1.127929 2.416993,-0.483399 5.048829,-0.751953 2.631836,-0.322266 5.317382,-0.322266 4.887696,0 8.808594,1.074219 3.920899,1.074218 6.606445,3.276367 2.739258,2.202148 4.189454,5.532226 1.450195,3.330079 1.450195,7.841797 V 0 Z M 42.216797,-24.545898 H 30.34668 q -3.491211,0 -6.015625,0.698242 -2.524414,0.698242 -4.135743,1.987304 -1.611328,1.289063 -2.416992,3.115235 -0.751953,1.772461 -0.751953,4.02832 0,1.557617 0.483399,3.007813 0.483398,1.396484 1.557617,2.5244137 1.074219,1.0742187 2.792969,1.71875 1.71875,0.6445312 4.189453,0.6445312 3.222656,0 7.358398,-1.9335937 4.189453,-1.9873052 8.808594,-6.2304692 z m 72.939453,-3.383789 q 0,7.197265 -2.04102,12.568359 -1.9873,5.3710936 -5.53222,8.9160155 -3.54492,3.5449219 -8.378908,5.3173828 -4.833985,1.77246095 -10.473633,1.77246095 -2.578125,0 -5.15625,-0.26855469 -2.524414,-0.26855469 -5.15625,-0.91308593 V 22.021484 h -9.345703 v -75.947265 h 8.325195 l 0.59082,9.023437 q 4.028321,-5.532226 8.59375,-7.734375 4.56543,-2.255859 9.882813,-2.255859 4.619136,0 8.110356,1.933594 3.49121,1.933593 5.85449,5.478515 2.36328,3.491211 3.54492,8.486328 1.18164,4.941407 1.18164,11.064454 z M 105.5957,-27.5 q 0,-4.243164 -0.64453,-7.788086 -0.59082,-3.544922 -1.93359,-6.069336 -1.34278,-2.524414 -3.437502,-3.920898 -2.094726,-1.450196 -4.995117,-1.450196 -1.772461,0 -3.598633,0.590821 -1.826172,0.537109 -3.813476,1.879883 -1.933594,1.289062 -4.135743,3.49121 -2.148437,2.148438 -4.61914,5.371094 v 26.1572267 q 2.578125,1.0742188 5.424804,1.7187501 2.84668,0.5908203 5.585938,0.5908203 7.573242,0 11.870119,-5.1025391 4.29687,-5.15625 4.29687,-15.46875 z m 70.03907,-0.429687 q 0,6.713867 -1.87989,12.031249 -1.82617,5.263672 -5.26367,8.9697271 -3.38379,3.6523437 -8.27148,5.6396484 -4.8877,1.93359375 -11.01075,1.93359375 -4.78027,0 -9.77539,-0.91308594 -4.99511,-0.91308591 -9.88281,-2.90039061 V -75.893555 h 9.3457 V -55 l -0.42968,9.990234 q 4.02832,-5.424804 8.59375,-7.626953 4.61914,-2.255859 9.88281,-2.255859 4.61914,0 8.11035,1.933594 3.49121,1.933593 5.85449,5.478515 2.36328,3.491211 3.54492,8.486328 1.18165,4.941407 1.18165,11.064454 z M 166.07422,-27.5 q 0,-4.243164 -0.64453,-7.788086 -0.59082,-3.544922 -1.9336,-6.069336 -1.34277,-2.524414 -3.4375,-3.920898 -2.09472,-1.450196 -4.99511,-1.450196 -1.77246,0 -3.59864,0.590821 -1.82617,0.537109 -3.81347,1.879883 -1.9336,1.289062 -4.13575,3.49121 -2.14843,2.148438 -4.61914,5.371094 v 26.1572267 q 2.73926,1.0742188 5.58594,1.7187501 2.84668,0.5908203 5.42481,0.5908203 3.22265,0 6.12304,-1.0205078 2.9541,-1.0205079 5.15625,-3.3837893 2.25586,-2.416992 3.54493,-6.33789 1.34277,-3.97461 1.34277,-9.829102 z m 75.83984,49.521484 h -60.47851 v -7.734375 h 60.47851 z M 285.15137,0 284.93652,-7.2509766 q -4.40429,4.350586 -8.96972,6.28417972 -4.51172,1.93359376 -9.50684,1.93359376 -4.61914,0 -7.89551,-1.18164063 -3.27636,-1.18164065 -5.4248,-3.22265625 -2.09473,-2.0947266 -3.11524,-4.8876953 -0.96679,-2.7929687 -0.96679,-6.0693357 0,-8.110352 6.01562,-12.675781 6.06934,-4.619141 17.88574,-4.619141 h 11.17188 v -4.726563 q 0,-4.780273 -3.06152,-7.626953 -3.06153,-2.90039 -9.34571,-2.90039 -4.56543,0 -9.02343,1.020507 -4.4043,1.020508 -9.13086,2.900391 v -8.432617 q 1.77246,-0.644531 3.92089,-1.235352 2.20215,-0.644531 4.61914,-1.127929 2.417,-0.483399 5.04883,-0.751953 2.63184,-0.322266 5.31739,-0.322266 4.88769,0 8.80859,1.074219 3.9209,1.074218 6.60644,3.276367 2.73926,2.202148 4.18946,5.532226 1.45019,3.330079 1.45019,7.841797 V 0 Z m -1.02051,-24.545898 h -11.87012 q -3.49121,0 -6.01562,0.698242 -2.52442,0.698242 -4.13575,1.987304 -1.61132,1.289063 -2.41699,3.115235 -0.75195,1.772461 -0.75195,4.02832 0,1.557617 0.4834,3.007813 0.4834,1.396484 1.55762,2.5244137 1.07421,1.0742187 2.79296,1.71875 1.71875,0.6445312 4.18946,0.6445312 3.22265,0 7.3584,-1.9335937 4.18945,-1.9873052 8.80859,-6.2304692 z m 65.68848,-21.75293 q 1.5039,1.879883 2.30957,4.404297 0.85937,2.470703 0.85937,5.371094 0,4.189453 -1.55762,7.680664 -1.5039,3.4375 -4.29687,5.908203 -2.79297,2.470703 -6.71387,3.867187 -3.86719,1.342774 -8.54004,1.342774 -3.38379,0 -6.33789,-0.698243 -2.9541,-0.751953 -4.67285,-1.826171 -1.02051,1.503906 -1.71875,2.846679 -0.69824,1.342774 -0.69824,3.007813 0,2.041015 1.93359,3.383789 1.98731,1.3427732 5.20996,1.4501951 l 14.17969,0.5371094 q 4.02832,0.1074219 7.41211,1.0205078 3.4375,0.913086 5.85449,2.631836 2.47071,1.7187499 3.81348,4.243164 1.39648,2.5244141 1.39648,5.8544922 0,3.5986328 -1.55761,6.8212895 -1.55762,3.222656 -4.83399,5.639648 -3.22265,2.470703 -8.21777,3.920898 -4.99512,1.450196 -11.87012,1.450196 -6.55273,0 -11.17187,-1.074219 -4.56543,-1.020508 -7.51954,-2.900391 -2.9541,-1.826172 -4.29687,-4.404296 -1.34277,-2.524415 -1.34277,-5.585938 0,-3.9208984 1.82617,-6.875 1.82617,-2.9541016 5.63965,-5.6933594 -1.39649,-0.6445312 -2.417,-1.6113281 -1.0205,-0.9667969 -1.66503,-2.0947266 -0.64454,-1.1816406 -0.9668,-2.4707029 -0.32227,-1.289063 -0.32227,-2.524414 0,-3.491211 1.61133,-6.391602 1.66504,-2.90039 3.9209,-5.478515 -1.02051,-1.235352 -1.82617,-2.416993 -0.75196,-1.18164 -1.34278,-2.524414 -0.53711,-1.396484 -0.85937,-2.954101 -0.26856,-1.611328 -0.26856,-3.652344 0,-4.189453 1.50391,-7.626953 1.55762,-3.491211 4.29688,-5.961914 2.79296,-2.470703 6.66015,-3.813477 3.9209,-1.396484 8.64746,-1.396484 1.98731,0 3.81348,0.268555 1.82617,0.268554 3.22266,0.698242 h 19.55078 v 7.626953 z M 317.37793,7.7880859 q 0,3.8134771 3.97461,5.5322271 3.97461,1.77246 11.06445,1.77246 4.45801,0 7.46582,-0.805664 3.06153,-0.805664 4.8877,-2.148437 1.87988,-1.289063 2.68554,-3.0078126 0.80567,-1.6650391 0.80567,-3.4375 0,-3.2763672 -2.68555,-4.8339844 -2.68555,-1.55761719 -8.21777,-1.82617188 L 323.28613,-1.4501953 q -1.77246,1.18164061 -2.9541,2.3095703 -1.12793,1.1279297 -1.77246,2.2558594 -0.64453,1.1816406 -0.91309,2.3095703 -0.26855,1.1816406 -0.26855,2.3632812 z m 2.84668,-44.0966799 q 0,2.578125 0.85937,4.726563 0.85938,2.148437 2.417,3.652344 1.55761,1.503906 3.65234,2.363281 2.14844,0.805664 4.72656,0.805664 2.79297,0 4.94141,-0.913086 2.20215,-0.966797 3.65234,-2.578125 1.50391,-1.611328 2.25586,-3.706055 0.80567,-2.094726 0.80567,-4.350586 0,-2.578125 -0.85938,-4.726562 -0.85937,-2.148438 -2.41699,-3.652344 -1.55762,-1.503906 -3.70606,-2.30957 -2.09472,-0.859375 -4.67285,-0.859375 -2.79297,0 -4.99511,0.966797 -2.14844,0.966796 -3.65235,2.578125 -1.45019,1.557617 -2.25586,3.652343 -0.75195,2.094727 -0.75195,4.350586 z m 96.78711,6.499024 q 0,1.987304 -0.0537,3.330078 -0.0537,1.342773 -0.16114,2.524414 h -37.86621 q 0,8.271484 4.61914,12.729492 4.61915,4.4042969 13.32032,4.4042969 2.36328,0 4.72656,-0.1611328 2.36328,-0.2148437 4.56543,-0.5371093 2.20215,-0.3222657 4.18945,-0.6982422 2.04102,-0.4296875 3.75977,-0.913086 v 7.6806641 q -3.81348,1.07421874 -8.64746,1.71874999 -4.78028,0.69824219 -9.93653,0.69824219 -6.92871,0 -11.92382,-1.87988282 -4.99512,-1.87988286 -8.21778,-5.42480466 -3.16894,-3.5986328 -4.72656,-8.7548824 -1.50391,-5.209961 -1.50391,-11.762696 0,-5.693359 1.61133,-10.742187 1.66504,-5.102539 4.78027,-8.916016 3.16895,-3.867187 7.73438,-6.123047 4.56543,-2.255859 10.36621,-2.255859 5.63965,0 9.99024,1.772461 4.35058,1.772461 7.30468,5.048828 3.00782,3.222656 4.51172,7.895508 1.55762,4.61914 1.55762,10.366211 z m -9.72168,-1.342774 q 0.16113,-3.598633 -0.69824,-6.552734 -0.85938,-3.007813 -2.68555,-5.15625 -1.77246,-2.148438 -4.45801,-3.330078 -2.68554,-1.235352 -6.23047,-1.235352 -3.06152,0 -5.58593,1.181641 -2.52442,1.18164 -4.35059,3.330078 -1.82617,2.148437 -2.9541,5.15625 -1.12793,3.007812 -1.39649,6.606445 z m 24.65332,-22.773437 h 8.32519 l 0.37598,8.701172 q 2.36328,-2.792969 4.56543,-4.619141 2.20215,-1.879883 4.29688,-3.007812 2.14843,-1.12793 4.35058,-1.557618 2.20215,-0.483398 4.56543,-0.483398 8.3252,0 12.56836,4.941406 4.29688,4.887695 4.29688,14.770508 V 0 h -9.34571 v -34.428711 q 0,-6.337891 -2.36328,-9.345703 -2.36328,-3.061523 -7.03613,-3.061523 -1.71875,0 -3.38379,0.537109 -1.61133,0.483398 -3.38379,1.772461 -1.77246,1.235351 -3.86719,3.383789 -2.04101,2.148437 -4.61914,5.371094 V 0 h -9.3457 z m 103.93066,53.17382788 q -3.16894,0.80566406 -6.55273,1.12792968 -3.38379,0.37597656 -6.875,0.37597656 -10.15137,0 -15.14649,-4.56542972 -4.99511,-4.6191406 -4.99511,-14.1259764 v -28.144531 h -15.09278 v -7.841797 h 15.09278 V -68.75 l 9.3457,-2.416992 v 17.241211 h 24.22363 v 7.841797 h -24.22363 v 27.392578 q 0,5.800781 3.06152,8.7011716 3.11524,2.8466797 9.13086,2.8466797 2.57813,0 5.63965,-0.3759765 3.06153,-0.4296875 6.3916,-1.2890626 z"
       id="text13"
       style="font-size:110px;font-family:Consolas, Consolas_MSFontService, sans-serif;fill:#0000ff"
       transform="matrix(1 0 0 1 3270.64 2060)"
       aria-label="apb_agent" /><path
       d="m 43.237305,0 -0.214844,-7.2509766 q -4.404297,4.350586 -8.969727,6.28417972 -4.511718,1.93359376 -9.506836,1.93359376 -4.61914,0 -7.895507,-1.18164063 Q 13.374023,-1.3964844 11.225586,-3.4375 9.1308594,-5.5322266 8.1103516,-8.3251953 7.1435547,-11.118164 7.1435547,-14.394531 q 0,-8.110352 6.0156253,-12.675781 6.069336,-4.619141 17.885742,-4.619141 h 11.171875 v -4.726563 q 0,-4.780273 -3.061524,-7.626953 -3.061523,-2.90039 -9.345703,-2.90039 -4.565429,0 -9.023437,1.020507 -4.404297,1.020508 -9.13086,2.900391 v -8.432617 q 1.772461,-0.644531 3.920899,-1.235352 2.202148,-0.644531 4.61914,-1.127929 2.416993,-0.483399 5.048829,-0.751953 2.631836,-0.322266 5.317382,-0.322266 4.887696,0 8.808594,1.074219 3.920899,1.074218 6.606445,3.276367 2.739258,2.202148 4.189454,5.532226 1.450195,3.330079 1.450195,7.841797 V 0 Z M 42.216797,-24.545898 H 30.34668 q -3.491211,0 -6.015625,0.698242 -2.524414,0.698242 -4.135743,1.987304 -1.611328,1.289063 -2.416992,3.115235 -0.751953,1.772461 -0.751953,4.02832 0,1.557617 0.483399,3.007813 0.483398,1.396484 1.557617,2.5244137 1.074219,1.0742187 2.792969,1.71875 1.71875,0.6445312 4.189453,0.6445312 3.222656,0 7.358398,-1.9335937 4.189453,-1.9873052 8.808594,-6.2304692 z m 65.688473,-21.75293 q 1.50391,1.879883 2.30957,4.404297 0.85938,2.470703 0.85938,5.371094 0,4.189453 -1.55762,7.680664 -1.5039,3.4375 -4.29687,5.908203 -2.79297,2.470703 -6.713871,3.867187 -3.867187,1.342774 -8.540039,1.342774 -3.383789,0 -6.33789,-0.698243 -2.954102,-0.751953 -4.672852,-1.826171 -1.020508,1.503906 -1.71875,2.846679 -0.698242,1.342774 -0.698242,3.007813 0,2.041015 1.933594,3.383789 1.987304,1.3427732 5.209961,1.4501951 l 14.179687,0.5371094 q 4.028322,0.1074219 7.412112,1.0205078 3.4375,0.913086 5.85449,2.631836 2.4707,1.7187499 3.81348,4.243164 1.39648,2.5244141 1.39648,5.8544922 0,3.5986328 -1.55762,6.8212895 -1.55761,3.222656 -4.83398,5.639648 -3.22266,2.470703 -8.21777,3.920898 -4.995122,1.450196 -11.870122,1.450196 -6.552734,0 -11.171875,-1.074219 -4.565429,-1.020508 -7.519531,-2.900391 -2.954101,-1.826172 -4.296875,-4.404296 -1.342773,-2.524415 -1.342773,-5.585938 0,-3.9208984 1.826172,-6.875 1.826171,-2.9541016 5.639648,-5.6933594 -1.396484,-0.6445312 -2.416992,-1.6113281 -1.020508,-0.9667969 -1.665039,-2.0947266 -0.644531,-1.1816406 -0.966797,-2.4707029 -0.322266,-1.289063 -0.322266,-2.524414 0,-3.491211 1.611328,-6.391602 1.665039,-2.90039 3.920899,-5.478515 -1.020508,-1.235352 -1.826172,-2.416993 -0.751953,-1.18164 -1.342773,-2.524414 -0.53711,-1.396484 -0.859375,-2.954101 -0.268555,-1.611328 -0.268555,-3.652344 0,-4.189453 1.503906,-7.626953 1.557617,-3.491211 4.296875,-5.961914 2.792969,-2.470703 6.660156,-3.813477 3.920899,-1.396484 8.647461,-1.396484 1.987305,0 3.813477,0.268555 1.826172,0.268554 3.222656,0.698242 h 19.550777 v 7.626953 z M 75.463867,7.7880859 q 0,3.8134771 3.97461,5.5322271 3.974609,1.77246 11.064453,1.77246 4.458007,0 7.46582,-0.805664 3.06152,-0.805664 4.8877,-2.148437 1.87988,-1.289063 2.68554,-3.0078126 0.80567,-1.6650391 0.80567,-3.4375 0,-3.2763672 -2.68555,-4.8339844 -2.68555,-1.55761719 -8.217774,-1.82617188 L 81.37207,-1.4501953 q -1.772461,1.18164061 -2.954101,2.3095703 -1.12793,1.1279297 -1.772461,2.2558594 -0.644531,1.1816406 -0.913086,2.3095703 -0.268555,1.1816406 -0.268555,2.3632812 z m 2.84668,-44.0966799 q 0,2.578125 0.859375,4.726563 0.859375,2.148437 2.416992,3.652344 1.557617,1.503906 3.652344,2.363281 2.148437,0.805664 4.726562,0.805664 2.792969,0 4.941407,-0.913086 2.202148,-0.966797 3.652343,-2.578125 1.50391,-1.611328 2.25586,-3.706055 0.80566,-2.094726 0.80566,-4.350586 0,-2.578125 -0.85937,-4.726562 -0.859376,-2.148438 -2.416993,-3.652344 -1.557618,-1.503906 -3.706055,-2.30957 -2.094727,-0.859375 -4.672852,-0.859375 -2.792968,0 -4.995117,0.966797 -2.148437,0.966796 -3.652344,2.578125 -1.450195,1.557617 -2.255859,3.652343 -0.751953,2.094727 -0.751953,4.350586 z M 181.43555,22.021484 h -60.47852 v -7.734375 h 60.47852 z m 51.29394,-36.738281 q 0,2.84668 -0.96679,5.1025392 -0.9668,2.2558594 -2.63184,4.0283203 -1.66504,1.71875 -3.86719,2.9541016 -2.20215,1.2353515 -4.72656,2.04101559 -2.4707,0.80566406 -5.10254,1.18164062 -2.63184,0.37597657 -5.15625,0.37597657 -5.47852,0 -10.09766,-0.48339844 Q 195.61523,0 191.21094,-1.0742187 v -8.5937501 q 4.72656,1.3427735 9.39941,2.0410157 4.67285,0.6982422 9.29199,0.6982422 6.71387,0 9.93653,-1.8261719 3.22265,-1.8261722 3.22265,-5.2099612 0,-1.450195 -0.53711,-2.578125 -0.48339,-1.18164 -1.82617,-2.202148 -1.34277,-1.074219 -4.18945,-2.202149 -2.79297,-1.127929 -7.68067,-2.578125 -3.65234,-1.074218 -6.76757,-2.416992 -3.06153,-1.396484 -5.31739,-3.276367 -2.25586,-1.879883 -3.54492,-4.404297 -1.28906,-2.524414 -1.28906,-5.961914 0,-2.255859 1.02051,-4.941406 1.07422,-2.685547 3.59863,-4.995117 2.52441,-2.309571 6.82129,-3.813477 4.29687,-1.557617 10.74219,-1.557617 3.16894,0 7.03613,0.375976 3.86719,0.322266 8.05664,1.181641 v 8.325195 q -4.4043,-1.074218 -8.37891,-1.557617 -3.92089,-0.537109 -6.82129,-0.537109 -3.49121,0 -5.9082,0.537109 -2.36328,0.53711 -3.86719,1.503906 -1.45019,0.913086 -2.09472,2.202149 -0.64453,1.235351 -0.64453,2.685547 0,1.450195 0.53711,2.631836 0.59082,1.18164 2.09472,2.30957 1.55762,1.074219 4.29688,2.202148 2.73926,1.074219 7.14355,2.363282 4.78028,1.396484 8.05664,2.954101 3.27637,1.503907 5.31739,3.383789 2.04101,1.879883 2.90039,4.243164 0.91308,2.363282 0.91308,5.371094 z m 36.14746,-53.496094 H 252.9248 v -7.680664 h 25.40528 v 68.1054691 h 16.05957 V 0 h -43.23731 v -7.7880859 h 17.72461 z M 345.62988,0 345.41504,-7.2509766 q -4.4043,4.350586 -8.96973,6.28417972 -4.51172,1.93359376 -9.50683,1.93359376 -4.61914,0 -7.89551,-1.18164063 -3.27637,-1.18164065 -5.42481,-3.22265625 -2.09472,-2.0947266 -3.11523,-4.8876953 -0.9668,-2.7929687 -0.9668,-6.0693357 0,-8.110352 6.01563,-12.675781 6.06933,-4.619141 17.88574,-4.619141 h 11.17187 v -4.726563 q 0,-4.780273 -3.06152,-7.626953 -3.06152,-2.90039 -9.3457,-2.90039 -4.56543,0 -9.02344,1.020507 -4.4043,1.020508 -9.13086,2.900391 v -8.432617 q 1.77246,-0.644531 3.9209,-1.235352 2.20215,-0.644531 4.61914,-1.127929 2.41699,-0.483399 5.04883,-0.751953 2.63183,-0.322266 5.31738,-0.322266 4.8877,0 8.8086,1.074219 3.92089,1.074218 6.60644,3.276367 2.73926,2.202148 4.18945,5.532226 1.4502,3.330079 1.4502,7.841797 V 0 Z m -1.02051,-24.545898 h -11.87011 q -3.49121,0 -6.01563,0.698242 -2.52441,0.698242 -4.13574,1.987304 -1.61133,1.289063 -2.41699,3.115235 -0.75195,1.772461 -0.75195,4.02832 0,1.557617 0.48339,3.007813 0.4834,1.396484 1.55762,2.5244137 1.07422,1.0742187 2.79297,1.71875 1.71875,0.6445312 4.18945,0.6445312 3.22266,0 7.3584,-1.9335937 4.18945,-1.9873052 8.80859,-6.2304692 z m 21.80665,-29.379883 h 10.63476 l 13.21289,35.664062 2.84668,8.7011721 2.9541,-8.9160151 13.10547,-35.449219 h 10.25879 L 398.2666,0 h -10.74219 z m 111.07421,24.116211 q 0,1.987304 -0.0537,3.330078 -0.0537,1.342773 -0.16113,2.524414 h -37.86621 q 0,8.271484 4.61914,12.729492 4.61914,4.4042969 13.32031,4.4042969 2.36328,0 4.72657,-0.1611328 2.36328,-0.2148437 4.56542,-0.5371093 2.20215,-0.3222657 4.18946,-0.6982422 2.04101,-0.4296875 3.75976,-0.913086 v 7.6806641 q -3.81347,1.07421874 -8.64746,1.71874999 -4.78027,0.69824219 -9.93652,0.69824219 -6.92871,0 -11.92383,-1.87988282 -4.99512,-1.87988286 -8.21777,-5.42480466 -3.16895,-3.5986328 -4.72656,-8.7548824 -1.50391,-5.209961 -1.50391,-11.762696 0,-5.693359 1.61133,-10.742187 1.66504,-5.102539 4.78027,-8.916016 3.16895,-3.867187 7.73438,-6.123047 4.56543,-2.255859 10.36621,-2.255859 5.63964,0 9.99023,1.772461 4.35059,1.772461 7.30469,5.048828 3.00781,3.222656 4.51172,7.895508 1.55761,4.61914 1.55761,10.366211 z m -9.72168,-1.342774 q 0.16114,-3.598633 -0.69824,-6.552734 -0.85937,-3.007813 -2.68554,-5.15625 -1.77247,-2.148438 -4.45801,-3.330078 -2.68555,-1.235352 -6.23047,-1.235352 -3.06152,0 -5.58594,1.181641 -2.52441,1.18164 -4.35058,3.330078 -1.82618,2.148437 -2.95411,5.15625 -1.12793,3.007812 -1.39648,6.606445 z"
       id="text14"
       style="font-size:110px;font-family:Consolas, Consolas_MSFontService, sans-serif;fill:#001080"
       transform="matrix(1 0 0 1 3877.93 2060)"
       aria-label="ag_slave" /></g></svg>
