<?xml version="1.0" encoding="UTF-8" standalone="no"?>
<svg
   width="7396"
   height="1921"
   xml:space="preserve"
   overflow="hidden"
   version="1.1"
   id="svg40"
   sodipodi:docname="uvm_factory_01.svg"
   inkscape:version="1.3 (0e150ed6c4, 2023-07-21)"
   xmlns:inkscape="http://www.inkscape.org/namespaces/inkscape"
   xmlns:sodipodi="http://sodipodi.sourceforge.net/DTD/sodipodi-0.dtd"
   xmlns="http://www.w3.org/2000/svg"
   xmlns:svg="http://www.w3.org/2000/svg"><defs
     id="defs40" /><sodipodi:namedview
     id="namedview40"
     pagecolor="#ffffff"
     bordercolor="#000000"
     borderopacity="0.25"
     inkscape:showpageshadow="2"
     inkscape:pageopacity="0.0"
     inkscape:pagecheckerboard="0"
     inkscape:deskcolor="#d1d1d1"
     inkscape:zoom="0.14426717"
     inkscape:cx="3698"
     inkscape:cy="960.02437"
     inkscape:window-width="1920"
     inkscape:window-height="1001"
     inkscape:window-x="-9"
     inkscape:window-y="-9"
     inkscape:window-maximized="1"
     inkscape:current-layer="svg40" /><g
     transform="translate(1200 -188)"
     id="g40"><path
       id="rect1"
       style="fill:#ffffff;stroke:#ffffff;stroke-width:4.58333;stroke-miterlimit:8"
       d="m -1197.5,190.5 h 7391 v 1916 h -7391 z" /><path
       d="M2960 882.836C2960 802.293 3025.29 737 3105.84 737L5916.16 737C5996.71 737 6062 802.293 6062 882.836L6062 1532.16C6062 1612.71 5996.71 1678 5916.16 1678L3105.84 1678C3025.29 1678 2960 1612.71 2960 1532.16Z"
       stroke="#000000"
       stroke-width="10.3125"
       stroke-miterlimit="8"
       fill="#FFFFFF"
       fill-rule="evenodd"
       id="path1" /><path
       d="m 22.484,0.73 q -7.3,0 -11.68,-4.088 -4.38,-4.088 -4.38,-11.242 v -10.95 q 0,-7.154 4.38,-11.242 4.38,-4.088 11.68,-4.088 6.935,0 11.169,3.723 4.307,3.723 4.526,10.147 h -6.57 q -0.219,-3.869 -2.628,-5.913 -2.409,-2.117 -6.497,-2.117 -4.307,0 -6.935,2.482 -2.555,2.409 -2.555,6.935 V -14.6 q 0,4.526 2.555,7.008 2.628,2.482 6.935,2.482 4.088,0 6.497,-2.117 2.409,-2.117 2.628,-5.913 h 6.57 Q 37.96,-6.716 33.653,-2.993 29.419,0.73 22.484,0.73 Z M 71.540026,0 q -5.329,0 -8.541,-3.066 -3.139,-3.139 -3.139,-8.249 v -35.989 h -13.87 v -5.986 h 20.44 v 41.975 q 0,2.482 1.387,3.942 1.387,1.387 3.723,1.387 h 12.41 V 0 Z m 34.456024,0.73 q -6.204998,0 -9.854998,-3.431 -3.65,-3.504 -3.65,-9.125 0,-3.723 1.679,-6.497 1.679,-2.774 4.672,-4.307 2.992998,-1.606 6.861998,-1.606 h 12.41 v -3.139 q 0,-7.811 -8.541,-7.811 -3.796,0 -6.132,1.387 -2.336,1.387 -2.482,3.869 h -6.569998 q 0.365,-4.745 4.38,-7.811 4.087998,-3.139 10.803998,-3.139 7.3,0 11.169,3.504 3.942,3.504 3.942,9.782 V 0 h -6.497 v -7.3 h -0.146 q -0.584,3.723 -3.723,5.913 -3.139,2.117 -8.322,2.117 z m 1.606,-5.548 q 4.818,0 7.665,-2.336 2.847,-2.336 2.847,-6.351 v -5.621 h -11.68 q -3.212,0 -5.256,1.971 -1.970998,1.898 -1.970998,5.11 0,3.358 2.189998,5.329 2.263,1.898 6.205,1.898 z m 44.09204,5.402 q -6.716,0 -10.439,-2.993 -3.65,-3.066 -3.65,-8.614 h 6.57 q 0,2.774 1.971,4.38 1.971,1.533 5.548,1.533 h 3.212 q 3.65,0 5.621,-1.606 2.044,-1.606 2.044,-4.526 0,-5.183 -4.745,-5.84 l -11.096,-1.606 q -4.088,-0.584 -6.351,-3.358 -2.263,-2.847 -2.263,-7.446 0,-5.256 3.577,-8.249 3.65,-2.993 10.001,-2.993 h 3.212 q 5.84,0 9.49,2.92 3.723,2.847 4.015,7.519 h -6.643 q -0.146,-2.117 -2.044,-3.504 -1.825,-1.387 -4.818,-1.387 h -3.212 q -3.358,0 -5.256,1.533 -1.898,1.533 -1.898,4.161 0,4.234 3.869,4.818 l 10.366,1.46 q 10.22,1.46 10.22,11.972 0,5.621 -3.723,8.76 -3.65,3.066 -10.366,3.066 z m 43.80001,0 q -6.716,0 -10.439,-2.993 -3.65,-3.066 -3.65,-8.614 h 6.57 q 0,2.774 1.971,4.38 1.971,1.533 5.548,1.533 h 3.212 q 3.65,0 5.621,-1.606 2.044,-1.606 2.044,-4.526 0,-5.183 -4.745,-5.84 l -11.096,-1.606 q -4.088,-0.584 -6.351,-3.358 -2.263,-2.847 -2.263,-7.446 0,-5.256 3.577,-8.249 3.65,-2.993 10.001,-2.993 h 3.212 q 5.84,0 9.49,2.92 3.723,2.847 4.015,7.519 h -6.643 q -0.146,-2.117 -2.044,-3.504 -1.825,-1.387 -4.818,-1.387 h -3.212 q -3.358,0 -5.256,1.533 -1.898,1.533 -1.898,4.161 0,4.234 3.869,4.818 l 10.366,1.46 q 10.22,1.46 10.22,11.972 0,5.621 -3.723,8.76 -3.65,3.066 -10.366,3.066 z"
       id="text1"
       style="font-size:73px;font-family:'JetBrains Mono', 'JetBrains Mono_MSFontService', sans-serif;fill:#0000ff"
       transform="matrix(1 0 0 1 3696.56 897)"
       aria-label="class" /><path
       d="M 21.827,0.73 Q 14.892,0.73 10.731,-3.358 6.57,-7.519 6.57,-14.6 v -25.55 h 6.57 v 25.55 q 0,4.38 2.336,7.008 2.336,2.555 6.351,2.555 4.088,0 6.424,-2.555 2.409,-2.628 2.409,-7.008 v -25.55 h 6.57 v 25.55 q 0,7.081 -4.234,11.242 Q 28.762,0.73 21.827,0.73 Z M 61.393026,0 l -13.651,-40.15 h 7.081 l 8.76,27.01 q 0.803,2.409 1.387,4.672 0.584,2.19 0.876,3.431 0.365,-1.241 0.876,-3.431 0.511,-2.263 1.241,-4.672 l 8.76,-27.01 h 6.935 L 70.007026,0 Z m 30.587026,0 v -40.15 h 5.694 v 5.329 h 0.146 q 0.365,-2.701 2.117,-4.38 1.824998,-1.679 4.598998,-1.679 2.628,0 4.453,1.533 1.825,1.533 2.628,4.161 h 0.073 q 0.511,-2.628 2.263,-4.161 1.825,-1.533 4.599,-1.533 3.869,0 6.132,2.92 2.336,2.847 2.336,7.446 V 0 h -6.132 v -30.587 q 0,-2.409 -1.168,-3.796 -1.168,-1.46 -3.212,-1.46 -1.971,0 -3.139,1.387 -1.168,1.387 -1.168,3.796 V 0 h -5.402 v -30.587 q 0,-2.409 -1.168,-3.796 -1.168,-1.46 -3.139,-1.46 -2.044,0 -3.211998,1.387 -1.168,1.387 -1.168,3.796 V 0 Z M 135.78009,7.3 V 1.825 h 35.04 V 7.3 Z M 197.6841,0.73 q -7.3,0 -11.68,-4.088 -4.38,-4.088 -4.38,-11.242 v -10.95 q 0,-7.154 4.38,-11.242 4.38,-4.088 11.68,-4.088 6.935,0 11.169,3.723 4.307,3.723 4.526,10.147 h -6.57 q -0.219,-3.869 -2.628,-5.913 -2.409,-2.117 -6.497,-2.117 -4.307,0 -6.935,2.482 -2.555,2.409 -2.555,6.935 V -14.6 q 0,4.526 2.555,7.008 2.628,2.482 6.935,2.482 4.088,0 6.497,-2.117 2.409,-2.117 2.628,-5.913 h 6.57 q -0.219,6.424 -4.526,10.147 -4.234,3.723 -11.169,3.723 z m 43.21602,-0.146 q -7.227,0 -11.534,-4.234 -4.234,-4.234 -4.234,-11.826 v -9.198 q 0,-7.665 4.234,-11.826 4.234,-4.234 11.534,-4.234 7.3,0 11.534,4.234 4.234,4.161 4.234,11.826 v 9.198 q 0,7.592 -4.307,11.826 -4.234,4.234 -11.461,4.234 z m 0,-5.84 q 4.307,0 6.716,-2.409 2.482,-2.409 2.482,-7.081 v -10.658 q 0,-4.672 -2.482,-7.081 -2.409,-2.409 -6.716,-2.409 -4.234,0 -6.716,2.409 -2.482,2.409 -2.482,7.081 v 10.658 q 0,4.672 2.482,7.081 2.482,2.409 6.716,2.409 z M 267.18017,0 v -40.15 h 5.694 v 5.329 h 0.146 q 0.365,-2.701 2.117,-4.38 1.825,-1.679 4.599,-1.679 2.628,0 4.453,1.533 1.825,1.533 2.628,4.161 h 0.073 q 0.511,-2.628 2.263,-4.161 1.825,-1.533 4.599,-1.533 3.869,0 6.132,2.92 2.336,2.847 2.336,7.446 V 0 h -6.132 v -30.587 q 0,-2.409 -1.168,-3.796 -1.168,-1.46 -3.212,-1.46 -1.971,0 -3.139,1.387 -1.168,1.387 -1.168,3.796 V 0 h -5.402 v -30.587 q 0,-2.409 -1.168,-3.796 -1.168,-1.46 -3.139,-1.46 -2.044,0 -3.212,1.387 -1.168,1.387 -1.168,3.796 V 0 Z m 46.13602,13.14 v -53.29 h 6.57 v 7.665 h 0.073 q 0.511,-3.942 3.431,-6.132 2.92,-2.263 7.446,-2.263 6.059,0 9.636,4.015 3.577,3.942 3.577,10.877 v 11.753 q 0,6.935 -3.577,10.95 -3.577,4.015 -9.636,4.015 -4.526,0 -7.446,-2.263 -2.92,-2.263 -3.431,-6.132 h -0.219 l 0.146,9.125 v 11.68 z m 15.33,-18.104 q 4.161,0 6.497,-2.19 2.336,-2.19 2.336,-7.081 v -11.68 q 0,-4.964 -2.336,-7.081 -2.336,-2.19 -6.497,-2.19 -4.015,0 -6.424,2.555 -2.336,2.555 -2.336,7.081 v 10.95 q 0,4.526 2.336,7.081 2.409,2.555 6.424,2.555 z m 43.65402,5.548 q -7.227,0 -11.534,-4.234 -4.234,-4.234 -4.234,-11.826 v -9.198 q 0,-7.665 4.234,-11.826 4.234,-4.234 11.534,-4.234 7.3,0 11.534,4.234 4.234,4.161 4.234,11.826 v 9.198 q 0,7.592 -4.307,11.826 -4.234,4.234 -11.461,4.234 z m 0,-5.84 q 4.307,0 6.716,-2.409 2.482,-2.409 2.482,-7.081 v -10.658 q 0,-4.672 -2.482,-7.081 -2.409,-2.409 -6.716,-2.409 -4.234,0 -6.716,2.409 -2.482,2.409 -2.482,7.081 v 10.658 q 0,4.672 2.482,7.081 2.482,2.409 6.716,2.409 z M 400.91623,0 v -40.15 h 6.57 v 7.665 h 0.073 q 0.511,-4.015 3.285,-6.205 2.774,-2.19 7.373,-2.19 6.059,0 9.636,3.723 3.577,3.723 3.577,10.147 V 0 h -6.57 v -25.842 q 0,-4.599 -2.336,-7.008 -2.263,-2.482 -6.205,-2.482 -4.088,0 -6.497,2.555 -2.336,2.555 -2.336,7.227 V 0 Z m 58.98401,0.73 q -7.081,0 -11.461,-4.234 -4.307,-4.307 -4.307,-11.826 v -9.49 q 0,-7.519 4.307,-11.753 4.38,-4.307 11.461,-4.307 4.745,0 8.249,1.898 3.577,1.898 5.548,5.329 1.971,3.431 1.971,8.103 v 7.154 h -25.112 v 3.796 q 0,4.453 2.555,7.081 2.555,2.555 6.789,2.555 3.65,0 5.986,-1.387 2.409,-1.46 2.92,-3.869 h 6.57 q -0.657,5.037 -4.891,8.03 -4.234,2.92 -10.585,2.92 z m -9.344,-24.236 h 18.688 v -2.044 q 0,-4.745 -2.482,-7.3 -2.409,-2.628 -6.862,-2.628 -4.453,0 -6.935,2.628 -2.409,2.555 -2.409,7.3 z M 488.51629,0 v -40.15 h 6.57 v 7.665 h 0.073 q 0.511,-4.015 3.285,-6.205 2.774,-2.19 7.373,-2.19 6.059,0 9.636,3.723 3.577,3.723 3.577,10.147 V 0 h -6.57 v -25.842 q 0,-4.599 -2.336,-7.008 -2.263,-2.482 -6.205,-2.482 -4.088,0 -6.497,2.555 -2.336,2.555 -2.336,7.227 V 0 Z m 62.99905,0 q -4.964,0 -7.957,-2.847 -2.993,-2.92 -2.993,-7.738 v -23.579 h -11.534 v -5.986 h 11.534 v -11.315 h 6.57 v 11.315 h 16.425 v 5.986 h -16.425 v 23.579 q 0,2.044 1.168,3.358 1.241,1.241 3.212,1.241 h 11.68 V 0 Z m 22.26499,7.3 V 1.825 h 35.04 V 7.3 Z M 621.37638,0 v -40.15 h 6.57 v 7.665 h 0.146 q 0.511,-3.869 3.285,-6.132 2.774,-2.263 7.446,-2.263 6.278,0 9.636,3.796 3.431,3.723 3.431,10.658 v 3.431 h -6.57 v -3.431 q 0,-8.76 -8.541,-8.76 -4.307,0 -6.57,2.482 -2.263,2.482 -2.263,7.154 V 0 Z m 57.52399,0.73 q -7.081,0 -11.461,-4.234 -4.307,-4.307 -4.307,-11.826 v -9.49 q 0,-7.519 4.307,-11.753 4.38,-4.307 11.461,-4.307 4.745,0 8.249,1.898 3.577,1.898 5.548,5.329 1.971,3.431 1.971,8.103 v 7.154 h -25.112 v 3.796 q 0,4.453 2.555,7.081 2.555,2.555 6.789,2.555 3.65,0 5.986,-1.387 2.409,-1.46 2.92,-3.869 h 6.57 q -0.657,5.037 -4.891,8.03 -4.234,2.92 -10.585,2.92 z m -9.344,-24.236 h 18.688 v -2.044 q 0,-4.745 -2.482,-7.3 -2.409,-2.628 -6.862,-2.628 -4.453,0 -6.935,2.628 -2.409,2.555 -2.409,7.3 z M 712.55342,13.14 V 7.154 h 11.315 q 3.431,0 5.402,-1.971 1.971,-1.898 1.971,-5.183 v -3.65 l 0.146,-6.57 h -0.219 q -0.584,3.577 -3.431,5.548 -2.847,1.898 -7.154,1.898 -6.205,0 -9.782,-3.942 -3.577,-3.942 -3.577,-10.804 v -8.468 q 0,-6.862 3.577,-10.877 3.577,-4.015 9.782,-4.015 4.307,0 7.154,2.044 2.847,2.044 3.431,5.621 h 0.146 v -6.935 h 6.497 V 0 q 0,6.059 -3.796,9.563 -3.723,3.577 -10.22,3.577 z m 10.001,-21.389 q 4.088,0 6.424,-2.555 2.336,-2.555 2.336,-7.081 v -7.665 q 0,-4.526 -2.336,-7.081 -2.336,-2.555 -6.424,-2.555 -4.161,0 -6.497,2.409 -2.263,2.409 -2.263,6.497 v 9.125 q 0,4.088 2.263,6.497 2.336,2.409 6.497,2.409 z M 750.80546,0 v -5.986 h 14.235 v -28.178 h -12.775 v -5.986 h 19.345 v 34.164 h 13.505 V 0 Z m 16.79,-47.377 q -2.409,0 -3.796,-1.241 -1.387,-1.241 -1.387,-3.358 0,-2.19 1.387,-3.431 1.387,-1.314 3.796,-1.314 2.409,0 3.796,1.314 1.387,1.241 1.387,3.431 0,2.117 -1.387,3.358 -1.387,1.241 -3.796,1.241 z m 41.09899,47.961 q -6.716,0 -10.439,-2.993 -3.65,-3.066 -3.65,-8.614 h 6.57 q 0,2.774 1.971,4.38 1.971,1.533 5.548,1.533 h 3.212 q 3.65,0 5.621,-1.606 2.044,-1.606 2.044,-4.526 0,-5.183 -4.745,-5.84 l -11.096,-1.606 q -4.088,-0.584 -6.351,-3.358 -2.263,-2.847 -2.263,-7.446 0,-5.256 3.577,-8.249 3.65,-2.993 10.001,-2.993 h 3.212 q 5.84,0 9.49,2.92 3.723,2.847 4.015,7.519 h -6.643 q -0.146,-2.117 -2.044,-3.504 -1.825,-1.387 -4.818,-1.387 h -3.212 q -3.358,0 -5.256,1.533 -1.898,1.533 -1.898,4.161 0,4.234 3.869,4.818 l 10.366,1.46 q 10.22,1.46 10.22,11.972 0,5.621 -3.723,8.76 -3.65,3.066 -10.366,3.066 z M 858.1155,0 q -4.964,0 -7.957,-2.847 -2.993,-2.92 -2.993,-7.738 v -23.579 h -11.534 v -5.986 h 11.534 v -11.315 h 6.57 v 11.315 h 16.425 v 5.986 h -16.425 v 23.579 q 0,2.044 1.168,3.358 1.241,1.241 3.212,1.241 h 11.68 V 0 Z m 26.06099,0 v -40.15 h 6.57 v 7.665 h 0.146 q 0.511,-3.869 3.285,-6.132 2.774,-2.263 7.446,-2.263 6.278,0 9.636,3.796 3.431,3.723 3.431,10.658 v 3.431 h -6.57 v -3.431 q 0,-8.76 -8.541,-8.76 -4.307,0 -6.57,2.482 -2.263,2.482 -2.263,7.154 V 0 Z m 48.61805,13.14 5.913,-15.622 -14.965,-37.668 h 7.081 l 9.49,24.82 q 0.584,1.46 1.095,3.066 0.511,1.606 0.73,2.774 0.219,-1.168 0.73,-2.774 0.511,-1.606 1.022,-3.066 l 8.833,-24.82 h 6.935 l -20.002,53.29 z"
       id="text2"
       style="font-size:73px;font-family:'JetBrains Mono', 'JetBrains Mono_MSFontService', sans-serif;fill:#267f99"
       transform="matrix(1 0 0 1 3961.25 897)"
       aria-label="uvm_component_registry" /><path
       d="m 79.205026,8.76 q -9.417,-2.117 -15.038,-8.395 -5.548,-6.278 -6.643,-15.695 h -26.718 L 27.959026,0 h -5.11 l 2.847,-15.33 h -11.68 L 11.169026,0 H 6.0590259 l 2.847,-15.33 h -6.351 v -4.745 h 7.154 l 2.4820001,-13.14 H 5.1100259 v -4.745 h 7.8840001 l 2.847,-15.33 h 5.11 l -2.847,15.33 h 11.68 l 2.847,-15.33 h 5.11 l -2.847,15.33 h 22.776 q 1.168,-9.125 6.716,-15.184 5.621,-6.132 14.819,-8.176 v 6.351 q -4.672,1.095 -8.176,4.161 -3.431,3.066 -5.329,7.665 -1.825,4.526 -1.825,10.293 v 13.14 q 0,5.694 1.825,10.293 1.898,4.599 5.329,7.665 3.504,3.066 8.176,4.161 z m -47.596,-28.835 h 25.696 V -32.85 q 0,-0.219 0,-0.365 h -23.214 z m -16.79,0 h 11.68 l 2.482,-13.14 h -11.68 z"
       id="text3"
       style="font-size:73px;font-family:'JetBrains Mono', 'JetBrains Mono_MSFontService', sans-serif"
       transform="matrix(1 0 0 1 4975.88 897)"
       aria-label="#(" /><path
       d="m 18.615,0 v -47.304 h -14.6 v -5.986 h 35.77 v 5.986 h -14.6 V 0 Z"
       id="text4"
       style="font-size:73px;font-family:'JetBrains Mono', 'JetBrains Mono_MSFontService', sans-serif;fill:#001080"
       transform="matrix(1 0 0 1 5064.11 897)"
       aria-label="T" /><path
       d="m 15.33,11.68 4.015,-22.338 h 7.884 l -5.11,22.338 z"
       id="text5"
       style="font-size:73px;font-family:'JetBrains Mono', 'JetBrains Mono_MSFontService', sans-serif"
       transform="matrix(1 0 0 1 5108.23 897)"
       aria-label=", " /><path
       d="m 18.615,0 v -47.304 h -14.6 v -5.986 h 35.77 v 5.986 h -14.6 V 0 Z m 31.901026,0 v -40.15 h 6.57 v 7.665 h 0.073 q 0.511,-4.015 3.285,-6.205 2.774,-2.19 7.373,-2.19 6.059,0 9.636,3.723 3.577,3.723 3.577,10.147 V 0 h -6.57 v -25.842 q 0,-4.599 -2.336,-7.008 -2.263,-2.482 -6.205,-2.482 -4.088,0 -6.497,2.555 -2.336,2.555 -2.336,7.227 V 0 Z m 55.480024,0.73 q -6.204998,0 -9.854998,-3.431 -3.65,-3.504 -3.65,-9.125 0,-3.723 1.679,-6.497 1.679,-2.774 4.672,-4.307 2.992998,-1.606 6.861998,-1.606 h 12.41 v -3.139 q 0,-7.811 -8.541,-7.811 -3.796,0 -6.132,1.387 -2.336,1.387 -2.482,3.869 h -6.569998 q 0.365,-4.745 4.38,-7.811 4.087998,-3.139 10.803998,-3.139 7.3,0 11.169,3.504 3.942,3.504 3.942,9.782 V 0 h -6.497 v -7.3 h -0.146 q -0.584,3.723 -3.723,5.913 -3.139,2.117 -8.322,2.117 z m 1.606,-5.548 q 4.818,0 7.665,-2.336 2.847,-2.336 2.847,-6.351 v -5.621 h -11.68 q -3.212,0 -5.256,1.971 -1.970998,1.898 -1.970998,5.11 0,3.358 2.189998,5.329 2.263,1.898 6.205,1.898 z M 135.78009,0 v -40.15 h 5.694 v 5.329 h 0.146 q 0.365,-2.701 2.117,-4.38 1.825,-1.679 4.599,-1.679 2.628,0 4.453,1.533 1.825,1.533 2.628,4.161 h 0.073 q 0.511,-2.628 2.263,-4.161 1.825,-1.533 4.599,-1.533 3.869,0 6.132,2.92 2.336,2.847 2.336,7.446 V 0 h -6.132 v -30.587 q 0,-2.409 -1.168,-3.796 -1.168,-1.46 -3.212,-1.46 -1.971,0 -3.139,1.387 -1.168,1.387 -1.168,3.796 V 0 h -5.402 v -30.587 q 0,-2.409 -1.168,-3.796 -1.168,-1.46 -3.139,-1.46 -2.044,0 -3.212,1.387 -1.168,1.387 -1.168,3.796 V 0 Z m 61.32001,0.73 q -7.081,0 -11.461,-4.234 -4.307,-4.307 -4.307,-11.826 v -9.49 q 0,-7.519 4.307,-11.753 4.38,-4.307 11.461,-4.307 4.745,0 8.249,1.898 3.577,1.898 5.548,5.329 1.971,3.431 1.971,8.103 v 7.154 h -25.112 v 3.796 q 0,4.453 2.555,7.081 2.555,2.555 6.789,2.555 3.65,0 5.986,-1.387 2.409,-1.46 2.92,-3.869 h 6.57 q -0.657,5.037 -4.891,8.03 -4.234,2.92 -10.585,2.92 z m -9.344,-24.236 h 18.688 v -2.044 q 0,-4.745 -2.482,-7.3 -2.409,-2.628 -6.862,-2.628 -4.453,0 -6.935,2.628 -2.409,2.555 -2.409,7.3 z"
       id="text6"
       style="font-size:73px;font-family:'JetBrains Mono', 'JetBrains Mono_MSFontService', sans-serif;fill:#001080"
       transform="matrix(1 0 0 1 5196.46 897)"
       aria-label="Tname" /><path
       d="M 8.395,8.76 V 2.409 q 4.745,-1.095 8.176,-4.161 3.431,-3.066 5.256,-7.665 1.898,-4.599 1.898,-10.293 v -13.14 q 0,-5.767 -1.898,-10.293 -1.825,-4.599 -5.256,-7.665 -3.431,-3.066 -8.176,-4.161 v -6.351 q 10.439,2.336 16.133,9.782 5.767,7.446 5.767,18.688 v 13.14 q 0,11.242 -5.767,18.688 Q 18.834,6.424 8.395,8.76 Z"
       id="text7"
       style="font-size:73px;font-family:'JetBrains Mono', 'JetBrains Mono_MSFontService', sans-serif"
       transform="matrix(1 0 0 1 5417.03 897)"
       aria-label=")" /><path
       d="M3103.5 1033.97C3103.5 1021.56 3113.56 1011.5 3125.97 1011.5L5897.03 1011.5C5909.44 1011.5 5919.5 1021.56 5919.5 1033.97L5919.5 1134.03C5919.5 1146.44 5909.44 1156.5 5897.03 1156.5L3125.97 1156.5C3113.56 1156.5 3103.5 1146.44 3103.5 1134.03Z"
       stroke="#000000"
       stroke-width="6.875"
       stroke-miterlimit="8"
       fill="#FFFFFF"
       fill-rule="evenodd"
       id="path7" /><path
       d="m 21.252,0.69 q -6.9,0 -11.04,-3.864 -4.14,-3.864 -4.14,-10.626 v -10.35 q 0,-6.762 4.14,-10.626 4.14,-3.864 11.04,-3.864 6.555,0 10.557,3.519 4.071,3.519 4.278,9.591 h -6.21 q -0.207,-3.657 -2.484,-5.589 -2.277,-2.001 -6.141,-2.001 -4.071,0 -6.555,2.346 -2.415,2.277 -2.415,6.555 V -13.8 q 0,4.278 2.415,6.624 2.484,2.346 6.555,2.346 3.864,0 6.141,-2.001 2.277,-2.001 2.484,-5.589 h 6.21 Q 35.88,-6.348 31.809,-2.829 27.807,0.69 21.252,0.69 Z M 49.128024,0 v -37.95 h 6.21 v 7.245 h 0.138 q 0.483,-3.657 3.105,-5.796 2.622,-2.139 7.038,-2.139 5.934,0 9.108,3.588 3.243,3.519 3.243,10.074 v 3.243 h -6.21 v -3.243 q 0,-8.28 -8.073,-8.28 -4.071,0 -6.21,2.346 -2.139,2.346 -2.139,6.762 V 0 Z m 54.372026,0.69 q -6.693001,0 -10.833001,-4.002 -4.071,-4.071 -4.071,-11.178 v -8.97 q 0,-7.107 4.071,-11.109 4.14,-4.071 10.833001,-4.071 4.485,0 7.797,1.794 3.381,1.794 5.244,5.037 1.863,3.243 1.863,7.659 v 6.762 H 94.668049 v 3.588 q 0,4.209 2.415,6.693 2.415,2.415 6.417001,2.415 3.45,0 5.658,-1.311 2.277,-1.38 2.76,-3.657 h 6.21 q -0.621,4.761 -4.623,7.59 -4.002,2.76 -10.005,2.76 z m -8.832001,-22.908 h 17.664001 v -1.932 q 0,-4.485 -2.346,-6.9 -2.277,-2.484 -6.486,-2.484 -4.209001,0 -6.555001,2.484 -2.277,2.415 -2.277,6.9 z M 141.58807,0.69 q -5.865,0 -9.315,-3.243 -3.45,-3.312 -3.45,-8.625 0,-3.519 1.587,-6.141 1.587,-2.622 4.416,-4.071 2.829,-1.518 6.486,-1.518 h 11.73 v -2.967 q 0,-7.383 -8.073,-7.383 -3.588,0 -5.796,1.311 -2.208,1.311 -2.346,3.657 h -6.21 q 0.345,-4.485 4.14,-7.383 3.864,-2.967 10.212,-2.967 6.9,0 10.557,3.312 3.726,3.312 3.726,9.246 V 0 h -6.141 v -6.9 h -0.138 q -0.552,3.519 -3.519,5.589 -2.967,2.001 -7.866,2.001 z m 1.518,-5.244 q 4.554,0 7.245,-2.208 2.691,-2.208 2.691,-6.003 v -5.313 h -11.04 q -3.036,0 -4.968,1.863 -1.863,1.794 -1.863,4.83 0,3.174 2.07,5.037 2.139,1.794 5.865,1.794 z M 190.0951,0 q -4.692,0 -7.521,-2.691 -2.829,-2.76 -2.829,-7.314 v -22.287 h -10.902 v -5.658 h 10.902 v -10.695 h 6.21 v 10.695 h 15.525 v 5.658 h -15.525 v 22.287 q 0,1.932 1.104,3.174 1.173,1.173 3.036,1.173 h 11.04 V 0 Z m 37.60502,0.69 q -6.693,0 -10.833,-4.002 -4.071,-4.071 -4.071,-11.178 v -8.97 q 0,-7.107 4.071,-11.109 4.14,-4.071 10.833,-4.071 4.485,0 7.797,1.794 3.381,1.794 5.244,5.037 1.863,3.243 1.863,7.659 v 6.762 h -23.736 v 3.588 q 0,4.209 2.415,6.693 2.415,2.415 6.417,2.415 3.45,0 5.658,-1.311 2.277,-1.38 2.76,-3.657 h 6.21 q -0.621,4.761 -4.623,7.59 -4.002,2.76 -10.005,2.76 z m -8.832,-22.908 h 17.664 v -1.932 q 0,-4.485 -2.346,-6.9 -2.277,-2.484 -6.486,-2.484 -4.209,0 -6.555,2.484 -2.277,2.415 -2.277,6.9 z"
       id="text8"
       style="font-size:69px;font-family:'JetBrains Mono', 'JetBrains Mono_MSFontService', sans-serif;fill:#795e26"
       transform="matrix(1 0 0 1 4346.2 1106)"
       aria-label="create" /><path
       d="M 33.465,8.28 Q 23.598,6.072 18.147,-0.966 12.765,-8.004 12.765,-18.63 v -12.42 q 0,-10.626 5.382,-17.664 5.451,-7.038 15.318,-9.246 v 6.003 q -4.416,1.035 -7.728,3.933 -3.243,2.898 -5.037,7.245 -1.725,4.278 -1.725,9.729 v 12.42 q 0,5.382 1.725,9.729 1.794,4.347 5.037,7.245 3.312,2.898 7.728,3.933 z m 15.870024,0 V 2.277 q 4.485,-1.035 7.728,-3.933 3.243,-2.898 4.968,-7.245 1.794,-4.347 1.794,-9.729 v -12.42 q 0,-5.451 -1.794,-9.729 -1.725,-4.347 -4.968,-7.245 -3.243,-2.898 -7.728,-3.933 v -6.003 q 9.867,2.208 15.249,9.246 5.451,7.038 5.451,17.664 v 12.42 q 0,10.626 -5.451,17.664 -5.382,7.038 -15.249,9.246 z"
       id="text9"
       style="font-size:69px;font-family:'JetBrains Mono', 'JetBrains Mono_MSFontService', sans-serif"
       transform="matrix(1 0 0 1 4593.7 1106)"
       aria-label="()" /><path
       d="M3103.5 1246.13C3103.5 1233.63 3113.63 1223.5 3126.13 1223.5L5896.87 1223.5C5909.37 1223.5 5919.5 1233.63 5919.5 1246.13L5919.5 1346.87C5919.5 1359.37 5909.37 1369.5 5896.87 1369.5L3126.13 1369.5C3113.63 1369.5 3103.5 1359.37 3103.5 1346.87Z"
       stroke="#000000"
       stroke-width="6.875"
       stroke-miterlimit="8"
       fill="#E2F0D9"
       fill-rule="evenodd"
       id="path9" /><path
       d="M 11.109,12.42 V 6.762 h 10.695 q 3.243,0 5.106,-1.863 Q 28.773,3.105 28.773,0 v -3.45 l 0.138,-6.21 h -0.207 q -0.552,3.381 -3.243,5.244 -2.691,1.794 -6.762,1.794 -5.865,0 -9.246,-3.726 -3.381,-3.726 -3.381,-10.212 v -8.004 q 0,-6.486 3.381,-10.281 3.381,-3.795 9.246,-3.795 4.071,0 6.762,1.932 2.691,1.932 3.243,5.313 h 0.138 v -6.555 h 6.141 V 0 q 0,5.727 -3.588,9.039 -3.519,3.381 -9.66,3.381 z m 9.453,-20.217 q 3.864,0 6.072,-2.415 2.208,-2.415 2.208,-6.693 v -7.245 q 0,-4.278 -2.208,-6.693 -2.208,-2.415 -6.072,-2.415 -3.933,0 -6.141,2.277 -2.139,2.277 -2.139,6.141 v 8.625 q 0,3.864 2.139,6.141 2.208,2.277 6.141,2.277 z M 62.100024,0.69 q -6.693,0 -10.833,-4.002 -4.071,-4.071 -4.071,-11.178 v -8.97 q 0,-7.107 4.071,-11.109 4.14,-4.071 10.833,-4.071 4.485,0 7.797,1.794 3.381,1.794 5.244,5.037 1.863,3.243 1.863,7.659 v 6.762 h -23.736 v 3.588 q 0,4.209 2.415,6.693 2.415,2.415 6.417,2.415 3.45,0 5.658,-1.311 2.277,-1.38 2.76,-3.657 h 6.21 q -0.621,4.761 -4.623,7.59 -4.002,2.76 -10.005,2.76 z m -8.832,-22.908 h 17.664 v -1.932 q 0,-4.485 -2.346,-6.9 -2.277,-2.484 -6.486,-2.484 -4.209,0 -6.555,2.484 -2.277,2.415 -2.277,6.9 z M 107.29505,0 q -4.692,0 -7.521001,-2.691 -2.829,-2.76 -2.829,-7.314 v -22.287 h -10.902 v -5.658 h 10.902 v -10.695 h 6.210001 v 10.695 h 15.525 v 5.658 h -15.525 v 22.287 q 0,1.932 1.104,3.174 1.173,1.173 3.036,1.173 h 11.04 V 0 Z"
       id="text10"
       style="font-size:69px;font-family:'JetBrains Mono', 'JetBrains Mono_MSFontService', sans-serif;fill:#795e26"
       transform="matrix(1 0 0 1 4408.07 1319)"
       aria-label="get" /><path
       d="M 33.465,8.28 Q 23.598,6.072 18.147,-0.966 12.765,-8.004 12.765,-18.63 v -12.42 q 0,-10.626 5.382,-17.664 5.451,-7.038 15.318,-9.246 v 6.003 q -4.416,1.035 -7.728,3.933 -3.243,2.898 -5.037,7.245 -1.725,4.278 -1.725,9.729 v 12.42 q 0,5.382 1.725,9.729 1.794,4.347 5.037,7.245 3.312,2.898 7.728,3.933 z m 15.870024,0 V 2.277 q 4.485,-1.035 7.728,-3.933 3.243,-2.898 4.968,-7.245 1.794,-4.347 1.794,-9.729 v -12.42 q 0,-5.451 -1.794,-9.729 -1.725,-4.347 -4.968,-7.245 -3.243,-2.898 -7.728,-3.933 v -6.003 q 9.867,2.208 15.249,9.246 5.451,7.038 5.451,17.664 v 12.42 q 0,10.626 -5.451,17.664 -5.382,7.038 -15.249,9.246 z"
       id="text11"
       style="font-size:69px;font-family:'JetBrains Mono', 'JetBrains Mono_MSFontService', sans-serif"
       transform="matrix(1 0 0 1 4531.82 1319)"
       aria-label="()" /><path
       d="M3103.5 1459.13C3103.5 1446.63 3113.63 1436.5 3126.13 1436.5L5896.87 1436.5C5909.37 1436.5 5919.5 1446.63 5919.5 1459.13L5919.5 1559.87C5919.5 1572.37 5909.37 1582.5 5896.87 1582.5L3126.13 1582.5C3113.63 1582.5 3103.5 1572.37 3103.5 1559.87Z"
       stroke="#000000"
       stroke-width="6.875"
       stroke-miterlimit="8"
       fill="#E2F0D9"
       fill-rule="evenodd"
       id="path11" /><path
       d="M 20.631,0.69 Q 14.076,0.69 10.143,-3.174 6.21,-7.107 6.21,-13.8 v -24.15 h 6.21 v 24.15 q 0,4.14 2.208,6.624 2.208,2.415 6.003,2.415 3.864,0 6.072,-2.415 2.277,-2.484 2.277,-6.624 v -24.15 h 6.21 v 24.15 q 0,6.693 -4.002,10.626 Q 27.186,0.69 20.631,0.69 Z M 58.029024,0 l -12.903,-37.95 h 6.693 l 8.28,25.53 q 0.759,2.277 1.311,4.416 0.552,2.07 0.828,3.243 0.345,-1.173 0.828,-3.243 0.483,-2.139 1.173,-4.416 l 8.28,-25.53 h 6.555 L 66.171024,0 Z m 28.911025,0 v -37.95 h 5.382 v 5.037 h 0.138 q 0.345,-2.553 2.001,-4.14 1.725,-1.587 4.347,-1.587 2.484001,0 4.209001,1.449 1.725,1.449 2.484,3.933 h 0.069 q 0.483,-2.484 2.139,-3.933 1.725,-1.449 4.347,-1.449 3.657,0 5.796,2.76 2.208,2.691 2.208,7.038 V 0 h -5.796 v -28.911 q 0,-2.277 -1.104,-3.588 -1.104,-1.38 -3.036,-1.38 -1.863,0 -2.967,1.311 -1.104,1.311 -1.104,3.588 V 0 h -5.106 v -28.911 q 0,-2.277 -1.104001,-3.588 -1.104,-1.38 -2.967,-1.38 -1.932,0 -3.036,1.311 -1.104,1.311 -1.104,3.588 V 0 Z M 128.34007,6.9 V 1.725 h 33.12 V 6.9 Z M 186.8521,0.69 q -6.9,0 -11.04,-3.864 -4.14,-3.864 -4.14,-10.626 v -10.35 q 0,-6.762 4.14,-10.626 4.14,-3.864 11.04,-3.864 6.555,0 10.557,3.519 4.071,3.519 4.278,9.591 h -6.21 q -0.207,-3.657 -2.484,-5.589 -2.277,-2.001 -6.141,-2.001 -4.071,0 -6.555,2.346 -2.415,2.277 -2.415,6.555 V -13.8 q 0,4.278 2.415,6.624 2.484,2.346 6.555,2.346 3.864,0 6.141,-2.001 2.277,-2.001 2.484,-5.589 h 6.21 q -0.207,6.072 -4.278,9.591 -4.002,3.519 -10.557,3.519 z m 40.84802,-0.138 q -6.831,0 -10.902,-4.002 -4.002,-4.002 -4.002,-11.178 v -8.694 q 0,-7.245 4.002,-11.178 4.002,-4.002 10.902,-4.002 6.9,0 10.902,4.002 4.002,3.933 4.002,11.178 v 8.694 q 0,7.176 -4.071,11.178 -4.002,4.002 -10.833,4.002 z m 0,-5.52 q 4.071,0 6.348,-2.277 2.346,-2.277 2.346,-6.693 v -10.074 q 0,-4.416 -2.346,-6.693 -2.277,-2.277 -6.348,-2.277 -4.002,0 -6.348,2.277 -2.346,2.277 -2.346,6.693 v 10.074 q 0,4.416 2.346,6.693 2.346,2.277 6.348,2.277 z M 252.54015,0 v -37.95 h 5.382 v 5.037 h 0.138 q 0.345,-2.553 2.001,-4.14 1.725,-1.587 4.347,-1.587 2.484,0 4.209,1.449 1.725,1.449 2.484,3.933 h 0.069 q 0.483,-2.484 2.139,-3.933 1.725,-1.449 4.347,-1.449 3.657,0 5.796,2.76 2.208,2.691 2.208,7.038 V 0 h -5.796 v -28.911 q 0,-2.277 -1.104,-3.588 -1.104,-1.38 -3.036,-1.38 -1.863,0 -2.967,1.311 -1.104,1.311 -1.104,3.588 V 0 h -5.106 v -28.911 q 0,-2.277 -1.104,-3.588 -1.104,-1.38 -2.967,-1.38 -1.932,0 -3.036,1.311 -1.104,1.311 -1.104,3.588 V 0 Z m 43.60802,12.42 v -50.37 h 6.21 v 7.245 h 0.069 q 0.483,-3.726 3.243,-5.796 2.76,-2.139 7.038,-2.139 5.727,0 9.108,3.795 3.381,3.726 3.381,10.281 v 11.109 q 0,6.555 -3.381,10.35 -3.381,3.795 -9.108,3.795 -4.278,0 -7.038,-2.139 -2.76,-2.139 -3.243,-5.796 h -0.207 l 0.138,8.625 v 11.04 z m 14.49,-17.112 q 3.933,0 6.141,-2.07 2.208,-2.07 2.208,-6.693 v -11.04 q 0,-4.692 -2.208,-6.693 -2.208,-2.07 -6.141,-2.07 -3.795,0 -6.072,2.415 -2.208,2.415 -2.208,6.693 v 10.35 q 0,4.278 2.208,6.693 2.277,2.415 6.072,2.415 z m 41.26203,5.244 q -6.831,0 -10.902,-4.002 -4.002,-4.002 -4.002,-11.178 v -8.694 q 0,-7.245 4.002,-11.178 4.002,-4.002 10.902,-4.002 6.9,0 10.902,4.002 4.002,3.933 4.002,11.178 v 8.694 q 0,7.176 -4.071,11.178 -4.002,4.002 -10.833,4.002 z m 0,-5.52 q 4.071,0 6.348,-2.277 2.346,-2.277 2.346,-6.693 v -10.074 q 0,-4.416 -2.346,-6.693 -2.277,-2.277 -6.348,-2.277 -4.002,0 -6.348,2.277 -2.346,2.277 -2.346,6.693 v 10.074 q 0,4.416 2.346,6.693 2.346,2.277 6.348,2.277 z M 378.94822,0 v -37.95 h 6.21 v 7.245 h 0.069 q 0.483,-3.795 3.105,-5.865 2.622,-2.07 6.969,-2.07 5.727,0 9.108,3.519 3.381,3.519 3.381,9.591 V 0 h -6.21 v -24.426 q 0,-4.347 -2.208,-6.624 -2.139,-2.346 -5.865,-2.346 -3.864,0 -6.141,2.415 -2.208,2.415 -2.208,6.831 V 0 Z m 55.75202,0.69 q -6.693,0 -10.833,-4.002 -4.071,-4.071 -4.071,-11.178 v -8.97 q 0,-7.107 4.071,-11.109 4.14,-4.071 10.833,-4.071 4.485,0 7.797,1.794 3.381,1.794 5.244,5.037 1.863,3.243 1.863,7.659 v 6.762 h -23.736 v 3.588 q 0,4.209 2.415,6.693 2.415,2.415 6.417,2.415 3.45,0 5.658,-1.311 2.277,-1.38 2.76,-3.657 h 6.21 q -0.621,4.761 -4.623,7.59 -4.002,2.76 -10.005,2.76 z m -8.832,-22.908 h 17.664 v -1.932 q 0,-4.485 -2.346,-6.9 -2.277,-2.484 -6.486,-2.484 -4.209,0 -6.555,2.484 -2.277,2.415 -2.277,6.9 z M 461.74827,0 v -37.95 h 6.21 v 7.245 h 0.069 q 0.483,-3.795 3.105,-5.865 2.622,-2.07 6.969,-2.07 5.727,0 9.108,3.519 3.381,3.519 3.381,9.591 V 0 h -6.21 v -24.426 q 0,-4.347 -2.208,-6.624 -2.139,-2.346 -5.865,-2.346 -3.864,0 -6.141,2.415 -2.208,2.415 -2.208,6.831 V 0 Z m 59.54702,0 q -4.692,0 -7.521,-2.691 -2.829,-2.76 -2.829,-7.314 v -22.287 h -10.902 v -5.658 h 10.902 v -10.695 h 6.21 v 10.695 h 15.525 v 5.658 h -15.525 v 22.287 q 0,1.932 1.104,3.174 1.173,1.173 3.036,1.173 h 11.04 V 0 Z m 21.04503,6.9 V 1.725 h 33.12 V 6.9 Z M 587.32834,0 v -37.95 h 6.21 v 7.245 h 0.138 q 0.483,-3.657 3.105,-5.796 2.622,-2.139 7.038,-2.139 5.934,0 9.108,3.588 3.243,3.519 3.243,10.074 v 3.243 h -6.21 v -3.243 q 0,-8.28 -8.073,-8.28 -4.071,0 -6.21,2.346 -2.139,2.346 -2.139,6.762 V 0 Z m 54.37203,0.69 q -6.693,0 -10.833,-4.002 -4.071,-4.071 -4.071,-11.178 v -8.97 q 0,-7.107 4.071,-11.109 4.14,-4.071 10.833,-4.071 4.485,0 7.797,1.794 3.381,1.794 5.244,5.037 1.863,3.243 1.863,7.659 v 6.762 h -23.736 v 3.588 q 0,4.209 2.415,6.693 2.415,2.415 6.417,2.415 3.45,0 5.658,-1.311 2.277,-1.38 2.76,-3.657 h 6.21 q -0.621,4.761 -4.623,7.59 -4.002,2.76 -10.005,2.76 z m -8.832,-22.908 h 17.664 v -1.932 q 0,-4.485 -2.346,-6.9 -2.277,-2.484 -6.486,-2.484 -4.209,0 -6.555,2.484 -2.277,2.415 -2.277,6.9 z M 673.50939,12.42 V 6.762 h 10.695 q 3.243,0 5.106,-1.863 1.863,-1.794 1.863,-4.899 v -3.45 l 0.138,-6.21 h -0.207 q -0.552,3.381 -3.243,5.244 -2.691,1.794 -6.762,1.794 -5.865,0 -9.246,-3.726 -3.381,-3.726 -3.381,-10.212 v -8.004 q 0,-6.486 3.381,-10.281 3.381,-3.795 9.246,-3.795 4.071,0 6.762,1.932 2.691,1.932 3.243,5.313 h 0.138 v -6.555 h 6.141 V 0 q 0,5.727 -3.588,9.039 -3.519,3.381 -9.66,3.381 z m 9.453,-20.217 q 3.864,0 6.072,-2.415 2.208,-2.415 2.208,-6.693 v -7.245 q 0,-4.278 -2.208,-6.693 -2.208,-2.415 -6.072,-2.415 -3.933,0 -6.141,2.277 -2.139,2.277 -2.139,6.141 v 8.625 q 0,3.864 2.139,6.141 2.208,2.277 6.141,2.277 z M 709.66542,0 v -5.658 h 13.455 v -26.634 h -12.075 v -5.658 h 18.285 v 32.292 h 12.765 V 0 Z m 15.87,-44.781 q -2.277,0 -3.588,-1.173 -1.311,-1.173 -1.311,-3.174 0,-2.07 1.311,-3.243 1.311,-1.242 3.588,-1.242 2.277,0 3.588,1.242 1.311,1.173 1.311,3.243 0,2.001 -1.311,3.174 -1.311,1.173 -3.588,1.173 z m 38.84702,45.333 q -6.348,0 -9.867,-2.829 -3.45,-2.898 -3.45,-8.142 h 6.21 q 0,2.622 1.863,4.14 1.863,1.449 5.244,1.449 h 3.036 q 3.45,0 5.313,-1.518 1.932,-1.518 1.932,-4.278 0,-4.899 -4.485,-5.52 l -10.488,-1.518 q -3.864,-0.552 -6.003,-3.174 -2.139,-2.691 -2.139,-7.038 0,-4.968 3.381,-7.797 3.45,-2.829 9.453,-2.829 h 3.036 q 5.52,0 8.97,2.76 3.519,2.691 3.795,7.107 h -6.279 q -0.138,-2.001 -1.932,-3.312 -1.725,-1.311 -4.554,-1.311 h -3.036 q -3.174,0 -4.968,1.449 -1.794,1.449 -1.794,3.933 0,4.002 3.657,4.554 l 9.798,1.38 q 9.66,1.38 9.66,11.316 0,5.313 -3.519,8.28 -3.45,2.898 -9.798,2.898 z M 811.09546,0 q -4.692,0 -7.521,-2.691 -2.829,-2.76 -2.829,-7.314 v -22.287 h -10.902 v -5.658 h 10.902 v -10.695 h 6.21 v 10.695 h 15.525 v 5.658 h -15.525 v 22.287 q 0,1.932 1.104,3.174 1.173,1.173 3.036,1.173 h 11.04 V 0 Z m 24.63303,0 v -37.95 h 6.21 v 7.245 h 0.138 q 0.483,-3.657 3.105,-5.796 2.622,-2.139 7.038,-2.139 5.934,0 9.108,3.588 3.243,3.519 3.243,10.074 v 3.243 h -6.21 v -3.243 q 0,-8.28 -8.073,-8.28 -4.071,0 -6.21,2.346 -2.139,2.346 -2.139,6.762 V 0 Z m 45.95402,12.42 5.589,-14.766 -14.145,-35.604 h 6.693 l 8.97,23.46 q 0.552,1.38 1.035,2.898 0.483,1.518 0.69,2.622 0.207,-1.104 0.69,-2.622 0.483,-1.518 0.966,-2.898 l 8.349,-23.46 h 6.555 l -18.906,50.37 z"
       id="text12"
       style="font-size:69px;font-family:'JetBrains Mono', 'JetBrains Mono_MSFontService', sans-serif;fill:#267f99"
       transform="matrix(1 0 0 1 3748.07 1532)"
       aria-label="uvm_component_registry" /><path
       d="m 74.865024,8.28 q -8.901,-2.001 -14.214,-7.935 -5.244,-5.934 -6.279,-14.835 h -25.254 L 26.427024,0 h -4.83 l 2.691,-14.49 h -11.04 L 10.557024,0 H 5.7270244 l 2.691,-14.49 h -6.003 v -4.485 h 6.762 l 2.3459996,-12.42 H 4.8300244 v -4.485 h 7.4519996 l 2.691,-14.49 h 4.83 l -2.691,14.49 h 11.04 l 2.691,-14.49 h 4.83 l -2.691,14.49 h 21.528 q 1.104,-8.625 6.348,-14.352 5.313,-5.796 14.007,-7.728 v 6.003 q -4.416,1.035 -7.728,3.933 -3.243,2.898 -5.037,7.245 -1.725,4.278 -1.725,9.729 v 12.42 q 0,5.382 1.725,9.729 1.794,4.347 5.037,7.245 3.312,2.898 7.728,3.933 z m -44.988,-27.255 h 24.288 V -31.05 q 0,-0.207 0,-0.345 h -21.942 z m -15.87,0 h 11.04 l 2.346,-12.42 h -11.04 z"
       id="text13"
       style="font-size:69px;font-family:'JetBrains Mono', 'JetBrains Mono_MSFontService', sans-serif"
       transform="matrix(1 0 0 1 4696.82 1532)"
       aria-label="#(" /><path
       d="m 17.595,0 v -44.712 h -13.8 v -5.658 h 33.81 v 5.658 h -13.8 V 0 Z"
       id="text14"
       style="font-size:69px;font-family:'JetBrains Mono', 'JetBrains Mono_MSFontService', sans-serif;fill:#001080"
       transform="matrix(1 0 0 1 4779.32 1532)"
       aria-label="T" /><path
       d="m 14.49,11.04 3.795,-21.114 h 7.452 l -4.83,21.114 z"
       id="text15"
       style="font-size:69px;font-family:'JetBrains Mono', 'JetBrains Mono_MSFontService', sans-serif"
       transform="matrix(1 0 0 1 4820.57 1532)"
       aria-label=", " /><path
       d="m 17.595,0 v -44.712 h -13.8 v -5.658 h 33.81 v 5.658 h -13.8 V 0 Z m 30.153024,0 v -37.95 h 6.21 v 7.245 h 0.069 q 0.483,-3.795 3.105,-5.865 2.622,-2.07 6.969,-2.07 5.727,0 9.108,3.519 3.381,3.519 3.381,9.591 V 0 h -6.21 v -24.426 q 0,-4.347 -2.208,-6.624 -2.139,-2.346 -5.865,-2.346 -3.864,0 -6.141,2.415 -2.208,2.415 -2.208,6.831 V 0 Z m 52.440026,0.69 q -5.865001,0 -9.315001,-3.243 -3.45,-3.312 -3.45,-8.625 0,-3.519 1.587,-6.141 1.587,-2.622 4.416,-4.071 2.829,-1.518 6.486,-1.518 h 11.730001 v -2.967 q 0,-7.383 -8.073,-7.383 -3.588001,0 -5.796001,1.311 -2.208,1.311 -2.346,3.657 h -6.21 q 0.345,-4.485 4.14,-7.383 3.864,-2.967 10.212001,-2.967 6.9,0 10.557,3.312 3.726,3.312 3.726,9.246 V 0 h -6.141 v -6.9 h -0.138 q -0.552,3.519 -3.519,5.589 -2.967,2.001 -7.866,2.001 z m 1.518,-5.244 q 4.554,0 7.245,-2.208 2.691,-2.208 2.691,-6.003 v -5.313 h -11.04 q -3.036001,0 -4.968001,1.863 -1.863,1.794 -1.863,4.83 0,3.174 2.07,5.037 2.139,1.794 5.865001,1.794 z M 128.34007,0 v -37.95 h 5.382 v 5.037 h 0.138 q 0.345,-2.553 2.001,-4.14 1.725,-1.587 4.347,-1.587 2.484,0 4.209,1.449 1.725,1.449 2.484,3.933 h 0.069 q 0.483,-2.484 2.139,-3.933 1.725,-1.449 4.347,-1.449 3.657,0 5.796,2.76 2.208,2.691 2.208,7.038 V 0 h -5.796 v -28.911 q 0,-2.277 -1.104,-3.588 -1.104,-1.38 -3.036,-1.38 -1.863,0 -2.967,1.311 -1.104,1.311 -1.104,3.588 V 0 h -5.106 v -28.911 q 0,-2.277 -1.104,-3.588 -1.104,-1.38 -2.967,-1.38 -1.932,0 -3.036,1.311 -1.104,1.311 -1.104,3.588 V 0 Z m 57.96003,0.69 q -6.693,0 -10.833,-4.002 -4.071,-4.071 -4.071,-11.178 v -8.97 q 0,-7.107 4.071,-11.109 4.14,-4.071 10.833,-4.071 4.485,0 7.797,1.794 3.381,1.794 5.244,5.037 1.863,3.243 1.863,7.659 v 6.762 h -23.736 v 3.588 q 0,4.209 2.415,6.693 2.415,2.415 6.417,2.415 3.45,0 5.658,-1.311 2.277,-1.38 2.76,-3.657 h 6.21 q -0.621,4.761 -4.623,7.59 -4.002,2.76 -10.005,2.76 z m -8.832,-22.908 h 17.664 v -1.932 q 0,-4.485 -2.346,-6.9 -2.277,-2.484 -6.486,-2.484 -4.209,0 -6.555,2.484 -2.277,2.415 -2.277,6.9 z"
       id="text16"
       style="font-size:69px;font-family:'JetBrains Mono', 'JetBrains Mono_MSFontService', sans-serif;fill:#001080"
       transform="matrix(1 0 0 1 4903.07 1532)"
       aria-label="Tname" /><path
       d="M 7.935,8.28 V 2.277 q 4.485,-1.035 7.728,-3.933 3.243,-2.898 4.968,-7.245 1.794,-4.347 1.794,-9.729 v -12.42 q 0,-5.451 -1.794,-9.729 -1.725,-4.347 -4.968,-7.245 -3.243,-2.898 -7.728,-3.933 v -6.003 q 9.867,2.208 15.249,9.246 5.451,7.038 5.451,17.664 v 12.42 q 0,10.626 -5.451,17.664 Q 17.802,6.072 7.935,8.28 Z M 86.940049,0 v -37.95 h 5.382 v 5.037 h 0.138 q 0.345,-2.553 2.001,-4.14 1.725,-1.587 4.347,-1.587 2.484001,0 4.209001,1.449 1.725,1.449 2.484,3.933 h 0.069 q 0.483,-2.484 2.139,-3.933 1.725,-1.449 4.347,-1.449 3.657,0 5.796,2.76 2.208,2.691 2.208,7.038 V 0 h -5.796 v -28.911 q 0,-2.277 -1.104,-3.588 -1.104,-1.38 -3.036,-1.38 -1.863,0 -2.967,1.311 -1.104,1.311 -1.104,3.588 V 0 h -5.106 v -28.911 q 0,-2.277 -1.104001,-3.588 -1.104,-1.38 -2.967,-1.38 -1.932,0 -3.036,1.311 -1.104,1.311 -1.104,3.588 V 0 Z m 57.960021,0.69 q -6.693,0 -10.833,-4.002 -4.071,-4.071 -4.071,-11.178 v -8.97 q 0,-7.107 4.071,-11.109 4.14,-4.071 10.833,-4.071 4.485,0 7.797,1.794 3.381,1.794 5.244,5.037 1.863,3.243 1.863,7.659 v 6.762 h -23.736 v 3.588 q 0,4.209 2.415,6.693 2.415,2.415 6.417,2.415 3.45,0 5.658,-1.311 2.277,-1.38 2.76,-3.657 h 6.21 q -0.621,4.761 -4.623,7.59 -4.002,2.76 -10.005,2.76 z m -8.832,-22.908 h 17.664 v -1.932 q 0,-4.485 -2.346,-6.9 -2.277,-2.484 -6.486,-2.484 -4.209,0 -6.555,2.484 -2.277,2.415 -2.277,6.9 z"
       id="text17"
       style="font-size:69px;font-family:'JetBrains Mono', 'JetBrains Mono_MSFontService', sans-serif"
       transform="matrix(1 0 0 1 5109.32 1532)"
       aria-label=") me" /><path
       d="M-847 660.969C-847 524.02-735.98 413-599.031 413L1778.03 413C1914.98 413 2026 524.02 2026 660.969L2026 1765.03C2026 1901.98 1914.98 2013 1778.03 2013L-599.031 2013C-735.98 2013-847 1901.98-847 1765.03Z"
       stroke="#000000"
       stroke-width="10.3125"
       stroke-miterlimit="8"
       fill="#E2F0D9"
       fill-rule="evenodd"
       id="path17" /><path
       d="M-687.5 839.041C-687.5 734.36-602.639 649.5-497.959 649.5L1674.96 649.5C1779.64 649.5 1864.5 734.36 1864.5 839.041L1864.5 1682.96C1864.5 1787.64 1779.64 1872.5 1674.96 1872.5L-497.959 1872.5C-602.639 1872.5-687.5 1787.64-687.5 1682.96Z"
       stroke="#000000"
       stroke-width="6.875"
       stroke-miterlimit="8"
       fill="#FFFFFF"
       fill-rule="evenodd"
       id="path18" /><path
       d="M672.5 955.363C672.5 925.063 697.063 900.5 727.363 900.5L1679.64 900.5C1709.94 900.5 1734.5 925.063 1734.5 955.363L1734.5 1199.64C1734.5 1229.94 1709.94 1254.5 1679.64 1254.5L727.363 1254.5C697.063 1254.5 672.5 1229.94 672.5 1199.64Z"
       stroke="#000000"
       stroke-width="6.875"
       stroke-miterlimit="8"
       fill="#E2F0D9"
       fill-rule="evenodd"
       id="path19" /><path
       d="m 25.564,0.83 q -8.3,0 -13.28,-4.648 -4.98,-4.648 -4.98,-12.782 v -12.45 q 0,-8.134 4.98,-12.782 4.98,-4.648 13.28,-4.648 7.885,0 12.699,4.233 4.897,4.233 5.146,11.537 h -7.47 q -0.249,-4.399 -2.988,-6.723 -2.739,-2.407 -7.387,-2.407 -4.897,0 -7.885,2.822 -2.905,2.739 -2.905,7.885 V -16.6 q 0,5.146 2.905,7.968 2.988,2.822 7.885,2.822 4.648,0 7.387,-2.407 2.739,-2.407 2.988,-6.723 h 7.47 Q 43.16,-7.636 38.263,-3.403 33.449,0.83 25.564,0.83 Z M 74.700034,0.664 q -8.217,0 -13.114,-4.814 -4.814,-4.814 -4.814,-13.446 v -10.458 q 0,-8.715 4.814,-13.446 4.814,-4.814 13.114,-4.814 8.3,0 13.114,4.814 4.814,4.731 4.814,13.446 v 10.458 q 0,8.632 -4.897,13.446 -4.814,4.814 -13.031,4.814 z m 0,-6.64 q 4.897,0 7.636,-2.739 2.822,-2.739 2.822,-8.051 v -12.118 q 0,-5.312 -2.822,-8.051 -2.739,-2.739 -7.636,-2.739 -4.814,0 -7.636,2.739 -2.822,2.739 -2.822,8.051 v 12.118 q 0,5.312 2.822,8.051 2.822,2.739 7.636,2.739 z M 104.58007,0 v -45.65 h 6.474 v 6.059 h 0.166 q 0.415,-3.071 2.407,-4.98 2.075,-1.909 5.229,-1.909 2.988,0 5.063,1.743 2.075,1.743 2.988,4.731 h 0.083 q 0.581,-2.988 2.573,-4.731 2.075,-1.743 5.229,-1.743 4.399,0 6.972,3.32 2.656,3.237 2.656,8.466 V 0 h -6.972 v -34.777 q 0,-2.739 -1.328,-4.316 -1.328,-1.66 -3.652,-1.66 -2.241,0 -3.569,1.577 -1.328,1.577 -1.328,4.316 V 0 h -6.142 v -34.777 q 0,-2.739 -1.328,-4.316 -1.328,-1.66 -3.569,-1.66 -2.324,0 -3.652,1.577 -1.328,1.577 -1.328,4.316 V 0 Z m 52.45603,14.94 v -60.59 h 7.47 v 8.715 h 0.083 q 0.581,-4.482 3.901,-6.972 3.32,-2.573 8.466,-2.573 6.889,0 10.956,4.565 4.067,4.482 4.067,12.367 v 13.363 q 0,7.885 -4.067,12.45 -4.067,4.565 -10.956,4.565 -5.146,0 -8.466,-2.573 -3.32,-2.573 -3.901,-6.972 h -0.249 l 0.166,10.375 v 13.28 z m 17.43,-20.584 q 4.731,0 7.387,-2.49 2.656,-2.49 2.656,-8.051 v -13.28 q 0,-5.644 -2.656,-8.051 -2.656,-2.49 -7.387,-2.49 -4.565,0 -7.304,2.905 -2.656,2.905 -2.656,8.051 v 12.45 q 0,5.146 2.656,8.051 2.739,2.905 7.304,2.905 z m 49.63403,6.308 q -8.217,0 -13.114,-4.814 -4.814,-4.814 -4.814,-13.446 v -10.458 q 0,-8.715 4.814,-13.446 4.814,-4.814 13.114,-4.814 8.3,0 13.114,4.814 4.814,4.731 4.814,13.446 v 10.458 q 0,8.632 -4.897,13.446 -4.814,4.814 -13.031,4.814 z m 0,-6.64 q 4.897,0 7.636,-2.739 2.822,-2.739 2.822,-8.051 v -12.118 q 0,-5.312 -2.822,-8.051 -2.739,-2.739 -7.636,-2.739 -4.814,0 -7.636,2.739 -2.822,2.739 -2.822,8.051 v 12.118 q 0,5.312 2.822,8.051 2.822,2.739 7.636,2.739 z M 256.63617,0 v -45.65 h 7.47 v 8.715 h 0.083 q 0.581,-4.565 3.735,-7.055 3.154,-2.49 8.383,-2.49 6.889,0 10.956,4.233 4.067,4.233 4.067,11.537 V 0 h -7.47 v -29.382 q 0,-5.229 -2.656,-7.968 -2.573,-2.822 -7.055,-2.822 -4.648,0 -7.387,2.905 -2.656,2.905 -2.656,8.217 V 0 Z m 67.06403,0.83 q -8.051,0 -13.031,-4.814 -4.897,-4.897 -4.897,-13.446 v -10.79 q 0,-8.549 4.897,-13.363 4.98,-4.897 13.031,-4.897 5.395,0 9.379,2.158 4.067,2.158 6.308,6.059 2.241,3.901 2.241,9.213 v 8.134 h -28.552 v 4.316 q 0,5.063 2.905,8.051 2.905,2.905 7.719,2.905 4.15,0 6.806,-1.577 2.739,-1.66 3.32,-4.399 h 7.47 q -0.747,5.727 -5.561,9.13 -4.814,3.32 -12.035,3.32 z m -10.624,-27.556 h 21.248 v -2.324 q 0,-5.395 -2.822,-8.3 -2.739,-2.988 -7.802,-2.988 -5.063,0 -7.885,2.988 -2.739,2.905 -2.739,8.3 z M 356.23622,0 v -45.65 h 7.47 v 8.715 h 0.083 q 0.581,-4.565 3.735,-7.055 3.154,-2.49 8.383,-2.49 6.889,0 10.956,4.233 4.067,4.233 4.067,11.537 V 0 h -7.47 v -29.382 q 0,-5.229 -2.656,-7.968 -2.573,-2.822 -7.055,-2.822 -4.648,0 -7.387,2.905 -2.656,2.905 -2.656,8.217 V 0 Z m 71.62905,0 q -5.644,0 -9.047,-3.237 -3.403,-3.32 -3.403,-8.798 v -26.809 h -13.114 v -6.806 h 13.114 v -12.865 h 7.47 v 12.865 h 18.675 v 6.806 h -18.675 v 26.809 q 0,2.324 1.328,3.818 1.411,1.411 3.652,1.411 h 13.28 V 0 Z m 25.31505,8.3 V 2.075 h 39.84 V 8.3 Z m 65.73602,-7.47 q -7.055,0 -11.205,-3.901 -4.15,-3.984 -4.15,-10.375 0,-4.233 1.909,-7.387 1.909,-3.154 5.312,-4.897 3.403,-1.826 7.802,-1.826 h 14.11 v -3.569 q 0,-8.881 -9.711,-8.881 -4.316,0 -6.972,1.577 -2.656,1.577 -2.822,4.399 h -7.47 q 0.415,-5.395 4.98,-8.881 4.648,-3.569 12.284,-3.569 8.3,0 12.699,3.984 4.482,3.984 4.482,11.122 V 0 h -7.387 v -8.3 h -0.166 q -0.664,4.233 -4.233,6.723 -3.569,2.407 -9.462,2.407 z m 1.826,-6.308 q 5.478,0 8.715,-2.656 3.237,-2.656 3.237,-7.221 v -6.391 h -13.28 q -3.652,0 -5.976,2.241 -2.241,2.158 -2.241,5.81 0,3.818 2.49,6.059 2.573,2.158 7.055,2.158 z"
       id="text19"
       style="font-size:83px;font-family:'JetBrains Mono', 'JetBrains Mono_MSFontService', sans-serif"
       transform="matrix(1 0 0 1 932.015 1103)"
       aria-label="component_a" /><path
       d="M672.5 1389.21C672.5 1358.99 696.993 1334.5 727.207 1334.5L1679.79 1334.5C1710.01 1334.5 1734.5 1358.99 1734.5 1389.21L1734.5 1632.79C1734.5 1663.01 1710.01 1687.5 1679.79 1687.5L727.207 1687.5C696.993 1687.5 672.5 1663.01 672.5 1632.79Z"
       stroke="#000000"
       stroke-width="6.875"
       stroke-miterlimit="8"
       fill="#E2F0D9"
       fill-rule="evenodd"
       id="path20" /><path
       d="m 25.564,0.83 q -8.3,0 -13.28,-4.648 -4.98,-4.648 -4.98,-12.782 v -12.45 q 0,-8.134 4.98,-12.782 4.98,-4.648 13.28,-4.648 7.885,0 12.699,4.233 4.897,4.233 5.146,11.537 h -7.47 q -0.249,-4.399 -2.988,-6.723 -2.739,-2.407 -7.387,-2.407 -4.897,0 -7.885,2.822 -2.905,2.739 -2.905,7.885 V -16.6 q 0,5.146 2.905,7.968 2.988,2.822 7.885,2.822 4.648,0 7.387,-2.407 2.739,-2.407 2.988,-6.723 h 7.47 Q 43.16,-7.636 38.263,-3.403 33.449,0.83 25.564,0.83 Z M 74.700034,0.664 q -8.217,0 -13.114,-4.814 -4.814,-4.814 -4.814,-13.446 v -10.458 q 0,-8.715 4.814,-13.446 4.814,-4.814 13.114,-4.814 8.3,0 13.114,4.814 4.814,4.731 4.814,13.446 v 10.458 q 0,8.632 -4.897,13.446 -4.814,4.814 -13.031,4.814 z m 0,-6.64 q 4.897,0 7.636,-2.739 2.822,-2.739 2.822,-8.051 v -12.118 q 0,-5.312 -2.822,-8.051 -2.739,-2.739 -7.636,-2.739 -4.814,0 -7.636,2.739 -2.822,2.739 -2.822,8.051 v 12.118 q 0,5.312 2.822,8.051 2.822,2.739 7.636,2.739 z M 104.58007,0 v -45.65 h 6.474 v 6.059 h 0.166 q 0.415,-3.071 2.407,-4.98 2.075,-1.909 5.229,-1.909 2.988,0 5.063,1.743 2.075,1.743 2.988,4.731 h 0.083 q 0.581,-2.988 2.573,-4.731 2.075,-1.743 5.229,-1.743 4.399,0 6.972,3.32 2.656,3.237 2.656,8.466 V 0 h -6.972 v -34.777 q 0,-2.739 -1.328,-4.316 -1.328,-1.66 -3.652,-1.66 -2.241,0 -3.569,1.577 -1.328,1.577 -1.328,4.316 V 0 h -6.142 v -34.777 q 0,-2.739 -1.328,-4.316 -1.328,-1.66 -3.569,-1.66 -2.324,0 -3.652,1.577 -1.328,1.577 -1.328,4.316 V 0 Z m 52.45603,14.94 v -60.59 h 7.47 v 8.715 h 0.083 q 0.581,-4.482 3.901,-6.972 3.32,-2.573 8.466,-2.573 6.889,0 10.956,4.565 4.067,4.482 4.067,12.367 v 13.363 q 0,7.885 -4.067,12.45 -4.067,4.565 -10.956,4.565 -5.146,0 -8.466,-2.573 -3.32,-2.573 -3.901,-6.972 h -0.249 l 0.166,10.375 v 13.28 z m 17.43,-20.584 q 4.731,0 7.387,-2.49 2.656,-2.49 2.656,-8.051 v -13.28 q 0,-5.644 -2.656,-8.051 -2.656,-2.49 -7.387,-2.49 -4.565,0 -7.304,2.905 -2.656,2.905 -2.656,8.051 v 12.45 q 0,5.146 2.656,8.051 2.739,2.905 7.304,2.905 z m 49.63403,6.308 q -8.217,0 -13.114,-4.814 -4.814,-4.814 -4.814,-13.446 v -10.458 q 0,-8.715 4.814,-13.446 4.814,-4.814 13.114,-4.814 8.3,0 13.114,4.814 4.814,4.731 4.814,13.446 v 10.458 q 0,8.632 -4.897,13.446 -4.814,4.814 -13.031,4.814 z m 0,-6.64 q 4.897,0 7.636,-2.739 2.822,-2.739 2.822,-8.051 v -12.118 q 0,-5.312 -2.822,-8.051 -2.739,-2.739 -7.636,-2.739 -4.814,0 -7.636,2.739 -2.822,2.739 -2.822,8.051 v 12.118 q 0,5.312 2.822,8.051 2.822,2.739 7.636,2.739 z M 256.63617,0 v -45.65 h 7.47 v 8.715 h 0.083 q 0.581,-4.565 3.735,-7.055 3.154,-2.49 8.383,-2.49 6.889,0 10.956,4.233 4.067,4.233 4.067,11.537 V 0 h -7.47 v -29.382 q 0,-5.229 -2.656,-7.968 -2.573,-2.822 -7.055,-2.822 -4.648,0 -7.387,2.905 -2.656,2.905 -2.656,8.217 V 0 Z m 67.06403,0.83 q -8.051,0 -13.031,-4.814 -4.897,-4.897 -4.897,-13.446 v -10.79 q 0,-8.549 4.897,-13.363 4.98,-4.897 13.031,-4.897 5.395,0 9.379,2.158 4.067,2.158 6.308,6.059 2.241,3.901 2.241,9.213 v 8.134 h -28.552 v 4.316 q 0,5.063 2.905,8.051 2.905,2.905 7.719,2.905 4.15,0 6.806,-1.577 2.739,-1.66 3.32,-4.399 h 7.47 q -0.747,5.727 -5.561,9.13 -4.814,3.32 -12.035,3.32 z m -10.624,-27.556 h 21.248 v -2.324 q 0,-5.395 -2.822,-8.3 -2.739,-2.988 -7.802,-2.988 -5.063,0 -7.885,2.988 -2.739,2.905 -2.739,8.3 z M 356.23622,0 v -45.65 h 7.47 v 8.715 h 0.083 q 0.581,-4.565 3.735,-7.055 3.154,-2.49 8.383,-2.49 6.889,0 10.956,4.233 4.067,4.233 4.067,11.537 V 0 h -7.47 v -29.382 q 0,-5.229 -2.656,-7.968 -2.573,-2.822 -7.055,-2.822 -4.648,0 -7.387,2.905 -2.656,2.905 -2.656,8.217 V 0 Z m 71.62905,0 q -5.644,0 -9.047,-3.237 -3.403,-3.32 -3.403,-8.798 v -26.809 h -13.114 v -6.806 h 13.114 v -12.865 h 7.47 v 12.865 h 18.675 v 6.806 h -18.675 v 26.809 q 0,2.324 1.328,3.818 1.411,1.411 3.652,1.411 h 13.28 V 0 Z m 25.31505,8.3 V 2.075 h 39.84 V 8.3 Z m 72.37602,-7.47 q -5.146,0 -8.466,-2.49 -3.32,-2.573 -3.901,-7.055 h -0.083 V 0 h -7.47 v -60.59 h 7.47 v 13.28 l -0.166,10.375 h 0.083 q 0.664,-4.399 3.984,-6.972 3.403,-2.573 8.549,-2.573 6.889,0 10.956,4.565 4.067,4.565 4.067,12.45 v 13.363 q 0,7.802 -4.067,12.367 -4.067,4.565 -10.956,4.565 z m -2.49,-6.474 q 4.731,0 7.387,-2.49 2.656,-2.49 2.656,-8.051 v -13.28 q 0,-5.644 -2.656,-8.051 -2.656,-2.49 -7.387,-2.49 -4.565,0 -7.304,2.905 -2.656,2.905 -2.656,8.051 v 12.45 q 0,5.146 2.656,8.051 2.739,2.905 7.304,2.905 z"
       id="text20"
       style="font-size:83px;font-family:'JetBrains Mono', 'JetBrains Mono_MSFontService', sans-serif"
       transform="matrix(1 0 0 1 932.015 1537)"
       aria-label="component_b" /><path
       d="M-546.5 1022.47C-546.5 955.107-491.893 900.5-424.531 900.5L392.531 900.5C459.893 900.5 514.5 955.107 514.5 1022.47L514.5 1565.53C514.5 1632.89 459.893 1687.5 392.531 1687.5L-424.531 1687.5C-491.893 1687.5-546.5 1632.89-546.5 1565.53Z"
       stroke="#000000"
       stroke-width="6.875"
       stroke-miterlimit="8"
       fill="#FFFFFF"
       fill-rule="evenodd"
       id="path21" /><path
       d="m 25.564,0.83 q -8.3,0 -13.28,-4.648 -4.98,-4.648 -4.98,-12.782 v -12.45 q 0,-8.134 4.98,-12.782 4.98,-4.648 13.28,-4.648 7.885,0 12.699,4.233 4.897,4.233 5.146,11.537 h -7.47 q -0.249,-4.399 -2.988,-6.723 -2.739,-2.407 -7.387,-2.407 -4.897,0 -7.885,2.822 -2.905,2.739 -2.905,7.885 V -16.6 q 0,5.146 2.905,7.968 2.988,2.822 7.885,2.822 4.648,0 7.387,-2.407 2.739,-2.407 2.988,-6.723 h 7.47 Q 43.16,-7.636 38.263,-3.403 33.449,0.83 25.564,0.83 Z M 74.700034,0.664 q -8.217,0 -13.114,-4.814 -4.814,-4.814 -4.814,-13.446 v -10.458 q 0,-8.715 4.814,-13.446 4.814,-4.814 13.114,-4.814 8.3,0 13.114,4.814 4.814,4.731 4.814,13.446 v 10.458 q 0,8.632 -4.897,13.446 -4.814,4.814 -13.031,4.814 z m 0,-6.64 q 4.897,0 7.636,-2.739 2.822,-2.739 2.822,-8.051 v -12.118 q 0,-5.312 -2.822,-8.051 -2.739,-2.739 -7.636,-2.739 -4.814,0 -7.636,2.739 -2.822,2.739 -2.822,8.051 v 12.118 q 0,5.312 2.822,8.051 2.822,2.739 7.636,2.739 z M 104.58007,0 v -45.65 h 6.474 v 6.059 h 0.166 q 0.415,-3.071 2.407,-4.98 2.075,-1.909 5.229,-1.909 2.988,0 5.063,1.743 2.075,1.743 2.988,4.731 h 0.083 q 0.581,-2.988 2.573,-4.731 2.075,-1.743 5.229,-1.743 4.399,0 6.972,3.32 2.656,3.237 2.656,8.466 V 0 h -6.972 v -34.777 q 0,-2.739 -1.328,-4.316 -1.328,-1.66 -3.652,-1.66 -2.241,0 -3.569,1.577 -1.328,1.577 -1.328,4.316 V 0 h -6.142 v -34.777 q 0,-2.739 -1.328,-4.316 -1.328,-1.66 -3.569,-1.66 -2.324,0 -3.652,1.577 -1.328,1.577 -1.328,4.316 V 0 Z m 52.45603,14.94 v -60.59 h 7.47 v 8.715 h 0.083 q 0.581,-4.482 3.901,-6.972 3.32,-2.573 8.466,-2.573 6.889,0 10.956,4.565 4.067,4.482 4.067,12.367 v 13.363 q 0,7.885 -4.067,12.45 -4.067,4.565 -10.956,4.565 -5.146,0 -8.466,-2.573 -3.32,-2.573 -3.901,-6.972 h -0.249 l 0.166,10.375 v 13.28 z m 17.43,-20.584 q 4.731,0 7.387,-2.49 2.656,-2.49 2.656,-8.051 v -13.28 q 0,-5.644 -2.656,-8.051 -2.656,-2.49 -7.387,-2.49 -4.565,0 -7.304,2.905 -2.656,2.905 -2.656,8.051 v 12.45 q 0,5.146 2.656,8.051 2.739,2.905 7.304,2.905 z m 49.63403,6.308 q -8.217,0 -13.114,-4.814 -4.814,-4.814 -4.814,-13.446 v -10.458 q 0,-8.715 4.814,-13.446 4.814,-4.814 13.114,-4.814 8.3,0 13.114,4.814 4.814,4.731 4.814,13.446 v 10.458 q 0,8.632 -4.897,13.446 -4.814,4.814 -13.031,4.814 z m 0,-6.64 q 4.897,0 7.636,-2.739 2.822,-2.739 2.822,-8.051 v -12.118 q 0,-5.312 -2.822,-8.051 -2.739,-2.739 -7.636,-2.739 -4.814,0 -7.636,2.739 -2.822,2.739 -2.822,8.051 v 12.118 q 0,5.312 2.822,8.051 2.822,2.739 7.636,2.739 z M 256.63617,0 v -45.65 h 7.47 v 8.715 h 0.083 q 0.581,-4.565 3.735,-7.055 3.154,-2.49 8.383,-2.49 6.889,0 10.956,4.233 4.067,4.233 4.067,11.537 V 0 h -7.47 v -29.382 q 0,-5.229 -2.656,-7.968 -2.573,-2.822 -7.055,-2.822 -4.648,0 -7.387,2.905 -2.656,2.905 -2.656,8.217 V 0 Z m 67.06403,0.83 q -8.051,0 -13.031,-4.814 -4.897,-4.897 -4.897,-13.446 v -10.79 q 0,-8.549 4.897,-13.363 4.98,-4.897 13.031,-4.897 5.395,0 9.379,2.158 4.067,2.158 6.308,6.059 2.241,3.901 2.241,9.213 v 8.134 h -28.552 v 4.316 q 0,5.063 2.905,8.051 2.905,2.905 7.719,2.905 4.15,0 6.806,-1.577 2.739,-1.66 3.32,-4.399 h 7.47 q -0.747,5.727 -5.561,9.13 -4.814,3.32 -12.035,3.32 z m -10.624,-27.556 h 21.248 v -2.324 q 0,-5.395 -2.822,-8.3 -2.739,-2.988 -7.802,-2.988 -5.063,0 -7.885,2.988 -2.739,2.905 -2.739,8.3 z M 356.23622,0 v -45.65 h 7.47 v 8.715 h 0.083 q 0.581,-4.565 3.735,-7.055 3.154,-2.49 8.383,-2.49 6.889,0 10.956,4.233 4.067,4.233 4.067,11.537 V 0 h -7.47 v -29.382 q 0,-5.229 -2.656,-7.968 -2.573,-2.822 -7.055,-2.822 -4.648,0 -7.387,2.905 -2.656,2.905 -2.656,8.217 V 0 Z m 71.62905,0 q -5.644,0 -9.047,-3.237 -3.403,-3.32 -3.403,-8.798 v -26.809 h -13.114 v -6.806 h 13.114 v -12.865 h 7.47 v 12.865 h 18.675 v 6.806 h -18.675 v 26.809 q 0,2.324 1.328,3.818 1.411,1.411 3.652,1.411 h 13.28 V 0 Z m 25.31505,8.3 V 2.075 h 39.84 V 8.3 Z m 70.38402,-7.47 q -8.3,0 -13.28,-4.648 -4.98,-4.648 -4.98,-12.782 v -12.45 q 0,-8.134 4.98,-12.782 4.98,-4.648 13.28,-4.648 7.885,0 12.699,4.233 4.897,4.233 5.146,11.537 h -7.47 q -0.249,-4.399 -2.988,-6.723 -2.739,-2.407 -7.387,-2.407 -4.897,0 -7.885,2.822 -2.905,2.739 -2.905,7.885 V -16.6 q 0,5.146 2.905,7.968 2.988,2.822 7.885,2.822 4.648,0 7.387,-2.407 2.739,-2.407 2.988,-6.723 h 7.47 q -0.249,7.304 -5.146,11.537 -4.814,4.233 -12.699,4.233 z"
       id="text21"
       style="font-size:83px;font-family:'JetBrains Mono', 'JetBrains Mono_MSFontService', sans-serif"
       transform="matrix(1 0 0 1 -287.36 1320)"
       aria-label="component_c" /><path
       d="M2035.5 1293.06 2063 1293.06 2063 1299.94 2035.5 1299.94ZM2083.62 1293.06 2111.12 1293.06 2111.12 1299.94 2083.62 1299.94ZM2131.75 1293.06 2159.25 1293.06 2159.25 1299.94 2131.75 1299.94ZM2179.88 1293.06 2207.38 1293.06 2207.38 1299.94 2179.88 1299.94ZM2228 1293.06 2255.5 1293.06 2255.5 1299.94 2228 1299.94ZM2276.12 1293.06 2303.62 1293.06 2303.62 1299.94 2276.12 1299.94ZM2324.25 1293.06 2351.75 1293.06 2351.75 1299.94 2324.25 1299.94ZM2372.38 1293.06 2399.88 1293.06 2399.88 1299.94 2372.38 1299.94ZM2420.5 1293.06 2448 1293.06 2448 1299.94 2420.5 1299.94ZM2468.62 1293.06 2496.12 1293.06 2496.12 1299.94 2468.62 1299.94ZM2516.75 1293.06 2544.25 1293.06 2544.25 1299.94 2516.75 1299.94ZM2564.88 1293.06 2592.38 1293.06 2592.38 1299.94 2564.88 1299.94ZM2613 1293.06 2640.5 1293.06 2640.5 1299.94 2613 1299.94ZM2661.12 1293.06 2688.62 1293.06 2688.62 1299.94 2661.12 1299.94ZM2709.25 1293.06 2736.75 1293.06 2736.75 1299.94 2709.25 1299.94ZM2757.38 1293.06 2784.88 1293.06 2784.88 1299.94 2757.38 1299.94ZM2805.5 1293.06 2833 1293.06 2833 1299.94 2805.5 1299.94ZM2853.62 1293.06 2881.12 1293.06 2881.12 1299.94 2853.62 1299.94ZM2901.75 1293.06 2929.25 1293.06 2929.25 1299.94 2901.75 1299.94ZM2949.88 1293.06 2977.38 1293.06 2977.38 1299.94 2949.88 1299.94ZM2998 1293.06 3025.5 1293.06 3025.5 1299.94 2998 1299.94ZM3046.12 1293.06 3073.62 1293.06 3073.62 1299.94 3046.12 1299.94ZM3076.42 1282.75 3103.92 1296.5 3076.42 1310.25Z"
       id="path22" /><path
       d="M1733.75 1072.78 1760.58 1066.76 1762.09 1073.47 1735.25 1079.49ZM1780.71 1062.25 1782.19 1061.92 1807.66 1056.58 1809.08 1063.31 1783.62 1068.65 1783.67 1068.64 1782.21 1068.96ZM1827.85 1052.34 1831.05 1051.67 1854.92 1047.13 1856.2 1053.88 1832.37 1058.42 1832.43 1058.41 1829.26 1059.07ZM1875.29 1043.59 1880.76 1042.64 1902.53 1039.31 1903.57 1046.11 1881.83 1049.43 1881.9 1049.42 1876.47 1050.36ZM1923.05 1036.57 1931.67 1035.45 1950.46 1033.49 1951.17 1040.33 1932.43 1042.28 1932.51 1042.27 1923.93 1043.39ZM1971.1 1031.72 1984.18 1030.72 1998.65 1030.05 1998.97 1036.91 1984.54 1037.58 1984.65 1037.58 1971.62 1038.57ZM2019.37 1029.35 2038.66 1029.06 2046.98 1029.22 2046.85 1036.09 2038.58 1035.94 2038.7 1035.94 2019.47 1036.22ZM2067.72 1029.63 2095.18 1031.09 2094.82 1037.95 2067.35 1036.5ZM2115.85 1032.9 2124.91 1033.7 2143.29 1035.99 2142.44 1042.82 2124.12 1040.53 2124.25 1040.55 2115.24 1039.75ZM2163.83 1038.84 2170.57 1039.9 2186.45 1042.85 2191.05 1043.82 2189.63 1050.55 2185.07 1049.59 2185.15 1049.6 2169.36 1046.67 2169.45 1046.69 2162.76 1045.63ZM2211.26 1048.27 2219.23 1050.13 2236.08 1054.39 2238.07 1054.93 2236.27 1061.57 2234.31 1061.04 2234.36 1061.05 2217.57 1056.8 2217.63 1056.82 2209.7 1054.97ZM2258.02 1060.45 2284.4 1068.22 2282.46 1074.82 2256.08 1067.05ZM2304.14 1074.45 2323.91 1080.77 2330.36 1082.96 2328.15 1089.47 2321.73 1087.29 2321.79 1087.31 2302.05 1080.99ZM2349.89 1089.59 2360.23 1093.1 2375.9 1098.65 2373.6 1105.13 2357.95 1099.59 2358 1099.6 2347.68 1096.1ZM2395.34 1105.53 2396.91 1106.08 2421.22 1114.92 2418.87 1121.38 2394.57 1112.55 2394.6 1112.56 2393.05 1112.01ZM2440.61 1122 2466.41 1131.5 2464.04 1137.95 2438.23 1128.45ZM2485.77 1138.64 2507.03 1146.48 2507.02 1146.47 2511.56 1148.13 2509.21 1154.59 2504.66 1152.93 2483.39 1145.09ZM2530.94 1155.19 2543.06 1159.6 2543.03 1159.6 2556.79 1164.48 2554.49 1170.96 2540.72 1166.07 2528.59 1161.65ZM2576.23 1171.39 2578.39 1172.16 2578.35 1172.14 2602.21 1180.27 2599.99 1186.78 2576.11 1178.64 2573.93 1177.87ZM2621.72 1186.73 2646.12 1194.54 2646.06 1194.53 2647.87 1195.07 2645.89 1201.65 2644.06 1201.1 2619.63 1193.28ZM2667.59 1200.9 2678.06 1203.88 2678.01 1203.87 2693.47 1207.98 2693.41 1207.97 2694 1208.11 2692.36 1214.79 2691.74 1214.64 2676.21 1210.5 2665.71 1207.52ZM2713.99 1212.91 2737.64 1218.25 2737.58 1218.24 2740.77 1218.9 2739.37 1225.63 2736.15 1224.96 2712.48 1219.62ZM2760.97 1223.1 2765.96 1224.14 2765.9 1224.13 2787.91 1228.33 2786.62 1235.08 2764.59 1230.88 2759.57 1229.83ZM2808.15 1231.94 2820.26 1234.05 2820.21 1234.04 2835.23 1236.4 2834.17 1243.19 2819.11 1240.83 2806.98 1238.72ZM2855.58 1239.46 2871.82 1241.75 2871.77 1241.74 2882.78 1243.13 2881.92 1249.95 2870.88 1248.56 2854.61 1246.26ZM2903.2 1245.61 2921.1 1247.62 2921.05 1247.61 2930.5 1248.54 2929.83 1255.38 2920.36 1254.45 2902.44 1252.45ZM2950.99 1250.49 2968.56 1252.01 2968.51 1252.01 2978.35 1252.71 2977.86 1259.57 2967.99 1258.86 2950.4 1257.34ZM2998.92 1254.18 3014.68 1255.31 3014.63 1255.31 3026.31 1255.97 3025.92 1262.83 3014.22 1262.17 2998.43 1261.04ZM3046.9 1257.14 3059.89 1257.87 3059.87 1257.87 3074.34 1258.58 3074 1265.45 3059.52 1264.74 3046.52 1264ZM3077.71 1248.42 3104.5 1263.5 3076.36 1275.89Z"
       id="path23" /><path
       d="M-0.751694 40.2772 26.0827 34.2636 27.5861 40.9722 0.751694 46.9858ZM46.2086 29.7534 47.6899 29.4215 73.1647 24.0784 74.5759 30.807 49.1243 36.1452 49.1703 36.1352 47.712 36.462ZM93.3505 19.8446 96.5526 19.173 120.416 14.6302 121.702 21.3839 97.8698 25.9207 97.9325 25.9082 94.7617 26.5732ZM140.793 11.0877 146.261 10.141 168.027 6.81404 169.065 13.6101 147.334 16.9319 147.401 16.921 141.966 17.8619ZM188.546 4.06954 197.171 2.94992 215.959 0.99225 216.671 7.83023 197.927 9.78339 198.013 9.77331 189.431 10.8873ZM236.601-0.784825 249.675-1.78246 264.149-2.45366 264.468 4.41395 250.045 5.08279 250.147 5.07651 237.124 6.07025ZM284.869-3.15379 304.155-3.43686 312.48-3.28273 312.352 3.59109 304.085 3.43802 304.199 3.43824 284.97 3.72047ZM333.218-2.8656 360.68-1.41169 360.316 5.4537 332.855 3.99979ZM381.346 0.403279 390.412 1.20428 408.792 3.49286 407.942 10.3152 389.623 8.03419 389.745 8.04719 380.741 7.2516ZM429.329 6.34173 436.066 7.40447 451.945 10.3522 456.549 11.322 455.132 18.0494 450.569 17.0881 450.65 17.1042 434.857 14.1725 434.948 14.1882 428.258 13.1327ZM476.763 15.7719 484.726 17.6277 501.577 21.8936 503.569 22.4336 501.77 29.069 499.806 28.5365 499.862 28.5512 483.071 24.3005 483.134 24.3159 475.202 22.4675ZM523.517 27.9548 549.897 35.7231 547.955 42.3181 521.575 34.5498ZM569.644 41.9454 589.409 48.2692 595.857 50.4586 593.646 56.9685 587.227 54.7889 587.285 54.8079 567.549 48.4934ZM615.386 57.0901 625.727 60.6015 641.398 66.1476 639.104 72.6287 623.454 67.0899 623.496 67.1043 613.176 63.6001ZM660.841 73.0288 662.409 73.5835 686.719 82.4186 684.371 88.8801 660.074 80.0499 660.101 80.0597 658.548 79.5099ZM706.107 89.4982 731.912 99.0028 729.536 105.454 703.731 95.9495ZM751.266 106.136 772.529 113.976 772.517 113.971 777.062 115.627 774.708 122.087 770.157 120.429 748.887 112.587ZM796.44 122.689 808.559 127.105 808.533 127.095 822.292 131.983 819.991 138.461 806.218 133.569 794.087 129.148ZM841.728 138.887 843.894 139.656 843.852 139.642 867.707 147.769 865.489 154.276 841.614 146.142 839.426 145.365ZM887.224 154.234 911.624 162.044 911.564 162.025 913.365 162.566 911.389 169.151 909.557 168.601 885.128 160.782ZM933.094 168.404 943.564 171.382 943.508 171.367 958.972 175.484 958.908 175.468 959.502 175.614 957.862 182.29 957.235 182.136 941.711 178.003 931.214 175.017ZM979.493 180.414 1003.14 185.748 1003.08 185.736 1006.27 186.401 1004.87 193.132 1001.65 192.461 977.98 187.12ZM1026.47 190.604 1031.46 191.643 1031.4 191.632 1053.41 195.831 1052.12 202.584 1030.09 198.38 1025.07 197.335ZM1073.65 199.444 1085.76 201.549 1085.71 201.54 1100.73 203.903 1099.67 210.695 1084.61 208.327 1072.48 206.218ZM1121.08 206.955 1137.32 209.25 1137.27 209.243 1148.28 210.632 1147.42 217.453 1136.38 216.061 1120.11 213.762ZM1168.7 213.115 1186.6 215.116 1186.55 215.111 1196 216.042 1195.33 222.884 1185.86 221.95 1167.94 219.947ZM1216.49 217.991 1234.06 219.512 1234.01 219.508 1243.85 220.212 1243.36 227.069 1233.49 226.364 1215.9 224.84ZM1264.42 221.683 1280.18 222.81 1280.13 222.806 1291.81 223.468 1291.42 230.332 1279.72 229.669 1263.93 228.54ZM1312.4 224.635 1325.39 225.371 1325.37 225.37 1339.84 226.08 1339.5 232.946 1325.02 232.236 1312.02 231.499ZM1343.21 215.92 1370 231 1341.86 243.387Z"
       transform="matrix(1 0 0 -1 1734.5 1560.5)"
       id="path24" /><path
       d="M4514.94 1369.5 4514.94 1413.74 4508.06 1413.74 4508.06 1369.5ZM4525.25 1409.16 4511.5 1436.66 4497.75 1409.16Z"
       id="path25" /><path
       id="rect25"
       style="fill:#ffffff;stroke:#ffffff;stroke-width:4.58333;stroke-miterlimit:8"
       d="m 2346.5,1079.5 h 228 v 132 h -228 z" /><path
       d="m 24.495,0 q -4.692,0 -7.521,-2.691 -2.829,-2.76 -2.829,-7.314 V -32.292 H 3.243 v -5.658 h 10.902 v -10.695 h 6.21 V -37.95 H 35.88 v 5.658 H 20.355 v 22.287 q 0,1.932 1.104,3.174 1.173,1.173 3.036,1.173 h 11.04 V 0 Z m 29.187024,12.42 5.589,-14.766 -14.145,-35.604 h 6.693 l 8.97,23.46 q 0.552,1.38 1.035,2.898 0.483,1.518 0.69,2.622 0.207,-1.104 0.69,-2.622 0.483,-1.518 0.966,-2.898 l 8.349,-23.46 h 6.555 l -18.906,50.37 z m 35.466025,0 v -50.37 h 6.21 v 7.245 h 0.069 q 0.483,-3.726 3.243,-5.796 2.760001,-2.139 7.038001,-2.139 5.727,0 9.108,3.795 3.381,3.726 3.381,10.281 v 11.109 q 0,6.555 -3.381,10.35 -3.381,3.795 -9.108,3.795 -4.278,0 -7.038001,-2.139 -2.76,-2.139 -3.243,-5.796 h -0.207 l 0.138,8.625 V 12.42 Z M 103.63805,-4.692 q 3.933,0 6.141,-2.07 2.208,-2.07 2.208,-6.693 v -11.04 q 0,-4.692 -2.208,-6.693 -2.208,-2.07 -6.141,-2.07 -3.795001,0 -6.072001,2.415 -2.208,2.415 -2.208,6.693 v 10.35 q 0,4.278 2.208,6.693 2.277,2.415 6.072001,2.415 z m 41.26202,5.382 q -6.693,0 -10.833,-4.002 -4.071,-4.071 -4.071,-11.178 v -8.97 q 0,-7.107 4.071,-11.109 4.14,-4.071 10.833,-4.071 4.485,0 7.797,1.794 3.381,1.794 5.244,5.037 1.863,3.243 1.863,7.659 v 6.762 h -23.736 v 3.588 q 0,4.209 2.415,6.693 2.415,2.415 6.417,2.415 3.45,0 5.658,-1.311 2.277,-1.38 2.76,-3.657 h 6.21 q -0.621,4.761 -4.623,7.59 -4.002,2.76 -10.005,2.76 z m -8.832,-22.908 h 17.664 v -1.932 q 0,-4.485 -2.346,-6.9 -2.277,-2.484 -6.486,-2.484 -4.209,0 -6.555,2.484 -2.277,2.415 -2.277,6.9 z M 169.7401,6.9 V 1.725 h 33.12 V 6.9 Z M 212.86512,0 v -5.658 h 13.455 v -26.634 h -12.075 v -5.658 h 18.285 v 32.292 h 12.765 V 0 Z m 15.87,-44.781 q -2.277,0 -3.588,-1.173 -1.311,-1.173 -1.311,-3.174 0,-2.07 1.311,-3.243 1.311,-1.242 3.588,-1.242 2.277,0 3.588,1.242 1.311,1.173 1.311,3.243 0,2.001 -1.311,3.174 -1.311,1.173 -3.588,1.173 z M 266.89215,0.69 q -5.658,0 -9.108,-3.795 -3.381,-3.795 -3.381,-10.281 v -11.109 q 0,-6.555 3.381,-10.35 3.381,-3.795 9.108,-3.795 4.278,0 7.038,2.139 2.829,2.139 3.381,5.796 h 0.069 l -0.138,-8.625 v -11.04 h 6.21 V 0 h -6.21 v -7.245 h -0.069 q -0.483,3.726 -3.243,5.865 -2.76,2.07 -7.038,2.07 z m 2.07,-5.382 q 3.864,0 6.072,-2.415 2.208,-2.415 2.208,-6.693 v -10.35 q 0,-4.278 -2.208,-6.693 -2.208,-2.415 -6.072,-2.415 -3.933,0 -6.141,2.07 -2.208,2.001 -2.208,6.693 v 11.04 q 0,4.623 2.208,6.693 2.208,2.07 6.141,2.07 z"
       id="text25"
       style="font-size:69px;font-family:'JetBrains Mono', 'JetBrains Mono_MSFontService', sans-serif;fill:#267f99"
       transform="matrix(1 0 0 1 2172.23 1160)"
       aria-label="type_id" /><path
       d="m 26.220024,-28.428 q -2.829,0 -4.278,-1.38 -1.449,-1.38 -1.449,-3.726 0,-2.346 1.449,-3.726 1.449,-1.38 4.278,-1.38 2.829,0 4.278,1.38 1.449,1.38 1.449,3.726 0,2.346 -1.449,3.726 -1.449,1.38 -4.278,1.38 z m 0,29.118 q -2.829,0 -4.278,-1.38 -1.449,-1.38 -1.449,-3.726 0,-2.346 1.449,-3.726 1.449,-1.38 4.278,-1.38 2.829,0 4.278,1.38 1.449,1.38 1.449,3.726 0,2.346 -1.449,3.726 -1.449,1.38 -4.278,1.38 z m 30.36,-29.118 q -2.829,0 -4.278,-1.38 -1.449,-1.38 -1.449,-3.726 0,-2.346 1.449,-3.726 1.449,-1.38 4.278,-1.38 2.829,0 4.278,1.38 1.449,1.38 1.449,3.726 0,2.346 -1.449,3.726 -1.449,1.38 -4.278,1.38 z m 0,29.118 q -2.829,0 -4.278,-1.38 -1.449,-1.38 -1.449,-3.726 0,-2.346 1.449,-3.726 1.449,-1.38 4.278,-1.38 2.829,0 4.278,1.38 1.449,1.38 1.449,3.726 0,2.346 -1.449,3.726 -1.449,1.38 -4.278,1.38 z"
       id="text26"
       style="font-size:69px;font-family:'JetBrains Mono', 'JetBrains Mono_MSFontService', sans-serif"
       transform="matrix(1 0 0 1 2460.98 1160)"
       aria-label="::" /><path
       d="M 11.109,12.42 V 6.762 h 10.695 q 3.243,0 5.106,-1.863 Q 28.773,3.105 28.773,0 v -3.45 l 0.138,-6.21 h -0.207 q -0.552,3.381 -3.243,5.244 -2.691,1.794 -6.762,1.794 -5.865,0 -9.246,-3.726 -3.381,-3.726 -3.381,-10.212 v -8.004 q 0,-6.486 3.381,-10.281 3.381,-3.795 9.246,-3.795 4.071,0 6.762,1.932 2.691,1.932 3.243,5.313 h 0.138 v -6.555 h 6.141 V 0 q 0,5.727 -3.588,9.039 -3.519,3.381 -9.66,3.381 z m 9.453,-20.217 q 3.864,0 6.072,-2.415 2.208,-2.415 2.208,-6.693 v -7.245 q 0,-4.278 -2.208,-6.693 -2.208,-2.415 -6.072,-2.415 -3.933,0 -6.141,2.277 -2.139,2.277 -2.139,6.141 v 8.625 q 0,3.864 2.139,6.141 2.208,2.277 6.141,2.277 z M 62.100024,0.69 q -6.693,0 -10.833,-4.002 -4.071,-4.071 -4.071,-11.178 v -8.97 q 0,-7.107 4.071,-11.109 4.14,-4.071 10.833,-4.071 4.485,0 7.797,1.794 3.381,1.794 5.244,5.037 1.863,3.243 1.863,7.659 v 6.762 h -23.736 v 3.588 q 0,4.209 2.415,6.693 2.415,2.415 6.417,2.415 3.45,0 5.658,-1.311 2.277,-1.38 2.76,-3.657 h 6.21 q -0.621,4.761 -4.623,7.59 -4.002,2.76 -10.005,2.76 z m -8.832,-22.908 h 17.664 v -1.932 q 0,-4.485 -2.346,-6.9 -2.277,-2.484 -6.486,-2.484 -4.209,0 -6.555,2.484 -2.277,2.415 -2.277,6.9 z M 107.29505,0 q -4.692,0 -7.521001,-2.691 -2.829,-2.76 -2.829,-7.314 v -22.287 h -10.902 v -5.658 h 10.902 v -10.695 h 6.210001 v 10.695 h 15.525 v 5.658 h -15.525 v 22.287 q 0,1.932 1.104,3.174 1.173,1.173 3.036,1.173 h 11.04 V 0 Z"
       id="text27"
       style="font-size:69px;font-family:'JetBrains Mono', 'JetBrains Mono_MSFontService', sans-serif;fill:#795e26"
       transform="matrix(1 0 0 1 2543.48 1160)"
       aria-label="get" /><path
       d="M 33.465,8.28 Q 23.598,6.072 18.147,-0.966 12.765,-8.004 12.765,-18.63 v -12.42 q 0,-10.626 5.382,-17.664 5.451,-7.038 15.318,-9.246 v 6.003 q -4.416,1.035 -7.728,3.933 -3.243,2.898 -5.037,7.245 -1.725,4.278 -1.725,9.729 v 12.42 q 0,5.382 1.725,9.729 1.794,4.347 5.037,7.245 3.312,2.898 7.728,3.933 z m 15.870024,0 V 2.277 q 4.485,-1.035 7.728,-3.933 3.243,-2.898 4.968,-7.245 1.794,-4.347 1.794,-9.729 v -12.42 q 0,-5.451 -1.794,-9.729 -1.725,-4.347 -4.968,-7.245 -3.243,-2.898 -7.728,-3.933 v -6.003 q 9.867,2.208 15.249,9.246 5.451,7.038 5.451,17.664 v 12.42 q 0,10.626 -5.451,17.664 -5.382,7.038 -15.249,9.246 z"
       id="text28"
       style="font-size:69px;font-family:'JetBrains Mono', 'JetBrains Mono_MSFontService', sans-serif"
       transform="matrix(1 0 0 1 2667.23 1160)"
       aria-label="()" /><path
       id="rect28"
       style="fill:#ffffff;stroke:#ffffff;stroke-width:4.58333;stroke-miterlimit:8"
       d="m 2167.5,1238.5 h 592 v 131 h -592 z" /><path
       d="m 24.495,0 q -4.692,0 -7.521,-2.691 -2.829,-2.76 -2.829,-7.314 V -32.292 H 3.243 v -5.658 h 10.902 v -10.695 h 6.21 V -37.95 H 35.88 v 5.658 H 20.355 v 22.287 q 0,1.932 1.104,3.174 1.173,1.173 3.036,1.173 h 11.04 V 0 Z m 29.187024,12.42 5.589,-14.766 -14.145,-35.604 h 6.693 l 8.97,23.46 q 0.552,1.38 1.035,2.898 0.483,1.518 0.69,2.622 0.207,-1.104 0.69,-2.622 0.483,-1.518 0.966,-2.898 l 8.349,-23.46 h 6.555 l -18.906,50.37 z m 35.466025,0 v -50.37 h 6.21 v 7.245 h 0.069 q 0.483,-3.726 3.243,-5.796 2.760001,-2.139 7.038001,-2.139 5.727,0 9.108,3.795 3.381,3.726 3.381,10.281 v 11.109 q 0,6.555 -3.381,10.35 -3.381,3.795 -9.108,3.795 -4.278,0 -7.038001,-2.139 -2.76,-2.139 -3.243,-5.796 h -0.207 l 0.138,8.625 V 12.42 Z M 103.63805,-4.692 q 3.933,0 6.141,-2.07 2.208,-2.07 2.208,-6.693 v -11.04 q 0,-4.692 -2.208,-6.693 -2.208,-2.07 -6.141,-2.07 -3.795001,0 -6.072001,2.415 -2.208,2.415 -2.208,6.693 v 10.35 q 0,4.278 2.208,6.693 2.277,2.415 6.072001,2.415 z m 41.26202,5.382 q -6.693,0 -10.833,-4.002 -4.071,-4.071 -4.071,-11.178 v -8.97 q 0,-7.107 4.071,-11.109 4.14,-4.071 10.833,-4.071 4.485,0 7.797,1.794 3.381,1.794 5.244,5.037 1.863,3.243 1.863,7.659 v 6.762 h -23.736 v 3.588 q 0,4.209 2.415,6.693 2.415,2.415 6.417,2.415 3.45,0 5.658,-1.311 2.277,-1.38 2.76,-3.657 h 6.21 q -0.621,4.761 -4.623,7.59 -4.002,2.76 -10.005,2.76 z m -8.832,-22.908 h 17.664 v -1.932 q 0,-4.485 -2.346,-6.9 -2.277,-2.484 -6.486,-2.484 -4.209,0 -6.555,2.484 -2.277,2.415 -2.277,6.9 z M 169.7401,6.9 V 1.725 h 33.12 V 6.9 Z M 212.86512,0 v -5.658 h 13.455 v -26.634 h -12.075 v -5.658 h 18.285 v 32.292 h 12.765 V 0 Z m 15.87,-44.781 q -2.277,0 -3.588,-1.173 -1.311,-1.173 -1.311,-3.174 0,-2.07 1.311,-3.243 1.311,-1.242 3.588,-1.242 2.277,0 3.588,1.242 1.311,1.173 1.311,3.243 0,2.001 -1.311,3.174 -1.311,1.173 -3.588,1.173 z M 266.89215,0.69 q -5.658,0 -9.108,-3.795 -3.381,-3.795 -3.381,-10.281 v -11.109 q 0,-6.555 3.381,-10.35 3.381,-3.795 9.108,-3.795 4.278,0 7.038,2.139 2.829,2.139 3.381,5.796 h 0.069 l -0.138,-8.625 v -11.04 h 6.21 V 0 h -6.21 v -7.245 h -0.069 q -0.483,3.726 -3.243,5.865 -2.76,2.07 -7.038,2.07 z m 2.07,-5.382 q 3.864,0 6.072,-2.415 2.208,-2.415 2.208,-6.693 v -10.35 q 0,-4.278 -2.208,-6.693 -2.208,-2.415 -6.072,-2.415 -3.933,0 -6.141,2.07 -2.208,2.001 -2.208,6.693 v 11.04 q 0,4.623 2.208,6.693 2.208,2.07 6.141,2.07 z"
       id="text29"
       style="font-size:69px;font-family:'JetBrains Mono', 'JetBrains Mono_MSFontService', sans-serif;fill:#267f99"
       transform="matrix(1 0 0 1 2172.23 1318)"
       aria-label="type_id" /><path
       d="m 26.220024,-28.428 q -2.829,0 -4.278,-1.38 -1.449,-1.38 -1.449,-3.726 0,-2.346 1.449,-3.726 1.449,-1.38 4.278,-1.38 2.829,0 4.278,1.38 1.449,1.38 1.449,3.726 0,2.346 -1.449,3.726 -1.449,1.38 -4.278,1.38 z m 0,29.118 q -2.829,0 -4.278,-1.38 -1.449,-1.38 -1.449,-3.726 0,-2.346 1.449,-3.726 1.449,-1.38 4.278,-1.38 2.829,0 4.278,1.38 1.449,1.38 1.449,3.726 0,2.346 -1.449,3.726 -1.449,1.38 -4.278,1.38 z m 30.36,-29.118 q -2.829,0 -4.278,-1.38 -1.449,-1.38 -1.449,-3.726 0,-2.346 1.449,-3.726 1.449,-1.38 4.278,-1.38 2.829,0 4.278,1.38 1.449,1.38 1.449,3.726 0,2.346 -1.449,3.726 -1.449,1.38 -4.278,1.38 z m 0,29.118 q -2.829,0 -4.278,-1.38 -1.449,-1.38 -1.449,-3.726 0,-2.346 1.449,-3.726 1.449,-1.38 4.278,-1.38 2.829,0 4.278,1.38 1.449,1.38 1.449,3.726 0,2.346 -1.449,3.726 -1.449,1.38 -4.278,1.38 z"
       id="text30"
       style="font-size:69px;font-family:'JetBrains Mono', 'JetBrains Mono_MSFontService', sans-serif"
       transform="matrix(1 0 0 1 2460.98 1318)"
       aria-label="::" /><path
       d="M 11.109,12.42 V 6.762 h 10.695 q 3.243,0 5.106,-1.863 Q 28.773,3.105 28.773,0 v -3.45 l 0.138,-6.21 h -0.207 q -0.552,3.381 -3.243,5.244 -2.691,1.794 -6.762,1.794 -5.865,0 -9.246,-3.726 -3.381,-3.726 -3.381,-10.212 v -8.004 q 0,-6.486 3.381,-10.281 3.381,-3.795 9.246,-3.795 4.071,0 6.762,1.932 2.691,1.932 3.243,5.313 h 0.138 v -6.555 h 6.141 V 0 q 0,5.727 -3.588,9.039 -3.519,3.381 -9.66,3.381 z m 9.453,-20.217 q 3.864,0 6.072,-2.415 2.208,-2.415 2.208,-6.693 v -7.245 q 0,-4.278 -2.208,-6.693 -2.208,-2.415 -6.072,-2.415 -3.933,0 -6.141,2.277 -2.139,2.277 -2.139,6.141 v 8.625 q 0,3.864 2.139,6.141 2.208,2.277 6.141,2.277 z M 62.100024,0.69 q -6.693,0 -10.833,-4.002 -4.071,-4.071 -4.071,-11.178 v -8.97 q 0,-7.107 4.071,-11.109 4.14,-4.071 10.833,-4.071 4.485,0 7.797,1.794 3.381,1.794 5.244,5.037 1.863,3.243 1.863,7.659 v 6.762 h -23.736 v 3.588 q 0,4.209 2.415,6.693 2.415,2.415 6.417,2.415 3.45,0 5.658,-1.311 2.277,-1.38 2.76,-3.657 h 6.21 q -0.621,4.761 -4.623,7.59 -4.002,2.76 -10.005,2.76 z m -8.832,-22.908 h 17.664 v -1.932 q 0,-4.485 -2.346,-6.9 -2.277,-2.484 -6.486,-2.484 -4.209,0 -6.555,2.484 -2.277,2.415 -2.277,6.9 z M 107.29505,0 q -4.692,0 -7.521001,-2.691 -2.829,-2.76 -2.829,-7.314 v -22.287 h -10.902 v -5.658 h 10.902 v -10.695 h 6.210001 v 10.695 h 15.525 v 5.658 h -15.525 v 22.287 q 0,1.932 1.104,3.174 1.173,1.173 3.036,1.173 h 11.04 V 0 Z"
       id="text31"
       style="font-size:69px;font-family:'JetBrains Mono', 'JetBrains Mono_MSFontService', sans-serif;fill:#795e26"
       transform="matrix(1 0 0 1 2543.48 1318)"
       aria-label="get" /><path
       d="M 33.465,8.28 Q 23.598,6.072 18.147,-0.966 12.765,-8.004 12.765,-18.63 v -12.42 q 0,-10.626 5.382,-17.664 5.451,-7.038 15.318,-9.246 v 6.003 q -4.416,1.035 -7.728,3.933 -3.243,2.898 -5.037,7.245 -1.725,4.278 -1.725,9.729 v 12.42 q 0,5.382 1.725,9.729 1.794,4.347 5.037,7.245 3.312,2.898 7.728,3.933 z m 15.870024,0 V 2.277 q 4.485,-1.035 7.728,-3.933 3.243,-2.898 4.968,-7.245 1.794,-4.347 1.794,-9.729 v -12.42 q 0,-5.451 -1.794,-9.729 -1.725,-4.347 -4.968,-7.245 -3.243,-2.898 -7.728,-3.933 v -6.003 q 9.867,2.208 15.249,9.246 5.451,7.038 5.451,17.664 v 12.42 q 0,10.626 -5.451,17.664 -5.382,7.038 -15.249,9.246 z"
       id="text32"
       style="font-size:69px;font-family:'JetBrains Mono', 'JetBrains Mono_MSFontService', sans-serif"
       transform="matrix(1 0 0 1 2667.23 1318)"
       aria-label="()" /><path
       id="rect32"
       style="fill:#ffffff;stroke:#ffffff;stroke-width:4.58333;stroke-miterlimit:8"
       d="m 2301.5,1396.5 h 253 v 132 h -253 z" /><path
       d="m 24.495,0 q -4.692,0 -7.521,-2.691 -2.829,-2.76 -2.829,-7.314 V -32.292 H 3.243 v -5.658 h 10.902 v -10.695 h 6.21 V -37.95 H 35.88 v 5.658 H 20.355 v 22.287 q 0,1.932 1.104,3.174 1.173,1.173 3.036,1.173 h 11.04 V 0 Z m 29.187024,12.42 5.589,-14.766 -14.145,-35.604 h 6.693 l 8.97,23.46 q 0.552,1.38 1.035,2.898 0.483,1.518 0.69,2.622 0.207,-1.104 0.69,-2.622 0.483,-1.518 0.966,-2.898 l 8.349,-23.46 h 6.555 l -18.906,50.37 z m 35.466025,0 v -50.37 h 6.21 v 7.245 h 0.069 q 0.483,-3.726 3.243,-5.796 2.760001,-2.139 7.038001,-2.139 5.727,0 9.108,3.795 3.381,3.726 3.381,10.281 v 11.109 q 0,6.555 -3.381,10.35 -3.381,3.795 -9.108,3.795 -4.278,0 -7.038001,-2.139 -2.76,-2.139 -3.243,-5.796 h -0.207 l 0.138,8.625 V 12.42 Z M 103.63805,-4.692 q 3.933,0 6.141,-2.07 2.208,-2.07 2.208,-6.693 v -11.04 q 0,-4.692 -2.208,-6.693 -2.208,-2.07 -6.141,-2.07 -3.795001,0 -6.072001,2.415 -2.208,2.415 -2.208,6.693 v 10.35 q 0,4.278 2.208,6.693 2.277,2.415 6.072001,2.415 z m 41.26202,5.382 q -6.693,0 -10.833,-4.002 -4.071,-4.071 -4.071,-11.178 v -8.97 q 0,-7.107 4.071,-11.109 4.14,-4.071 10.833,-4.071 4.485,0 7.797,1.794 3.381,1.794 5.244,5.037 1.863,3.243 1.863,7.659 v 6.762 h -23.736 v 3.588 q 0,4.209 2.415,6.693 2.415,2.415 6.417,2.415 3.45,0 5.658,-1.311 2.277,-1.38 2.76,-3.657 h 6.21 q -0.621,4.761 -4.623,7.59 -4.002,2.76 -10.005,2.76 z m -8.832,-22.908 h 17.664 v -1.932 q 0,-4.485 -2.346,-6.9 -2.277,-2.484 -6.486,-2.484 -4.209,0 -6.555,2.484 -2.277,2.415 -2.277,6.9 z M 169.7401,6.9 V 1.725 h 33.12 V 6.9 Z M 212.86512,0 v -5.658 h 13.455 v -26.634 h -12.075 v -5.658 h 18.285 v 32.292 h 12.765 V 0 Z m 15.87,-44.781 q -2.277,0 -3.588,-1.173 -1.311,-1.173 -1.311,-3.174 0,-2.07 1.311,-3.243 1.311,-1.242 3.588,-1.242 2.277,0 3.588,1.242 1.311,1.173 1.311,3.243 0,2.001 -1.311,3.174 -1.311,1.173 -3.588,1.173 z M 266.89215,0.69 q -5.658,0 -9.108,-3.795 -3.381,-3.795 -3.381,-10.281 v -11.109 q 0,-6.555 3.381,-10.35 3.381,-3.795 9.108,-3.795 4.278,0 7.038,2.139 2.829,2.139 3.381,5.796 h 0.069 l -0.138,-8.625 v -11.04 h 6.21 V 0 h -6.21 v -7.245 h -0.069 q -0.483,3.726 -3.243,5.865 -2.76,2.07 -7.038,2.07 z m 2.07,-5.382 q 3.864,0 6.072,-2.415 2.208,-2.415 2.208,-6.693 v -10.35 q 0,-4.278 -2.208,-6.693 -2.208,-2.415 -6.072,-2.415 -3.933,0 -6.141,2.07 -2.208,2.001 -2.208,6.693 v 11.04 q 0,4.623 2.208,6.693 2.208,2.07 6.141,2.07 z"
       id="text33"
       style="font-size:69px;font-family:'JetBrains Mono', 'JetBrains Mono_MSFontService', sans-serif;fill:#267f99"
       transform="matrix(1 0 0 1 2175.17 1476)"
       aria-label="type_id" /><path
       d="m 26.220024,-28.428 q -2.829,0 -4.278,-1.38 -1.449,-1.38 -1.449,-3.726 0,-2.346 1.449,-3.726 1.449,-1.38 4.278,-1.38 2.829,0 4.278,1.38 1.449,1.38 1.449,3.726 0,2.346 -1.449,3.726 -1.449,1.38 -4.278,1.38 z m 0,29.118 q -2.829,0 -4.278,-1.38 -1.449,-1.38 -1.449,-3.726 0,-2.346 1.449,-3.726 1.449,-1.38 4.278,-1.38 2.829,0 4.278,1.38 1.449,1.38 1.449,3.726 0,2.346 -1.449,3.726 -1.449,1.38 -4.278,1.38 z m 30.36,-29.118 q -2.829,0 -4.278,-1.38 -1.449,-1.38 -1.449,-3.726 0,-2.346 1.449,-3.726 1.449,-1.38 4.278,-1.38 2.829,0 4.278,1.38 1.449,1.38 1.449,3.726 0,2.346 -1.449,3.726 -1.449,1.38 -4.278,1.38 z m 0,29.118 q -2.829,0 -4.278,-1.38 -1.449,-1.38 -1.449,-3.726 0,-2.346 1.449,-3.726 1.449,-1.38 4.278,-1.38 2.829,0 4.278,1.38 1.449,1.38 1.449,3.726 0,2.346 -1.449,3.726 -1.449,1.38 -4.278,1.38 z"
       id="text34"
       style="font-size:69px;font-family:'JetBrains Mono', 'JetBrains Mono_MSFontService', sans-serif"
       transform="matrix(1 0 0 1 2463.92 1476)"
       aria-label="::" /><path
       d="M 11.109,12.42 V 6.762 h 10.695 q 3.243,0 5.106,-1.863 Q 28.773,3.105 28.773,0 v -3.45 l 0.138,-6.21 h -0.207 q -0.552,3.381 -3.243,5.244 -2.691,1.794 -6.762,1.794 -5.865,0 -9.246,-3.726 -3.381,-3.726 -3.381,-10.212 v -8.004 q 0,-6.486 3.381,-10.281 3.381,-3.795 9.246,-3.795 4.071,0 6.762,1.932 2.691,1.932 3.243,5.313 h 0.138 v -6.555 h 6.141 V 0 q 0,5.727 -3.588,9.039 -3.519,3.381 -9.66,3.381 z m 9.453,-20.217 q 3.864,0 6.072,-2.415 2.208,-2.415 2.208,-6.693 v -7.245 q 0,-4.278 -2.208,-6.693 -2.208,-2.415 -6.072,-2.415 -3.933,0 -6.141,2.277 -2.139,2.277 -2.139,6.141 v 8.625 q 0,3.864 2.139,6.141 2.208,2.277 6.141,2.277 z M 62.100024,0.69 q -6.693,0 -10.833,-4.002 -4.071,-4.071 -4.071,-11.178 v -8.97 q 0,-7.107 4.071,-11.109 4.14,-4.071 10.833,-4.071 4.485,0 7.797,1.794 3.381,1.794 5.244,5.037 1.863,3.243 1.863,7.659 v 6.762 h -23.736 v 3.588 q 0,4.209 2.415,6.693 2.415,2.415 6.417,2.415 3.45,0 5.658,-1.311 2.277,-1.38 2.76,-3.657 h 6.21 q -0.621,4.761 -4.623,7.59 -4.002,2.76 -10.005,2.76 z m -8.832,-22.908 h 17.664 v -1.932 q 0,-4.485 -2.346,-6.9 -2.277,-2.484 -6.486,-2.484 -4.209,0 -6.555,2.484 -2.277,2.415 -2.277,6.9 z M 107.29505,0 q -4.692,0 -7.521001,-2.691 -2.829,-2.76 -2.829,-7.314 v -22.287 h -10.902 v -5.658 h 10.902 v -10.695 h 6.210001 v 10.695 h 15.525 v 5.658 h -15.525 v 22.287 q 0,1.932 1.104,3.174 1.173,1.173 3.036,1.173 h 11.04 V 0 Z"
       id="text35"
       style="font-size:69px;font-family:'JetBrains Mono', 'JetBrains Mono_MSFontService', sans-serif;fill:#795e26"
       transform="matrix(1 0 0 1 2546.42 1476)"
       aria-label="get" /><path
       d="M 33.465,8.28 Q 23.598,6.072 18.147,-0.966 12.765,-8.004 12.765,-18.63 v -12.42 q 0,-10.626 5.382,-17.664 5.451,-7.038 15.318,-9.246 v 6.003 q -4.416,1.035 -7.728,3.933 -3.243,2.898 -5.037,7.245 -1.725,4.278 -1.725,9.729 v 12.42 q 0,5.382 1.725,9.729 1.794,4.347 5.037,7.245 3.312,2.898 7.728,3.933 z m 15.870024,0 V 2.277 q 4.485,-1.035 7.728,-3.933 3.243,-2.898 4.968,-7.245 1.794,-4.347 1.794,-9.729 v -12.42 q 0,-5.451 -1.794,-9.729 -1.725,-4.347 -4.968,-7.245 -3.243,-2.898 -7.728,-3.933 v -6.003 q 9.867,2.208 15.249,9.246 5.451,7.038 5.451,17.664 v 12.42 q 0,10.626 -5.451,17.664 -5.382,7.038 -15.249,9.246 z"
       id="text36"
       style="font-size:69px;font-family:'JetBrains Mono', 'JetBrains Mono_MSFontService', sans-serif"
       transform="matrix(1 0 0 1 2670.17 1476)"
       aria-label="()" /><path
       d="M 27.6,0.92 Q 18.216,0.92 13.248,-4.232 8.28,-9.476 8.28,-18.4 v -48.76 h 8.28 v 48.76 q 0,5.52 2.668,8.74 2.76,3.22 8.372,3.22 5.52,0 8.28,-3.22 2.76,-3.22 2.76,-8.74 v -48.76 h 8.28 v 48.76 q 0,9.016 -4.968,14.168 Q 37.076,0.92 27.6,0.92 Z M 77.096035,0 l -17.296,-67.16 h 8.464 l 11.5,45.724 q 1.196,4.784 1.932,8.832 0.828,4.048 1.196,6.164 0.368,-2.116 1.196,-6.164 0.92,-4.14 2.116,-8.924 l 11.04,-45.632 h 8.556005 L 88.412035,0 Z m 39.928035,0 v -67.16 h 12.236 l 8.556,29.072 8.924,-29.072 h 12.236 V 0 h -8.004 v -31.74 q 0,-4.508 0.092,-10.304 0.184,-5.888 0.46,-11.868 0.276,-5.98 0.644,-10.764 l -10.856,34.684 h -7.176 l -10.396,-33.856 q 0.736,6.808 1.012,14.904 0.276,8.096 0.276,17.204 V 0 Z"
       id="text37"
       style="font-size:92px;font-family:'JetBrains Mono', 'JetBrains Mono_MSFontService', sans-serif"
       transform="matrix(1 0 0 1 216.795 349)"
       aria-label="UVM " /><path
       d="M 27.6,0.736 Q 18.492,0.736 13.064,-4.6 7.728,-9.936 7.728,-19.504 v -11.592 q 0,-9.66 5.336,-14.904 5.336,-5.336 14.536,-5.336 9.2,0 14.536,5.336 5.336,5.244 5.336,14.904 v 11.592 q 0,9.568 -5.428,14.904 Q 36.708,0.736 27.6,0.736 Z m 0,-7.36 q 5.428,0 8.464,-3.036 3.128,-3.036 3.128,-8.924 v -13.432 q 0,-5.888 -3.128,-8.924 -3.036,-3.036 -8.464,-3.036 -5.336,0 -8.464,3.036 -3.128,3.036 -3.128,8.924 v 13.432 q 0,5.888 3.128,8.924 3.128,3.036 8.464,3.036 z M 64.676035,0 v -50.6 h 8.28 v 20.884 h 9.844 l 13.984,-20.884 h 9.476005 L 89.884035,-26.312 107.18004,0 h -9.660005 l -14.628,-22.172 h -9.936 V 0 Z M 118.86407,16.56 V -50.6 h 8.28 v 9.66 h 0.092 q 0.644,-4.968 4.324,-7.728 3.68,-2.852 9.384,-2.852 7.636,0 12.144,5.06 4.508,4.968 4.508,13.708 v 14.812 q 0,8.74 -4.508,13.8 -4.508,5.06 -12.144,5.06 -5.704,0 -9.384,-2.852 -3.68,-2.852 -4.324,-7.728 h -0.276 l 0.184,11.5 v 14.72 z m 19.32,-22.816 q 5.244,0 8.188,-2.76 2.944,-2.76 2.944,-8.924 v -14.72 q 0,-6.256 -2.944,-8.924 -2.944,-2.76 -8.188,-2.76 -5.06,0 -8.096,3.22 -2.944,3.22 -2.944,8.924 v 13.8 q 0,5.704 2.944,8.924 3.036,3.22 8.096,3.22 z m 43.79203,22.816 7.452,-19.688 -18.86,-47.472 h 8.924 l 11.96,31.28 q 0.736,1.84 1.38,3.864 0.644,2.024 0.92,3.496 0.276,-1.472 0.92,-3.496 0.644,-2.024 1.288,-3.864 l 11.132,-31.28 h 8.74 l -25.208,67.16 z M 222.18014,0 l 11.316,-26.128 -10.58,-24.472 h 7.912 l 9.292,21.804 h 4.876 V -50.6 h 6.808 v 21.804 h 4.692 l 9.568,-21.804 h 7.82 l -10.58,24.196 11.316,26.404 h -8.188 l -9.66,-23.092 h -4.968 V 0 h -6.808 v -23.092 h -4.968 L 230.27614,0 Z m 81.42004,0.92 q -8.924,0 -14.444,-5.336 -5.428,-5.428 -5.428,-14.904 v -11.96 q 0,-9.476 5.428,-14.812 5.52,-5.428 14.444,-5.428 5.98,0 10.396,2.392 4.508,2.392 6.992,6.716 2.484,4.324 2.484,10.212 v 9.016 h -31.648 v 4.784 q 0,5.612 3.22,8.924 3.22,3.22 8.556,3.22 4.6,0 7.544,-1.748 3.036,-1.84 3.68,-4.876 h 8.28 q -0.828,6.348 -6.164,10.12 -5.336,3.68 -13.34,3.68 z m -11.776,-30.544 h 23.552 V -32.2 q 0,-5.98 -3.128,-9.2 -3.036,-3.312 -8.648,-3.312 -5.612,0 -8.74,3.312 -3.036,3.22 -3.036,9.2 z M 339.6642,0 v -50.6 h 8.28 v 20.884 h 21.712 V -50.6 h 8.28 V 0 h -8.28 v -22.172 h -21.712 V 0 Z m 55.20004,0 v -50.6 h 7.912 v 27.232 q 0,3.956 -0.184,8.188 -0.092,4.232 -0.828,6.9 l 21.068,-42.32 h 10.304 V 0 h -7.912 v -27.324 q 0,-4.048 0.092,-8.28 0.184,-4.232 0.92,-6.9 L 405.16824,0 Z m 74.33604,0.92 q -8.924,0 -14.444,-5.336 -5.428,-5.428 -5.428,-14.904 v -11.96 q 0,-9.476 5.428,-14.812 5.52,-5.428 14.444,-5.428 5.98,0 10.396,2.392 4.508,2.392 6.992,6.716 2.484,4.324 2.484,10.212 v 9.016 h -31.648 v 4.784 q 0,5.612 3.22,8.924 3.22,3.22 8.556,3.22 4.6,0 7.544,-1.748 3.036,-1.84 3.68,-4.876 h 8.28 q -0.828,6.348 -6.164,10.12 -5.336,3.68 -13.34,3.68 z m -11.776,-30.544 h 23.552 V -32.2 q 0,-5.98 -3.128,-9.2 -3.036,-3.312 -8.648,-3.312 -5.612,0 -8.74,3.312 -3.036,3.22 -3.036,9.2 z"
       id="text38"
       style="font-size:92px;font-family:'JetBrains Mono', 'JetBrains Mono_MSFontService', sans-serif"
       transform="matrix(1 0 0 1 436.795 349)"
       aria-label="" /><path
       d="m 25.564,0.83 q -8.3,0 -13.28,-4.648 -4.98,-4.648 -4.98,-12.782 v -12.45 q 0,-8.134 4.98,-12.782 4.98,-4.648 13.28,-4.648 7.885,0 12.699,4.233 4.897,4.233 5.146,11.537 h -7.47 q -0.249,-4.399 -2.988,-6.723 -2.739,-2.407 -7.387,-2.407 -4.897,0 -7.885,2.822 -2.905,2.739 -2.905,7.885 V -16.6 q 0,5.146 2.905,7.968 2.988,2.822 7.885,2.822 4.648,0 7.387,-2.407 2.739,-2.407 2.988,-6.723 h 7.47 Q 43.16,-7.636 38.263,-3.403 33.449,0.83 25.564,0.83 Z M 74.700034,0.664 q -8.217,0 -13.114,-4.814 -4.814,-4.814 -4.814,-13.446 v -10.458 q 0,-8.715 4.814,-13.446 4.814,-4.814 13.114,-4.814 8.3,0 13.114,4.814 4.814,4.731 4.814,13.446 v 10.458 q 0,8.632 -4.897,13.446 -4.814,4.814 -13.031,4.814 z m 0,-6.64 q 4.897,0 7.636,-2.739 2.822,-2.739 2.822,-8.051 v -12.118 q 0,-5.312 -2.822,-8.051 -2.739,-2.739 -7.636,-2.739 -4.814,0 -7.636,2.739 -2.822,2.739 -2.822,8.051 v 12.118 q 0,5.312 2.822,8.051 2.822,2.739 7.636,2.739 z M 104.58007,0 v -45.65 h 6.474 v 6.059 h 0.166 q 0.415,-3.071 2.407,-4.98 2.075,-1.909 5.229,-1.909 2.988,0 5.063,1.743 2.075,1.743 2.988,4.731 h 0.083 q 0.581,-2.988 2.573,-4.731 2.075,-1.743 5.229,-1.743 4.399,0 6.972,3.32 2.656,3.237 2.656,8.466 V 0 h -6.972 v -34.777 q 0,-2.739 -1.328,-4.316 -1.328,-1.66 -3.652,-1.66 -2.241,0 -3.569,1.577 -1.328,1.577 -1.328,4.316 V 0 h -6.142 v -34.777 q 0,-2.739 -1.328,-4.316 -1.328,-1.66 -3.569,-1.66 -2.324,0 -3.652,1.577 -1.328,1.577 -1.328,4.316 V 0 Z m 52.45603,14.94 v -60.59 h 7.47 v 8.715 h 0.083 q 0.581,-4.482 3.901,-6.972 3.32,-2.573 8.466,-2.573 6.889,0 10.956,4.565 4.067,4.482 4.067,12.367 v 13.363 q 0,7.885 -4.067,12.45 -4.067,4.565 -10.956,4.565 -5.146,0 -8.466,-2.573 -3.32,-2.573 -3.901,-6.972 h -0.249 l 0.166,10.375 v 13.28 z m 17.43,-20.584 q 4.731,0 7.387,-2.49 2.656,-2.49 2.656,-8.051 v -13.28 q 0,-5.644 -2.656,-8.051 -2.656,-2.49 -7.387,-2.49 -4.565,0 -7.304,2.905 -2.656,2.905 -2.656,8.051 v 12.45 q 0,5.146 2.656,8.051 2.739,2.905 7.304,2.905 z m 49.63403,6.308 q -8.217,0 -13.114,-4.814 -4.814,-4.814 -4.814,-13.446 v -10.458 q 0,-8.715 4.814,-13.446 4.814,-4.814 13.114,-4.814 8.3,0 13.114,4.814 4.814,4.731 4.814,13.446 v 10.458 q 0,8.632 -4.897,13.446 -4.814,4.814 -13.031,4.814 z m 0,-6.64 q 4.897,0 7.636,-2.739 2.822,-2.739 2.822,-8.051 v -12.118 q 0,-5.312 -2.822,-8.051 -2.739,-2.739 -7.636,-2.739 -4.814,0 -7.636,2.739 -2.822,2.739 -2.822,8.051 v 12.118 q 0,5.312 2.822,8.051 2.822,2.739 7.636,2.739 z M 256.63617,0 v -45.65 h 7.47 v 8.715 h 0.083 q 0.581,-4.565 3.735,-7.055 3.154,-2.49 8.383,-2.49 6.889,0 10.956,4.233 4.067,4.233 4.067,11.537 V 0 h -7.47 v -29.382 q 0,-5.229 -2.656,-7.968 -2.573,-2.822 -7.055,-2.822 -4.648,0 -7.387,2.905 -2.656,2.905 -2.656,8.217 V 0 Z m 67.06403,0.83 q -8.051,0 -13.031,-4.814 -4.897,-4.897 -4.897,-13.446 v -10.79 q 0,-8.549 4.897,-13.363 4.98,-4.897 13.031,-4.897 5.395,0 9.379,2.158 4.067,2.158 6.308,6.059 2.241,3.901 2.241,9.213 v 8.134 h -28.552 v 4.316 q 0,5.063 2.905,8.051 2.905,2.905 7.719,2.905 4.15,0 6.806,-1.577 2.739,-1.66 3.32,-4.399 h 7.47 q -0.747,5.727 -5.561,9.13 -4.814,3.32 -12.035,3.32 z m -10.624,-27.556 h 21.248 v -2.324 q 0,-5.395 -2.822,-8.3 -2.739,-2.988 -7.802,-2.988 -5.063,0 -7.885,2.988 -2.739,2.905 -2.739,8.3 z M 356.23622,0 v -45.65 h 7.47 v 8.715 h 0.083 q 0.581,-4.565 3.735,-7.055 3.154,-2.49 8.383,-2.49 6.889,0 10.956,4.233 4.067,4.233 4.067,11.537 V 0 h -7.47 v -29.382 q 0,-5.229 -2.656,-7.968 -2.573,-2.822 -7.055,-2.822 -4.648,0 -7.387,2.905 -2.656,2.905 -2.656,8.217 V 0 Z m 71.62905,0 q -5.644,0 -9.047,-3.237 -3.403,-3.32 -3.403,-8.798 v -26.809 h -13.114 v -6.806 h 13.114 v -12.865 h 7.47 v 12.865 h 18.675 v 6.806 h -18.675 v 26.809 q 0,2.324 1.328,3.818 1.411,1.411 3.652,1.411 h 13.28 V 0 Z m 25.31505,8.3 V 2.075 h 39.84 V 8.3 Z m 67.06402,-7.47 q -6.806,0 -10.956,-4.565 -4.067,-4.565 -4.067,-12.367 v -13.363 q 0,-7.885 4.067,-12.45 4.067,-4.565 10.956,-4.565 5.146,0 8.466,2.573 3.403,2.573 4.067,6.972 h 0.083 l -0.166,-10.375 v -13.28 h 7.47 V 0 h -7.47 v -8.715 h -0.083 q -0.581,4.482 -3.901,7.055 -3.32,2.49 -8.466,2.49 z m 2.49,-6.474 q 4.648,0 7.304,-2.905 2.656,-2.905 2.656,-8.051 v -12.45 q 0,-5.146 -2.656,-8.051 -2.656,-2.905 -7.304,-2.905 -4.731,0 -7.387,2.49 -2.656,2.407 -2.656,8.051 v 13.28 q 0,5.561 2.656,8.051 2.656,2.49 7.387,2.49 z"
       id="text39"
       style="font-size:83px;font-family:'JetBrains Mono', 'JetBrains Mono_MSFontService', sans-serif"
       transform="matrix(1 0 0 1 307.119 799)"
       aria-label="component_d" /><path
       d="m 25.564,0.83 q -8.3,0 -13.28,-4.648 -4.98,-4.648 -4.98,-12.782 v -12.45 q 0,-8.134 4.98,-12.782 4.98,-4.648 13.28,-4.648 7.885,0 12.699,4.233 4.897,4.233 5.146,11.537 h -7.47 q -0.249,-4.399 -2.988,-6.723 -2.739,-2.407 -7.387,-2.407 -4.897,0 -7.885,2.822 -2.905,2.739 -2.905,7.885 V -16.6 q 0,5.146 2.905,7.968 2.988,2.822 7.885,2.822 4.648,0 7.387,-2.407 2.739,-2.407 2.988,-6.723 h 7.47 Q 43.16,-7.636 38.263,-3.403 33.449,0.83 25.564,0.83 Z M 74.700034,0.664 q -8.217,0 -13.114,-4.814 -4.814,-4.814 -4.814,-13.446 v -10.458 q 0,-8.715 4.814,-13.446 4.814,-4.814 13.114,-4.814 8.3,0 13.114,4.814 4.814,4.731 4.814,13.446 v 10.458 q 0,8.632 -4.897,13.446 -4.814,4.814 -13.031,4.814 z m 0,-6.64 q 4.897,0 7.636,-2.739 2.822,-2.739 2.822,-8.051 v -12.118 q 0,-5.312 -2.822,-8.051 -2.739,-2.739 -7.636,-2.739 -4.814,0 -7.636,2.739 -2.822,2.739 -2.822,8.051 v 12.118 q 0,5.312 2.822,8.051 2.822,2.739 7.636,2.739 z M 104.58007,0 v -45.65 h 6.474 v 6.059 h 0.166 q 0.415,-3.071 2.407,-4.98 2.075,-1.909 5.229,-1.909 2.988,0 5.063,1.743 2.075,1.743 2.988,4.731 h 0.083 q 0.581,-2.988 2.573,-4.731 2.075,-1.743 5.229,-1.743 4.399,0 6.972,3.32 2.656,3.237 2.656,8.466 V 0 h -6.972 v -34.777 q 0,-2.739 -1.328,-4.316 -1.328,-1.66 -3.652,-1.66 -2.241,0 -3.569,1.577 -1.328,1.577 -1.328,4.316 V 0 h -6.142 v -34.777 q 0,-2.739 -1.328,-4.316 -1.328,-1.66 -3.569,-1.66 -2.324,0 -3.652,1.577 -1.328,1.577 -1.328,4.316 V 0 Z m 52.45603,14.94 v -60.59 h 7.47 v 8.715 h 0.083 q 0.581,-4.482 3.901,-6.972 3.32,-2.573 8.466,-2.573 6.889,0 10.956,4.565 4.067,4.482 4.067,12.367 v 13.363 q 0,7.885 -4.067,12.45 -4.067,4.565 -10.956,4.565 -5.146,0 -8.466,-2.573 -3.32,-2.573 -3.901,-6.972 h -0.249 l 0.166,10.375 v 13.28 z m 17.43,-20.584 q 4.731,0 7.387,-2.49 2.656,-2.49 2.656,-8.051 v -13.28 q 0,-5.644 -2.656,-8.051 -2.656,-2.49 -7.387,-2.49 -4.565,0 -7.304,2.905 -2.656,2.905 -2.656,8.051 v 12.45 q 0,5.146 2.656,8.051 2.739,2.905 7.304,2.905 z m 49.63403,6.308 q -8.217,0 -13.114,-4.814 -4.814,-4.814 -4.814,-13.446 v -10.458 q 0,-8.715 4.814,-13.446 4.814,-4.814 13.114,-4.814 8.3,0 13.114,4.814 4.814,4.731 4.814,13.446 v 10.458 q 0,8.632 -4.897,13.446 -4.814,4.814 -13.031,4.814 z m 0,-6.64 q 4.897,0 7.636,-2.739 2.822,-2.739 2.822,-8.051 v -12.118 q 0,-5.312 -2.822,-8.051 -2.739,-2.739 -7.636,-2.739 -4.814,0 -7.636,2.739 -2.822,2.739 -2.822,8.051 v 12.118 q 0,5.312 2.822,8.051 2.822,2.739 7.636,2.739 z M 256.63617,0 v -45.65 h 7.47 v 8.715 h 0.083 q 0.581,-4.565 3.735,-7.055 3.154,-2.49 8.383,-2.49 6.889,0 10.956,4.233 4.067,4.233 4.067,11.537 V 0 h -7.47 v -29.382 q 0,-5.229 -2.656,-7.968 -2.573,-2.822 -7.055,-2.822 -4.648,0 -7.387,2.905 -2.656,2.905 -2.656,8.217 V 0 Z m 67.06403,0.83 q -8.051,0 -13.031,-4.814 -4.897,-4.897 -4.897,-13.446 v -10.79 q 0,-8.549 4.897,-13.363 4.98,-4.897 13.031,-4.897 5.395,0 9.379,2.158 4.067,2.158 6.308,6.059 2.241,3.901 2.241,9.213 v 8.134 h -28.552 v 4.316 q 0,5.063 2.905,8.051 2.905,2.905 7.719,2.905 4.15,0 6.806,-1.577 2.739,-1.66 3.32,-4.399 h 7.47 q -0.747,5.727 -5.561,9.13 -4.814,3.32 -12.035,3.32 z m -10.624,-27.556 h 21.248 v -2.324 q 0,-5.395 -2.822,-8.3 -2.739,-2.988 -7.802,-2.988 -5.063,0 -7.885,2.988 -2.739,2.905 -2.739,8.3 z M 356.23622,0 v -45.65 h 7.47 v 8.715 h 0.083 q 0.581,-4.565 3.735,-7.055 3.154,-2.49 8.383,-2.49 6.889,0 10.956,4.233 4.067,4.233 4.067,11.537 V 0 h -7.47 v -29.382 q 0,-5.229 -2.656,-7.968 -2.573,-2.822 -7.055,-2.822 -4.648,0 -7.387,2.905 -2.656,2.905 -2.656,8.217 V 0 Z m 71.62905,0 q -5.644,0 -9.047,-3.237 -3.403,-3.32 -3.403,-8.798 v -26.809 h -13.114 v -6.806 h 13.114 v -12.865 h 7.47 v 12.865 h 18.675 v 6.806 h -18.675 v 26.809 q 0,2.324 1.328,3.818 1.411,1.411 3.652,1.411 h 13.28 V 0 Z m 25.31505,8.3 V 2.075 h 39.84 V 8.3 Z m 69.72002,-7.47 q -8.051,0 -13.031,-4.814 -4.897,-4.897 -4.897,-13.446 v -10.79 q 0,-8.549 4.897,-13.363 4.98,-4.897 13.031,-4.897 5.395,0 9.379,2.158 4.067,2.158 6.308,6.059 2.241,3.901 2.241,9.213 v 8.134 h -28.552 v 4.316 q 0,5.063 2.905,8.051 2.905,2.905 7.719,2.905 4.15,0 6.806,-1.577 2.739,-1.66 3.32,-4.399 h 7.47 q -0.747,5.727 -5.561,9.13 -4.814,3.32 -12.035,3.32 z m -10.624,-27.556 h 21.248 v -2.324 q 0,-5.395 -2.822,-8.3 -2.739,-2.988 -7.802,-2.988 -5.063,0 -7.885,2.988 -2.739,2.905 -2.739,8.3 z"
       id="text40"
       style="font-size:83px;font-family:'JetBrains Mono', 'JetBrains Mono_MSFontService', sans-serif"
       transform="matrix(1 0 0 1 307.119 552)"
       aria-label="component_e" /></g></svg>
