<svg width="7396" height="4096" xmlns="http://www.w3.org/2000/svg" xmlns:xlink="http://www.w3.org/1999/xlink" xml:space="preserve" overflow="hidden"><g transform="translate(1200 -604)"><rect x="-1197.5" y="606.5" width="7391" height="4091" stroke="#FFFFFF" stroke-width="4.58333" stroke-miterlimit="8" fill="#FFFFFF"/><path d="M-1067 882.836C-1067 802.293-1001.71 737-921.165 737L1889.16 737C1969.71 737 2035 802.293 2035 882.836L2035 1532.16C2035 1612.71 1969.71 1678 1889.16 1678L-921.165 1678C-1001.71 1678-1067 1612.71-1067 1532.16Z" stroke="#000000" stroke-width="10.3125" stroke-miterlimit="8" fill="#FFFFFF" fill-rule="evenodd"/><text fill="#0000FF" font-family="JetBrains Mono,JetBrains Mono_MSFontService,sans-serif" font-weight="400" font-size="73" transform="matrix(1 0 0 1 -243.891 897)">class</text><text fill="#267F99" font-family="JetBrains Mono,JetBrains Mono_MSFontService,sans-serif" font-weight="400" font-size="73" transform="matrix(1 0 0 1 20.7968 897)">base_test</text><text fill="#AF00DB" font-family="JetBrains Mono,JetBrains Mono_MSFontService,sans-serif" font-weight="400" font-size="73" transform="matrix(1 0 0 1 461.943 897)">extends</text><text fill="#267F99" font-family="JetBrains Mono,JetBrains Mono_MSFontService,sans-serif" font-weight="400" font-size="73" transform="matrix(1 0 0 1 814.859 897)">uvm_test</text><text font-family="JetBrains Mono,JetBrains Mono_MSFontService,sans-serif" font-weight="400" font-size="73" transform="matrix(1 0 0 1 1167.78 897)">;</text><path d="M-917.5 1033.97C-917.5 1021.56-907.439 1011.5-895.028 1011.5L1876.03 1011.5C1888.44 1011.5 1898.5 1021.56 1898.5 1033.97L1898.5 1134.03C1898.5 1146.44 1888.44 1156.5 1876.03 1156.5L-895.028 1156.5C-907.439 1156.5-917.5 1146.44-917.5 1134.03Z" stroke="#000000" stroke-width="6.875" stroke-miterlimit="8" fill="#E2F0D9" fill-rule="evenodd"/><text fill="#267F99" font-family="JetBrains Mono,JetBrains Mono_MSFontService,sans-serif" font-weight="400" font-size="69" transform="matrix(1 0 0 1 -713.383 1106)">uvm_component_registry</text><text font-family="JetBrains Mono,JetBrains Mono_MSFontService,sans-serif" font-weight="400" font-size="69" transform="matrix(1 0 0 1 235.367 1106)">#(</text><text fill="#001080" font-family="JetBrains Mono,JetBrains Mono_MSFontService,sans-serif" font-weight="400" font-size="69" transform="matrix(1 0 0 1 317.867 1106)">base_test</text><text font-family="JetBrains Mono,JetBrains Mono_MSFontService,sans-serif" font-weight="400" font-size="69" transform="matrix(1 0 0 1 689.117 1106)">, </text><text fill="#A31515" font-family="JetBrains Mono,JetBrains Mono_MSFontService,sans-serif" font-weight="400" font-size="69" transform="matrix(1 0 0 1 771.617 1106)">"</text><text fill="#A31515" font-family="JetBrains Mono,JetBrains Mono_MSFontService,sans-serif" font-weight="400" font-size="69" transform="matrix(1 0 0 1 812.867 1106)">base_test</text><text fill="#A31515" font-family="JetBrains Mono,JetBrains Mono_MSFontService,sans-serif" font-weight="400" font-size="69" transform="matrix(1 0 0 1 1184.12 1106)">"</text><text font-family="JetBrains Mono,JetBrains Mono_MSFontService,sans-serif" font-weight="400" font-size="69" transform="matrix(1 0 0 1 1225.37 1106)">) </text><text fill="#001080" font-family="JetBrains Mono,JetBrains Mono_MSFontService,sans-serif" font-weight="400" font-size="69" transform="matrix(1 0 0 1 1307.87 1106)">type_id</text><path d="M2960 882.836C2960 802.293 3025.29 737 3105.84 737L5916.16 737C5996.71 737 6062 802.293 6062 882.836L6062 1532.16C6062 1612.71 5996.71 1678 5916.16 1678L3105.84 1678C3025.29 1678 2960 1612.71 2960 1532.16Z" stroke="#000000" stroke-width="10.3125" stroke-miterlimit="8" fill="#FFFFFF" fill-rule="evenodd"/><text fill="#0000FF" font-family="JetBrains Mono,JetBrains Mono_MSFontService,sans-serif" font-weight="400" font-size="73" transform="matrix(1 0 0 1 3300.95 897)">class</text><text fill="#267F99" font-family="JetBrains Mono,JetBrains Mono_MSFontService,sans-serif" font-weight="400" font-size="73" transform="matrix(1 0 0 1 3565.64 897)">uvm_component_registry</text><text font-family="JetBrains Mono,JetBrains Mono_MSFontService,sans-serif" font-weight="400" font-size="73" transform="matrix(1 0 0 1 4580.28 897)">#(</text><text fill="#001080" font-family="JetBrains Mono,JetBrains Mono_MSFontService,sans-serif" font-weight="400" font-size="73" transform="matrix(1 0 0 1 4668.5 897)">base_test</text><text font-family="JetBrains Mono,JetBrains Mono_MSFontService,sans-serif" font-weight="400" font-size="73" transform="matrix(1 0 0 1 5065.54 897)">, </text><text fill="#A31515" font-family="JetBrains Mono,JetBrains Mono_MSFontService,sans-serif" font-weight="400" font-size="73" transform="matrix(1 0 0 1 5153.77 897)">"</text><text fill="#A31515" font-family="JetBrains Mono,JetBrains Mono_MSFontService,sans-serif" font-weight="400" font-size="73" transform="matrix(1 0 0 1 5197.88 897)">base_test</text><text fill="#A31515" font-family="JetBrains Mono,JetBrains Mono_MSFontService,sans-serif" font-weight="400" font-size="73" transform="matrix(1 0 0 1 5594.91 897)">"</text><text font-family="JetBrains Mono,JetBrains Mono_MSFontService,sans-serif" font-weight="400" font-size="73" transform="matrix(1 0 0 1 5639.03 897)">)</text><path d="M1.02923e-06-3.4375 27.5-3.43749 27.5 3.43751-1.02923e-06 3.4375ZM48.125-3.43749 75.625-3.43748 75.625 3.43752 48.125 3.43751ZM96.25-3.43747 123.75-3.43746 123.75 3.43754 96.25 3.43753ZM144.375-3.43746 171.875-3.43745 171.875 3.43755 144.375 3.43754ZM192.5-3.43744 220-3.43743 220 3.43757 192.5 3.43756ZM240.625-3.43743 268.125-3.43742 268.125 3.43758 240.625 3.43757ZM288.75-3.43741 316.25-3.43741 316.25 3.43759 288.75 3.43759ZM336.875-3.4374 364.375-3.43739 364.375 3.43761 336.875 3.4376ZM385-3.43738 412.5-3.43738 412.5 3.43762 385 3.43762ZM433.125-3.43737 460.625-3.43736 460.625 3.43764 433.125 3.43763ZM481.25-3.43736 508.75-3.43735 508.75 3.43765 481.25 3.43764ZM529.375-3.43734 556.875-3.43733 556.875 3.43767 529.375 3.43766ZM577.5-3.43733 605-3.43732 605 3.43768 577.5 3.43767ZM625.625-3.43731 653.125-3.4373 653.125 3.4377 625.625 3.43769ZM673.75-3.4373 701.25-3.43729 701.25 3.43771 673.75 3.4377ZM721.875-3.43728 749.375-3.43728 749.375 3.43772 721.875 3.43772ZM770-3.43727 797.5-3.43726 797.5 3.43774 770 3.43773ZM818.125-3.43726 845.625-3.43725 845.625 3.43775 818.125 3.43774ZM866.25-3.43724 893.75-3.43723 893.75 3.43777 866.25 3.43776ZM914.375-3.43723 941.875-3.43722 941.875 3.43778 914.375 3.43777ZM962.5-3.43721 990-3.4372 990 3.4378 962.5 3.43779ZM1010.62-3.4372 1038.12-3.43719 1038.12 3.43781 1010.62 3.4378ZM1058.75-3.43718 1086.25-3.43717 1086.25 3.43783 1058.75 3.43782ZM1106.88-3.43717 1134.38-3.43716 1134.38 3.43784 1106.88 3.43783ZM1155-3.43715 1182.42-3.43715 1182.42 3.43785 1155 3.43785ZM1177.84-13.7496 1205.34 0.000360892 1177.84 13.7504Z" transform="matrix(1 0 0 -1 1898.5 1084.5)"/><text fill="#267F99" font-family="JetBrains Mono,JetBrains Mono_MSFontService,sans-serif" font-weight="400" font-size="69" transform="matrix(1 0 0 1 2151.47 1033)">type_id</text><text font-family="JetBrains Mono,JetBrains Mono_MSFontService,sans-serif" font-weight="400" font-size="69" transform="matrix(1 0 0 1 2440.22 1033)">::</text><text fill="#795E26" font-family="JetBrains Mono,JetBrains Mono_MSFontService,sans-serif" font-weight="400" font-size="69" transform="matrix(1 0 0 1 2522.72 1033)">create</text><text font-family="JetBrains Mono,JetBrains Mono_MSFontService,sans-serif" font-weight="400" font-size="69" transform="matrix(1 0 0 1 2770.22 1033)">()</text><path d="M3103.5 1459.13C3103.5 1446.63 3113.63 1436.5 3126.13 1436.5L5896.87 1436.5C5909.37 1436.5 5919.5 1446.63 5919.5 1459.13L5919.5 1559.87C5919.5 1572.37 5909.37 1582.5 5896.87 1582.5L3126.13 1582.5C3113.63 1582.5 3103.5 1572.37 3103.5 1559.87Z" stroke="#000000" stroke-width="6.875" stroke-miterlimit="8" fill="#E2F0D9" fill-rule="evenodd"/><text fill="#267F99" font-family="JetBrains Mono,JetBrains Mono_MSFontService,sans-serif" font-weight="400" font-size="69" transform="matrix(1 0 0 1 3490.83 1532)">uvm_component_registry</text><text font-family="JetBrains Mono,JetBrains Mono_MSFontService,sans-serif" font-weight="400" font-size="69" transform="matrix(1 0 0 1 4439.58 1532)">#(</text><text fill="#001080" font-family="JetBrains Mono,JetBrains Mono_MSFontService,sans-serif" font-weight="400" font-size="64" transform="matrix(1 0 0 1 4522.08 1532)">base_test</text><text font-family="JetBrains Mono,JetBrains Mono_MSFontService,sans-serif" font-weight="400" font-size="64" transform="matrix(1 0 0 1 4867.55 1532)">, </text><text fill="#A31515" font-family="JetBrains Mono,JetBrains Mono_MSFontService,sans-serif" font-weight="400" font-size="64" transform="matrix(1 0 0 1 4944.32 1532)">"</text><text fill="#A31515" font-family="JetBrains Mono,JetBrains Mono_MSFontService,sans-serif" font-weight="400" font-size="64" transform="matrix(1 0 0 1 4982.71 1532)">base_test</text><text fill="#A31515" font-family="JetBrains Mono,JetBrains Mono_MSFontService,sans-serif" font-weight="400" font-size="64" transform="matrix(1 0 0 1 5328.17 1532)">"</text><text font-family="JetBrains Mono,JetBrains Mono_MSFontService,sans-serif" font-weight="400" font-size="69" transform="matrix(1 0 0 1 5366.56 1532)">) me</text><path d="M4514.94 1369.5 4514.94 1413.74 4508.06 1413.74 4508.06 1369.5ZM4525.25 1409.16 4511.5 1436.66 4497.75 1409.16Z"/><path d="M4514.94 1156.5 4514.94 1200.74 4508.06 1200.74 4508.06 1156.5ZM4525.25 1196.16 4511.5 1223.66 4497.75 1196.16Z"/><path d="M2960 2131.78C2960 2032.49 3040.49 1952 3139.78 1952L5882.22 1952C5981.51 1952 6062 2032.49 6062 2131.78L6062 2932.22C6062 3031.51 5981.51 3112 5882.22 3112L3139.78 3112C3040.49 3112 2960 3031.51 2960 2932.22Z" stroke="#000000" stroke-width="10.3125" stroke-miterlimit="8" fill="#FFFFFF" fill-rule="evenodd"/><text fill="#0000FF" font-family="JetBrains Mono,JetBrains Mono_MSFontService,sans-serif" font-weight="400" font-size="73" transform="matrix(1 0 0 1 4044.14 2112)">class</text><text fill="#267F99" font-family="JetBrains Mono,JetBrains Mono_MSFontService,sans-serif" font-weight="400" font-size="73" transform="matrix(1 0 0 1 4308.83 2112)">uvm_coreservice_t</text><path d="M3103.5 2248.13C3103.5 2235.63 3113.63 2225.5 3126.13 2225.5L5896.87 2225.5C5909.37 2225.5 5919.5 2235.63 5919.5 2248.13L5919.5 2348.87C5919.5 2361.37 5909.37 2371.5 5896.87 2371.5L3126.13 2371.5C3113.63 2371.5 3103.5 2361.37 3103.5 2348.87Z" stroke="#000000" stroke-width="6.875" stroke-miterlimit="8" fill="#E2F0D9" fill-rule="evenodd"/><text fill="#0000FF" font-family="JetBrains Mono,JetBrains Mono_MSFontService,sans-serif" font-weight="400" font-size="69" transform="matrix(1 0 0 1 4057.45 2321)">uvm_coreservice_t</text><text fill="#001080" font-family="JetBrains Mono,JetBrains Mono_MSFontService,sans-serif" font-weight="400" font-size="69" transform="matrix(1 0 0 1 4799.95 2321)">inst</text><path d="M3103.5 2460.97C3103.5 2448.56 3113.56 2438.5 3125.97 2438.5L5897.03 2438.5C5909.44 2438.5 5919.5 2448.56 5919.5 2460.97L5919.5 2561.03C5919.5 2573.44 5909.44 2583.5 5897.03 2583.5L3125.97 2583.5C3113.56 2583.5 3103.5 2573.44 3103.5 2561.03Z" stroke="#000000" stroke-width="6.875" stroke-miterlimit="8" fill="#E2F0D9" fill-rule="evenodd"/><text fill="#0000FF" font-family="JetBrains Mono,JetBrains Mono_MSFontService,sans-serif" font-weight="400" font-size="69" transform="matrix(1 0 0 1 4036.82 2533)">uvm_coreservice_t</text><text fill="#795E26" font-family="JetBrains Mono,JetBrains Mono_MSFontService,sans-serif" font-weight="400" font-size="69" transform="matrix(1 0 0 1 4779.32 2533)">get</text><text font-family="JetBrains Mono,JetBrains Mono_MSFontService,sans-serif" font-weight="400" font-size="69" transform="matrix(1 0 0 1 4903.07 2533)">()</text><path d="M3103.5 2673.13C3103.5 2660.63 3113.63 2650.5 3126.13 2650.5L5896.87 2650.5C5909.37 2650.5 5919.5 2660.63 5919.5 2673.13L5919.5 2773.87C5919.5 2786.37 5909.37 2796.5 5896.87 2796.5L3126.13 2796.5C3113.63 2796.5 3103.5 2786.37 3103.5 2773.87Z" stroke="#000000" stroke-width="6.875" stroke-miterlimit="8" fill="#E2F0D9" fill-rule="evenodd"/><text fill="#0000FF" font-family="JetBrains Mono,JetBrains Mono_MSFontService,sans-serif" font-weight="400" font-size="69" transform="matrix(1 0 0 1 4119.32 2746)">uvm_factory</text><text fill="#001080" font-family="JetBrains Mono,JetBrains Mono_MSFontService,sans-serif" font-weight="400" font-size="69" transform="matrix(1 0 0 1 4614.32 2746)">factory</text><path d="M3103.5 2886.13C3103.5 2873.63 3113.63 2863.5 3126.13 2863.5L5896.87 2863.5C5909.37 2863.5 5919.5 2873.63 5919.5 2886.13L5919.5 2986.87C5919.5 2999.37 5909.37 3009.5 5896.87 3009.5L3126.13 3009.5C3113.63 3009.5 3103.5 2999.37 3103.5 2986.87Z" stroke="#000000" stroke-width="6.875" stroke-miterlimit="8" fill="#E2F0D9" fill-rule="evenodd"/><text fill="#0000FF" font-family="JetBrains Mono,JetBrains Mono_MSFontService,sans-serif" font-weight="400" font-size="69" transform="matrix(1 0 0 1 3995.57 2959)">uvm_factory</text><text fill="#795E26" font-family="JetBrains Mono,JetBrains Mono_MSFontService,sans-serif" font-weight="400" font-size="69" transform="matrix(1 0 0 1 4490.57 2959)">get</text><text fill="#795E26" font-family="JetBrains Mono,JetBrains Mono_MSFontService,sans-serif" font-weight="400" font-size="69" transform="matrix(1 0 0 1 4614.32 2959)">_</text><text fill="#795E26" font-family="JetBrains Mono,JetBrains Mono_MSFontService,sans-serif" font-weight="400" font-size="69" transform="matrix(1 0 0 1 4655.57 2959)">factory</text><text font-family="JetBrains Mono,JetBrains Mono_MSFontService,sans-serif" font-weight="400" font-size="69" transform="matrix(1 0 0 1 4944.32 2959)">()</text><path d="M3.4375-1.8472e-05 3.43774 44.2425-3.43726 44.2425-3.4375 1.8472e-05ZM13.7502 39.6591 0.000360892 67.1592-13.7498 39.6593Z" transform="matrix(1 0 0 -1 4511.5 2438.66)"/><path d="M3651.94 2371.5 3651.94 2841.03 3645.06 2841.03 3645.06 2371.5ZM3662.25 2836.45 3648.5 2863.95 3634.75 2836.45Z"/><path d="M3.4375-1.84719e-05 3.43774 44.2429-3.43726 44.2429-3.4375 1.84719e-05ZM13.7502 39.6595 0.000360892 67.1595-13.7498 39.6596Z" transform="matrix(1 0 0 -1 4511.5 2863.66)"/><path d="M2960 3565.78C2960 3466.49 3040.49 3386 3139.78 3386L5882.22 3386C5981.51 3386 6062 3466.49 6062 3565.78L6062 4366.22C6062 4465.51 5981.51 4546 5882.22 4546L3139.78 4546C3040.49 4546 2960 4465.51 2960 4366.22Z" stroke="#000000" stroke-width="10.3125" stroke-miterlimit="8" fill="#FFFFFF" fill-rule="evenodd"/><text fill="#0000FF" font-family="JetBrains Mono,JetBrains Mono_MSFontService,sans-serif" font-weight="400" font-size="73" transform="matrix(1 0 0 1 4176.49 3546)">class</text><text fill="#267F99" font-family="JetBrains Mono,JetBrains Mono_MSFontService,sans-serif" font-weight="400" font-size="73" transform="matrix(1 0 0 1 4441.18 3546)">uvm_factory</text><path d="M5246.94 3009.5 5246.94 3037 5240.06 3037 5240.06 3009.5ZM5246.94 3057.62 5246.94 3085.12 5240.06 3085.12 5240.06 3057.62ZM5246.94 3105.75 5246.94 3133.25 5240.06 3133.25 5240.06 3105.75ZM5246.94 3153.88 5246.94 3181.38 5240.06 3181.38 5240.06 3153.88ZM5246.94 3202 5246.94 3229.5 5240.06 3229.5 5240.06 3202ZM5246.94 3250.12 5246.94 3277.62 5240.06 3277.62 5240.06 3250.12ZM5246.94 3298.25 5246.94 3325.75 5240.06 3325.75 5240.06 3298.25ZM5246.94 3346.38 5246.94 3373.88 5240.06 3373.88 5240.06 3346.38ZM5246.94 3394.5 5246.94 3422 5240.06 3422 5240.06 3394.5ZM5246.94 3442.62 5246.94 3470.12 5240.06 3470.12 5240.06 3442.62ZM5246.94 3490.75 5246.94 3518.25 5240.06 3518.25 5240.06 3490.75ZM5246.94 3538.88 5246.94 3566.38 5240.06 3566.38 5240.06 3538.88ZM5246.94 3587 5246.94 3614.5 5240.06 3614.5 5240.06 3587ZM5246.94 3635.12 5246.94 3637.1 5240.06 3637.1 5240.06 3635.12ZM5257.25 3632.52 5243.5 3660.02 5229.75 3632.52Z"/><path d="M3103.5 3682.13C3103.5 3669.63 3113.63 3659.5 3126.13 3659.5L5896.87 3659.5C5909.37 3659.5 5919.5 3669.63 5919.5 3682.13L5919.5 3782.87C5919.5 3795.37 5909.37 3805.5 5896.87 3805.5L3126.13 3805.5C3113.63 3805.5 3103.5 3795.37 3103.5 3782.87Z" stroke="#000000" stroke-width="6.875" stroke-miterlimit="8" fill="#E2F0D9" fill-rule="evenodd"/><text fill="#0000FF" font-family="JetBrains Mono,JetBrains Mono_MSFontService,sans-serif" font-weight="400" font-size="69" transform="matrix(1 0 0 1 3686.2 3755)">uvm_component</text><text fill="#795E26" font-family="JetBrains Mono,JetBrains Mono_MSFontService,sans-serif" font-weight="400" font-size="69" transform="matrix(1 0 0 1 4263.7 3755)">create_component_by_type</text><text font-family="JetBrains Mono,JetBrains Mono_MSFontService,sans-serif" font-weight="400" font-size="69" transform="matrix(1 0 0 1 5253.7 3755)">()</text><path d="M-917.5 1246.13C-917.5 1233.63-907.37 1223.5-894.874 1223.5L1875.87 1223.5C1888.37 1223.5 1898.5 1233.63 1898.5 1246.13L1898.5 1346.87C1898.5 1359.37 1888.37 1369.5 1875.87 1369.5L-894.874 1369.5C-907.37 1369.5-917.5 1359.37-917.5 1346.87Z" stroke="#000000" stroke-width="6.875" stroke-miterlimit="8" fill="#FFFFFF" fill-rule="evenodd"/><text fill="#0000FF" font-family="JetBrains Mono,JetBrains Mono_MSFontService,sans-serif" font-weight="400" font-size="69" transform="matrix(1 0 0 1 118.711 1319)">type_id</text><text fill="#795E26" font-family="JetBrains Mono,JetBrains Mono_MSFontService,sans-serif" font-weight="400" font-size="69" transform="matrix(1 0 0 1 448.711 1319)">get_type</text><text font-family="JetBrains Mono,JetBrains Mono_MSFontService,sans-serif" font-weight="400" font-size="69" transform="matrix(1 0 0 1 778.711 1319)">()</text><path d="M534.5 1459.13C534.5 1446.63 544.631 1436.5 557.128 1436.5L1875.87 1436.5C1888.37 1436.5 1898.5 1446.63 1898.5 1459.13L1898.5 1559.87C1898.5 1572.37 1888.37 1582.5 1875.87 1582.5L557.128 1582.5C544.631 1582.5 534.5 1572.37 534.5 1559.87Z" stroke="#000000" stroke-width="6.875" stroke-miterlimit="8" fill="#FFFFFF" fill-rule="evenodd"/><text fill="#0000FF" font-family="JetBrains Mono,JetBrains Mono_MSFontService,sans-serif" font-weight="400" font-size="69" transform="matrix(1 0 0 1 762.217 1532)">string </text><text fill="#795E26" font-family="JetBrains Mono,JetBrains Mono_MSFontService,sans-serif" font-weight="400" font-size="69" transform="matrix(1 0 0 1 1050.97 1532)">get_type_name</text><text font-family="JetBrains Mono,JetBrains Mono_MSFontService,sans-serif" font-weight="400" font-size="69" transform="matrix(1 0 0 1 1587.22 1532)">()</text><path d="M-917.5 1459.13C-917.5 1446.63-907.369 1436.5-894.872 1436.5L423.873 1436.5C436.369 1436.5 446.5 1446.63 446.5 1459.13L446.5 1559.87C446.5 1572.37 436.369 1582.5 423.873 1582.5L-894.872 1582.5C-907.369 1582.5-917.5 1572.37-917.5 1559.87Z" stroke="#000000" stroke-width="6.875" stroke-miterlimit="8" fill="#FFFFFF" fill-rule="evenodd"/><text fill="#0000FF" font-family="JetBrains Mono,JetBrains Mono_MSFontService,sans-serif" font-weight="400" font-size="69" transform="matrix(1 0 0 1 -854.796 1532)">string</text><text fill="#001080" font-family="JetBrains Mono,JetBrains Mono_MSFontService,sans-serif" font-weight="400" font-size="69" transform="matrix(1 0 0 1 -566.046 1532)">type_name</text><text font-family="JetBrains Mono,JetBrains Mono_MSFontService,sans-serif" font-weight="400" font-size="69" transform="matrix(1 0 0 1 -153.546 1532)">= </text><text fill="#A31515" font-family="JetBrains Mono,JetBrains Mono_MSFontService,sans-serif" font-weight="400" font-size="69" transform="matrix(1 0 0 1 -71.0458 1532)">"</text><text fill="#A31515" font-family="JetBrains Mono,JetBrains Mono_MSFontService,sans-serif" font-weight="400" font-size="69" transform="matrix(1 0 0 1 -29.7958 1532)">base_test</text><text fill="#A31515" font-family="JetBrains Mono,JetBrains Mono_MSFontService,sans-serif" font-weight="400" font-size="69" transform="matrix(1 0 0 1 341.454 1532)">"</text><path d="M3103.5 1246.13C3103.5 1233.63 3113.63 1223.5 3126.13 1223.5L5896.87 1223.5C5909.37 1223.5 5919.5 1233.63 5919.5 1246.13L5919.5 1346.87C5919.5 1359.37 5909.37 1369.5 5896.87 1369.5L3126.13 1369.5C3113.63 1369.5 3103.5 1359.37 3103.5 1346.87Z" stroke="#000000" stroke-width="6.875" stroke-miterlimit="8" fill="#E2F0D9" fill-rule="evenodd"/><text fill="#267F99" font-family="JetBrains Mono,JetBrains Mono_MSFontService,sans-serif" font-weight="400" font-size="69" transform="matrix(1 0 0 1 3397.45 1319)">uvm_component_registry</text><text font-family="JetBrains Mono,JetBrains Mono_MSFontService,sans-serif" font-weight="400" font-size="69" transform="matrix(1 0 0 1 4346.2 1319)">#(</text><text fill="#001080" font-family="JetBrains Mono,JetBrains Mono_MSFontService,sans-serif" font-weight="400" font-size="69" transform="matrix(1 0 0 1 4428.7 1319)">base_test</text><text font-family="JetBrains Mono,JetBrains Mono_MSFontService,sans-serif" font-weight="400" font-size="69" transform="matrix(1 0 0 1 4799.95 1319)">, </text><text fill="#A31515" font-family="JetBrains Mono,JetBrains Mono_MSFontService,sans-serif" font-weight="400" font-size="69" transform="matrix(1 0 0 1 4882.45 1319)">"</text><text fill="#A31515" font-family="JetBrains Mono,JetBrains Mono_MSFontService,sans-serif" font-weight="400" font-size="69" transform="matrix(1 0 0 1 4923.7 1319)">base_test</text><text fill="#A31515" font-family="JetBrains Mono,JetBrains Mono_MSFontService,sans-serif" font-weight="400" font-size="69" transform="matrix(1 0 0 1 5294.95 1319)">"</text><text font-family="JetBrains Mono,JetBrains Mono_MSFontService,sans-serif" font-weight="400" font-size="69" transform="matrix(1 0 0 1 5336.2 1319)">) </text><text fill="#795E26" font-family="JetBrains Mono,JetBrains Mono_MSFontService,sans-serif" font-weight="400" font-size="69" transform="matrix(1 0 0 1 5418.7 1319)">get</text><text font-family="JetBrains Mono,JetBrains Mono_MSFontService,sans-serif" font-weight="400" font-size="69" transform="matrix(1 0 0 1 5542.45 1319)">()</text><path d="M3103.5 1033.97C3103.5 1021.56 3113.56 1011.5 3125.97 1011.5L5897.03 1011.5C5909.44 1011.5 5919.5 1021.56 5919.5 1033.97L5919.5 1134.03C5919.5 1146.44 5909.44 1156.5 5897.03 1156.5L3125.97 1156.5C3113.56 1156.5 3103.5 1146.44 3103.5 1134.03Z" stroke="#000000" stroke-width="6.875" stroke-miterlimit="8" fill="#E2F0D9" fill-rule="evenodd"/><text fill="#001080" font-family="JetBrains Mono,JetBrains Mono_MSFontService,sans-serif" font-weight="400" font-size="69" transform="matrix(1 0 0 1 4139.95 1106)">base_test</text><text fill="#795E26" font-family="JetBrains Mono,JetBrains Mono_MSFontService,sans-serif" font-weight="400" font-size="69" transform="matrix(1 0 0 1 4552.45 1106)">create</text><text font-family="JetBrains Mono,JetBrains Mono_MSFontService,sans-serif" font-weight="400" font-size="69" transform="matrix(1 0 0 1 4799.95 1106)">()</text><path d="M5246.94 1156.5 5246.94 1184 5240.06 1184 5240.06 1156.5ZM5246.94 1204.62 5246.94 1232.12 5240.06 1232.12 5240.06 1204.62ZM5246.94 1252.75 5246.94 1280.25 5240.06 1280.25 5240.06 1252.75ZM5246.94 1300.87 5246.94 1328.37 5240.06 1328.37 5240.06 1300.87ZM5246.94 1349 5246.94 1376.5 5240.06 1376.5 5240.06 1349ZM5246.94 1397.12 5246.94 1424.62 5240.06 1424.62 5240.06 1397.12ZM5246.94 1445.25 5246.94 1472.75 5240.06 1472.75 5240.06 1445.25ZM5246.94 1493.37 5246.94 1520.87 5240.06 1520.87 5240.06 1493.37ZM5246.94 1541.5 5246.94 1569 5240.06 1569 5240.06 1541.5ZM5246.94 1589.62 5246.94 1617.12 5240.06 1617.12 5240.06 1589.62ZM5246.94 1637.75 5246.94 1665.25 5240.06 1665.25 5240.06 1637.75ZM5246.94 1685.87 5246.94 1713.37 5240.06 1713.37 5240.06 1685.87ZM5246.94 1734 5246.94 1761.5 5240.06 1761.5 5240.06 1734ZM5246.94 1782.12 5246.94 1809.62 5240.06 1809.62 5240.06 1782.12ZM5246.94 1830.25 5246.94 1857.75 5240.06 1857.75 5240.06 1830.25ZM5246.94 1878.37 5246.94 1905.87 5240.06 1905.87 5240.06 1878.37ZM5246.94 1926.5 5246.94 1954 5240.06 1954 5240.06 1926.5ZM5246.94 1974.62 5246.94 2002.12 5240.06 2002.12 5240.06 1974.62ZM5246.94 2022.75 5246.94 2050.25 5240.06 2050.25 5240.06 2022.75ZM5246.94 2070.88 5246.94 2098.38 5240.06 2098.38 5240.06 2070.88ZM5246.94 2119 5246.94 2146.5 5240.06 2146.5 5240.06 2119ZM5246.94 2167.12 5246.94 2194.62 5240.06 2194.62 5240.06 2167.12ZM5246.94 2215.25 5246.94 2242.75 5240.06 2242.75 5240.06 2215.25ZM5246.94 2263.38 5246.94 2290.88 5240.06 2290.88 5240.06 2263.38ZM5246.94 2311.5 5246.94 2339 5240.06 2339 5240.06 2311.5ZM5246.94 2359.62 5246.94 2387.12 5240.06 2387.12 5240.06 2359.62ZM5246.94 2407.75 5246.94 2415.14 5240.06 2415.14 5240.06 2407.75ZM5257.25 2410.56 5243.5 2438.06 5229.75 2410.56Z"/></g></svg>