<svg width="7396" height="1210" xmlns="http://www.w3.org/2000/svg" xmlns:xlink="http://www.w3.org/1999/xlink" xml:space="preserve" overflow="hidden"><g transform="translate(1200 -604)"><rect x="-1197.5" y="606.5" width="7391" height="1205" stroke="#FFFFFF" stroke-width="4.58333" stroke-miterlimit="8" fill="#FFFFFF"/><path d="M-1067 882.836C-1067 802.293-1001.71 737-921.165 737L1889.16 737C1969.71 737 2035 802.293 2035 882.836L2035 1532.16C2035 1612.71 1969.71 1678 1889.16 1678L-921.165 1678C-1001.71 1678-1067 1612.71-1067 1532.16Z" stroke="#000000" stroke-width="10.3125" stroke-miterlimit="8" fill="#FFFFFF" fill-rule="evenodd"/><text fill="#0000FF" font-family="JetBrains Mono,JetBrains Mono_MSFontService,sans-serif" font-weight="400" font-size="73" transform="matrix(1 0 0 1 -243.891 897)">class</text><text fill="#267F99" font-family="JetBrains Mono,JetBrains Mono_MSFontService,sans-serif" font-weight="400" font-size="73" transform="matrix(1 0 0 1 20.7968 897)">base_test</text><text fill="#AF00DB" font-family="JetBrains Mono,JetBrains Mono_MSFontService,sans-serif" font-weight="400" font-size="73" transform="matrix(1 0 0 1 461.943 897)">extends</text><text fill="#267F99" font-family="JetBrains Mono,JetBrains Mono_MSFontService,sans-serif" font-weight="400" font-size="73" transform="matrix(1 0 0 1 814.859 897)">uvm_test</text><text font-family="JetBrains Mono,JetBrains Mono_MSFontService,sans-serif" font-weight="400" font-size="73" transform="matrix(1 0 0 1 1167.78 897)">;</text><path d="M-917.5 1033.97C-917.5 1021.56-907.439 1011.5-895.028 1011.5L1876.03 1011.5C1888.44 1011.5 1898.5 1021.56 1898.5 1033.97L1898.5 1134.03C1898.5 1146.44 1888.44 1156.5 1876.03 1156.5L-895.028 1156.5C-907.439 1156.5-917.5 1146.44-917.5 1134.03Z" stroke="#000000" stroke-width="6.875" stroke-miterlimit="8" fill="#E2F0D9" fill-rule="evenodd"/><text fill="#267F99" font-family="JetBrains Mono,JetBrains Mono_MSFontService,sans-serif" font-weight="400" font-size="69" transform="matrix(1 0 0 1 -713.383 1106)">uvm_component_registry</text><text font-family="JetBrains Mono,JetBrains Mono_MSFontService,sans-serif" font-weight="400" font-size="69" transform="matrix(1 0 0 1 235.367 1106)">#(</text><text fill="#001080" font-family="JetBrains Mono,JetBrains Mono_MSFontService,sans-serif" font-weight="400" font-size="69" transform="matrix(1 0 0 1 317.867 1106)">base_test</text><text font-family="JetBrains Mono,JetBrains Mono_MSFontService,sans-serif" font-weight="400" font-size="69" transform="matrix(1 0 0 1 689.117 1106)">, </text><text fill="#A31515" font-family="JetBrains Mono,JetBrains Mono_MSFontService,sans-serif" font-weight="400" font-size="69" transform="matrix(1 0 0 1 771.617 1106)">"</text><text fill="#A31515" font-family="JetBrains Mono,JetBrains Mono_MSFontService,sans-serif" font-weight="400" font-size="69" transform="matrix(1 0 0 1 812.867 1106)">base_test</text><text fill="#A31515" font-family="JetBrains Mono,JetBrains Mono_MSFontService,sans-serif" font-weight="400" font-size="69" transform="matrix(1 0 0 1 1184.12 1106)">"</text><text font-family="JetBrains Mono,JetBrains Mono_MSFontService,sans-serif" font-weight="400" font-size="69" transform="matrix(1 0 0 1 1225.37 1106)">) </text><text fill="#001080" font-family="JetBrains Mono,JetBrains Mono_MSFontService,sans-serif" font-weight="400" font-size="69" transform="matrix(1 0 0 1 1307.87 1106)">type_id</text><path d="M-917.5 1246.13C-917.5 1233.63-907.37 1223.5-894.874 1223.5L1875.87 1223.5C1888.37 1223.5 1898.5 1233.63 1898.5 1246.13L1898.5 1346.87C1898.5 1359.37 1888.37 1369.5 1875.87 1369.5L-894.874 1369.5C-907.37 1369.5-917.5 1359.37-917.5 1346.87Z" stroke="#000000" stroke-width="6.875" stroke-miterlimit="8" fill="#FFFFFF" fill-rule="evenodd"/><text fill="#0000FF" font-family="JetBrains Mono,JetBrains Mono_MSFontService,sans-serif" font-weight="400" font-size="69" transform="matrix(1 0 0 1 118.711 1319)">type_id</text><text fill="#795E26" font-family="JetBrains Mono,JetBrains Mono_MSFontService,sans-serif" font-weight="400" font-size="69" transform="matrix(1 0 0 1 448.711 1319)">get_type</text><text font-family="JetBrains Mono,JetBrains Mono_MSFontService,sans-serif" font-weight="400" font-size="69" transform="matrix(1 0 0 1 778.711 1319)">()</text><path d="M534.5 1459.13C534.5 1446.63 544.631 1436.5 557.128 1436.5L1875.87 1436.5C1888.37 1436.5 1898.5 1446.63 1898.5 1459.13L1898.5 1559.87C1898.5 1572.37 1888.37 1582.5 1875.87 1582.5L557.128 1582.5C544.631 1582.5 534.5 1572.37 534.5 1559.87Z" stroke="#000000" stroke-width="6.875" stroke-miterlimit="8" fill="#FFFFFF" fill-rule="evenodd"/><text fill="#0000FF" font-family="JetBrains Mono,JetBrains Mono_MSFontService,sans-serif" font-weight="400" font-size="69" transform="matrix(1 0 0 1 762.217 1532)">string </text><text fill="#795E26" font-family="JetBrains Mono,JetBrains Mono_MSFontService,sans-serif" font-weight="400" font-size="69" transform="matrix(1 0 0 1 1050.97 1532)">get_type_name</text><text font-family="JetBrains Mono,JetBrains Mono_MSFontService,sans-serif" font-weight="400" font-size="69" transform="matrix(1 0 0 1 1587.22 1532)">()</text><path d="M-917.5 1459.13C-917.5 1446.63-907.369 1436.5-894.872 1436.5L423.873 1436.5C436.369 1436.5 446.5 1446.63 446.5 1459.13L446.5 1559.87C446.5 1572.37 436.369 1582.5 423.873 1582.5L-894.872 1582.5C-907.369 1582.5-917.5 1572.37-917.5 1559.87Z" stroke="#000000" stroke-width="6.875" stroke-miterlimit="8" fill="#FFFFFF" fill-rule="evenodd"/><text fill="#0000FF" font-family="JetBrains Mono,JetBrains Mono_MSFontService,sans-serif" font-weight="400" font-size="69" transform="matrix(1 0 0 1 -854.796 1532)">string</text><text fill="#001080" font-family="JetBrains Mono,JetBrains Mono_MSFontService,sans-serif" font-weight="400" font-size="69" transform="matrix(1 0 0 1 -566.046 1532)">type_name</text><text font-family="JetBrains Mono,JetBrains Mono_MSFontService,sans-serif" font-weight="400" font-size="69" transform="matrix(1 0 0 1 -153.546 1532)">= </text><text fill="#A31515" font-family="JetBrains Mono,JetBrains Mono_MSFontService,sans-serif" font-weight="400" font-size="69" transform="matrix(1 0 0 1 -71.0458 1532)">"</text><text fill="#A31515" font-family="JetBrains Mono,JetBrains Mono_MSFontService,sans-serif" font-weight="400" font-size="69" transform="matrix(1 0 0 1 -29.7958 1532)">base_test</text><text fill="#A31515" font-family="JetBrains Mono,JetBrains Mono_MSFontService,sans-serif" font-weight="400" font-size="69" transform="matrix(1 0 0 1 341.454 1532)">"</text><path d="M2960 882.836C2960 802.293 3025.29 737 3105.84 737L5916.16 737C5996.71 737 6062 802.293 6062 882.836L6062 1532.16C6062 1612.71 5996.71 1678 5916.16 1678L3105.84 1678C3025.29 1678 2960 1612.71 2960 1532.16Z" stroke="#000000" stroke-width="10.3125" stroke-miterlimit="8" fill="#FFFFFF" fill-rule="evenodd"/><path d="M3103.5 1033.97C3103.5 1021.56 3113.56 1011.5 3125.97 1011.5L5897.03 1011.5C5909.44 1011.5 5919.5 1021.56 5919.5 1033.97L5919.5 1134.03C5919.5 1146.44 5909.44 1156.5 5897.03 1156.5L3125.97 1156.5C3113.56 1156.5 3103.5 1146.44 3103.5 1134.03Z" stroke="#000000" stroke-width="6.875" stroke-miterlimit="8" fill="#E2F0D9" fill-rule="evenodd"/><text fill="#001080" font-family="JetBrains Mono,JetBrains Mono_MSFontService,sans-serif" font-weight="400" font-size="69" transform="matrix(1 0 0 1 4139.95 1106)">base_test</text><text fill="#795E26" font-family="JetBrains Mono,JetBrains Mono_MSFontService,sans-serif" font-weight="400" font-size="69" transform="matrix(1 0 0 1 4552.45 1106)">create</text><text font-family="JetBrains Mono,JetBrains Mono_MSFontService,sans-serif" font-weight="400" font-size="69" transform="matrix(1 0 0 1 4799.95 1106)">()</text><path d="M1.02923e-06-3.4375 27.5-3.43749 27.5 3.43751-1.02923e-06 3.4375ZM48.125-3.43749 75.625-3.43748 75.625 3.43752 48.125 3.43751ZM96.25-3.43747 123.75-3.43746 123.75 3.43754 96.25 3.43753ZM144.375-3.43746 171.875-3.43745 171.875 3.43755 144.375 3.43754ZM192.5-3.43744 220-3.43743 220 3.43757 192.5 3.43756ZM240.625-3.43743 268.125-3.43742 268.125 3.43758 240.625 3.43757ZM288.75-3.43741 316.25-3.43741 316.25 3.43759 288.75 3.43759ZM336.875-3.4374 364.375-3.43739 364.375 3.43761 336.875 3.4376ZM385-3.43738 412.5-3.43738 412.5 3.43762 385 3.43762ZM433.125-3.43737 460.625-3.43736 460.625 3.43764 433.125 3.43763ZM481.25-3.43736 508.75-3.43735 508.75 3.43765 481.25 3.43764ZM529.375-3.43734 556.875-3.43733 556.875 3.43767 529.375 3.43766ZM577.5-3.43733 605-3.43732 605 3.43768 577.5 3.43767ZM625.625-3.43731 653.125-3.4373 653.125 3.4377 625.625 3.43769ZM673.75-3.4373 701.25-3.43729 701.25 3.43771 673.75 3.4377ZM721.875-3.43728 749.375-3.43728 749.375 3.43772 721.875 3.43772ZM770-3.43727 797.5-3.43726 797.5 3.43774 770 3.43773ZM818.125-3.43726 845.625-3.43725 845.625 3.43775 818.125 3.43774ZM866.25-3.43724 893.75-3.43723 893.75 3.43777 866.25 3.43776ZM914.375-3.43723 941.875-3.43722 941.875 3.43778 914.375 3.43777ZM962.5-3.43721 990-3.4372 990 3.4378 962.5 3.43779ZM1010.62-3.4372 1038.12-3.43719 1038.12 3.43781 1010.62 3.4378ZM1058.75-3.43718 1086.25-3.43717 1086.25 3.43783 1058.75 3.43782ZM1106.88-3.43717 1134.38-3.43716 1134.38 3.43784 1106.88 3.43783ZM1155-3.43715 1182.42-3.43715 1182.42 3.43785 1155 3.43785ZM1177.84-13.7496 1205.34 0.000360892 1177.84 13.7504Z" transform="matrix(1 0 0 -1 1898.5 1084.5)"/><text fill="#267F99" font-family="JetBrains Mono,JetBrains Mono_MSFontService,sans-serif" font-weight="400" font-size="69" transform="matrix(1 0 0 1 2151.47 1033)">type_id</text><text font-family="JetBrains Mono,JetBrains Mono_MSFontService,sans-serif" font-weight="400" font-size="69" transform="matrix(1 0 0 1 2440.22 1033)">::</text><text fill="#795E26" font-family="JetBrains Mono,JetBrains Mono_MSFontService,sans-serif" font-weight="400" font-size="69" transform="matrix(1 0 0 1 2522.72 1033)">create</text><text font-family="JetBrains Mono,JetBrains Mono_MSFontService,sans-serif" font-weight="400" font-size="69" transform="matrix(1 0 0 1 2770.22 1033)">()</text><text fill="#0000FF" font-family="JetBrains Mono,JetBrains Mono_MSFontService,sans-serif" font-weight="400" font-size="73" transform="matrix(1 0 0 1 3300.95 897)">class</text><text fill="#267F99" font-family="JetBrains Mono,JetBrains Mono_MSFontService,sans-serif" font-weight="400" font-size="73" transform="matrix(1 0 0 1 3565.64 897)">uvm_component_registry</text><text font-family="JetBrains Mono,JetBrains Mono_MSFontService,sans-serif" font-weight="400" font-size="73" transform="matrix(1 0 0 1 4580.28 897)">#(</text><text fill="#001080" font-family="JetBrains Mono,JetBrains Mono_MSFontService,sans-serif" font-weight="400" font-size="73" transform="matrix(1 0 0 1 4668.5 897)">base_test</text><text font-family="JetBrains Mono,JetBrains Mono_MSFontService,sans-serif" font-weight="400" font-size="73" transform="matrix(1 0 0 1 5065.54 897)">, </text><text fill="#A31515" font-family="JetBrains Mono,JetBrains Mono_MSFontService,sans-serif" font-weight="400" font-size="73" transform="matrix(1 0 0 1 5153.77 897)">"</text><text fill="#A31515" font-family="JetBrains Mono,JetBrains Mono_MSFontService,sans-serif" font-weight="400" font-size="73" transform="matrix(1 0 0 1 5197.88 897)">base_test</text><text fill="#A31515" font-family="JetBrains Mono,JetBrains Mono_MSFontService,sans-serif" font-weight="400" font-size="73" transform="matrix(1 0 0 1 5594.91 897)">"</text><text font-family="JetBrains Mono,JetBrains Mono_MSFontService,sans-serif" font-weight="400" font-size="73" transform="matrix(1 0 0 1 5639.03 897)">)</text></g></svg>