<svg width="7396" height="1921" xmlns="http://www.w3.org/2000/svg" xmlns:xlink="http://www.w3.org/1999/xlink" xml:space="preserve" overflow="hidden"><g transform="translate(1200 -188)"><rect x="-1197.5" y="190.5" width="7391" height="1916" stroke="#FFFFFF" stroke-width="4.58333" stroke-miterlimit="8" fill="#FFFFFF"/><path d="M2960 882.836C2960 802.293 3025.29 737 3105.84 737L5916.16 737C5996.71 737 6062 802.293 6062 882.836L6062 1532.16C6062 1612.71 5996.71 1678 5916.16 1678L3105.84 1678C3025.29 1678 2960 1612.71 2960 1532.16Z" stroke="#000000" stroke-width="10.3125" stroke-miterlimit="8" fill="#FFFFFF" fill-rule="evenodd"/><text fill="#0000FF" font-family="JetBrains Mono,JetBrains Mono_MSFontService,sans-serif" font-weight="400" font-size="73" transform="matrix(1 0 0 1 3696.56 897)">class</text><text fill="#267F99" font-family="JetBrains Mono,JetBrains Mono_MSFontService,sans-serif" font-weight="400" font-size="73" transform="matrix(1 0 0 1 3961.25 897)">uvm_component_registry</text><text font-family="JetBrains Mono,JetBrains Mono_MSFontService,sans-serif" font-weight="400" font-size="73" transform="matrix(1 0 0 1 4975.88 897)">#(</text><text fill="#001080" font-family="JetBrains Mono,JetBrains Mono_MSFontService,sans-serif" font-weight="400" font-size="73" transform="matrix(1 0 0 1 5064.11 897)">T</text><text font-family="JetBrains Mono,JetBrains Mono_MSFontService,sans-serif" font-weight="400" font-size="73" transform="matrix(1 0 0 1 5108.23 897)">, </text><text fill="#001080" font-family="JetBrains Mono,JetBrains Mono_MSFontService,sans-serif" font-weight="400" font-size="73" transform="matrix(1 0 0 1 5196.46 897)">Tname</text><text font-family="JetBrains Mono,JetBrains Mono_MSFontService,sans-serif" font-weight="400" font-size="73" transform="matrix(1 0 0 1 5417.03 897)">)</text><path d="M3103.5 1033.97C3103.5 1021.56 3113.56 1011.5 3125.97 1011.5L5897.03 1011.5C5909.44 1011.5 5919.5 1021.56 5919.5 1033.97L5919.5 1134.03C5919.5 1146.44 5909.44 1156.5 5897.03 1156.5L3125.97 1156.5C3113.56 1156.5 3103.5 1146.44 3103.5 1134.03Z" stroke="#000000" stroke-width="6.875" stroke-miterlimit="8" fill="#FFFFFF" fill-rule="evenodd"/><text fill="#795E26" font-family="JetBrains Mono,JetBrains Mono_MSFontService,sans-serif" font-weight="400" font-size="69" transform="matrix(1 0 0 1 4346.2 1106)">create</text><text font-family="JetBrains Mono,JetBrains Mono_MSFontService,sans-serif" font-weight="400" font-size="69" transform="matrix(1 0 0 1 4593.7 1106)">()</text><path d="M3103.5 1246.13C3103.5 1233.63 3113.63 1223.5 3126.13 1223.5L5896.87 1223.5C5909.37 1223.5 5919.5 1233.63 5919.5 1246.13L5919.5 1346.87C5919.5 1359.37 5909.37 1369.5 5896.87 1369.5L3126.13 1369.5C3113.63 1369.5 3103.5 1359.37 3103.5 1346.87Z" stroke="#000000" stroke-width="6.875" stroke-miterlimit="8" fill="#E2F0D9" fill-rule="evenodd"/><text fill="#795E26" font-family="JetBrains Mono,JetBrains Mono_MSFontService,sans-serif" font-weight="400" font-size="69" transform="matrix(1 0 0 1 4408.07 1319)">get</text><text font-family="JetBrains Mono,JetBrains Mono_MSFontService,sans-serif" font-weight="400" font-size="69" transform="matrix(1 0 0 1 4531.82 1319)">()</text><path d="M3103.5 1459.13C3103.5 1446.63 3113.63 1436.5 3126.13 1436.5L5896.87 1436.5C5909.37 1436.5 5919.5 1446.63 5919.5 1459.13L5919.5 1559.87C5919.5 1572.37 5909.37 1582.5 5896.87 1582.5L3126.13 1582.5C3113.63 1582.5 3103.5 1572.37 3103.5 1559.87Z" stroke="#000000" stroke-width="6.875" stroke-miterlimit="8" fill="#E2F0D9" fill-rule="evenodd"/><text fill="#267F99" font-family="JetBrains Mono,JetBrains Mono_MSFontService,sans-serif" font-weight="400" font-size="69" transform="matrix(1 0 0 1 3748.07 1532)">uvm_component_registry</text><text font-family="JetBrains Mono,JetBrains Mono_MSFontService,sans-serif" font-weight="400" font-size="69" transform="matrix(1 0 0 1 4696.82 1532)">#(</text><text fill="#001080" font-family="JetBrains Mono,JetBrains Mono_MSFontService,sans-serif" font-weight="400" font-size="69" transform="matrix(1 0 0 1 4779.32 1532)">T</text><text font-family="JetBrains Mono,JetBrains Mono_MSFontService,sans-serif" font-weight="400" font-size="69" transform="matrix(1 0 0 1 4820.57 1532)">, </text><text fill="#001080" font-family="JetBrains Mono,JetBrains Mono_MSFontService,sans-serif" font-weight="400" font-size="69" transform="matrix(1 0 0 1 4903.07 1532)">Tname</text><text font-family="JetBrains Mono,JetBrains Mono_MSFontService,sans-serif" font-weight="400" font-size="69" transform="matrix(1 0 0 1 5109.32 1532)">) me</text><path d="M-847 660.969C-847 524.02-735.98 413-599.031 413L1778.03 413C1914.98 413 2026 524.02 2026 660.969L2026 1765.03C2026 1901.98 1914.98 2013 1778.03 2013L-599.031 2013C-735.98 2013-847 1901.98-847 1765.03Z" stroke="#000000" stroke-width="10.3125" stroke-miterlimit="8" fill="#E2F0D9" fill-rule="evenodd"/><path d="M-687.5 839.041C-687.5 734.36-602.639 649.5-497.959 649.5L1674.96 649.5C1779.64 649.5 1864.5 734.36 1864.5 839.041L1864.5 1682.96C1864.5 1787.64 1779.64 1872.5 1674.96 1872.5L-497.959 1872.5C-602.639 1872.5-687.5 1787.64-687.5 1682.96Z" stroke="#000000" stroke-width="6.875" stroke-miterlimit="8" fill="#FFFFFF" fill-rule="evenodd"/><path d="M672.5 955.363C672.5 925.063 697.063 900.5 727.363 900.5L1679.64 900.5C1709.94 900.5 1734.5 925.063 1734.5 955.363L1734.5 1199.64C1734.5 1229.94 1709.94 1254.5 1679.64 1254.5L727.363 1254.5C697.063 1254.5 672.5 1229.94 672.5 1199.64Z" stroke="#000000" stroke-width="6.875" stroke-miterlimit="8" fill="#E2F0D9" fill-rule="evenodd"/><text font-family="JetBrains Mono,JetBrains Mono_MSFontService,sans-serif" font-weight="400" font-size="83" transform="matrix(1 0 0 1 932.015 1103)">component_a</text><path d="M672.5 1389.21C672.5 1358.99 696.993 1334.5 727.207 1334.5L1679.79 1334.5C1710.01 1334.5 1734.5 1358.99 1734.5 1389.21L1734.5 1632.79C1734.5 1663.01 1710.01 1687.5 1679.79 1687.5L727.207 1687.5C696.993 1687.5 672.5 1663.01 672.5 1632.79Z" stroke="#000000" stroke-width="6.875" stroke-miterlimit="8" fill="#E2F0D9" fill-rule="evenodd"/><text font-family="JetBrains Mono,JetBrains Mono_MSFontService,sans-serif" font-weight="400" font-size="83" transform="matrix(1 0 0 1 932.015 1537)">component_b</text><path d="M-546.5 1022.47C-546.5 955.107-491.893 900.5-424.531 900.5L392.531 900.5C459.893 900.5 514.5 955.107 514.5 1022.47L514.5 1565.53C514.5 1632.89 459.893 1687.5 392.531 1687.5L-424.531 1687.5C-491.893 1687.5-546.5 1632.89-546.5 1565.53Z" stroke="#000000" stroke-width="6.875" stroke-miterlimit="8" fill="#FFFFFF" fill-rule="evenodd"/><text font-family="JetBrains Mono,JetBrains Mono_MSFontService,sans-serif" font-weight="400" font-size="83" transform="matrix(1 0 0 1 -287.36 1320)">component_c</text><path d="M2035.5 1293.06 2063 1293.06 2063 1299.94 2035.5 1299.94ZM2083.62 1293.06 2111.12 1293.06 2111.12 1299.94 2083.62 1299.94ZM2131.75 1293.06 2159.25 1293.06 2159.25 1299.94 2131.75 1299.94ZM2179.88 1293.06 2207.38 1293.06 2207.38 1299.94 2179.88 1299.94ZM2228 1293.06 2255.5 1293.06 2255.5 1299.94 2228 1299.94ZM2276.12 1293.06 2303.62 1293.06 2303.62 1299.94 2276.12 1299.94ZM2324.25 1293.06 2351.75 1293.06 2351.75 1299.94 2324.25 1299.94ZM2372.38 1293.06 2399.88 1293.06 2399.88 1299.94 2372.38 1299.94ZM2420.5 1293.06 2448 1293.06 2448 1299.94 2420.5 1299.94ZM2468.62 1293.06 2496.12 1293.06 2496.12 1299.94 2468.62 1299.94ZM2516.75 1293.06 2544.25 1293.06 2544.25 1299.94 2516.75 1299.94ZM2564.88 1293.06 2592.38 1293.06 2592.38 1299.94 2564.88 1299.94ZM2613 1293.06 2640.5 1293.06 2640.5 1299.94 2613 1299.94ZM2661.12 1293.06 2688.62 1293.06 2688.62 1299.94 2661.12 1299.94ZM2709.25 1293.06 2736.75 1293.06 2736.75 1299.94 2709.25 1299.94ZM2757.38 1293.06 2784.88 1293.06 2784.88 1299.94 2757.38 1299.94ZM2805.5 1293.06 2833 1293.06 2833 1299.94 2805.5 1299.94ZM2853.62 1293.06 2881.12 1293.06 2881.12 1299.94 2853.62 1299.94ZM2901.75 1293.06 2929.25 1293.06 2929.25 1299.94 2901.75 1299.94ZM2949.88 1293.06 2977.38 1293.06 2977.38 1299.94 2949.88 1299.94ZM2998 1293.06 3025.5 1293.06 3025.5 1299.94 2998 1299.94ZM3046.12 1293.06 3073.62 1293.06 3073.62 1299.94 3046.12 1299.94ZM3076.42 1282.75 3103.92 1296.5 3076.42 1310.25Z"/><path d="M1733.75 1072.78 1760.58 1066.76 1762.09 1073.47 1735.25 1079.49ZM1780.71 1062.25 1782.19 1061.92 1807.66 1056.58 1809.08 1063.31 1783.62 1068.65 1783.67 1068.64 1782.21 1068.96ZM1827.85 1052.34 1831.05 1051.67 1854.92 1047.13 1856.2 1053.88 1832.37 1058.42 1832.43 1058.41 1829.26 1059.07ZM1875.29 1043.59 1880.76 1042.64 1902.53 1039.31 1903.57 1046.11 1881.83 1049.43 1881.9 1049.42 1876.47 1050.36ZM1923.05 1036.57 1931.67 1035.45 1950.46 1033.49 1951.17 1040.33 1932.43 1042.28 1932.51 1042.27 1923.93 1043.39ZM1971.1 1031.72 1984.18 1030.72 1998.65 1030.05 1998.97 1036.91 1984.54 1037.58 1984.65 1037.58 1971.62 1038.57ZM2019.37 1029.35 2038.66 1029.06 2046.98 1029.22 2046.85 1036.09 2038.58 1035.94 2038.7 1035.94 2019.47 1036.22ZM2067.72 1029.63 2095.18 1031.09 2094.82 1037.95 2067.35 1036.5ZM2115.85 1032.9 2124.91 1033.7 2143.29 1035.99 2142.44 1042.82 2124.12 1040.53 2124.25 1040.55 2115.24 1039.75ZM2163.83 1038.84 2170.57 1039.9 2186.45 1042.85 2191.05 1043.82 2189.63 1050.55 2185.07 1049.59 2185.15 1049.6 2169.36 1046.67 2169.45 1046.69 2162.76 1045.63ZM2211.26 1048.27 2219.23 1050.13 2236.08 1054.39 2238.07 1054.93 2236.27 1061.57 2234.31 1061.04 2234.36 1061.05 2217.57 1056.8 2217.63 1056.82 2209.7 1054.97ZM2258.02 1060.45 2284.4 1068.22 2282.46 1074.82 2256.08 1067.05ZM2304.14 1074.45 2323.91 1080.77 2330.36 1082.96 2328.15 1089.47 2321.73 1087.29 2321.79 1087.31 2302.05 1080.99ZM2349.89 1089.59 2360.23 1093.1 2375.9 1098.65 2373.6 1105.13 2357.95 1099.59 2358 1099.6 2347.68 1096.1ZM2395.34 1105.53 2396.91 1106.08 2421.22 1114.92 2418.87 1121.38 2394.57 1112.55 2394.6 1112.56 2393.05 1112.01ZM2440.61 1122 2466.41 1131.5 2464.04 1137.95 2438.23 1128.45ZM2485.77 1138.64 2507.03 1146.48 2507.02 1146.47 2511.56 1148.13 2509.21 1154.59 2504.66 1152.93 2483.39 1145.09ZM2530.94 1155.19 2543.06 1159.6 2543.03 1159.6 2556.79 1164.48 2554.49 1170.96 2540.72 1166.07 2528.59 1161.65ZM2576.23 1171.39 2578.39 1172.16 2578.35 1172.14 2602.21 1180.27 2599.99 1186.78 2576.11 1178.64 2573.93 1177.87ZM2621.72 1186.73 2646.12 1194.54 2646.06 1194.53 2647.87 1195.07 2645.89 1201.65 2644.06 1201.1 2619.63 1193.28ZM2667.59 1200.9 2678.06 1203.88 2678.01 1203.87 2693.47 1207.98 2693.41 1207.97 2694 1208.11 2692.36 1214.79 2691.74 1214.64 2676.21 1210.5 2665.71 1207.52ZM2713.99 1212.91 2737.64 1218.25 2737.58 1218.24 2740.77 1218.9 2739.37 1225.63 2736.15 1224.96 2712.48 1219.62ZM2760.97 1223.1 2765.96 1224.14 2765.9 1224.13 2787.91 1228.33 2786.62 1235.08 2764.59 1230.88 2759.57 1229.83ZM2808.15 1231.94 2820.26 1234.05 2820.21 1234.04 2835.23 1236.4 2834.17 1243.19 2819.11 1240.83 2806.98 1238.72ZM2855.58 1239.46 2871.82 1241.75 2871.77 1241.74 2882.78 1243.13 2881.92 1249.95 2870.88 1248.56 2854.61 1246.26ZM2903.2 1245.61 2921.1 1247.62 2921.05 1247.61 2930.5 1248.54 2929.83 1255.38 2920.36 1254.45 2902.44 1252.45ZM2950.99 1250.49 2968.56 1252.01 2968.51 1252.01 2978.35 1252.71 2977.86 1259.57 2967.99 1258.86 2950.4 1257.34ZM2998.92 1254.18 3014.68 1255.31 3014.63 1255.31 3026.31 1255.97 3025.92 1262.83 3014.22 1262.17 2998.43 1261.04ZM3046.9 1257.14 3059.89 1257.87 3059.87 1257.87 3074.34 1258.58 3074 1265.45 3059.52 1264.74 3046.52 1264ZM3077.71 1248.42 3104.5 1263.5 3076.36 1275.89Z"/><path d="M-0.751694 40.2772 26.0827 34.2636 27.5861 40.9722 0.751694 46.9858ZM46.2086 29.7534 47.6899 29.4215 73.1647 24.0784 74.5759 30.807 49.1243 36.1452 49.1703 36.1352 47.712 36.462ZM93.3505 19.8446 96.5526 19.173 120.416 14.6302 121.702 21.3839 97.8698 25.9207 97.9325 25.9082 94.7617 26.5732ZM140.793 11.0877 146.261 10.141 168.027 6.81404 169.065 13.6101 147.334 16.9319 147.401 16.921 141.966 17.8619ZM188.546 4.06954 197.171 2.94992 215.959 0.99225 216.671 7.83023 197.927 9.78339 198.013 9.77331 189.431 10.8873ZM236.601-0.784825 249.675-1.78246 264.149-2.45366 264.468 4.41395 250.045 5.08279 250.147 5.07651 237.124 6.07025ZM284.869-3.15379 304.155-3.43686 312.48-3.28273 312.352 3.59109 304.085 3.43802 304.199 3.43824 284.97 3.72047ZM333.218-2.8656 360.68-1.41169 360.316 5.4537 332.855 3.99979ZM381.346 0.403279 390.412 1.20428 408.792 3.49286 407.942 10.3152 389.623 8.03419 389.745 8.04719 380.741 7.2516ZM429.329 6.34173 436.066 7.40447 451.945 10.3522 456.549 11.322 455.132 18.0494 450.569 17.0881 450.65 17.1042 434.857 14.1725 434.948 14.1882 428.258 13.1327ZM476.763 15.7719 484.726 17.6277 501.577 21.8936 503.569 22.4336 501.77 29.069 499.806 28.5365 499.862 28.5512 483.071 24.3005 483.134 24.3159 475.202 22.4675ZM523.517 27.9548 549.897 35.7231 547.955 42.3181 521.575 34.5498ZM569.644 41.9454 589.409 48.2692 595.857 50.4586 593.646 56.9685 587.227 54.7889 587.285 54.8079 567.549 48.4934ZM615.386 57.0901 625.727 60.6015 641.398 66.1476 639.104 72.6287 623.454 67.0899 623.496 67.1043 613.176 63.6001ZM660.841 73.0288 662.409 73.5835 686.719 82.4186 684.371 88.8801 660.074 80.0499 660.101 80.0597 658.548 79.5099ZM706.107 89.4982 731.912 99.0028 729.536 105.454 703.731 95.9495ZM751.266 106.136 772.529 113.976 772.517 113.971 777.062 115.627 774.708 122.087 770.157 120.429 748.887 112.587ZM796.44 122.689 808.559 127.105 808.533 127.095 822.292 131.983 819.991 138.461 806.218 133.569 794.087 129.148ZM841.728 138.887 843.894 139.656 843.852 139.642 867.707 147.769 865.489 154.276 841.614 146.142 839.426 145.365ZM887.224 154.234 911.624 162.044 911.564 162.025 913.365 162.566 911.389 169.151 909.557 168.601 885.128 160.782ZM933.094 168.404 943.564 171.382 943.508 171.367 958.972 175.484 958.908 175.468 959.502 175.614 957.862 182.29 957.235 182.136 941.711 178.003 931.214 175.017ZM979.493 180.414 1003.14 185.748 1003.08 185.736 1006.27 186.401 1004.87 193.132 1001.65 192.461 977.98 187.12ZM1026.47 190.604 1031.46 191.643 1031.4 191.632 1053.41 195.831 1052.12 202.584 1030.09 198.38 1025.07 197.335ZM1073.65 199.444 1085.76 201.549 1085.71 201.54 1100.73 203.903 1099.67 210.695 1084.61 208.327 1072.48 206.218ZM1121.08 206.955 1137.32 209.25 1137.27 209.243 1148.28 210.632 1147.42 217.453 1136.38 216.061 1120.11 213.762ZM1168.7 213.115 1186.6 215.116 1186.55 215.111 1196 216.042 1195.33 222.884 1185.86 221.95 1167.94 219.947ZM1216.49 217.991 1234.06 219.512 1234.01 219.508 1243.85 220.212 1243.36 227.069 1233.49 226.364 1215.9 224.84ZM1264.42 221.683 1280.18 222.81 1280.13 222.806 1291.81 223.468 1291.42 230.332 1279.72 229.669 1263.93 228.54ZM1312.4 224.635 1325.39 225.371 1325.37 225.37 1339.84 226.08 1339.5 232.946 1325.02 232.236 1312.02 231.499ZM1343.21 215.92 1370 231 1341.86 243.387Z" transform="matrix(1 0 0 -1 1734.5 1560.5)"/><path d="M4514.94 1369.5 4514.94 1413.74 4508.06 1413.74 4508.06 1369.5ZM4525.25 1409.16 4511.5 1436.66 4497.75 1409.16Z"/><rect x="2346.5" y="1079.5" width="228" height="132" stroke="#FFFFFF" stroke-width="4.58333" stroke-miterlimit="8" fill="#FFFFFF"/><text fill="#267F99" font-family="JetBrains Mono,JetBrains Mono_MSFontService,sans-serif" font-weight="400" font-size="69" transform="matrix(1 0 0 1 2172.23 1160)">type_id</text><text font-family="JetBrains Mono,JetBrains Mono_MSFontService,sans-serif" font-weight="400" font-size="69" transform="matrix(1 0 0 1 2460.98 1160)">::</text><text fill="#795E26" font-family="JetBrains Mono,JetBrains Mono_MSFontService,sans-serif" font-weight="400" font-size="69" transform="matrix(1 0 0 1 2543.48 1160)">get</text><text font-family="JetBrains Mono,JetBrains Mono_MSFontService,sans-serif" font-weight="400" font-size="69" transform="matrix(1 0 0 1 2667.23 1160)">()</text><rect x="2167.5" y="1238.5" width="592" height="131" stroke="#FFFFFF" stroke-width="4.58333" stroke-miterlimit="8" fill="#FFFFFF"/><text fill="#267F99" font-family="JetBrains Mono,JetBrains Mono_MSFontService,sans-serif" font-weight="400" font-size="69" transform="matrix(1 0 0 1 2172.23 1318)">type_id</text><text font-family="JetBrains Mono,JetBrains Mono_MSFontService,sans-serif" font-weight="400" font-size="69" transform="matrix(1 0 0 1 2460.98 1318)">::</text><text fill="#795E26" font-family="JetBrains Mono,JetBrains Mono_MSFontService,sans-serif" font-weight="400" font-size="69" transform="matrix(1 0 0 1 2543.48 1318)">get</text><text font-family="JetBrains Mono,JetBrains Mono_MSFontService,sans-serif" font-weight="400" font-size="69" transform="matrix(1 0 0 1 2667.23 1318)">()</text><rect x="2301.5" y="1396.5" width="253" height="132" stroke="#FFFFFF" stroke-width="4.58333" stroke-miterlimit="8" fill="#FFFFFF"/><text fill="#267F99" font-family="JetBrains Mono,JetBrains Mono_MSFontService,sans-serif" font-weight="400" font-size="69" transform="matrix(1 0 0 1 2175.17 1476)">type_id</text><text font-family="JetBrains Mono,JetBrains Mono_MSFontService,sans-serif" font-weight="400" font-size="69" transform="matrix(1 0 0 1 2463.92 1476)">::</text><text fill="#795E26" font-family="JetBrains Mono,JetBrains Mono_MSFontService,sans-serif" font-weight="400" font-size="69" transform="matrix(1 0 0 1 2546.42 1476)">get</text><text font-family="JetBrains Mono,JetBrains Mono_MSFontService,sans-serif" font-weight="400" font-size="69" transform="matrix(1 0 0 1 2670.17 1476)">()</text><text font-family="JetBrains Mono,JetBrains Mono_MSFontService,sans-serif" font-weight="400" font-size="92" transform="matrix(1 0 0 1 216.795 349)">UVM </text><text font-family="JetBrains Mono,JetBrains Mono_MSFontService,sans-serif" font-weight="400" font-size="92" transform="matrix(1 0 0 1 436.795 349)">окружение</text><text font-family="JetBrains Mono,JetBrains Mono_MSFontService,sans-serif" font-weight="400" font-size="83" transform="matrix(1 0 0 1 307.119 799)">component_d</text><text font-family="JetBrains Mono,JetBrains Mono_MSFontService,sans-serif" font-weight="400" font-size="83" transform="matrix(1 0 0 1 307.119 552)">component_e</text></g></svg>