<svg width="3690" height="2336" xmlns="http://www.w3.org/2000/svg" xmlns:xlink="http://www.w3.org/1999/xlink" xml:space="preserve" overflow="hidden"><g transform="translate(-355 -62)"><path d="M1576.5 225.667C1576.5 200.17 1597.17 179.5 1622.67 179.5L2614.33 179.5C2639.83 179.5 2660.5 200.17 2660.5 225.667L2660.5 410.333C2660.5 435.83 2639.83 456.5 2614.33 456.5L1622.67 456.5C1597.17 456.5 1576.5 435.83 1576.5 410.333Z" stroke="#000000" stroke-width="4.58333" stroke-miterlimit="8" fill="#FFFFFF" fill-rule="evenodd"/><text font-family="Consolas,Consolas_MSFontService,sans-serif" font-weight="400" font-size="92" transform="matrix(1 0 0 1 1916.34 349)">Preponed</text><path d="M1576.5 696.834C1576.5 671.245 1597.24 650.5 1622.83 650.5L2614.17 650.5C2639.76 650.5 2660.5 671.245 2660.5 696.834L2660.5 882.165C2660.5 907.755 2639.76 928.5 2614.17 928.5L1622.83 928.5C1597.24 928.5 1576.5 907.755 1576.5 882.165Z" stroke="#000000" stroke-width="4.58333" stroke-miterlimit="8" fill="#FFFFFF" fill-rule="evenodd"/><text font-family="Consolas,Consolas_MSFontService,sans-serif" font-weight="400" font-size="92" transform="matrix(1 0 0 1 1966.76 820)">Active</text><path d="M1576.5 1168.67C1576.5 1143.17 1597.17 1122.5 1622.67 1122.5L2614.33 1122.5C2639.83 1122.5 2660.5 1143.17 2660.5 1168.67L2660.5 1353.33C2660.5 1378.83 2639.83 1399.5 2614.33 1399.5L1622.67 1399.5C1597.17 1399.5 1576.5 1378.83 1576.5 1353.33Z" stroke="#000000" stroke-width="4.58333" stroke-miterlimit="8" fill="#FFFFFF" fill-rule="evenodd"/><text font-family="Consolas,Consolas_MSFontService,sans-serif" font-weight="400" font-size="92" transform="matrix(1 0 0 1 2042.39 1291)">NBA</text><path d="M1576.5 1639.67C1576.5 1614.17 1597.17 1593.5 1622.67 1593.5L2614.33 1593.5C2639.83 1593.5 2660.5 1614.17 2660.5 1639.67L2660.5 1824.33C2660.5 1849.83 2639.83 1870.5 2614.33 1870.5L1622.67 1870.5C1597.17 1870.5 1576.5 1849.83 1576.5 1824.33Z" stroke="#000000" stroke-width="4.58333" stroke-miterlimit="8" fill="#FFFFFF" fill-rule="evenodd"/><text font-family="Consolas,Consolas_MSFontService,sans-serif" font-weight="400" font-size="92" transform="matrix(1 0 0 1 1916.34 1763)">Reactive</text><path d="M1576.5 2110.83C1576.5 2085.24 1597.24 2064.5 1622.83 2064.5L2614.17 2064.5C2639.76 2064.5 2660.5 2085.24 2660.5 2110.83L2660.5 2296.17C2660.5 2321.76 2639.76 2342.5 2614.17 2342.5L1622.83 2342.5C1597.24 2342.5 1576.5 2321.76 1576.5 2296.17Z" stroke="#000000" stroke-width="4.58333" stroke-miterlimit="8" fill="#FFFFFF" fill-rule="evenodd"/><text font-family="Consolas,Consolas_MSFontService,sans-serif" font-weight="400" font-size="92" transform="matrix(1 0 0 1 1891.14 2234)">Postponed</text><path d="M2118.94 457.5 2118.94 499.135 2112.06 499.135 2112.06 457.5ZM2129.25 494.552 2115.5 522.052 2101.75 494.552Z"/><path d="M2118.94 586.5 2118.94 628.135 2112.06 628.135 2112.06 586.5ZM2129.25 623.552 2115.5 651.052 2101.75 623.552Z"/><path d="M2117.94 928.5 2117.94 970.135 2111.06 970.135 2111.06 928.5ZM2128.25 965.552 2114.5 993.052 2100.75 965.552Z"/><path d="M2117.94 1056.5 2117.94 1098.13 2111.06 1098.14 2111.06 1056.5ZM2128.25 1093.55 2114.5 1121.05 2100.75 1093.55Z"/><path d="M2117.94 1400.5 2117.94 1442.13 2111.06 1442.14 2111.06 1400.5ZM2128.25 1437.55 2114.5 1465.05 2100.75 1437.55Z"/><path d="M2117.94 1528.5 2117.94 1570.14 2111.06 1570.14 2111.06 1528.5ZM2128.25 1565.55 2114.5 1593.05 2100.75 1565.55Z"/><path d="M2121.94 1871.5 2121.94 1913.13 2115.06 1913.14 2115.06 1871.5ZM2132.25 1908.55 2118.5 1936.05 2104.75 1908.55Z"/><path d="M2121.94 2000.5 2121.94 2042.14 2115.06 2042.14 2115.06 2000.5ZM2132.25 2037.55 2118.5 2065.05 2104.75 2037.55Z"/><path d="M355.5 316.208 1550.78 316.209 1550.78 320.792 355.5 320.792ZM1546.19 304.751 1573.69 318.501 1546.19 332.251Z"/><path d="M1350.5 81.5 1350.5 2395.01" stroke="#000000" stroke-width="4.58333" stroke-miterlimit="8" stroke-dasharray="36.6667 13.75" fill="none" fill-rule="evenodd"/><path d="M2869.5 1819.5 2869.5 2395.09" stroke="#000000" stroke-width="4.58333" stroke-miterlimit="8" stroke-dasharray="36.6667 13.75" fill="none" fill-rule="evenodd"/><path d="M2658.5 2201.21 3881.86 2201.21 3881.86 2205.79 2658.5 2205.79ZM3877.28 2189.75 3904.78 2203.5 3877.28 2217.25Z"/><text font-family="Consolas,Consolas_MSFontService,sans-serif" font-weight="400" font-size="73" transform="matrix(1 0 0 1 709.322 182)">Из предыдущего</text><text font-family="Consolas,Consolas_MSFontService,sans-serif" font-weight="400" font-size="73" transform="matrix(1 0 0 1 669.218 270)">момента времени</text><text font-family="Consolas,Consolas_MSFontService,sans-serif" font-weight="400" font-size="73" transform="matrix(1 0 0 1 2948.11 2058)">В следующий</text><text font-family="Consolas,Consolas_MSFontService,sans-serif" font-weight="400" font-size="73" transform="matrix(1 0 0 1 2948.11 2146)">момент времени</text><text font-family="Calibri,Calibri_MSFontService,sans-serif" font-weight="400" font-size="83" transform="matrix(1 0 0 1 2085.56 555)">…</text><text font-family="Calibri,Calibri_MSFontService,sans-serif" font-weight="400" font-size="83" transform="matrix(1 0 0 1 2085.56 1027)">…</text><text font-family="Calibri,Calibri_MSFontService,sans-serif" font-weight="400" font-size="83" transform="matrix(1 0 0 1 2085.56 1498)">…</text><text font-family="Calibri,Calibri_MSFontService,sans-serif" font-weight="400" font-size="83" transform="matrix(1 0 0 1 2089.65 1974)">…</text><text font-family="Consolas,Consolas_MSFontService,sans-serif" font-weight="400" font-size="73" transform="matrix(1 0 0 1 2830.39 298)">Захват значений</text><text font-family="Consolas,Consolas_MSFontService,sans-serif" font-weight="400" font-size="73" transform="matrix(1 0 0 1 2830.39 386)">для проверки в </text><text font-family="Consolas,Consolas_MSFontService,sans-serif" font-weight="400" font-size="73" transform="matrix(1 0 0 1 3431.96 386)">SVA</text><path d="M2869.5 62.5001 2869.5 201.17" stroke="#000000" stroke-width="4.58333" stroke-miterlimit="8" stroke-dasharray="36.6667 13.75" fill="none" fill-rule="evenodd"/><text font-family="Consolas,Consolas_MSFontService,sans-serif" font-weight="400" font-size="83" transform="matrix(1 0 0 1 2830.39 1287)">LHS &lt;= ...</text><path d="M2869.5 442.5 2869.5 1168.08" stroke="#000000" stroke-width="4.58333" stroke-miterlimit="8" stroke-dasharray="36.6667 13.75" fill="none" fill-rule="evenodd"/><path d="M2869.5 1339.5 2869.5 1639.82" stroke="#000000" stroke-width="4.58333" stroke-miterlimit="8" stroke-dasharray="36.6667 13.75" fill="none" fill-rule="evenodd"/><text font-family="Consolas,Consolas_MSFontService,sans-serif" font-weight="400" font-size="83" transform="matrix(1 0 0 1 2832.15 1761)">SVA </text><text font-family="Consolas,Consolas_MSFontService,sans-serif" font-weight="400" font-size="73" transform="matrix(1 0 0 1 3013.19 1761)">$info() $error()</text><path d="M1.41411e-05-3.4375 64.8112-3.43723 64.8112 3.43777-1.41411e-05 3.4375ZM60.2279-13.7498 87.7279 0.000360892 60.2278 13.7502Z" transform="matrix(-1 0 0 1 2788.23 1261.5)"/><path d="M1.41411e-05-3.4375 64.8112-3.43723 64.8112 3.43777-1.41411e-05 3.4375ZM60.2279-13.7498 87.7279 0.000360892 60.2278 13.7502Z" transform="matrix(-1 0 0 1 2788.23 318.5)"/><path d="M1.41411e-05-3.4375 64.8112-3.43723 64.8112 3.43777-1.41411e-05 3.4375ZM60.2279-13.7498 87.7279 0.000360892 60.2278 13.7502Z" transform="matrix(-1 0 0 1 2788.23 1734.5)"/></g></svg>