<?xml version="1.0" encoding="UTF-8" standalone="no"?>
<svg
   width="3548"
   height="2120"
   xml:space="preserve"
   overflow="hidden"
   version="1.1"
   id="svg30"
   sodipodi:docname="fork_join_seqs_0.svg"
   inkscape:version="1.3 (0e150ed6c4, 2023-07-21)"
   xmlns:inkscape="http://www.inkscape.org/namespaces/inkscape"
   xmlns:sodipodi="http://sodipodi.sourceforge.net/DTD/sodipodi-0.dtd"
   xmlns="http://www.w3.org/2000/svg"
   xmlns:svg="http://www.w3.org/2000/svg"><defs
     id="defs30" /><sodipodi:namedview
     id="namedview30"
     pagecolor="#ffffff"
     bordercolor="#000000"
     borderopacity="0.25"
     inkscape:showpageshadow="2"
     inkscape:pageopacity="0.0"
     inkscape:pagecheckerboard="0"
     inkscape:deskcolor="#d1d1d1"
     inkscape:zoom="0.30073281"
     inkscape:cx="1774"
     inkscape:cy="1059.0797"
     inkscape:window-width="1920"
     inkscape:window-height="1001"
     inkscape:window-x="-9"
     inkscape:window-y="-9"
     inkscape:window-maximized="1"
     inkscape:current-layer="g30" /><g
     transform="translate(-768 -176)"
     id="g30"><path
       id="rect1"
       style="fill:#ffffff;stroke:#000000;stroke-width:6.875;stroke-miterlimit:8"
       d="m 1658.5,179.5 h 912 v 2113 h -912 z" /><path
       d="M 59.941406,0 H 49.521484 L 44.633789,-15.307617 H 15.415039 L 10.473633,0 H 0.53710937 L 23.847656,-70.200195 H 36.953125 Z M 41.894531,-23.847656 30.024414,-61.391602 18.154297,-23.847656 Z M 119.66797,0 H 107.58301 L 90.50293,-28.359375 73.369141,0 H 61.445312 L 84.80957,-35.878906 63.325195,-70.200195 h 11.333008 l 16.05957,26.425781 16.166997,-26.425781 h 11.01074 l -21.538088,33.891601 z m 26.69433,-62.143555 h -16.16699 v -8.05664 h 42.00196 v 8.05664 h -16.167 v 53.9794925 h 16.167 V 0 h -42.00196 v -8.1640625 h 16.16699 z m 92.70508,46.621094 H 227.08984 V 0 h -9.56054 v -15.522461 h -33.78418 v -8.217773 l 29.91699,-46.459961 h 13.42773 v 46.459961 h 11.97754 z m -21.53808,-45.654297 -24.43848,37.436524 h 24.43848 z"
       id="text1"
       style="font-size:110px;font-family:Consolas, Consolas_MSFontService, sans-serif"
       transform="matrix(1 0 0 1 1992.51 1207)"
       aria-label="AXI4" /><path
       d="M 25.405273,-62.143555 H 9.2382813 v -8.05664 H 51.240234 v 8.05664 H 35.073242 V -8.1640625 H 51.240234 V 0 H 9.2382813 V -8.1640625 H 25.405273 Z m 43.666993,8.217774 h 8.325195 l 0.375976,8.701172 q 2.363282,-2.792969 4.56543,-4.619141 2.202149,-1.879883 4.296875,-3.007812 2.148438,-1.12793 4.350586,-1.557618 2.202149,-0.483398 4.56543,-0.483398 8.325192,0 12.568362,4.941406 4.29687,4.887695 4.29687,14.770508 V 0 h -9.3457 v -34.428711 q 0,-6.337891 -2.36328,-9.345703 -2.363283,-3.061523 -7.036135,-3.061523 -1.71875,0 -3.383789,0.537109 -1.611328,0.483398 -3.383789,1.772461 -1.772461,1.235351 -3.867188,3.383789 -2.041015,2.148437 -4.61914,5.371094 V 0 H 69.072266 Z M 173.00293,-0.75195312 q -3.16895,0.80566406 -6.55273,1.12792968 -3.38379,0.37597656 -6.875,0.37597656 -10.15137,0 -15.14649,-4.56542972 -4.99512,-4.6191406 -4.99512,-14.1259764 v -28.144531 h -15.09277 v -7.841797 h 15.09277 V -68.75 l 9.34571,-2.416992 v 17.241211 h 24.22363 v 7.841797 H 148.7793 v 27.392578 q 0,5.800781 3.06152,8.7011716 3.11523,2.8466797 9.13086,2.8466797 2.57812,0 5.63965,-0.3759765 3.06152,-0.4296875 6.3916,-1.2890626 z M 235.57617,-29.80957 q 0,1.987304 -0.0537,3.330078 -0.0537,1.342773 -0.16113,2.524414 h -37.86621 q 0,8.271484 4.61914,12.729492 4.61914,4.4042969 13.32031,4.4042969 2.36328,0 4.72656,-0.1611328 2.36328,-0.2148437 4.56543,-0.5371093 2.20215,-0.3222657 4.18946,-0.6982422 2.04101,-0.4296875 3.75976,-0.913086 v 7.6806641 q -3.81348,1.07421874 -8.64746,1.71874999 -4.78027,0.69824219 -9.93652,0.69824219 -6.92871,0 -11.92383,-1.87988282 -4.99512,-1.87988286 -8.21777,-5.42480466 -3.16895,-3.5986328 -4.72657,-8.7548824 -1.5039,-5.209961 -1.5039,-11.762696 0,-5.693359 1.61132,-10.742187 1.66504,-5.102539 4.78028,-8.916016 3.16894,-3.867187 7.73437,-6.123047 4.56543,-2.255859 10.36621,-2.255859 5.63965,0 9.99024,1.772461 4.35058,1.772461 7.30469,5.048828 3.00781,3.222656 4.51171,7.895508 1.55762,4.61914 1.55762,10.366211 z m -9.72168,-1.342774 q 0.16113,-3.598633 -0.69824,-6.552734 -0.85938,-3.007813 -2.68555,-5.15625 -1.77246,-2.148438 -4.458,-3.330078 -2.68555,-1.235352 -6.23047,-1.235352 -3.06153,0 -5.58594,1.181641 -2.52442,1.18164 -4.35059,3.330078 -1.82617,2.148437 -2.9541,5.15625 -1.12793,3.007812 -1.39648,6.606445 z m 26.85547,-22.773437 H 261.25 l 0.26855,9.936523 q 4.78028,-5.74707 9.39942,-8.325195 4.67285,-2.578125 9.39941,-2.578125 8.37891,0 12.67578,5.424805 4.35059,5.424804 4.02832,16.113281 h -9.45312 q 0.16113,-7.089844 -2.09473,-10.258789 -2.20215,-3.222656 -6.49902,-3.222656 -1.87988,0 -3.81348,0.698242 -1.87988,0.644531 -3.9209,2.148437 -1.9873,1.450196 -4.24316,3.759766 -2.25586,2.30957 -4.83398,5.585937 V 0 h -9.45313 z m 100.1709,51.9384763 q -3.65234,1.39648439 -7.51953,2.04101564 -3.81348,0.69824218 -7.89551,0.69824218 -12.7832,0 -19.71191,-6.92871092 -6.875,-6.9287112 -6.875,-20.2490232 0,-6.391602 1.9873,-11.601563 1.98731,-5.209961 5.58594,-8.916015 3.59863,-3.706055 8.59375,-5.69336 4.99512,-2.041015 11.01074,-2.041015 4.18945,0 7.8418,0.59082 3.65234,0.59082 6.98242,1.933594 v 8.916015 q -3.49121,-1.826172 -7.14356,-2.631836 -3.59863,-0.859375 -7.46582,-0.859375 -3.59863,0 -6.82128,1.396485 -3.16895,1.342773 -5.58594,3.920898 -2.41699,2.578125 -3.81348,6.28418 -1.39648,3.706055 -1.39648,8.378906 0,9.775391 4.72656,14.663086 4.78027,4.8339844 13.21289,4.8339844 3.81348,0 7.3584,-0.859375 3.59863,-0.859375 6.92871,-2.5781254 z M 418.4082,-27.392578 q 0,6.28418 -1.77246,11.547851 -1.77246,5.209961 -5.10254,8.969727 -3.33008,3.7060547 -8.11035,5.8007813 -4.78027,2.04101558 -10.84961,2.04101558 -5.80078,0 -10.41992,-1.77246094 -4.56543,-1.82617184 -7.78809,-5.31738284 -3.16894,-3.4912109 -4.88769,-8.6474611 -1.66504,-5.15625 -1.66504,-11.870117 0,-6.28418 1.77246,-11.44043 1.77246,-5.209961 5.10254,-8.916015 3.33008,-3.759766 8.11035,-5.800782 4.78027,-2.094726 10.84961,-2.094726 5.80078,0 10.36621,1.826172 4.61914,1.772461 7.78809,5.263672 3.22265,3.4375 4.88769,8.59375 1.71875,5.15625 1.71875,11.816406 z m -9.56054,0.429687 q 0,-4.995117 -1.12793,-8.701171 -1.07422,-3.759766 -3.11524,-6.230469 -2.04101,-2.524414 -4.99512,-3.759766 -2.90039,-1.289062 -6.49902,-1.289062 -4.18945,0 -7.19726,1.665039 -2.95411,1.611328 -4.8877,4.350586 -1.87988,2.739257 -2.79297,6.391601 -0.85937,3.598633 -0.85937,7.573242 0,4.995118 1.07422,8.754883 1.12793,3.759766 3.16894,6.28418 2.04102,2.470703 4.94141,3.7597655 2.90039,1.2353516 6.55273,1.2353516 4.18945,0 7.14356,-1.6113282 3.00781,-1.6650389 4.88769,-4.4042969 1.9336,-2.739258 2.79297,-6.337891 0.91309,-3.652343 0.91309,-7.680664 z m 23.0957,-26.96289 h 8.32519 l 0.37598,8.701172 q 2.36328,-2.792969 4.56543,-4.619141 2.20215,-1.879883 4.29688,-3.007812 2.14843,-1.12793 4.35058,-1.557618 2.20215,-0.483398 4.56543,-0.483398 8.3252,0 12.56836,4.941406 4.29688,4.887695 4.29688,14.770508 V 0 h -9.34571 v -34.428711 q 0,-6.337891 -2.36328,-9.345703 -2.36328,-3.061523 -7.03613,-3.061523 -1.71875,0 -3.38379,0.537109 -1.61133,0.483398 -3.38379,1.772461 -1.77246,1.235351 -3.86719,3.383789 -2.04101,2.148437 -4.61914,5.371094 V 0 h -9.3457 z m 60.47851,0 h 8.3252 l 0.37598,8.701172 q 2.36328,-2.792969 4.56543,-4.619141 2.20214,-1.879883 4.29687,-3.007812 2.14844,-1.12793 4.35059,-1.557618 2.20215,-0.483398 4.56543,-0.483398 8.32519,0 12.56836,4.941406 4.29687,4.887695 4.29687,14.770508 V 0 h -9.3457 v -34.428711 q 0,-6.337891 -2.36328,-9.345703 -2.36328,-3.061523 -7.03614,-3.061523 -1.71875,0 -3.38378,0.537109 -1.61133,0.483398 -3.38379,1.772461 -1.77246,1.235351 -3.86719,3.383789 -2.04102,2.148437 -4.61914,5.371094 V 0 h -9.34571 z m 106.0254,24.116211 q 0,1.987304 -0.0537,3.330078 -0.0537,1.342773 -0.16113,2.524414 h -37.86621 q 0,8.271484 4.61914,12.729492 4.61914,4.4042969 13.32031,4.4042969 2.36329,0 4.72657,-0.1611328 2.36328,-0.2148437 4.56543,-0.5371093 2.20214,-0.3222657 4.18945,-0.6982422 2.04101,-0.4296875 3.75976,-0.913086 v 7.6806641 q -3.81347,1.07421874 -8.64746,1.71874999 -4.78027,0.69824219 -9.93652,0.69824219 -6.92871,0 -11.92383,-1.87988282 -4.99511,-1.87988286 -8.21777,-5.42480466 -3.16895,-3.5986328 -4.72656,-8.7548824 -1.50391,-5.209961 -1.50391,-11.762696 0,-5.693359 1.61133,-10.742187 1.66504,-5.102539 4.78027,-8.916016 3.16895,-3.867187 7.73438,-6.123047 4.56543,-2.255859 10.36621,-2.255859 5.63965,0 9.99023,1.772461 4.35059,1.772461 7.30469,5.048828 3.00781,3.222656 4.51172,7.895508 1.55762,4.61914 1.55762,10.366211 z m -9.72168,-1.342774 q 0.16113,-3.598633 -0.69825,-6.552734 -0.85937,-3.007813 -2.68554,-5.15625 -1.77246,-2.148438 -4.45801,-3.330078 -2.68555,-1.235352 -6.23047,-1.235352 -3.06152,0 -5.58594,1.181641 -2.52441,1.18164 -4.35058,3.330078 -1.82618,2.148437 -2.9541,5.15625 -1.12793,3.007812 -1.39649,6.606445 z m 66.54785,29.1650393 q -3.65235,1.39648439 -7.51953,2.04101564 -3.81348,0.69824218 -7.89551,0.69824218 -12.7832,0 -19.71192,-6.92871092 -6.875,-6.9287112 -6.875,-20.2490232 0,-6.391602 1.98731,-11.601563 1.9873,-5.209961 5.58594,-8.916015 3.59863,-3.706055 8.59375,-5.69336 4.99511,-2.041015 11.01074,-2.041015 4.18945,0 7.8418,0.59082 3.65234,0.59082 6.98242,1.933594 v 8.916015 q -3.49121,-1.826172 -7.14356,-2.631836 -3.59863,-0.859375 -7.46582,-0.859375 -3.59863,0 -6.82129,1.396485 -3.16894,1.342773 -5.58593,3.920898 -2.417,2.578125 -3.81348,6.28418 -1.39649,3.706055 -1.39649,8.378906 0,9.775391 4.72657,14.663086 4.78027,4.8339844 13.21289,4.8339844 3.81347,0 7.3584,-0.859375 3.59863,-0.859375 6.92871,-2.5781254 z m 62.03613,1.23535158 q -3.16895,0.80566406 -6.55273,1.12792968 -3.38379,0.37597656 -6.875,0.37597656 -10.15137,0 -15.14649,-4.56542972 -4.99512,-4.6191406 -4.99512,-14.1259764 v -28.144531 h -15.09277 v -7.841797 h 15.09277 V -68.75 l 9.34571,-2.416992 v 17.241211 h 24.22363 v 7.841797 h -24.22363 v 27.392578 q 0,5.800781 3.06152,8.7011716 3.11524,2.8466797 9.13086,2.8466797 2.57813,0 5.63965,-0.3759765 3.06152,-0.4296875 6.3916,-1.2890626 z"
       id="text2"
       style="font-size:110px;font-family:Consolas, Consolas_MSFontService, sans-serif"
       transform="matrix(1 0 0 1 1749.59 1339)"
       aria-label="Interconnect" /><path
       id="rect2"
       style="fill:#ffffff;stroke:#000000;stroke-width:6.875;stroke-miterlimit:8"
       d="m 771.5,179.5 h 645 v 569 h -645 z" /><path
       d="m 61.068848,0 h -11.6792 L 38.059082,-24.288086 q -1.27832,-2.789062 -2.614746,-4.590332 -1.336426,-1.859375 -2.905274,-2.905273 -1.510742,-1.104004 -3.370117,-1.568848 -1.801269,-0.464844 -4.067383,-0.464844 H 20.220703 V 0 H 9.8779297 V -75.943848 H 30.214844 q 6.624023,0 11.388672,1.452637 4.764648,1.452637 7.786132,4.067383 3.07959,2.614746 4.474122,6.333496 1.452636,3.660645 1.452636,8.134766 0,3.544433 -1.045898,6.740234 -1.045899,3.137695 -3.137696,5.752441 -2.033691,2.556641 -5.113281,4.474121 -3.021484,1.859375 -6.972656,2.789063 3.195801,1.104004 5.403809,3.893066 2.266113,2.730957 4.590332,7.321289 z M 44.508789,-55.083984 q 0,-6.101075 -3.834961,-9.122559 -3.776855,-3.021484 -10.691406,-3.021484 h -9.761719 v 25.101562 h 8.367188 q 3.660644,0 6.565918,-0.813476 2.963378,-0.871582 4.99707,-2.498536 2.091797,-1.685058 3.195801,-4.067382 1.162109,-2.44043 1.162109,-5.578125 z M 92.910645,-67.228027 H 75.420898 v -8.715821 h 45.438482 v 8.715821 h -17.48975 v 58.3959957 h 17.48975 V 0 H 75.420898 v -8.8320313 h 17.489747 z m 95.874025,46.658691 q 0,5.403809 -2.20801,9.471191 -2.20801,4.0673833 -6.15918,6.7983403 -3.95117,2.6728516 -9.5293,4.00927736 -5.52002,1.33642574 -12.20214,1.33642574 -3.02149,0 -6.04297,-0.23242184 -2.96338,-0.23242187 -5.75245,-0.58105468 -2.73095,-0.34863282 -5.17138,-0.81347657 -2.44043,-0.46484371 -4.41602,-0.98779301 v -9.9941403 q 4.35791,1.6269528 9.76172,2.5566403 5.46192,0.9296875 12.37647,0.9296875 4.99707,0 8.48339,-0.7553711 3.54444,-0.8134765 5.75245,-2.3242187 2.26611,-1.568848 3.2539,-3.776855 1.0459,-2.208008 1.0459,-5.055176 0,-3.07959 -1.74316,-5.229492 -1.68506,-2.208008 -4.47412,-3.893067 -2.78907,-1.743164 -6.39161,-3.137695 -3.54443,-1.452637 -7.26318,-2.963379 -3.71875,-1.510742 -7.32129,-3.253906 -3.54443,-1.80127 -6.33349,-4.183594 -2.78907,-2.44043 -4.53223,-5.694336 -1.68506,-3.253906 -1.68506,-7.728027 0,-3.893067 1.62695,-7.669922 1.62696,-3.776856 5.05518,-6.682129 3.42822,-2.963379 8.77392,-4.764649 5.40381,-1.801269 12.84131,-1.801269 1.91748,0 4.12549,0.174316 2.26611,0.174317 4.53223,0.52295 2.32422,0.290527 4.53222,0.697265 2.26612,0.406738 4.1836,0.871582 v 9.296875 q -4.47412,-1.27832 -8.94824,-1.91748 -4.47412,-0.697266 -8.65772,-0.697266 -8.89014,0 -13.07373,2.963379 -4.18359,2.963379 -4.18359,7.960449 0,3.07959 1.68506,5.287598 1.74316,2.208008 4.53222,3.951172 2.78906,1.743164 6.3335,3.195801 3.60254,1.394531 7.32129,2.905273 3.71875,1.510742 7.26318,3.312012 3.60254,1.801269 6.3916,4.299804 2.78907,2.44043 4.47412,5.752442 1.74317,3.312012 1.74317,7.844238 z m 65.31054,17.722168 q -9.12255,3.7768555 -19.11669,3.7768555 -16.09522,0 -24.75293,-9.5874023 -8.59961,-9.6455082 -8.59961,-28.4716802 0,-9.122558 2.38232,-16.501953 2.38232,-7.379394 6.79834,-12.492675 4.41602,-5.171387 10.69141,-7.96045 6.27539,-2.789062 14.06152,-2.789062 5.2876,0 9.81982,0.929687 4.53223,0.871582 8.71582,2.730957 v 10.168457 q -4.12548,-2.266113 -8.5415,-3.428222 -4.41601,-1.220215 -9.64551,-1.220215 -5.3457,0 -9.70361,2.033691 -4.2998,1.975586 -7.32129,5.810547 -3.02148,3.776856 -4.64844,9.296875 -1.62695,5.461914 -1.62695,12.492676 0,14.758789 5.98486,22.254394 5.98487,7.495606 17.54785,7.495606 4.88086,0 9.35499,-1.1040039 4.47412,-1.1621091 8.5996,-3.1958011 z"
       id="text3"
       style="font-size:119px;font-family:Consolas, Consolas_MSFontService, sans-serif"
       transform="matrix(1 0 0 1 897.139 433)"
       aria-label="RISC" /><path
       d="m 50.086914,-26.902832 h -34.74707 v -9.529297 h 34.74707 z"
       id="text4"
       style="font-size:119px;font-family:Consolas, Consolas_MSFontService, sans-serif"
       transform="matrix(1 0 0 1 1158.39 433)"
       aria-label="-" /><path
       d="M 65.194336,-75.943848 39.395508,0 H 25.450195 L 0.23242188,-75.943848 H 11.911621 l 16.385742,51.190918 4.648438,14.9912112 4.764648,-14.9912112 16.443848,-51.190918 z"
       id="text5"
       style="font-size:119px;font-family:Consolas, Consolas_MSFontService, sans-serif"
       transform="matrix(1 0 0 1 1223.7 433)"
       aria-label="V" /><path
       d="m 12.95752,-16.850586 q 1.91748,-4.067383 4.183593,-6.15918 2.324219,-2.091796 5.810547,-2.789062 -3.660644,-0.697266 -6.042969,-2.266113 -2.382324,-1.568848 -3.834961,-3.602539 -1.394531,-2.091797 -1.975585,-4.416016 -0.52295,-2.324219 -0.52295,-4.590332 0,-3.834961 1.278321,-7.205078 1.27832,-3.370117 4.125488,-5.868653 2.847168,-2.498535 7.4375,-3.951171 4.648437,-1.452637 13.248047,-1.452637 4.822754,0 9.529297,0.348633 4.706543,0.290527 9.238769,0.755371 V 0 H 45.322266 V -22.603027 H 36.54834 q -2.033692,0 -4.183594,0.406738 -2.091797,0.348633 -3.834961,1.394531 -1.743164,0.987793 -3.195801,2.614746 -1.394531,1.626953 -2.498535,4.125489 L 16.443848,0 H 4.9970703 Z m 7.960449,-23.939453 q 0,4.99707 3.370117,7.495605 3.428223,2.498536 10.110351,2.498536 h 10.923829 v -19.523438 q -2.498536,-0.232422 -4.822754,-0.348633 -2.324219,-0.116211 -4.88086,-0.116211 -4.99707,0 -7.611816,0.697266 -2.614746,0.63916 -4.125488,1.91748 -1.510743,1.220215 -2.266114,3.021485 -0.697265,1.801269 -0.697265,4.35791 z M 110.40039,-49.62207 H 94.130859 q -0.581054,9.99414 -1.510742,17.024902 -0.929687,7.030762 -2.208008,11.79541 -1.220214,4.764649 -2.847168,7.611817 -1.626953,2.847168 -3.602539,4.4741207 H 110.40039 Z M 128.87793,-8.7158203 128.23877,14.875 H 119 V 0 H 76.466797 V 14.875 H 67.344238 L 66.763184,-8.7158203 h 0.813476 q 2.208008,0 4.183594,-0.6972656 1.975586,-0.6972661 3.660644,-2.6147461 1.685059,-1.975586 3.07959,-5.403809 1.452637,-3.486328 2.556641,-8.948242 1.162109,-5.520019 1.975586,-13.364258 0.871582,-7.844238 1.452637,-18.59375 h 36.025388 v 49.6220707 z m 61.12695,-21.4990237 q 0,7.786133 -2.20801,13.59668 -2.1499,5.810547 -5.98486,9.6455078 -3.83496,3.8349609 -9.06445,5.7524414 -5.22949,1.91748042 -11.33057,1.91748042 -2.78906,0 -5.57812,-0.29052734 -2.73096,-0.29052734 -5.57813,-0.98779297 V 23.823242 h -10.11035 v -82.161133 h 9.00635 l 0.63916,9.761719 q 4.35791,-5.984863 9.29687,-8.367187 4.93897,-2.44043 10.69141,-2.44043 4.99707,0 8.77393,2.091797 3.77685,2.091797 6.33349,5.926758 2.55664,3.776855 3.83496,9.180664 1.27832,5.345703 1.27832,11.969726 z M 179.66211,-29.75 q 0,-4.590332 -0.69727,-8.425293 -0.63916,-3.834961 -2.09179,-6.565918 -1.45264,-2.730957 -3.71875,-4.241699 -2.26612,-1.568848 -5.40381,-1.568848 -1.91748,0 -3.89307,0.63916 -1.97558,0.581055 -4.12549,2.033692 -2.09179,1.394531 -4.47412,3.776855 -2.32422,2.324219 -4.99707,5.810547 v 28.2973634 q 2.78906,1.1621093 5.86865,1.859375 3.07959,0.6391601 6.04297,0.6391601 8.19287,0 12.84131,-5.5200195 4.64844,-5.578125 4.64844,-16.734375 z m 76.69922,0.116211 q 0,6.79834 -1.91748,12.492676 -1.91748,5.63623 -5.52002,9.703613 -3.60254,4.0092773 -8.77393,6.2753906 -5.17138,2.2080078 -11.7373,2.2080078 -6.27539,0 -11.27246,-1.91748043 -4.93897,-1.97558597 -8.4253,-5.75244137 -3.42822,-3.7768556 -5.28759,-9.3549806 -1.80127,-5.578125 -1.80127,-12.841308 0,-6.79834 1.91748,-12.376465 1.91748,-5.636231 5.52002,-9.645508 3.60254,-4.067383 8.77392,-6.275391 5.17139,-2.266113 11.73731,-2.266113 6.27539,0 11.21435,1.975586 4.99707,1.91748 8.4253,5.694336 3.48632,3.71875 5.28759,9.296875 1.85938,5.578125 1.85938,12.783203 z m -10.34278,0.464844 q 0,-5.403809 -1.22021,-9.413086 -1.16211,-4.067383 -3.37012,-6.740235 -2.20801,-2.730957 -5.40381,-4.067382 -3.13769,-1.394532 -7.03076,-1.394532 -4.53222,0 -7.78613,1.80127 -3.1958,1.743164 -5.2876,4.706543 -2.03369,2.963379 -3.02148,6.914551 -0.92969,3.893066 -0.92969,8.192871 0,5.403808 1.16211,9.471191 1.22021,4.067383 3.42822,6.79834 2.20801,2.672851 5.34571,4.0673827 3.13769,1.3364258 7.08886,1.3364258 4.53223,0 7.72803,-1.743164 3.25391,-1.8012695 5.2876,-4.7646485 2.09179,-2.963379 3.02148,-6.856445 0.98779,-3.951172 0.98779,-8.309082 z"
       id="text6"
       style="font-size:119px;font-family:Consolas, Consolas_MSFontService, sans-serif"
       transform="matrix(1 0 0 1 962.452 576)"
       aria-label="ядро" /><path
       id="rect6"
       style="fill:#ffffff;stroke:#000000;stroke-width:6.875;stroke-miterlimit:8"
       d="m 771.5,951.5 h 645 v 569 h -645 z" /><path
       d="m 47.302734,-30.007812 q 0,4.222656 -0.673828,8.085937 -0.628906,3.863281 -2.066406,7.1875 -1.4375,3.324219 -3.728516,6.0644531 -2.291015,2.6953125 -5.615234,4.6269532 -3.324219,1.9316406 -7.726563,3.0097656 Q 23.089844,0 17.474609,0 H 4.8964844 V -58.712891 H 20.035156 q 13.746094,0 20.484375,7.097657 6.783203,7.052734 6.783203,21.607422 z m -8.40039,0.583984 q 0,-6.244141 -1.167969,-10.556641 -1.167969,-4.3125 -3.548828,-6.96289 -2.38086,-2.650391 -5.97461,-3.81836 -3.59375,-1.21289 -8.445312,-1.21289 h -6.873047 v 45.0566403 h 5.974609 q 20.035157,0 20.035157,-22.5058593 z m 56.466797,13.521484 q 0,4.177735 -1.707032,7.3222659 -1.707031,3.1445312 -4.761718,5.2558593 -3.054688,2.0664063 -7.367188,3.09960942 -4.267578,1.03320313 -9.433594,1.03320313 -2.335937,0 -4.671875,-0.1796875 -2.291015,-0.1796875 -4.447265,-0.44921875 -2.111328,-0.26953125 -3.998047,-0.62890625 -1.886719,-0.359375 -3.414063,-0.76367185 v -7.7265625 q 3.369141,1.2578125 7.546875,1.9765625 4.222657,0.71875 9.56836,0.71875 3.863281,0 6.558593,-0.5839844 2.740235,-0.6289062 4.447266,-1.796875 1.751953,-1.2128906 2.515625,-2.919922 0.808594,-1.707031 0.808594,-3.908203 0,-2.380859 -1.347656,-4.042969 -1.302735,-1.707031 -3.458985,-3.009765 -2.15625,-1.347657 -4.941406,-2.425782 -2.740234,-1.123046 -5.615234,-2.291015 -2.875,-1.167969 -5.660157,-2.515625 Q 63.25,-31.130859 61.09375,-32.972656 58.9375,-34.859375 57.589844,-37.375 q -1.302735,-2.515625 -1.302735,-5.974609 0,-3.009766 1.257813,-5.929688 1.257812,-2.919922 3.908203,-5.166015 2.650391,-2.291016 6.783203,-3.683594 4.177734,-1.392578 9.927734,-1.392578 1.482422,0 3.189454,0.134765 1.751953,0.134766 3.503906,0.404297 1.796875,0.22461 3.503906,0.539063 1.751953,0.314453 3.234375,0.673828 v 7.1875 q -3.458984,-0.988281 -6.917969,-1.482422 -3.458984,-0.539063 -6.693359,-0.539063 -6.873047,0 -10.107422,2.291016 -3.234375,2.291016 -3.234375,6.154297 0,2.380859 1.302734,4.087891 1.347657,1.707031 3.503907,3.054687 2.15625,1.347656 4.896484,2.470703 2.785156,1.078125 5.660156,2.246094 2.875,1.167969 5.615235,2.560547 2.785156,1.392578 4.941406,3.324219 2.15625,1.886718 3.458984,4.447265 1.347657,2.560547 1.347657,6.064453 z m 51.435549,-24.841797 q 0,3.59375 -1.34766,7.142579 -1.34766,3.503906 -4.17773,6.289062 -2.83008,2.785156 -7.23243,4.537109 -4.40234,1.707032 -10.51171,1.707032 h -7.27735 V 0 h -7.99609 v -58.712891 h 16.53125 q 4.35742,0 8.35547,0.988282 3.99804,0.943359 7.00781,3.099609 3.05469,2.15625 4.85156,5.570313 1.79688,3.414062 1.79688,8.310546 z m -8.31055,0.359375 q 0,-5.660156 -3.72852,-8.669921 -3.68359,-3.009766 -10.33203,-3.009766 h -8.17578 v 24.167969 h 7.45703 q 7.09766,0 10.91602,-3.09961 3.86328,-3.099609 3.86328,-9.388672 z"
       id="text7"
       style="font-size:92px;font-family:Consolas, Consolas_MSFontService, sans-serif"
       transform="matrix(1 0 0 1 1017.45 1211)"
       aria-label="DSP" /><path
       d="M 47.302734,-45.101562 31.939453,-4.7617187 q -2.380859,6.1542968 -4.941406,10.6015624 -2.515625,4.4472653 -5.525391,7.2773443 -3.009765,2.875 -6.603515,4.222656 -3.59375,1.347656 -8.041016,1.347656 -1.1679688,0 -2.1113281,-0.04492 -0.9433594,-0.04492 -2.0664063,-0.134766 v -7.097656 q 0.9882813,0.134766 2.15625,0.22461 1.1679688,0.134765 2.4707031,0.134765 2.1562501,0 3.9980473,-0.628906 1.886718,-0.628906 3.548828,-2.0664062 Q 16.486328,7.6816406 18.013672,5.4355469 19.541016,3.1894531 20.978516,0 L 2.9648438,-45.101562 h 8.8945312 l 11.410156,29.828124 2.291016,7.007813 2.605469,-7.1875 10.55664,-29.648437 z m 45.50586,43.4394526 q -3.054688,1.16796877 -6.289063,1.70703127 -3.189453,0.58398438 -6.603515,0.58398438 -10.691407,0 -16.486329,-5.79492185 -5.75,-5.7949224 -5.75,-16.9355464 0,-5.345704 1.66211,-9.703125 1.662109,-4.357422 4.671875,-7.457032 3.009765,-3.099609 7.1875,-4.761718 4.177734,-1.707032 9.208984,-1.707032 3.503906,0 6.558594,0.494141 3.054687,0.494141 5.839844,1.617187 v 7.457032 q -2.919922,-1.527344 -5.97461,-2.201172 -3.009765,-0.71875 -6.24414,-0.71875 -3.009766,0 -5.705078,1.167969 -2.650391,1.123046 -4.671875,3.279296 -2.021485,2.15625 -3.189454,5.25586 -1.167968,3.099609 -1.167968,7.007812 0,8.175781 3.953125,12.263672 3.998047,4.0429689 11.050781,4.0429689 3.189453,0 6.154297,-0.71875 3.009765,-0.71875 5.794922,-2.15625 z M 148.91602,0 H 138.17969 L 117.15625,-24.167969 V 0 h -7.81641 v -45.101562 h 7.81641 v 20.61914 l 20.25977,-20.61914 h 10.33203 l -21.15821,20.798828 z m 49.27929,-22.910156 q 0,5.255859 -1.48242,9.658203 -1.48242,4.3574217 -4.26758,7.501953 -2.78515,3.0996094 -6.7832,4.8515625 -3.99805,1.70703125 -9.07422,1.70703125 -4.85156,0 -8.71484,-1.48242187 -3.81836,-1.52734378 -6.51368,-4.44726558 -2.65039,-2.9199219 -4.08789,-7.2324223 -1.39257,-4.3125 -1.39257,-9.927734 0,-5.255859 1.48242,-9.568359 1.48242,-4.357422 4.26758,-7.457032 2.78515,-3.144531 6.7832,-4.851562 3.99805,-1.751953 9.07422,-1.751953 4.85156,0 8.66992,1.527344 3.86328,1.482421 6.51367,4.402343 2.69531,2.875 4.08789,7.1875 1.4375,4.3125 1.4375,9.882813 z m -7.99609,0.359375 q 0,-4.177735 -0.94336,-7.277344 -0.89844,-3.144531 -2.60547,-5.210937 -1.70703,-2.111329 -4.17773,-3.144532 -2.42579,-1.078125 -5.43555,-1.078125 -3.50391,0 -6.01953,1.392578 -2.47071,1.347657 -4.08789,3.638672 -1.57227,2.291016 -2.33594,5.345703 -0.71875,3.009766 -0.71875,6.333985 0,4.177734 0.89844,7.322265 0.94336,3.144532 2.65039,5.2558597 1.70703,2.0664063 4.13281,3.1445313 2.42578,1.0332031 5.48047,1.0332031 3.50391,0 5.97461,-1.3476562 2.51562,-1.3925782 4.08789,-3.6835939 1.61719,-2.291016 2.33594,-5.300781 0.76367,-3.054688 0.76367,-6.423828 z m 57.85937,-0.808594 q 0,6.019531 -1.70703,10.511719 -1.66211,4.4921872 -4.62695,7.457031 -2.96484,2.9648437 -7.00781,4.44726562 -4.04297,1.48242188 -8.75977,1.48242188 -2.15625,0 -4.3125,-0.22460937 -2.11133,-0.22460938 -4.3125,-0.76367188 V 18.417969 h -7.81641 v -63.519531 h 6.9629 l 0.49414,7.546875 q 3.36914,-4.626954 7.1875,-6.46875 3.81836,-1.886719 8.26562,-1.886719 3.86328,0 6.7832,1.617187 2.91993,1.617188 4.89649,4.582032 1.97656,2.919921 2.96484,7.097656 0.98828,4.132812 0.98828,9.253906 z M 240.0625,-23 q 0,-3.548828 -0.53906,-6.513672 -0.49414,-2.964844 -1.61719,-5.076172 -1.12305,-2.111328 -2.875,-3.279297 -1.75195,-1.21289 -4.17773,-1.21289 -1.48243,0 -3.00977,0.49414 -1.52734,0.449219 -3.18945,1.572266 -1.61719,1.078125 -3.45899,2.919922 -1.79687,1.796875 -3.86328,4.492187 v 21.8769535 q 2.15625,0.8984375 4.53711,1.4375 2.38086,0.4941406 4.67188,0.4941406 6.33398,0 9.92773,-4.2675781 Q 240.0625,-14.375 240.0625,-23 Z m 28.48047,-22.101562 v 31.759765 l 19.67578,-31.759765 h 7.45703 V 0 h -7.81641 V -31.759766 L 268.18359,0 h -7.45703 v -45.101562 z m 81.30859,6.738281 H 332.73633 V 0 h -7.90625 v -38.363281 h -17.11524 v -6.738281 h 42.13672 z m 49.50391,13.43164 q 0,1.66211 -0.0449,2.785157 -0.0449,1.123047 -0.13477,2.111328 h -31.66992 q 0,6.917968 3.86328,10.6464841 3.86328,3.6835938 11.14063,3.6835938 1.97656,0 3.95312,-0.1347656 1.97656,-0.1796875 3.81836,-0.4492188 1.8418,-0.2695312 3.50391,-0.5839844 1.70703,-0.359375 3.14453,-0.7636718 v 6.4238281 q -3.18946,0.89843747 -7.23242,1.43749998 -3.99805,0.58398437 -8.31055,0.58398437 -5.79492,0 -9.97266,-1.57226562 -4.17773,-1.57226563 -6.87304,-4.53710933 -2.6504,-3.0097657 -3.95313,-7.3222658 -1.25781,-4.357422 -1.25781,-9.83789 0,-4.761719 1.34765,-8.984375 1.39258,-4.267579 3.99805,-7.457032 2.65039,-3.234375 6.46875,-5.121093 3.81836,-1.886719 8.66992,-1.886719 4.7168,0 8.35547,1.482422 3.63867,1.482422 6.10938,4.222656 2.51562,2.695312 3.77343,6.603516 1.30274,3.863281 1.30274,8.669921 z m -8.13086,-1.123046 q 0.13476,-3.009766 -0.58399,-5.480469 -0.71875,-2.515625 -2.24609,-4.3125 -1.48242,-1.796875 -3.72851,-2.785156 -2.2461,-1.033204 -5.21094,-1.033204 -2.56055,0 -4.67188,0.988282 -2.11133,0.988281 -3.63867,2.785156 -1.52734,1.796875 -2.4707,4.3125 -0.94336,2.515625 -1.16797,5.525391 z M 447.69141,0 H 439.875 v -38.363281 h -12.57813 q -0.53906,9.253906 -1.61718,15.857422 -1.03321,6.603515 -2.51563,11.050781 -1.48242,4.4023436 -3.36914,6.9628905 -1.88672,2.515625 -4.08789,3.68359375 -2.15625,1.12304688 -4.58203,1.078125 -2.42578,0 -4.98633,-0.62890625 l 0.35938,-6.46875 q 1.79687,0.1796875 3.36914,-0.1796875 1.57226,-0.359375 2.91992,-1.7070313 1.34766,-1.3925782 2.42578,-3.9531252 1.12305,-2.605469 2.02148,-6.917968 0.89844,-4.3125 1.52735,-10.556641 0.67383,-6.289063 1.07812,-14.958984 h 27.85157 z m 45.10156,-14.060547 q 0,-1.886719 -0.71875,-3.279297 -0.67383,-1.4375 -2.20117,-2.380859 -1.52735,-0.988281 -3.95313,-1.482422 -2.42578,-0.494141 -5.83984,-0.494141 -2.15625,0 -4.7168,0.04492 -2.56055,0.04492 -4.85156,0.134766 V -6.46875 q 2.29101,0.2246094 4.40234,0.359375 2.15625,0.089844 4.7168,0.089844 3.77344,0 6.28906,-0.4492188 2.51563,-0.4941406 4.04297,-1.4375 1.52734,-0.9882813 2.15625,-2.515625 0.67383,-1.527344 0.67383,-3.638672 z m -22.28125,-14.015625 q 1.12305,-0.04492 2.24609,-0.04492 1.12305,-0.04492 2.29102,-0.04492 1.16797,-0.04492 2.4707,-0.04492 1.30274,-0.04492 2.83008,-0.04492 10.42187,0 15.45312,3.59375 5.07618,3.548828 5.07618,10.421875 0,7.3671871 -5.34571,11.0957027 -5.3457,3.6835938 -16.17187,3.6835938 -4.89649,0 -8.89453,-0.22460937 -3.95313,-0.17968751 -7.77149,-0.67382813 v -44.742187 h 7.81641 z"
       id="text8"
       style="font-size:92px;font-family:Consolas, Consolas_MSFontService, sans-serif"
       transform="matrix(1 0 0 1 840.993 1321)"
       aria-label="ускоритель" /><path
       id="rect8"
       style="fill:#ffffff;stroke:#000000;stroke-width:6.875;stroke-miterlimit:8"
       d="m 771.5,1723.5 h 645 v 569 h -645 z" /><path
       d="m 47.302734,-30.007812 q 0,4.222656 -0.673828,8.085937 -0.628906,3.863281 -2.066406,7.1875 -1.4375,3.324219 -3.728516,6.0644531 -2.291015,2.6953125 -5.615234,4.6269532 -3.324219,1.9316406 -7.726563,3.0097656 Q 23.089844,0 17.474609,0 H 4.8964844 V -58.712891 H 20.035156 q 13.746094,0 20.484375,7.097657 6.783203,7.052734 6.783203,21.607422 z m -8.40039,0.583984 q 0,-6.244141 -1.167969,-10.556641 -1.167969,-4.3125 -3.548828,-6.96289 -2.38086,-2.650391 -5.97461,-3.81836 -3.59375,-1.21289 -8.445312,-1.21289 h -6.873047 v 45.0566403 h 5.974609 q 20.035157,0 20.035157,-22.5058593 z m 56.466797,13.521484 q 0,4.177735 -1.707032,7.3222659 -1.707031,3.1445312 -4.761718,5.2558593 -3.054688,2.0664063 -7.367188,3.09960942 -4.267578,1.03320313 -9.433594,1.03320313 -2.335937,0 -4.671875,-0.1796875 -2.291015,-0.1796875 -4.447265,-0.44921875 -2.111328,-0.26953125 -3.998047,-0.62890625 -1.886719,-0.359375 -3.414063,-0.76367185 v -7.7265625 q 3.369141,1.2578125 7.546875,1.9765625 4.222657,0.71875 9.56836,0.71875 3.863281,0 6.558593,-0.5839844 2.740235,-0.6289062 4.447266,-1.796875 1.751953,-1.2128906 2.515625,-2.919922 0.808594,-1.707031 0.808594,-3.908203 0,-2.380859 -1.347656,-4.042969 -1.302735,-1.707031 -3.458985,-3.009765 -2.15625,-1.347657 -4.941406,-2.425782 -2.740234,-1.123046 -5.615234,-2.291015 -2.875,-1.167969 -5.660157,-2.515625 Q 63.25,-31.130859 61.09375,-32.972656 58.9375,-34.859375 57.589844,-37.375 q -1.302735,-2.515625 -1.302735,-5.974609 0,-3.009766 1.257813,-5.929688 1.257812,-2.919922 3.908203,-5.166015 2.650391,-2.291016 6.783203,-3.683594 4.177734,-1.392578 9.927734,-1.392578 1.482422,0 3.189454,0.134765 1.751953,0.134766 3.503906,0.404297 1.796875,0.22461 3.503906,0.539063 1.751953,0.314453 3.234375,0.673828 v 7.1875 q -3.458984,-0.988281 -6.917969,-1.482422 -3.458984,-0.539063 -6.693359,-0.539063 -6.873047,0 -10.107422,2.291016 -3.234375,2.291016 -3.234375,6.154297 0,2.380859 1.302734,4.087891 1.347657,1.707031 3.503907,3.054687 2.15625,1.347656 4.896484,2.470703 2.785156,1.078125 5.660156,2.246094 2.875,1.167969 5.615235,2.560547 2.785156,1.392578 4.941406,3.324219 2.15625,1.886718 3.458984,4.447265 1.347657,2.560547 1.347657,6.064453 z m 51.435549,-24.841797 q 0,3.59375 -1.34766,7.142579 -1.34766,3.503906 -4.17773,6.289062 -2.83008,2.785156 -7.23243,4.537109 -4.40234,1.707032 -10.51171,1.707032 h -7.27735 V 0 h -7.99609 v -58.712891 h 16.53125 q 4.35742,0 8.35547,0.988282 3.99804,0.943359 7.00781,3.099609 3.05469,2.15625 4.85156,5.570313 1.79688,3.414062 1.79688,8.310546 z m -8.31055,0.359375 q 0,-5.660156 -3.72852,-8.669921 -3.68359,-3.009766 -10.33203,-3.009766 h -8.17578 v 24.167969 h 7.45703 q 7.09766,0 10.91602,-3.09961 3.86328,-3.099609 3.86328,-9.388672 z"
       id="text9"
       style="font-size:92px;font-family:Consolas, Consolas_MSFontService, sans-serif"
       transform="matrix(1 0 0 1 1017.45 1983)"
       aria-label="DSP" /><path
       d="M 47.302734,-45.101562 31.939453,-4.7617187 q -2.380859,6.1542968 -4.941406,10.6015624 -2.515625,4.4472653 -5.525391,7.2773443 -3.009765,2.875 -6.603515,4.222656 -3.59375,1.347656 -8.041016,1.347656 -1.1679688,0 -2.1113281,-0.04492 -0.9433594,-0.04492 -2.0664063,-0.134766 v -7.097656 q 0.9882813,0.134766 2.15625,0.22461 1.1679688,0.134765 2.4707031,0.134765 2.1562501,0 3.9980473,-0.628906 1.886718,-0.628906 3.548828,-2.0664062 Q 16.486328,7.6816406 18.013672,5.4355469 19.541016,3.1894531 20.978516,0 L 2.9648438,-45.101562 h 8.8945312 l 11.410156,29.828124 2.291016,7.007813 2.605469,-7.1875 10.55664,-29.648437 z m 45.50586,43.4394526 q -3.054688,1.16796877 -6.289063,1.70703127 -3.189453,0.58398438 -6.603515,0.58398438 -10.691407,0 -16.486329,-5.79492185 -5.75,-5.7949224 -5.75,-16.9355464 0,-5.345704 1.66211,-9.703125 1.662109,-4.357422 4.671875,-7.457032 3.009765,-3.099609 7.1875,-4.761718 4.177734,-1.707032 9.208984,-1.707032 3.503906,0 6.558594,0.494141 3.054687,0.494141 5.839844,1.617187 v 7.457032 q -2.919922,-1.527344 -5.97461,-2.201172 -3.009765,-0.71875 -6.24414,-0.71875 -3.009766,0 -5.705078,1.167969 -2.650391,1.123046 -4.671875,3.279296 -2.021485,2.15625 -3.189454,5.25586 -1.167968,3.099609 -1.167968,7.007812 0,8.175781 3.953125,12.263672 3.998047,4.0429689 11.050781,4.0429689 3.189453,0 6.154297,-0.71875 3.009765,-0.71875 5.794922,-2.15625 z M 148.91602,0 H 138.17969 L 117.15625,-24.167969 V 0 h -7.81641 v -45.101562 h 7.81641 v 20.61914 l 20.25977,-20.61914 h 10.33203 l -21.15821,20.798828 z m 49.27929,-22.910156 q 0,5.255859 -1.48242,9.658203 -1.48242,4.3574217 -4.26758,7.501953 -2.78515,3.0996094 -6.7832,4.8515625 -3.99805,1.70703125 -9.07422,1.70703125 -4.85156,0 -8.71484,-1.48242187 -3.81836,-1.52734378 -6.51368,-4.44726558 -2.65039,-2.9199219 -4.08789,-7.2324223 -1.39257,-4.3125 -1.39257,-9.927734 0,-5.255859 1.48242,-9.568359 1.48242,-4.357422 4.26758,-7.457032 2.78515,-3.144531 6.7832,-4.851562 3.99805,-1.751953 9.07422,-1.751953 4.85156,0 8.66992,1.527344 3.86328,1.482421 6.51367,4.402343 2.69531,2.875 4.08789,7.1875 1.4375,4.3125 1.4375,9.882813 z m -7.99609,0.359375 q 0,-4.177735 -0.94336,-7.277344 -0.89844,-3.144531 -2.60547,-5.210937 -1.70703,-2.111329 -4.17773,-3.144532 -2.42579,-1.078125 -5.43555,-1.078125 -3.50391,0 -6.01953,1.392578 -2.47071,1.347657 -4.08789,3.638672 -1.57227,2.291016 -2.33594,5.345703 -0.71875,3.009766 -0.71875,6.333985 0,4.177734 0.89844,7.322265 0.94336,3.144532 2.65039,5.2558597 1.70703,2.0664063 4.13281,3.1445313 2.42578,1.0332031 5.48047,1.0332031 3.50391,0 5.97461,-1.3476562 2.51562,-1.3925782 4.08789,-3.6835939 1.61719,-2.291016 2.33594,-5.300781 0.76367,-3.054688 0.76367,-6.423828 z m 57.85937,-0.808594 q 0,6.019531 -1.70703,10.511719 -1.66211,4.4921872 -4.62695,7.457031 -2.96484,2.9648437 -7.00781,4.44726562 -4.04297,1.48242188 -8.75977,1.48242188 -2.15625,0 -4.3125,-0.22460937 -2.11133,-0.22460938 -4.3125,-0.76367188 V 18.417969 h -7.81641 v -63.519531 h 6.9629 l 0.49414,7.546875 q 3.36914,-4.626954 7.1875,-6.46875 3.81836,-1.886719 8.26562,-1.886719 3.86328,0 6.7832,1.617187 2.91993,1.617188 4.89649,4.582032 1.97656,2.919921 2.96484,7.097656 0.98828,4.132812 0.98828,9.253906 z M 240.0625,-23 q 0,-3.548828 -0.53906,-6.513672 -0.49414,-2.964844 -1.61719,-5.076172 -1.12305,-2.111328 -2.875,-3.279297 -1.75195,-1.21289 -4.17773,-1.21289 -1.48243,0 -3.00977,0.49414 -1.52734,0.449219 -3.18945,1.572266 -1.61719,1.078125 -3.45899,2.919922 -1.79687,1.796875 -3.86328,4.492187 v 21.8769535 q 2.15625,0.8984375 4.53711,1.4375 2.38086,0.4941406 4.67188,0.4941406 6.33398,0 9.92773,-4.2675781 Q 240.0625,-14.375 240.0625,-23 Z m 28.48047,-22.101562 v 31.759765 l 19.67578,-31.759765 h 7.45703 V 0 h -7.81641 V -31.759766 L 268.18359,0 h -7.45703 v -45.101562 z m 81.30859,6.738281 H 332.73633 V 0 h -7.90625 v -38.363281 h -17.11524 v -6.738281 h 42.13672 z m 49.50391,13.43164 q 0,1.66211 -0.0449,2.785157 -0.0449,1.123047 -0.13477,2.111328 h -31.66992 q 0,6.917968 3.86328,10.6464841 3.86328,3.6835938 11.14063,3.6835938 1.97656,0 3.95312,-0.1347656 1.97656,-0.1796875 3.81836,-0.4492188 1.8418,-0.2695312 3.50391,-0.5839844 1.70703,-0.359375 3.14453,-0.7636718 v 6.4238281 q -3.18946,0.89843747 -7.23242,1.43749998 -3.99805,0.58398437 -8.31055,0.58398437 -5.79492,0 -9.97266,-1.57226562 -4.17773,-1.57226563 -6.87304,-4.53710933 -2.6504,-3.0097657 -3.95313,-7.3222658 -1.25781,-4.357422 -1.25781,-9.83789 0,-4.761719 1.34765,-8.984375 1.39258,-4.267579 3.99805,-7.457032 2.65039,-3.234375 6.46875,-5.121093 3.81836,-1.886719 8.66992,-1.886719 4.7168,0 8.35547,1.482422 3.63867,1.482422 6.10938,4.222656 2.51562,2.695312 3.77343,6.603516 1.30274,3.863281 1.30274,8.669921 z m -8.13086,-1.123046 q 0.13476,-3.009766 -0.58399,-5.480469 -0.71875,-2.515625 -2.24609,-4.3125 -1.48242,-1.796875 -3.72851,-2.785156 -2.2461,-1.033204 -5.21094,-1.033204 -2.56055,0 -4.67188,0.988282 -2.11133,0.988281 -3.63867,2.785156 -1.52734,1.796875 -2.4707,4.3125 -0.94336,2.515625 -1.16797,5.525391 z M 447.69141,0 H 439.875 v -38.363281 h -12.57813 q -0.53906,9.253906 -1.61718,15.857422 -1.03321,6.603515 -2.51563,11.050781 -1.48242,4.4023436 -3.36914,6.9628905 -1.88672,2.515625 -4.08789,3.68359375 -2.15625,1.12304688 -4.58203,1.078125 -2.42578,0 -4.98633,-0.62890625 l 0.35938,-6.46875 q 1.79687,0.1796875 3.36914,-0.1796875 1.57226,-0.359375 2.91992,-1.7070313 1.34766,-1.3925782 2.42578,-3.9531252 1.12305,-2.605469 2.02148,-6.917968 0.89844,-4.3125 1.52735,-10.556641 0.67383,-6.289063 1.07812,-14.958984 h 27.85157 z m 45.10156,-14.060547 q 0,-1.886719 -0.71875,-3.279297 -0.67383,-1.4375 -2.20117,-2.380859 -1.52735,-0.988281 -3.95313,-1.482422 -2.42578,-0.494141 -5.83984,-0.494141 -2.15625,0 -4.7168,0.04492 -2.56055,0.04492 -4.85156,0.134766 V -6.46875 q 2.29101,0.2246094 4.40234,0.359375 2.15625,0.089844 4.7168,0.089844 3.77344,0 6.28906,-0.4492188 2.51563,-0.4941406 4.04297,-1.4375 1.52734,-0.9882813 2.15625,-2.515625 0.67383,-1.527344 0.67383,-3.638672 z m -22.28125,-14.015625 q 1.12305,-0.04492 2.24609,-0.04492 1.12305,-0.04492 2.29102,-0.04492 1.16797,-0.04492 2.4707,-0.04492 1.30274,-0.04492 2.83008,-0.04492 10.42187,0 15.45312,3.59375 5.07618,3.548828 5.07618,10.421875 0,7.3671871 -5.34571,11.0957027 -5.3457,3.6835938 -16.17187,3.6835938 -4.89649,0 -8.89453,-0.22460937 -3.95313,-0.17968751 -7.77149,-0.67382813 v -44.742187 h 7.81641 z"
       id="text10"
       style="font-size:92px;font-family:Consolas, Consolas_MSFontService, sans-serif"
       transform="matrix(1 0 0 1 840.993 2093)"
       aria-label="ускоритель" /><path
       id="rect10"
       style="fill:#ffffff;stroke:#000000;stroke-width:6.875;stroke-miterlimit:8"
       d="m 3667.5,179.5 h 645 v 569 h -645 z" /><path
       d="m 47.033203,0 h -10.0625 L 15.003906,-28.794922 V 0 H 7.0078125 v -58.712891 h 7.9960935 v 27.267579 L 36.521484,-58.712891 H 46 L 22.820312,-30.816406 Z M 97.03125,-22.910156 q 0,5.255859 -1.482422,9.658203 Q 94.066406,-8.8945313 91.28125,-5.75 88.496094,-2.6503906 84.498047,-0.8984375 80.5,0.80859375 75.423828,0.80859375 q -4.851562,0 -8.714844,-1.48242187 -3.818359,-1.52734378 -6.513672,-4.44726558 -2.65039,-2.9199219 -4.08789,-7.2324223 -1.392578,-4.3125 -1.392578,-9.927734 0,-5.255859 1.482422,-9.568359 1.482421,-4.357422 4.267578,-7.457032 2.785156,-3.144531 6.783203,-4.851562 3.998047,-1.751953 9.074219,-1.751953 4.851562,0 8.669921,1.527344 3.863282,1.482421 6.513672,4.402343 2.695313,2.875 4.087891,7.1875 1.4375,4.3125 1.4375,9.882813 z m -7.996094,0.359375 q 0,-4.177735 -0.943359,-7.277344 -0.898438,-3.144531 -2.605469,-5.210937 -1.707031,-2.111329 -4.177734,-3.144532 -2.425782,-1.078125 -5.435547,-1.078125 -3.503906,0 -6.019531,1.392578 -2.470704,1.347657 -4.087891,3.638672 -1.572266,2.291016 -2.335938,5.345703 -0.71875,3.009766 -0.71875,6.333985 0,4.177734 0.898438,7.322265 0.943359,3.144532 2.650391,5.2558597 1.707031,2.0664063 4.132812,3.1445313 2.425781,1.0332031 5.480469,1.0332031 3.503906,0 5.974609,-1.3476562 2.515625,-1.3925782 4.087891,-3.6835939 1.617187,-2.291016 2.335937,-5.300781 0.763672,-3.054688 0.763672,-6.423828 z M 144.60352,0 h -7.81641 V -19.945312 H 116.16797 V 0 h -7.81641 v -45.101562 h 7.81641 v 18.328125 h 20.61914 v -18.328125 h 7.81641 z m 53.50195,-38.363281 H 180.99023 V 0 h -7.90625 v -38.363281 h -17.11523 v -6.738281 h 42.13672 z m 49.95312,15.003906 q 0,6.019531 -1.70703,10.511719 -1.66211,4.4921872 -4.62695,7.457031 -2.96484,2.9648437 -7.00781,4.44726562 -4.04297,1.48242188 -8.75977,1.48242188 -2.15625,0 -4.3125,-0.22460937 -2.11133,-0.22460938 -4.3125,-0.76367188 V 18.417969 h -7.81641 v -63.519531 h 6.9629 l 0.49414,7.546875 q 3.36914,-4.626954 7.1875,-6.46875 3.81836,-1.886719 8.26562,-1.886719 3.86328,0 6.7832,1.617187 2.91993,1.617188 4.89649,4.582032 1.97656,2.919921 2.96484,7.097656 0.98828,4.132812 0.98828,9.253906 z M 240.0625,-23 q 0,-3.548828 -0.53906,-6.513672 -0.49414,-2.964844 -1.61719,-5.076172 -1.12305,-2.111328 -2.875,-3.279297 -1.75195,-1.21289 -4.17773,-1.21289 -1.48243,0 -3.00977,0.49414 -1.52734,0.449219 -3.18945,1.572266 -1.61719,1.078125 -3.45899,2.919922 -1.79687,1.796875 -3.86328,4.492187 v 21.8769535 q 2.15625,0.8984375 4.53711,1.4375 2.38086,0.4941406 4.67188,0.4941406 6.33398,0 9.92773,-4.2675781 Q 240.0625,-14.375 240.0625,-23 Z m 59.29687,0.08984 q 0,5.255859 -1.48242,9.658203 -1.48242,4.3574217 -4.26758,7.501953 -2.78515,3.0996094 -6.7832,4.8515625 -3.99805,1.70703125 -9.07422,1.70703125 -4.85156,0 -8.71484,-1.48242187 -3.81836,-1.52734378 -6.51367,-4.44726558 -2.65039,-2.9199219 -4.08789,-7.2324223 -1.39258,-4.3125 -1.39258,-9.927734 0,-5.255859 1.48242,-9.568359 1.48242,-4.357422 4.26758,-7.457032 2.78515,-3.144531 6.7832,-4.851562 3.99805,-1.751953 9.07422,-1.751953 4.85156,0 8.66992,1.527344 3.86328,1.482421 6.51367,4.402343 2.69532,2.875 4.08789,7.1875 1.4375,4.3125 1.4375,9.882813 z m -7.99609,0.359375 q 0,-4.177735 -0.94336,-7.277344 -0.89844,-3.144531 -2.60547,-5.210937 -1.70703,-2.111329 -4.17773,-3.144532 -2.42578,-1.078125 -5.43555,-1.078125 -3.5039,0 -6.01953,1.392578 -2.4707,1.347657 -4.08789,3.638672 -1.57227,2.291016 -2.33594,5.345703 -0.71875,3.009766 -0.71875,6.333985 0,4.177734 0.89844,7.322265 0.94336,3.144532 2.65039,5.2558597 1.70703,2.0664063 4.13281,3.1445313 2.42578,1.0332031 5.48047,1.0332031 3.50391,0 5.97461,-1.3476562 2.51563,-1.3925782 4.08789,-3.6835939 1.61719,-2.291016 2.33594,-5.300781 0.76367,-3.054688 0.76367,-6.423828 z M 346.52734,0 h -7.8164 v -38.363281 h -12.57813 q -0.53906,9.253906 -1.61719,15.857422 -1.0332,6.603515 -2.51562,11.050781 -1.48242,4.4023436 -3.36914,6.9628905 -1.88672,2.515625 -4.08789,3.68359375 -2.15625,1.12304688 -4.58203,1.078125 -2.42578,0 -4.98633,-0.62890625 l 0.35937,-6.46875 q 1.79688,0.1796875 3.36914,-0.1796875 1.57227,-0.359375 2.91993,-1.7070313 1.34765,-1.3925782 2.42578,-3.9531252 1.12304,-2.605469 2.02148,-6.917968 0.89844,-4.3125 1.52735,-10.556641 0.67382,-6.289063 1.07812,-14.958984 h 27.85156 z m 50.58203,0 h -7.8164 v -38.363281 h -12.57813 q -0.53906,9.253906 -1.61718,15.857422 -1.03321,6.603515 -2.51563,11.050781 -1.48242,4.4023436 -3.36914,6.9628905 -1.88672,2.515625 -4.08789,3.68359375 -2.15625,1.12304688 -4.58203,1.078125 -2.42578,0 -4.98633,-0.62890625 l 0.35938,-6.46875 q 1.79687,0.1796875 3.36914,-0.1796875 1.57226,-0.359375 2.91992,-1.7070313 1.34765,-1.3925782 2.42578,-3.9531252 1.12305,-2.605469 2.02148,-6.917968 0.89844,-4.3125 1.52735,-10.556641 0.67383,-6.289063 1.07812,-14.958984 h 27.85156 z m 52.82813,-24.931641 q 0,1.66211 -0.0449,2.785157 -0.0449,1.123047 -0.13477,2.111328 h -31.66992 q 0,6.917968 3.86328,10.6464841 3.86328,3.6835938 11.14063,3.6835938 1.97656,0 3.95312,-0.1347656 1.97656,-0.1796875 3.81836,-0.4492188 1.8418,-0.2695312 3.50391,-0.5839844 1.70703,-0.359375 3.14453,-0.7636718 v 6.4238281 q -3.18945,0.89843747 -7.23242,1.43749998 -3.99805,0.58398437 -8.31055,0.58398437 -5.79492,0 -9.97266,-1.57226562 -4.17773,-1.57226563 -6.87304,-4.53710933 -2.65039,-3.0097657 -3.95313,-7.3222658 -1.25781,-4.357422 -1.25781,-9.83789 0,-4.761719 1.34766,-8.984375 1.39257,-4.267579 3.99804,-7.457032 2.65039,-3.234375 6.46875,-5.121093 3.81836,-1.886719 8.66992,-1.886719 4.7168,0 8.35547,1.482422 3.63867,1.482422 6.10938,4.222656 2.51562,2.695312 3.77344,6.603516 1.30273,3.863281 1.30273,8.669921 z m -8.13086,-1.123046 q 0.13477,-3.009766 -0.58398,-5.480469 -0.71875,-2.515625 -2.2461,-4.3125 -1.48242,-1.796875 -3.72851,-2.785156 -2.2461,-1.033204 -5.21094,-1.033204 -2.56055,0 -4.67188,0.988282 -2.11132,0.988281 -3.63867,2.785156 -1.52734,1.796875 -2.4707,4.3125 -0.94336,2.515625 -1.16797,5.525391 z m 59.16211,2.695312 q 0,6.019531 -1.70703,10.511719 -1.66211,4.4921872 -4.62695,7.457031 -2.96485,2.9648437 -7.00782,4.44726562 -4.04297,1.48242188 -8.75976,1.48242188 -2.15625,0 -4.3125,-0.22460937 -2.11133,-0.22460938 -4.3125,-0.76367188 V 18.417969 h -7.81641 v -63.519531 h 6.96289 l 0.49414,7.546875 q 3.36914,-4.626954 7.1875,-6.46875 3.81836,-1.886719 8.26563,-1.886719 3.86328,0 6.7832,1.617187 2.91992,1.617188 4.89648,4.582032 1.97657,2.919921 2.96485,7.097656 0.98828,4.132812 0.98828,9.253906 z M 492.97266,-23 q 0,-3.548828 -0.53907,-6.513672 -0.49414,-2.964844 -1.61718,-5.076172 -1.12305,-2.111328 -2.875,-3.279297 -1.75196,-1.21289 -4.17774,-1.21289 -1.48242,0 -3.00976,0.49414 -1.52735,0.449219 -3.18946,1.572266 -1.61718,1.078125 -3.45898,2.919922 -1.79688,1.796875 -3.86328,4.492187 v 21.8769535 q 2.15625,0.8984375 4.53711,1.4375 2.38086,0.4941406 4.67187,0.4941406 6.33399,0 9.92774,-4.2675781 3.59375,-4.3125 3.59375,-12.9375 z"
       id="text11"
       style="font-size:92px;font-family:Consolas, Consolas_MSFontService, sans-serif"
       transform="matrix(1 0 0 1 3737.11 440)"
       aria-label="Контроллер" /><path
       d="m 50.132812,0 h -8.714843 l -4.087891,-12.802734 h -24.4375 L 8.7597656,0 H 0.44921875 L 19.945312,-58.712891 H 30.90625 Z m -15.09375,-19.945312 -9.927734,-31.400391 -9.927734,31.400391 z M 99.996094,-6.9179687 99.412109,12.712891 H 92.269531 V 0 H 56.287109 v -58.712891 h 7.996094 v 51.7949223 h 22.28125 V -58.712891 h 7.996094 V -6.9179687 Z M 146.49023,0 h -7.99609 V -51.615234 H 114.41602 V 0 h -7.9961 v -58.712891 h 40.07031 z"
       id="text12"
       style="font-size:92px;font-family:Consolas, Consolas_MSFontService, sans-serif"
       transform="matrix(1 0 0 1 3913.57 550)"
       aria-label="АЦП" /><path
       id="rect12"
       style="fill:#ffffff;stroke:#000000;stroke-width:6.875;stroke-miterlimit:8"
       d="m 3667.5,953.5 h 645 v 569 h -645 z" /><path
       d="m 47.033203,0 h -10.0625 L 15.003906,-28.794922 V 0 H 7.0078125 v -58.712891 h 7.9960935 v 27.267579 L 36.521484,-58.712891 H 46 L 22.820312,-30.816406 Z M 97.03125,-22.910156 q 0,5.255859 -1.482422,9.658203 Q 94.066406,-8.8945313 91.28125,-5.75 88.496094,-2.6503906 84.498047,-0.8984375 80.5,0.80859375 75.423828,0.80859375 q -4.851562,0 -8.714844,-1.48242187 -3.818359,-1.52734378 -6.513672,-4.44726558 -2.65039,-2.9199219 -4.08789,-7.2324223 -1.392578,-4.3125 -1.392578,-9.927734 0,-5.255859 1.482422,-9.568359 1.482421,-4.357422 4.267578,-7.457032 2.785156,-3.144531 6.783203,-4.851562 3.998047,-1.751953 9.074219,-1.751953 4.851562,0 8.669921,1.527344 3.863282,1.482421 6.513672,4.402343 2.695313,2.875 4.087891,7.1875 1.4375,4.3125 1.4375,9.882813 z m -7.996094,0.359375 q 0,-4.177735 -0.943359,-7.277344 -0.898438,-3.144531 -2.605469,-5.210937 -1.707031,-2.111329 -4.177734,-3.144532 -2.425782,-1.078125 -5.435547,-1.078125 -3.503906,0 -6.019531,1.392578 -2.470704,1.347657 -4.087891,3.638672 -1.572266,2.291016 -2.335938,5.345703 -0.71875,3.009766 -0.71875,6.333985 0,4.177734 0.898438,7.322265 0.943359,3.144532 2.650391,5.2558597 1.707031,2.0664063 4.132812,3.1445313 2.425781,1.0332031 5.480469,1.0332031 3.503906,0 5.974609,-1.3476562 2.515625,-1.3925782 4.087891,-3.6835939 1.617187,-2.291016 2.335937,-5.300781 0.763672,-3.054688 0.763672,-6.423828 z M 144.60352,0 h -7.81641 V -19.945312 H 116.16797 V 0 h -7.81641 v -45.101562 h 7.81641 v 18.328125 h 20.61914 v -18.328125 h 7.81641 z m 53.50195,-38.363281 H 180.99023 V 0 h -7.90625 v -38.363281 h -17.11523 v -6.738281 h 42.13672 z m 49.95312,15.003906 q 0,6.019531 -1.70703,10.511719 -1.66211,4.4921872 -4.62695,7.457031 -2.96484,2.9648437 -7.00781,4.44726562 -4.04297,1.48242188 -8.75977,1.48242188 -2.15625,0 -4.3125,-0.22460937 -2.11133,-0.22460938 -4.3125,-0.76367188 V 18.417969 h -7.81641 v -63.519531 h 6.9629 l 0.49414,7.546875 q 3.36914,-4.626954 7.1875,-6.46875 3.81836,-1.886719 8.26562,-1.886719 3.86328,0 6.7832,1.617187 2.91993,1.617188 4.89649,4.582032 1.97656,2.919921 2.96484,7.097656 0.98828,4.132812 0.98828,9.253906 z M 240.0625,-23 q 0,-3.548828 -0.53906,-6.513672 -0.49414,-2.964844 -1.61719,-5.076172 -1.12305,-2.111328 -2.875,-3.279297 -1.75195,-1.21289 -4.17773,-1.21289 -1.48243,0 -3.00977,0.49414 -1.52734,0.449219 -3.18945,1.572266 -1.61719,1.078125 -3.45899,2.919922 -1.79687,1.796875 -3.86328,4.492187 v 21.8769535 q 2.15625,0.8984375 4.53711,1.4375 2.38086,0.4941406 4.67188,0.4941406 6.33398,0 9.92773,-4.2675781 Q 240.0625,-14.375 240.0625,-23 Z m 59.29687,0.08984 q 0,5.255859 -1.48242,9.658203 -1.48242,4.3574217 -4.26758,7.501953 -2.78515,3.0996094 -6.7832,4.8515625 -3.99805,1.70703125 -9.07422,1.70703125 -4.85156,0 -8.71484,-1.48242187 -3.81836,-1.52734378 -6.51367,-4.44726558 -2.65039,-2.9199219 -4.08789,-7.2324223 -1.39258,-4.3125 -1.39258,-9.927734 0,-5.255859 1.48242,-9.568359 1.48242,-4.357422 4.26758,-7.457032 2.78515,-3.144531 6.7832,-4.851562 3.99805,-1.751953 9.07422,-1.751953 4.85156,0 8.66992,1.527344 3.86328,1.482421 6.51367,4.402343 2.69532,2.875 4.08789,7.1875 1.4375,4.3125 1.4375,9.882813 z m -7.99609,0.359375 q 0,-4.177735 -0.94336,-7.277344 -0.89844,-3.144531 -2.60547,-5.210937 -1.70703,-2.111329 -4.17773,-3.144532 -2.42578,-1.078125 -5.43555,-1.078125 -3.5039,0 -6.01953,1.392578 -2.4707,1.347657 -4.08789,3.638672 -1.57227,2.291016 -2.33594,5.345703 -0.71875,3.009766 -0.71875,6.333985 0,4.177734 0.89844,7.322265 0.94336,3.144532 2.65039,5.2558597 1.70703,2.0664063 4.13281,3.1445313 2.42578,1.0332031 5.48047,1.0332031 3.50391,0 5.97461,-1.3476562 2.51563,-1.3925782 4.08789,-3.6835939 1.61719,-2.291016 2.33594,-5.300781 0.76367,-3.054688 0.76367,-6.423828 z M 346.52734,0 h -7.8164 v -38.363281 h -12.57813 q -0.53906,9.253906 -1.61719,15.857422 -1.0332,6.603515 -2.51562,11.050781 -1.48242,4.4023436 -3.36914,6.9628905 -1.88672,2.515625 -4.08789,3.68359375 -2.15625,1.12304688 -4.58203,1.078125 -2.42578,0 -4.98633,-0.62890625 l 0.35937,-6.46875 q 1.79688,0.1796875 3.36914,-0.1796875 1.57227,-0.359375 2.91993,-1.7070313 1.34765,-1.3925782 2.42578,-3.9531252 1.12304,-2.605469 2.02148,-6.917968 0.89844,-4.3125 1.52735,-10.556641 0.67382,-6.289063 1.07812,-14.958984 h 27.85156 z m 50.58203,0 h -7.8164 v -38.363281 h -12.57813 q -0.53906,9.253906 -1.61718,15.857422 -1.03321,6.603515 -2.51563,11.050781 -1.48242,4.4023436 -3.36914,6.9628905 -1.88672,2.515625 -4.08789,3.68359375 -2.15625,1.12304688 -4.58203,1.078125 -2.42578,0 -4.98633,-0.62890625 l 0.35938,-6.46875 q 1.79687,0.1796875 3.36914,-0.1796875 1.57226,-0.359375 2.91992,-1.7070313 1.34765,-1.3925782 2.42578,-3.9531252 1.12305,-2.605469 2.02148,-6.917968 0.89844,-4.3125 1.52735,-10.556641 0.67383,-6.289063 1.07812,-14.958984 h 27.85156 z m 52.82813,-24.931641 q 0,1.66211 -0.0449,2.785157 -0.0449,1.123047 -0.13477,2.111328 h -31.66992 q 0,6.917968 3.86328,10.6464841 3.86328,3.6835938 11.14063,3.6835938 1.97656,0 3.95312,-0.1347656 1.97656,-0.1796875 3.81836,-0.4492188 1.8418,-0.2695312 3.50391,-0.5839844 1.70703,-0.359375 3.14453,-0.7636718 v 6.4238281 q -3.18945,0.89843747 -7.23242,1.43749998 -3.99805,0.58398437 -8.31055,0.58398437 -5.79492,0 -9.97266,-1.57226562 -4.17773,-1.57226563 -6.87304,-4.53710933 -2.65039,-3.0097657 -3.95313,-7.3222658 -1.25781,-4.357422 -1.25781,-9.83789 0,-4.761719 1.34766,-8.984375 1.39257,-4.267579 3.99804,-7.457032 2.65039,-3.234375 6.46875,-5.121093 3.81836,-1.886719 8.66992,-1.886719 4.7168,0 8.35547,1.482422 3.63867,1.482422 6.10938,4.222656 2.51562,2.695312 3.77344,6.603516 1.30273,3.863281 1.30273,8.669921 z m -8.13086,-1.123046 q 0.13477,-3.009766 -0.58398,-5.480469 -0.71875,-2.515625 -2.2461,-4.3125 -1.48242,-1.796875 -3.72851,-2.785156 -2.2461,-1.033204 -5.21094,-1.033204 -2.56055,0 -4.67188,0.988282 -2.11132,0.988281 -3.63867,2.785156 -1.52734,1.796875 -2.4707,4.3125 -0.94336,2.515625 -1.16797,5.525391 z m 59.16211,2.695312 q 0,6.019531 -1.70703,10.511719 -1.66211,4.4921872 -4.62695,7.457031 -2.96485,2.9648437 -7.00782,4.44726562 -4.04297,1.48242188 -8.75976,1.48242188 -2.15625,0 -4.3125,-0.22460937 -2.11133,-0.22460938 -4.3125,-0.76367188 V 18.417969 h -7.81641 v -63.519531 h 6.96289 l 0.49414,7.546875 q 3.36914,-4.626954 7.1875,-6.46875 3.81836,-1.886719 8.26563,-1.886719 3.86328,0 6.7832,1.617187 2.91992,1.617188 4.89648,4.582032 1.97657,2.919921 2.96485,7.097656 0.98828,4.132812 0.98828,9.253906 z M 492.97266,-23 q 0,-3.548828 -0.53907,-6.513672 -0.49414,-2.964844 -1.61718,-5.076172 -1.12305,-2.111328 -2.875,-3.279297 -1.75196,-1.21289 -4.17774,-1.21289 -1.48242,0 -3.00976,0.49414 -1.52735,0.449219 -3.18946,1.572266 -1.61718,1.078125 -3.45898,2.919922 -1.79688,1.796875 -3.86328,4.492187 v 21.8769535 q 2.15625,0.8984375 4.53711,1.4375 2.38086,0.4941406 4.67187,0.4941406 6.33399,0 9.92774,-4.2675781 3.59375,-4.3125 3.59375,-12.9375 z"
       id="text13"
       style="font-size:92px;font-family:Consolas, Consolas_MSFontService, sans-serif"
       transform="matrix(1 0 0 1 3737.11 1214)"
       aria-label="Контроллер" /><path
       d="m 44.787109,-15.902344 q 0,4.177735 -1.707031,7.3222659 -1.707031,3.1445312 -4.761719,5.2558593 -3.054687,2.0664063 -7.367187,3.09960942 -4.267578,1.03320313 -9.433594,1.03320313 -2.335937,0 -4.671875,-0.1796875 Q 14.554688,0.44921875 12.398438,0.1796875 10.287109,-0.08984375 8.4003906,-0.44921875 6.5136719,-0.80859375 4.9863281,-1.2128906 v -7.7265625 q 3.3691407,1.2578125 7.5468749,1.9765625 4.222656,0.71875 9.568359,0.71875 3.863282,0 6.558594,-0.5839844 2.740235,-0.6289062 4.447266,-1.796875 1.751953,-1.2128906 2.515625,-2.919922 0.808594,-1.707031 0.808594,-3.908203 0,-2.380859 -1.347657,-4.042969 -1.302734,-1.707031 -3.458984,-3.009765 -2.15625,-1.347657 -4.941406,-2.425782 -2.740235,-1.123046 -5.615235,-2.291015 -2.875,-1.167969 -5.660156,-2.515625 -2.740234,-1.392578 -4.896484,-3.234375 -2.1562502,-1.886719 -3.5039065,-4.402344 -1.3027344,-2.515625 -1.3027344,-5.974609 0,-3.009766 1.2578125,-5.929688 1.2578125,-2.919922 3.9082034,-5.166015 2.65039,-2.291016 6.783203,-3.683594 4.177734,-1.392578 9.927734,-1.392578 1.482422,0 3.189453,0.134765 1.751953,0.134766 3.503907,0.404297 1.796875,0.22461 3.503906,0.539063 1.751953,0.314453 3.234375,0.673828 v 7.1875 q -3.458985,-0.988281 -6.917969,-1.482422 -3.458984,-0.539063 -6.693359,-0.539063 -6.873047,0 -10.107422,2.291016 -3.234375,2.291016 -3.234375,6.154297 0,2.380859 1.302734,4.087891 1.347656,1.707031 3.503906,3.054687 2.15625,1.347656 4.896485,2.470703 2.785156,1.078125 5.660156,2.246094 2.875,1.167969 5.615234,2.560547 2.785157,1.392578 4.941407,3.324219 2.15625,1.886718 3.458984,4.447265 1.347656,2.560547 1.347656,6.064453 z m 51.435547,-24.841797 q 0,3.59375 -1.347656,7.142579 -1.347656,3.503906 -4.177734,6.289062 -2.830079,2.785156 -7.232422,4.537109 -4.402344,1.707032 -10.511719,1.707032 H 65.675781 V 0 h -7.996094 v -58.712891 h 16.53125 q 4.357422,0 8.355469,0.988282 3.998047,0.943359 7.007813,3.099609 3.054687,2.15625 4.851562,5.570313 1.796875,3.414062 1.796875,8.310546 z m -8.310547,0.359375 q 0,-5.660156 -3.728515,-8.669921 Q 80.5,-52.064453 73.851562,-52.064453 h -8.175781 v 24.167969 h 7.457031 q 7.097657,0 10.916016,-3.09961 3.863281,-3.099609 3.863281,-9.388672 z m 34.500001,-11.589843 h -13.52148 v -6.738282 h 35.1289 v 6.738282 h -13.52148 v 45.146484 h 13.52148 V 0 h -35.1289 v -6.828125 h 13.52148 z"
       id="text14"
       style="font-size:92px;font-family:Consolas, Consolas_MSFontService, sans-serif"
       transform="matrix(1 0 0 1 3913.57 1324)"
       aria-label="SPI" /><path
       id="rect14"
       style="fill:#ffffff;stroke:#000000;stroke-width:6.875;stroke-miterlimit:8"
       d="m 2796.5,179.5 h 645 v 1341 h -645 z" /><path
       d="m 50.132812,0 h -8.714843 l -4.087891,-12.802734 h -24.4375 L 8.7597656,0 H 0.44921875 L 19.945312,-58.712891 H 30.90625 Z m -15.09375,-19.945312 -9.927734,-31.400391 -9.927734,31.400391 z M 100.08594,0 H 89.978516 L 75.693359,-23.71875 61.363281,0 h -9.972656 l 19.541016,-30.007812 -17.96875,-28.705079 h 9.478515 l 13.431641,22.101563 13.521484,-22.101563 h 9.208985 l -18.013672,28.345704 z m 22.32617,-51.974609 h -13.52148 v -6.738282 h 35.1289 v 6.738282 h -13.52148 v 45.146484 h 13.52148 V 0 h -35.1289 v -6.828125 h 13.52148 z"
       id="text15"
       style="font-size:92px;font-family:Consolas, Consolas_MSFontService, sans-serif"
       transform="matrix(1 0 0 1 2866.42 825)"
       aria-label="AXI" /><path
       d="M 38.722656,-20.798828 H 11.859375 v -7.367188 h 26.863281 z"
       id="text16"
       style="font-size:92px;font-family:Consolas, Consolas_MSFontService, sans-serif"
       transform="matrix(1 0 0 1 3017.67 825)"
       aria-label="-" /><path
       d="m 44.787109,-15.902344 q 0,4.177735 -1.707031,7.3222659 -1.707031,3.1445312 -4.761719,5.2558593 -3.054687,2.0664063 -7.367187,3.09960942 -4.267578,1.03320313 -9.433594,1.03320313 -2.335937,0 -4.671875,-0.1796875 Q 14.554688,0.44921875 12.398438,0.1796875 10.287109,-0.08984375 8.4003906,-0.44921875 6.5136719,-0.80859375 4.9863281,-1.2128906 v -7.7265625 q 3.3691407,1.2578125 7.5468749,1.9765625 4.222656,0.71875 9.568359,0.71875 3.863282,0 6.558594,-0.5839844 2.740235,-0.6289062 4.447266,-1.796875 1.751953,-1.2128906 2.515625,-2.919922 0.808594,-1.707031 0.808594,-3.908203 0,-2.380859 -1.347657,-4.042969 -1.302734,-1.707031 -3.458984,-3.009765 -2.15625,-1.347657 -4.941406,-2.425782 -2.740235,-1.123046 -5.615235,-2.291015 -2.875,-1.167969 -5.660156,-2.515625 -2.740234,-1.392578 -4.896484,-3.234375 -2.1562502,-1.886719 -3.5039065,-4.402344 -1.3027344,-2.515625 -1.3027344,-5.974609 0,-3.009766 1.2578125,-5.929688 1.2578125,-2.919922 3.9082034,-5.166015 2.65039,-2.291016 6.783203,-3.683594 4.177734,-1.392578 9.927734,-1.392578 1.482422,0 3.189453,0.134765 1.751953,0.134766 3.503907,0.404297 1.796875,0.22461 3.503906,0.539063 1.751953,0.314453 3.234375,0.673828 v 7.1875 q -3.458985,-0.988281 -6.917969,-1.482422 -3.458984,-0.539063 -6.693359,-0.539063 -6.873047,0 -10.107422,2.291016 -3.234375,2.291016 -3.234375,6.154297 0,2.380859 1.302734,4.087891 1.347656,1.707031 3.503906,3.054687 2.15625,1.347656 4.896485,2.470703 2.785156,1.078125 5.660156,2.246094 2.875,1.167969 5.615234,2.560547 2.785157,1.392578 4.941407,3.324219 2.15625,1.886718 3.458984,4.447265 1.347656,2.560547 1.347656,6.064453 z m 49.324219,15.27343775 q -2.650391,0.67382812 -5.480469,0.94335938 -2.830078,0.31445312 -5.75,0.31445312 -8.490234,0 -12.667968,-3.81835935 -4.177735,-3.8632813 -4.177735,-11.8144529 V -38.542969 H 53.412109 v -6.558593 H 66.035156 V -57.5 l 7.816406,-2.021484 v 14.419922 h 20.259766 v 6.558593 H 73.851562 v 22.910156 q 0,4.851563 2.560547,7.2773442 2.605469,2.3808594 7.636719,2.3808594 2.15625,0 4.716797,-0.3144531 2.560547,-0.359375 5.345703,-1.078125 z M 110.19336,-45.101562 h 7.14258 l 0.22461,8.310546 q 3.99804,-4.80664 7.86133,-6.96289 3.9082,-2.15625 7.86132,-2.15625 7.00782,0 10.60157,4.537109 3.63867,4.53711 3.36914,13.476563 h -7.90625 q 0.13476,-5.929688 -1.75196,-8.580078 -1.84179,-2.695313 -5.43554,-2.695313 -1.57227,0 -3.18946,0.583984 -1.57226,0.539063 -3.27929,1.796875 -1.66211,1.212891 -3.54883,3.144532 -1.88672,1.93164 -4.04297,4.671875 V 0 h -7.90625 z m 86.83398,20.169921 q 0,1.66211 -0.0449,2.785157 -0.0449,1.123047 -0.13476,2.111328 h -31.66993 q 0,6.917968 3.86329,10.6464841 3.86328,3.6835938 11.14062,3.6835938 1.97656,0 3.95313,-0.1347656 1.97656,-0.1796875 3.81835,-0.4492188 1.8418,-0.2695312 3.50391,-0.5839844 1.70703,-0.359375 3.14453,-0.7636718 v 6.4238281 q -3.18945,0.89843747 -7.23242,1.43749998 -3.99805,0.58398437 -8.31055,0.58398437 -5.79492,0 -9.97265,-1.57226562 -4.17774,-1.57226563 -6.87305,-4.53710933 -2.65039,-3.0097657 -3.95312,-7.3222658 -1.25782,-4.357422 -1.25782,-9.83789 0,-4.761719 1.34766,-8.984375 1.39258,-4.267579 3.99805,-7.457032 2.65039,-3.234375 6.46875,-5.121093 3.81836,-1.886719 8.66992,-1.886719 4.71679,0 8.35547,1.482422 3.63867,1.482422 6.10937,4.222656 2.51563,2.695312 3.77344,6.603516 1.30273,3.863281 1.30273,8.669921 z m -8.13086,-1.123046 q 0.13477,-3.009766 -0.58398,-5.480469 -0.71875,-2.515625 -2.24609,-4.3125 -1.48243,-1.796875 -3.72852,-2.785156 -2.24609,-1.033204 -5.21094,-1.033204 -2.56054,0 -4.67187,0.988282 -2.11133,0.988281 -3.63867,2.785156 -1.52735,1.796875 -2.47071,4.3125 -0.94336,2.515625 -1.16797,5.525391 z M 238.49023,0 238.31055,-6.0644531 q -3.6836,3.6386718 -7.50196,5.25585935 -3.77343,1.6171875 -7.95117,1.6171875 -3.86328,0 -6.60351,-0.98828125 -2.74024,-0.9882812 -4.53711,-2.6953125 -1.75196,-1.7519531 -2.60547,-4.0878906 -0.8086,-2.3359375 -0.8086,-5.0761724 0,-6.783203 5.03125,-10.601562 5.07618,-3.863281 14.95899,-3.863281 h 9.34375 v -3.953125 q 0,-3.998047 -2.56055,-6.378906 -2.56055,-2.425782 -7.8164,-2.425782 -3.81836,0 -7.54688,0.853516 -3.68359,0.853516 -7.63672,2.425781 v -7.052734 q 1.48242,-0.539063 3.2793,-1.033203 1.8418,-0.539063 3.86328,-0.94336 2.02148,-0.404297 4.22266,-0.628906 2.20117,-0.269531 4.44726,-0.269531 4.08789,0 7.36719,0.898437 3.2793,0.898438 5.52539,2.740235 2.29102,1.841797 3.50391,4.626953 1.21289,2.785156 1.21289,6.558594 V 0 Z m -0.85351,-20.529297 h -9.92774 q -2.91992,0 -5.03125,0.583985 -2.11132,0.583984 -3.45898,1.662109 -1.34766,1.078125 -2.02148,2.605469 -0.62891,1.482421 -0.62891,3.36914 0,1.302735 0.4043,2.5156252 0.40429,1.1679688 1.30273,2.1113282 0.89844,0.8984375 2.33594,1.4375 1.4375,0.5390625 3.5039,0.5390625 2.69532,0 6.1543,-1.6171875 3.50391,-1.6621094 7.36719,-5.2109374 z M 292.26172,0 v -32.388672 q 0,-2.111328 -0.17969,-3.458984 -0.13476,-1.347656 -0.49414,-2.111328 -0.31445,-0.808594 -0.85352,-1.123047 -0.49414,-0.314453 -1.25781,-0.314453 -0.89844,0 -1.66211,0.539062 -0.76367,0.539063 -1.66211,1.751953 -0.85351,1.212891 -1.93164,3.234375 -1.0332,1.976563 -2.4707,4.896485 V 0 h -7.14258 v -31.535156 q 0,-2.470703 -0.17969,-3.998047 -0.13476,-1.527344 -0.49414,-2.380859 -0.31445,-0.853516 -0.85351,-1.167969 -0.53906,-0.314453 -1.30274,-0.314453 -0.80859,0 -1.52734,0.449218 -0.71875,0.449219 -1.61719,1.617188 -0.85351,1.167969 -1.93164,3.189453 -1.07812,2.021484 -2.56055,5.166016 V 0 h -7.1875 v -45.101562 h 5.97461 l 0.35938,8.580078 q 1.16797,-2.560547 2.24609,-4.357422 1.12305,-1.796875 2.29102,-2.875 1.16797,-1.123047 2.4707,-1.617188 1.34766,-0.539062 2.96485,-0.539062 3.63867,0 5.52539,2.380859 1.88671,2.38086 1.88671,7.367188 1.07813,-2.335938 2.11133,-4.132813 1.03321,-1.841797 2.20117,-3.054687 1.2129,-1.257813 2.6504,-1.886719 1.4375,-0.673828 3.32421,-0.673828 8.49024,0 8.49024,13.072265 V 0 Z"
       id="text17"
       style="font-size:92px;font-family:Consolas, Consolas_MSFontService, sans-serif"
       transform="matrix(1 0 0 1 3068.08 825)"
       aria-label="Stream" /><path
       d="m 50.132812,0 h -8.714843 l -4.087891,-12.802734 h -24.4375 L 8.7597656,0 H 0.44921875 L 19.945312,-58.712891 H 30.90625 Z m -15.09375,-19.945312 -9.927734,-31.400391 -9.927734,31.400391 z M 100.08594,0 H 89.978516 L 75.693359,-23.71875 61.363281,0 h -9.972656 l 19.541016,-30.007812 -17.96875,-28.705079 h 9.478515 l 13.431641,22.101563 13.521484,-22.101563 h 9.208985 l -18.013672,28.345704 z m 22.32617,-51.974609 h -13.52148 v -6.738282 h 35.1289 v 6.738282 h -13.52148 v 45.146484 h 13.52148 V 0 h -35.1289 v -6.828125 h 13.52148 z m 77.53516,38.992187 H 189.92969 V 0 h -7.9961 v -12.982422 h -28.25586 v -6.873047 l 25.02149,-38.857422 h 11.23047 v 38.857422 h 10.01758 z m -18.01368,-38.183594 -20.43945,31.310547 h 20.43945 z"
       id="text18"
       style="font-size:92px;font-family:Consolas, Consolas_MSFontService, sans-serif"
       transform="matrix(1 0 0 1 3017.67 935)"
       aria-label="AXI4" /><path
       id="rect18"
       style="fill:#ffffff;stroke:#000000;stroke-width:6.875;stroke-miterlimit:8"
       d="m 3667.5,1723.5 h 645 v 569 h -645 z" /><path
       d="m 47.033203,0 h -10.0625 L 15.003906,-28.794922 V 0 H 7.0078125 v -58.712891 h 7.9960935 v 27.267579 L 36.521484,-58.712891 H 46 L 22.820312,-30.816406 Z M 97.03125,-22.910156 q 0,5.255859 -1.482422,9.658203 Q 94.066406,-8.8945313 91.28125,-5.75 88.496094,-2.6503906 84.498047,-0.8984375 80.5,0.80859375 75.423828,0.80859375 q -4.851562,0 -8.714844,-1.48242187 -3.818359,-1.52734378 -6.513672,-4.44726558 -2.65039,-2.9199219 -4.08789,-7.2324223 -1.392578,-4.3125 -1.392578,-9.927734 0,-5.255859 1.482422,-9.568359 1.482421,-4.357422 4.267578,-7.457032 2.785156,-3.144531 6.783203,-4.851562 3.998047,-1.751953 9.074219,-1.751953 4.851562,0 8.669921,1.527344 3.863282,1.482421 6.513672,4.402343 2.695313,2.875 4.087891,7.1875 1.4375,4.3125 1.4375,9.882813 z m -7.996094,0.359375 q 0,-4.177735 -0.943359,-7.277344 -0.898438,-3.144531 -2.605469,-5.210937 -1.707031,-2.111329 -4.177734,-3.144532 -2.425782,-1.078125 -5.435547,-1.078125 -3.503906,0 -6.019531,1.392578 -2.470704,1.347657 -4.087891,3.638672 -1.572266,2.291016 -2.335938,5.345703 -0.71875,3.009766 -0.71875,6.333985 0,4.177734 0.898438,7.322265 0.943359,3.144532 2.650391,5.2558597 1.707031,2.0664063 4.132812,3.1445313 2.425781,1.0332031 5.480469,1.0332031 3.503906,0 5.974609,-1.3476562 2.515625,-1.3925782 4.087891,-3.6835939 1.617187,-2.291016 2.335937,-5.300781 0.763672,-3.054688 0.763672,-6.423828 z M 144.60352,0 h -7.81641 V -19.945312 H 116.16797 V 0 h -7.81641 v -45.101562 h 7.81641 v 18.328125 h 20.61914 v -18.328125 h 7.81641 z m 53.50195,-38.363281 H 180.99023 V 0 h -7.90625 v -38.363281 h -17.11523 v -6.738281 h 42.13672 z m 49.95312,15.003906 q 0,6.019531 -1.70703,10.511719 -1.66211,4.4921872 -4.62695,7.457031 -2.96484,2.9648437 -7.00781,4.44726562 -4.04297,1.48242188 -8.75977,1.48242188 -2.15625,0 -4.3125,-0.22460937 -2.11133,-0.22460938 -4.3125,-0.76367188 V 18.417969 h -7.81641 v -63.519531 h 6.9629 l 0.49414,7.546875 q 3.36914,-4.626954 7.1875,-6.46875 3.81836,-1.886719 8.26562,-1.886719 3.86328,0 6.7832,1.617187 2.91993,1.617188 4.89649,4.582032 1.97656,2.919921 2.96484,7.097656 0.98828,4.132812 0.98828,9.253906 z M 240.0625,-23 q 0,-3.548828 -0.53906,-6.513672 -0.49414,-2.964844 -1.61719,-5.076172 -1.12305,-2.111328 -2.875,-3.279297 -1.75195,-1.21289 -4.17773,-1.21289 -1.48243,0 -3.00977,0.49414 -1.52734,0.449219 -3.18945,1.572266 -1.61719,1.078125 -3.45899,2.919922 -1.79687,1.796875 -3.86328,4.492187 v 21.8769535 q 2.15625,0.8984375 4.53711,1.4375 2.38086,0.4941406 4.67188,0.4941406 6.33398,0 9.92773,-4.2675781 Q 240.0625,-14.375 240.0625,-23 Z m 59.29687,0.08984 q 0,5.255859 -1.48242,9.658203 -1.48242,4.3574217 -4.26758,7.501953 -2.78515,3.0996094 -6.7832,4.8515625 -3.99805,1.70703125 -9.07422,1.70703125 -4.85156,0 -8.71484,-1.48242187 -3.81836,-1.52734378 -6.51367,-4.44726558 -2.65039,-2.9199219 -4.08789,-7.2324223 -1.39258,-4.3125 -1.39258,-9.927734 0,-5.255859 1.48242,-9.568359 1.48242,-4.357422 4.26758,-7.457032 2.78515,-3.144531 6.7832,-4.851562 3.99805,-1.751953 9.07422,-1.751953 4.85156,0 8.66992,1.527344 3.86328,1.482421 6.51367,4.402343 2.69532,2.875 4.08789,7.1875 1.4375,4.3125 1.4375,9.882813 z m -7.99609,0.359375 q 0,-4.177735 -0.94336,-7.277344 -0.89844,-3.144531 -2.60547,-5.210937 -1.70703,-2.111329 -4.17773,-3.144532 -2.42578,-1.078125 -5.43555,-1.078125 -3.5039,0 -6.01953,1.392578 -2.4707,1.347657 -4.08789,3.638672 -1.57227,2.291016 -2.33594,5.345703 -0.71875,3.009766 -0.71875,6.333985 0,4.177734 0.89844,7.322265 0.94336,3.144532 2.65039,5.2558597 1.70703,2.0664063 4.13281,3.1445313 2.42578,1.0332031 5.48047,1.0332031 3.50391,0 5.97461,-1.3476562 2.51563,-1.3925782 4.08789,-3.6835939 1.61719,-2.291016 2.33594,-5.300781 0.76367,-3.054688 0.76367,-6.423828 z M 346.52734,0 h -7.8164 v -38.363281 h -12.57813 q -0.53906,9.253906 -1.61719,15.857422 -1.0332,6.603515 -2.51562,11.050781 -1.48242,4.4023436 -3.36914,6.9628905 -1.88672,2.515625 -4.08789,3.68359375 -2.15625,1.12304688 -4.58203,1.078125 -2.42578,0 -4.98633,-0.62890625 l 0.35937,-6.46875 q 1.79688,0.1796875 3.36914,-0.1796875 1.57227,-0.359375 2.91993,-1.7070313 1.34765,-1.3925782 2.42578,-3.9531252 1.12304,-2.605469 2.02148,-6.917968 0.89844,-4.3125 1.52735,-10.556641 0.67382,-6.289063 1.07812,-14.958984 h 27.85156 z m 50.58203,0 h -7.8164 v -38.363281 h -12.57813 q -0.53906,9.253906 -1.61718,15.857422 -1.03321,6.603515 -2.51563,11.050781 -1.48242,4.4023436 -3.36914,6.9628905 -1.88672,2.515625 -4.08789,3.68359375 -2.15625,1.12304688 -4.58203,1.078125 -2.42578,0 -4.98633,-0.62890625 l 0.35938,-6.46875 q 1.79687,0.1796875 3.36914,-0.1796875 1.57226,-0.359375 2.91992,-1.7070313 1.34765,-1.3925782 2.42578,-3.9531252 1.12305,-2.605469 2.02148,-6.917968 0.89844,-4.3125 1.52735,-10.556641 0.67383,-6.289063 1.07812,-14.958984 h 27.85156 z m 52.82813,-24.931641 q 0,1.66211 -0.0449,2.785157 -0.0449,1.123047 -0.13477,2.111328 h -31.66992 q 0,6.917968 3.86328,10.6464841 3.86328,3.6835938 11.14063,3.6835938 1.97656,0 3.95312,-0.1347656 1.97656,-0.1796875 3.81836,-0.4492188 1.8418,-0.2695312 3.50391,-0.5839844 1.70703,-0.359375 3.14453,-0.7636718 v 6.4238281 q -3.18945,0.89843747 -7.23242,1.43749998 -3.99805,0.58398437 -8.31055,0.58398437 -5.79492,0 -9.97266,-1.57226562 -4.17773,-1.57226563 -6.87304,-4.53710933 -2.65039,-3.0097657 -3.95313,-7.3222658 -1.25781,-4.357422 -1.25781,-9.83789 0,-4.761719 1.34766,-8.984375 1.39257,-4.267579 3.99804,-7.457032 2.65039,-3.234375 6.46875,-5.121093 3.81836,-1.886719 8.66992,-1.886719 4.7168,0 8.35547,1.482422 3.63867,1.482422 6.10938,4.222656 2.51562,2.695312 3.77344,6.603516 1.30273,3.863281 1.30273,8.669921 z m -8.13086,-1.123046 q 0.13477,-3.009766 -0.58398,-5.480469 -0.71875,-2.515625 -2.2461,-4.3125 -1.48242,-1.796875 -3.72851,-2.785156 -2.2461,-1.033204 -5.21094,-1.033204 -2.56055,0 -4.67188,0.988282 -2.11132,0.988281 -3.63867,2.785156 -1.52734,1.796875 -2.4707,4.3125 -0.94336,2.515625 -1.16797,5.525391 z m 59.16211,2.695312 q 0,6.019531 -1.70703,10.511719 -1.66211,4.4921872 -4.62695,7.457031 -2.96485,2.9648437 -7.00782,4.44726562 -4.04297,1.48242188 -8.75976,1.48242188 -2.15625,0 -4.3125,-0.22460937 -2.11133,-0.22460938 -4.3125,-0.76367188 V 18.417969 h -7.81641 v -63.519531 h 6.96289 l 0.49414,7.546875 q 3.36914,-4.626954 7.1875,-6.46875 3.81836,-1.886719 8.26563,-1.886719 3.86328,0 6.7832,1.617187 2.91992,1.617188 4.89648,4.582032 1.97657,2.919921 2.96485,7.097656 0.98828,4.132812 0.98828,9.253906 z M 492.97266,-23 q 0,-3.548828 -0.53907,-6.513672 -0.49414,-2.964844 -1.61718,-5.076172 -1.12305,-2.111328 -2.875,-3.279297 -1.75196,-1.21289 -4.17774,-1.21289 -1.48242,0 -3.00976,0.49414 -1.52735,0.449219 -3.18946,1.572266 -1.61718,1.078125 -3.45898,2.919922 -1.79688,1.796875 -3.86328,4.492187 v 21.8769535 q 2.15625,0.8984375 4.53711,1.4375 2.38086,0.4941406 4.67187,0.4941406 6.33399,0 9.92774,-4.2675781 3.59375,-4.3125 3.59375,-12.9375 z"
       id="text19"
       style="font-size:92px;font-family:Consolas, Consolas_MSFontService, sans-serif"
       transform="matrix(1 0 0 1 3737.11 1983)"
       aria-label="Контроллер" /><path
       d="M 21.248047,-51.974609 H 7.7265625 v -6.738282 H 42.855469 v 6.738282 H 29.333984 V -6.828125 H 42.855469 V 0 H 7.7265625 V -6.828125 H 21.248047 Z M 95.863281,0 H 57.185547 V -7.0078125 L 72.369141,-22.101562 q 3.728515,-3.683594 6.064453,-6.378907 2.335937,-2.695312 3.638672,-4.896484 1.302734,-2.246094 1.751953,-4.222656 0.449218,-1.976563 0.449218,-4.267578 0,-2.15625 -0.583984,-4.087891 -0.583984,-1.976563 -1.796875,-3.458984 -1.212891,-1.482422 -3.144531,-2.335938 -1.931641,-0.853516 -4.626953,-0.853516 -3.728516,0 -6.783203,1.66211 -3.054688,1.662109 -5.615235,4.3125 l -4.3125,-5.166016 q 3.324219,-3.503906 7.636719,-5.615234 4.357422,-2.111328 10.107422,-2.111328 3.908203,0 7.097656,1.167968 3.234375,1.167969 5.570313,3.369141 2.335937,2.201172 3.59375,5.390625 1.302734,3.189453 1.302734,7.1875 0,3.369141 -0.898438,6.244141 -0.898437,2.875 -2.740234,5.75 -1.796875,2.830078 -4.582031,5.884765 -2.740235,3.054688 -6.513672,6.69336 L 67.337891,-7.4570312 h 28.52539 z m 49.998049,-2.2011719 q -7.05274,2.9199219 -14.7793,2.9199219 -12.44336,0 -19.13672,-7.4121094 -6.64843,-7.4570316 -6.64843,-22.0117186 0,-7.052734 1.84179,-12.757813 1.8418,-5.705078 5.25586,-9.658203 3.41406,-3.998047 8.26563,-6.154297 4.85156,-2.15625 10.87109,-2.15625 4.08789,0 7.5918,0.71875 3.5039,0.673829 6.73828,2.111329 v 7.861328 q -3.18946,-1.751953 -6.60352,-2.650391 -3.41406,-0.943359 -7.45703,-0.943359 -4.13281,0 -7.50195,1.572265 -3.32422,1.527344 -5.66016,4.492188 -2.33594,2.919922 -3.59375,7.1875 -1.25781,4.222656 -1.25781,9.658203 0,11.410156 4.62695,17.205078 4.62696,5.7949219 13.56641,5.7949219 3.77344,0 7.23242,-0.8535156 3.45898,-0.8984376 6.64844,-2.4707032 z"
       id="text20"
       style="font-size:92px;font-family:Consolas, Consolas_MSFontService, sans-serif"
       transform="matrix(1 0 0 1 3913.57 2093)"
       aria-label="I2C" /><path
       id="rect20"
       style="fill:#ffffff;stroke:#000000;stroke-width:6.875;stroke-miterlimit:8"
       d="m 2796.5,1723.5 h 645 v 569 h -645 z" /><path
       d="m 50.132812,0 h -8.714843 l -4.087891,-12.802734 h -24.4375 L 8.7597656,0 H 0.44921875 L 19.945312,-58.712891 H 30.90625 Z m -15.09375,-19.945312 -9.927734,-31.400391 -9.927734,31.400391 z m 61.183594,-20.798829 q 0,3.59375 -1.347656,7.142579 -1.347656,3.503906 -4.177734,6.289062 -2.830079,2.785156 -7.232422,4.537109 -4.402344,1.707032 -10.511719,1.707032 H 65.675781 V 0 h -7.996094 v -58.712891 h 16.53125 q 4.357422,0 8.355469,0.988282 3.998047,0.943359 7.007813,3.099609 3.054687,2.15625 4.851562,5.570313 1.796875,3.414062 1.796875,8.310546 z m -8.310547,0.359375 q 0,-5.660156 -3.728515,-8.669921 Q 80.5,-52.064453 73.851562,-52.064453 h -8.175781 v 24.167969 h 7.457031 q 7.097657,0 10.916016,-3.09961 3.863281,-3.099609 3.863281,-9.388672 z m 58.892581,22.820313 q 0,4.222656 -1.66211,7.501953 -1.61719,3.234375 -4.67188,5.4804688 -3.00976,2.2460937 -7.32226,3.4140625 Q 128.88086,0 123.625,0 h -15.36328 v -58.712891 h 16.80078 q 19.63086,0 19.63086,14.285157 0,4.761718 -2.29102,8.175781 -2.24609,3.414062 -7.36718,5.076172 2.38086,0.449219 4.49218,1.527344 2.15625,1.078125 3.77344,2.785156 1.61719,1.707031 2.56055,4.042969 0.94336,2.335937 0.94336,5.255859 z m -10.42188,-25.785156 q 0,-1.796875 -0.53906,-3.369141 -0.53906,-1.617187 -1.88672,-2.740234 -1.34766,-1.167969 -3.63867,-1.841797 -2.29102,-0.673828 -5.79492,-0.673828 h -8.26563 v 18.373047 h 7.9961 q 2.74023,0 4.9414,-0.583985 2.2461,-0.583984 3.81836,-1.796875 1.61719,-1.21289 2.4707,-3.009765 0.89844,-1.841797 0.89844,-4.357422 z m 1.93164,26.054687 q 0,-2.246094 -0.94336,-4.042969 -0.94336,-1.796875 -2.74023,-3.009765 -1.79688,-1.257813 -4.40234,-1.931641 -2.56055,-0.673828 -5.79493,-0.673828 h -8.17578 v 20.2148438 h 8.44532 q 6.87304,0 10.24218,-2.5605469 3.36914,-2.5605469 3.36914,-7.9960939 z"
       id="text21"
       style="font-size:92px;font-family:Consolas, Consolas_MSFontService, sans-serif"
       transform="matrix(1 0 0 1 3042.87 1983)"
       aria-label="APB" /><path
       d="m 50.132812,0 h -8.714843 l -4.087891,-12.802734 h -24.4375 L 8.7597656,0 H 0.44921875 L 19.945312,-58.712891 H 30.90625 Z m -15.09375,-19.945312 -9.927734,-31.400391 -9.927734,31.400391 z M 100.08594,0 H 89.978516 L 75.693359,-23.71875 61.363281,0 h -9.972656 l 19.541016,-30.007812 -17.96875,-28.705079 h 9.478515 l 13.431641,22.101563 13.521484,-22.101563 h 9.208985 l -18.013672,28.345704 z m 22.32617,-51.974609 h -13.52148 v -6.738282 h 35.1289 v 6.738282 h -13.52148 v 45.146484 h 13.52148 V 0 h -35.1289 v -6.828125 h 13.52148 z m 77.53516,38.992187 H 189.92969 V 0 h -7.9961 v -12.982422 h -28.25586 v -6.873047 l 25.02149,-38.857422 h 11.23047 v 38.857422 h 10.01758 z m -18.01368,-38.183594 -20.43945,31.310547 h 20.43945 z"
       id="text22"
       style="font-size:92px;font-family:Consolas, Consolas_MSFontService, sans-serif"
       transform="matrix(1 0 0 1 3017.67 2093)"
       aria-label="AXI4" /><path
       d="M1495.37 457.125 1572.37 457.125 1572.37 470.875 1495.37 470.875ZM1502.25 484.625 1461 464 1502.25 443.375ZM1565.5 443.375 1606.75 464 1565.5 484.625Z"
       id="path22" /><path
       d="M1495.37 1239.13 1572.37 1239.13 1572.37 1252.88 1495.37 1252.88ZM1502.25 1266.63 1461 1246 1502.25 1225.38ZM1565.5 1225.38 1606.75 1246 1565.5 1266.63Z"
       id="path23" /><path
       d="M1495.37 1986.13 1572.37 1986.13 1572.37 1999.88 1495.37 1999.88ZM1502.25 2013.63 1461 1993 1502.25 1972.38ZM1565.5 1972.38 1606.75 1993 1565.5 2013.63Z"
       id="path24" /><path
       d="M2646.38 457.125 2723.38 457.125 2723.38 470.875 2646.38 470.875ZM2653.25 484.625 2612 464 2653.25 443.375ZM2716.5 443.375 2757.75 464 2716.5 484.625Z"
       id="path25" /><path
       d="M2646.38 2009.13 2723.38 2009.13 2723.38 2022.88 2646.38 2022.88ZM2653.25 2036.63 2612 2016 2653.25 1995.38ZM2716.5 1995.38 2757.75 2016 2716.5 2036.63Z"
       id="path26" /><path
       d="M2646.38 1216.13 2723.38 1216.13 2723.38 1229.88 2646.38 1229.88ZM2653.25 1243.63 2612 1223 2653.25 1202.38ZM2716.5 1202.38 2757.75 1223 2716.5 1243.63Z"
       id="path27" /><path
       d="M3519.38 457.125 3596.38 457.125 3596.38 470.875 3519.38 470.875ZM3526.25 484.625 3485 464 3526.25 443.375ZM3589.5 443.375 3630.75 464 3589.5 484.625Z"
       id="path28" /><path
       d="M3519.38 2009.13 3596.38 2009.13 3596.38 2022.88 3519.38 2022.88ZM3526.25 2036.63 3485 2016 3526.25 1995.38ZM3589.5 1995.38 3630.75 2016 3589.5 2036.63Z"
       id="path29" /><path
       d="M3519.38 1216.13 3596.38 1216.13 3596.38 1229.88 3519.38 1229.88ZM3526.25 1243.63 3485 1223 3526.25 1202.38ZM3589.5 1202.38 3630.75 1223 3589.5 1243.63Z"
       id="path30" /></g></svg>
